<svg width="56" height="57" viewBox="0 0 56 57" fill="none" xmlns="http://www.w3.org/2000/svg">
<path opacity="0.2" d="M12.25 12.7502V24.8025C12.25 33.487 19.1963 40.6854 27.8806 40.7498C29.9589 40.7656 32.0198 40.3698 33.9444 39.5854C35.8691 38.801 37.6194 37.6434 39.0946 36.1793C40.5698 34.7153 41.7407 32.9737 42.5396 31.0551C43.3386 29.1364 43.75 27.0786 43.75 25.0002V12.7502C43.75 12.2861 43.5656 11.841 43.2374 11.5128C42.9092 11.1846 42.4641 11.0002 42 11.0002H14C13.5359 11.0002 13.0908 11.1846 12.7626 11.5128C12.4344 11.841 12.25 12.2861 12.25 12.7502Z" fill="#7534FF"/>
<path d="M12.25 12.7502V24.8025C12.25 33.487 19.1963 40.6854 27.8806 40.7498C29.9589 40.7656 32.0198 40.3698 33.9444 39.5854C35.8691 38.801 37.6194 37.6434 39.0946 36.1793C40.5698 34.7153 41.7407 32.9737 42.5396 31.0551C43.3386 29.1364 43.75 27.0786 43.75 25.0002V12.7502C43.75 12.2861 43.5656 11.841 43.2374 11.5128C42.9092 11.1846 42.4641 11.0002 42 11.0002H14C13.5359 11.0002 13.0908 11.1846 12.7626 11.5128C12.4344 11.841 12.25 12.2861 12.25 12.7502Z" stroke="#7534FF" stroke-width="3" stroke-linecap="round" stroke-linejoin="round"/>
<path d="M21 49.5002H35" stroke="#7534FF" stroke-width="3" stroke-linecap="round" stroke-linejoin="round"/>
<path d="M28 40.7498V49.4998" stroke="#7534FF" stroke-width="3" stroke-linecap="round" stroke-linejoin="round"/>
<path d="M43.3597 28.5H45.5001C47.3566 28.5 49.137 27.7625 50.4498 26.4497C51.7626 25.137 52.5001 23.3565 52.5001 21.5V18C52.5001 17.5359 52.3157 17.0908 51.9875 16.7626C51.6593 16.4344 51.2142 16.25 50.7501 16.25H43.7501" stroke="#7534FF" stroke-width="3" stroke-linecap="round" stroke-linejoin="round"/>
<path d="M12.6798 28.5H10.4723C8.61581 28.5 6.83533 27.7625 5.52258 26.4497C4.20982 25.137 3.47232 23.3565 3.47232 21.5V18C3.47232 17.5359 3.6567 17.0908 3.98489 16.7626C4.31308 16.4344 4.7582 16.25 5.22232 16.25H12.2223" stroke="#7534FF" stroke-width="3" stroke-linecap="round" stroke-linejoin="round"/>
</svg>
