<svg width="969" height="826" viewBox="0 0 969 826" fill="none" xmlns="http://www.w3.org/2000/svg">
<g clip-path="url(#clip0_324_4644)">
<path d="M41.3413 0H969V826H0L41.3413 0Z" fill="url(#paint0_linear_324_4644)"/>
<path opacity="0.24" d="M1236.27 -94.1641C1209.95 -93.1584 1152.27 -71.7949 1132.07 5.61358C1106.82 102.374 1161.22 183.865 1152.35 279.605C1145.79 350.269 1094.09 516.728 991.844 562.649" stroke="url(#paint1_linear_324_4644)"/>
<path opacity="0.24" d="M1197.83 -84.1046C1171.51 -83.0988 1113.83 -61.7353 1093.63 15.6732C1068.38 112.434 1122.78 193.924 1113.91 289.665C1107.36 360.329 1055.65 526.787 953.404 572.708" stroke="url(#paint2_linear_324_4644)"/>
<path opacity="0.24" d="M1159.14 -75.025C1132.82 -74.0193 1075.14 -52.6557 1054.94 24.7527C1029.69 121.513 1084.09 203.004 1075.22 298.745C1068.67 369.408 1016.96 535.867 914.715 581.788" stroke="url(#paint3_linear_324_4644)"/>
<path opacity="0.24" d="M1120.24 -66.9122C1093.92 -65.9065 1036.24 -44.5429 1016.04 32.8655C990.785 129.626 1045.19 211.117 1036.32 306.857C1029.76 377.521 978.057 543.98 875.812 589.901" stroke="url(#paint4_linear_324_4644)"/>
<path opacity="0.24" d="M1081.15 -59.8033C1054.83 -58.7976 997.142 -37.434 976.942 39.9744C951.691 136.735 1006.1 218.226 997.221 313.966C990.67 384.63 938.964 551.089 836.719 597.009" stroke="url(#paint5_linear_324_4644)"/>
<path opacity="0.24" d="M1041.88 -53.7569C1015.56 -52.7512 957.871 -31.3876 937.67 46.0208C912.42 142.781 966.826 224.272 957.95 320.013C951.398 390.677 899.692 557.135 797.447 603.056" stroke="url(#paint6_linear_324_4644)"/>
<path opacity="0.24" d="M1002.44 -48.8633C976.12 -47.8576 918.433 -26.4941 898.233 50.9144C872.982 147.675 927.389 229.165 918.512 324.906C911.961 395.57 860.255 562.029 758.01 607.949" stroke="url(#paint7_linear_324_4644)"/>
<path opacity="0.24" d="M962.864 -45.2457C936.546 -44.24 878.859 -22.8764 858.659 54.532C833.408 151.293 887.815 232.783 878.938 328.524C872.387 399.188 820.68 565.646 718.435 611.567" stroke="url(#paint8_linear_324_4644)"/>
<path opacity="0.24" d="M923.186 -43.0548C896.868 -42.049 839.182 -20.6855 818.981 56.723C793.73 153.484 848.137 234.974 839.26 330.715C832.709 401.379 781.003 567.837 678.758 613.758" stroke="url(#paint9_linear_324_4644)"/>
<path opacity="0.24" d="M883.454 -42.4776C857.136 -41.4719 799.449 -20.1083 779.249 57.3001C753.998 154.061 808.404 235.551 799.528 331.292C792.976 401.956 741.27 568.414 639.025 614.335" stroke="url(#paint10_linear_324_4644)"/>
<path opacity="0.24" d="M843.737 -43.7506C817.419 -42.7448 759.732 -21.3813 739.532 56.0272C714.281 152.788 768.688 234.278 759.811 330.019C753.26 400.683 701.553 567.141 599.309 613.062" stroke="url(#paint11_linear_324_4644)"/>
<path opacity="0.24" d="M804.147 -47.169C777.829 -46.1633 720.142 -24.7998 699.942 52.6087C674.691 149.369 729.098 230.86 720.221 326.601C713.67 397.264 661.964 563.723 559.719 609.644" stroke="url(#paint12_linear_324_4644)"/>
<path opacity="0.24" d="M764.854 -53.1002C738.536 -52.0945 680.849 -30.7309 660.649 46.6775C635.398 143.438 689.805 224.929 680.928 320.669C674.377 391.333 622.671 557.792 520.426 603.713" stroke="url(#paint13_linear_324_4644)"/>
<path opacity="0.24" d="M726.124 -61.9805C699.805 -60.9748 642.119 -39.6113 621.918 37.7972C596.668 134.558 651.074 216.048 642.198 311.789C635.646 382.453 583.94 548.911 481.695 594.832" stroke="url(#paint14_linear_324_4644)"/>
<path opacity="0.24" d="M688.352 -74.3336C662.034 -73.3278 604.348 -51.9643 584.147 25.4442C558.896 122.205 613.303 203.695 604.426 299.436C597.875 370.1 546.169 536.558 443.924 582.479" stroke="url(#paint15_linear_324_4644)"/>
<path opacity="0.24" d="M652.151 -90.7134C625.833 -89.7077 568.146 -68.3442 547.946 9.06427C522.695 105.825 577.102 187.315 568.225 283.056C561.674 353.72 509.968 520.178 407.723 566.099" stroke="url(#paint16_linear_324_4644)"/>
<path opacity="0.24" d="M618.358 -111.627C592.04 -110.621 534.353 -89.2573 514.153 -11.8488C488.902 84.9118 543.309 166.402 534.432 262.143C527.881 332.807 476.175 499.265 373.93 545.186" stroke="url(#paint17_linear_324_4644)"/>
<path opacity="0.24" d="M582.524 -141.89C556.206 -140.884 498.519 -119.521 478.319 -42.1125C453.068 54.6481 507.475 136.139 498.598 231.879C492.047 302.543 440.341 469.002 338.096 514.923" stroke="url(#paint18_linear_324_4644)"/>
<path opacity="0.24" d="M551.491 -166.711C525.173 -165.706 467.486 -144.342 447.286 -66.9338C422.035 29.8268 476.442 111.317 467.565 207.058C461.014 277.722 409.307 444.18 307.062 490.101" stroke="url(#paint19_linear_324_4644)"/>
<path opacity="0.24" d="M518.512 -188.881C492.194 -187.876 434.508 -166.512 414.307 -89.1037C389.057 7.65687 443.463 89.1474 434.587 184.888C428.035 255.552 376.329 422.01 274.084 467.931" stroke="url(#paint20_linear_324_4644)"/>
<path opacity="0.24" d="M483.821 -208.26C457.503 -207.255 399.816 -185.891 379.616 -108.483C354.365 -11.722 408.772 69.7685 399.895 165.509C393.344 236.173 341.637 402.632 239.393 448.552" stroke="url(#paint21_linear_324_4644)"/>
<path opacity="0.24" d="M447.676 -224.772C421.358 -223.766 363.672 -202.403 343.471 -124.994C318.221 -28.2338 372.627 53.2568 363.751 148.998C357.199 219.661 305.493 386.12 203.248 432.041" stroke="url(#paint22_linear_324_4644)"/>
<path opacity="0.24" d="M410.348 -238.399C384.03 -237.393 326.344 -216.03 306.143 -138.621C280.892 -41.8607 335.299 39.6298 326.422 135.371C319.871 206.034 268.165 372.493 165.92 418.414" stroke="url(#paint23_linear_324_4644)"/>
<path opacity="0.24" d="M372.106 -249.198C345.788 -248.192 288.101 -226.829 267.901 -149.42C242.65 -52.6595 297.057 28.831 288.18 124.572C281.629 195.236 229.923 361.694 127.678 407.615" stroke="url(#paint24_linear_324_4644)"/>
<path opacity="0.24" d="M333.192 -257.252C306.874 -256.246 249.187 -234.883 228.987 -157.474C203.736 -60.7137 258.143 20.7768 249.266 116.518C242.715 187.181 191.009 353.64 88.7636 399.561" stroke="url(#paint25_linear_324_4644)"/>
<path opacity="0.24" d="M293.833 -262.689C267.514 -261.683 209.828 -240.32 189.627 -162.911C164.377 -66.1507 218.783 15.3398 209.907 111.081C203.355 181.744 151.649 348.203 49.4042 394.124" stroke="url(#paint26_linear_324_4644)"/>
<path opacity="0.24" d="M254.2 -265.624C227.882 -264.618 170.195 -243.255 149.995 -165.846C124.744 -69.0858 179.15 12.4047 170.274 108.145C163.723 178.809 112.016 345.268 9.77142 391.189" stroke="url(#paint27_linear_324_4644)"/>
<path opacity="0.24" d="M214.465 -266.183C188.147 -265.177 130.461 -243.814 110.26 -166.405C85.0096 -69.6449 139.416 11.8456 130.54 107.586C123.988 178.25 72.282 344.709 -29.963 390.63" stroke="url(#paint28_linear_324_4644)"/>
<path opacity="0.24" d="M174.774 -264.46C148.456 -263.454 90.7694 -242.091 70.5689 -164.682C45.3182 -67.9217 99.7247 13.5688 90.8483 109.31C84.2968 179.973 32.5906 346.432 -69.6544 392.353" stroke="url(#paint29_linear_324_4644)"/>
</g>
<defs>
<linearGradient id="paint0_linear_324_4644" x1="999.754" y1="7.21269e-05" x2="23.656" y2="855.013" gradientUnits="userSpaceOnUse">
<stop stop-color="#141CA4"/>
<stop offset="1" stop-color="#061C3D"/>
</linearGradient>
<linearGradient id="paint1_linear_324_4644" x1="1217.79" y1="-99.6759" x2="1017.94" y2="570.431" gradientUnits="userSpaceOnUse">
<stop stop-color="white" stop-opacity="0.87"/>
<stop offset="1" stop-color="white" stop-opacity="0.24"/>
</linearGradient>
<linearGradient id="paint2_linear_324_4644" x1="1179.35" y1="-89.6163" x2="979.497" y2="580.49" gradientUnits="userSpaceOnUse">
<stop stop-color="white" stop-opacity="0.87"/>
<stop offset="1" stop-color="white" stop-opacity="0.24"/>
</linearGradient>
<linearGradient id="paint3_linear_324_4644" x1="1140.66" y1="-80.5368" x2="940.807" y2="589.57" gradientUnits="userSpaceOnUse">
<stop stop-color="white" stop-opacity="0.87"/>
<stop offset="1" stop-color="white" stop-opacity="0.24"/>
</linearGradient>
<linearGradient id="paint4_linear_324_4644" x1="1101.76" y1="-72.424" x2="901.905" y2="597.683" gradientUnits="userSpaceOnUse">
<stop stop-color="white" stop-opacity="0.87"/>
<stop offset="1" stop-color="white" stop-opacity="0.24"/>
</linearGradient>
<linearGradient id="paint5_linear_324_4644" x1="1062.67" y1="-65.3151" x2="862.811" y2="604.791" gradientUnits="userSpaceOnUse">
<stop stop-color="white" stop-opacity="0.87"/>
<stop offset="1" stop-color="white" stop-opacity="0.24"/>
</linearGradient>
<linearGradient id="paint6_linear_324_4644" x1="1023.39" y1="-59.2687" x2="823.54" y2="610.838" gradientUnits="userSpaceOnUse">
<stop stop-color="white" stop-opacity="0.87"/>
<stop offset="1" stop-color="white" stop-opacity="0.24"/>
</linearGradient>
<linearGradient id="paint7_linear_324_4644" x1="983.957" y1="-54.3751" x2="784.102" y2="615.731" gradientUnits="userSpaceOnUse">
<stop stop-color="white" stop-opacity="0.87"/>
<stop offset="1" stop-color="white" stop-opacity="0.24"/>
</linearGradient>
<linearGradient id="paint8_linear_324_4644" x1="944.383" y1="-50.7575" x2="744.528" y2="619.349" gradientUnits="userSpaceOnUse">
<stop stop-color="white" stop-opacity="0.87"/>
<stop offset="1" stop-color="white" stop-opacity="0.24"/>
</linearGradient>
<linearGradient id="paint9_linear_324_4644" x1="904.705" y1="-48.5665" x2="704.85" y2="621.54" gradientUnits="userSpaceOnUse">
<stop stop-color="white" stop-opacity="0.87"/>
<stop offset="1" stop-color="white" stop-opacity="0.24"/>
</linearGradient>
<linearGradient id="paint10_linear_324_4644" x1="864.973" y1="-47.9894" x2="665.118" y2="622.117" gradientUnits="userSpaceOnUse">
<stop stop-color="white" stop-opacity="0.87"/>
<stop offset="1" stop-color="white" stop-opacity="0.24"/>
</linearGradient>
<linearGradient id="paint11_linear_324_4644" x1="825.256" y1="-49.2623" x2="625.401" y2="620.844" gradientUnits="userSpaceOnUse">
<stop stop-color="white" stop-opacity="0.87"/>
<stop offset="1" stop-color="white" stop-opacity="0.24"/>
</linearGradient>
<linearGradient id="paint12_linear_324_4644" x1="785.666" y1="-52.6808" x2="585.811" y2="617.426" gradientUnits="userSpaceOnUse">
<stop stop-color="white" stop-opacity="0.87"/>
<stop offset="1" stop-color="white" stop-opacity="0.24"/>
</linearGradient>
<linearGradient id="paint13_linear_324_4644" x1="746.373" y1="-58.6119" x2="546.518" y2="611.495" gradientUnits="userSpaceOnUse">
<stop stop-color="white" stop-opacity="0.87"/>
<stop offset="1" stop-color="white" stop-opacity="0.24"/>
</linearGradient>
<linearGradient id="paint14_linear_324_4644" x1="707.643" y1="-67.4923" x2="507.788" y2="602.614" gradientUnits="userSpaceOnUse">
<stop stop-color="white" stop-opacity="0.87"/>
<stop offset="1" stop-color="white" stop-opacity="0.24"/>
</linearGradient>
<linearGradient id="paint15_linear_324_4644" x1="669.871" y1="-79.8453" x2="470.016" y2="590.261" gradientUnits="userSpaceOnUse">
<stop stop-color="white" stop-opacity="0.87"/>
<stop offset="1" stop-color="white" stop-opacity="0.24"/>
</linearGradient>
<linearGradient id="paint16_linear_324_4644" x1="633.67" y1="-96.2252" x2="433.815" y2="573.881" gradientUnits="userSpaceOnUse">
<stop stop-color="white" stop-opacity="0.87"/>
<stop offset="1" stop-color="white" stop-opacity="0.24"/>
</linearGradient>
<linearGradient id="paint17_linear_324_4644" x1="599.877" y1="-117.138" x2="400.022" y2="552.968" gradientUnits="userSpaceOnUse">
<stop stop-color="white" stop-opacity="0.87"/>
<stop offset="1" stop-color="white" stop-opacity="0.24"/>
</linearGradient>
<linearGradient id="paint18_linear_324_4644" x1="564.043" y1="-147.402" x2="364.188" y2="522.705" gradientUnits="userSpaceOnUse">
<stop stop-color="white" stop-opacity="0.87"/>
<stop offset="1" stop-color="white" stop-opacity="0.24"/>
</linearGradient>
<linearGradient id="paint19_linear_324_4644" x1="533.01" y1="-172.223" x2="333.155" y2="497.883" gradientUnits="userSpaceOnUse">
<stop stop-color="white" stop-opacity="0.87"/>
<stop offset="1" stop-color="white" stop-opacity="0.24"/>
</linearGradient>
<linearGradient id="paint20_linear_324_4644" x1="500.031" y1="-194.393" x2="300.176" y2="475.713" gradientUnits="userSpaceOnUse">
<stop stop-color="white" stop-opacity="0.87"/>
<stop offset="1" stop-color="white" stop-opacity="0.24"/>
</linearGradient>
<linearGradient id="paint21_linear_324_4644" x1="465.34" y1="-213.772" x2="265.485" y2="456.334" gradientUnits="userSpaceOnUse">
<stop stop-color="white" stop-opacity="0.87"/>
<stop offset="1" stop-color="white" stop-opacity="0.24"/>
</linearGradient>
<linearGradient id="paint22_linear_324_4644" x1="429.195" y1="-230.284" x2="229.341" y2="439.823" gradientUnits="userSpaceOnUse">
<stop stop-color="white" stop-opacity="0.87"/>
<stop offset="1" stop-color="white" stop-opacity="0.24"/>
</linearGradient>
<linearGradient id="paint23_linear_324_4644" x1="391.867" y1="-243.911" x2="192.012" y2="426.196" gradientUnits="userSpaceOnUse">
<stop stop-color="white" stop-opacity="0.87"/>
<stop offset="1" stop-color="white" stop-opacity="0.24"/>
</linearGradient>
<linearGradient id="paint24_linear_324_4644" x1="353.625" y1="-254.71" x2="153.77" y2="415.397" gradientUnits="userSpaceOnUse">
<stop stop-color="white" stop-opacity="0.87"/>
<stop offset="1" stop-color="white" stop-opacity="0.24"/>
</linearGradient>
<linearGradient id="paint25_linear_324_4644" x1="314.711" y1="-262.764" x2="114.856" y2="407.343" gradientUnits="userSpaceOnUse">
<stop stop-color="white" stop-opacity="0.87"/>
<stop offset="1" stop-color="white" stop-opacity="0.24"/>
</linearGradient>
<linearGradient id="paint26_linear_324_4644" x1="275.352" y1="-268.201" x2="75.4968" y2="401.906" gradientUnits="userSpaceOnUse">
<stop stop-color="white" stop-opacity="0.87"/>
<stop offset="1" stop-color="white" stop-opacity="0.24"/>
</linearGradient>
<linearGradient id="paint27_linear_324_4644" x1="235.719" y1="-271.136" x2="35.864" y2="398.971" gradientUnits="userSpaceOnUse">
<stop stop-color="white" stop-opacity="0.87"/>
<stop offset="1" stop-color="white" stop-opacity="0.24"/>
</linearGradient>
<linearGradient id="paint28_linear_324_4644" x1="195.985" y1="-271.695" x2="-3.87041" y2="398.412" gradientUnits="userSpaceOnUse">
<stop stop-color="white" stop-opacity="0.87"/>
<stop offset="1" stop-color="white" stop-opacity="0.24"/>
</linearGradient>
<linearGradient id="paint29_linear_324_4644" x1="156.293" y1="-269.972" x2="-43.5618" y2="400.135" gradientUnits="userSpaceOnUse">
<stop stop-color="white" stop-opacity="0.87"/>
<stop offset="1" stop-color="white" stop-opacity="0.24"/>
</linearGradient>
<clipPath id="clip0_324_4644">
<rect width="969" height="826" fill="white"/>
</clipPath>
</defs>
</svg>
