<svg width="337" height="270" viewBox="0 0 337 270" fill="none" xmlns="http://www.w3.org/2000/svg">
<path d="M150.057 3.54217C150.895 3.54217 151.573 2.92021 151.573 2.15298C151.573 1.38575 150.895 0.763794 150.057 0.763794C149.22 0.763794 148.542 1.38575 148.542 2.15298C148.542 2.92021 149.22 3.54217 150.057 3.54217Z" fill="#00CFFF"/>
<path d="M168.321 3.54217C169.158 3.54217 169.836 2.92021 169.836 2.15298C169.836 1.38575 169.158 0.763794 168.321 0.763794C167.483 0.763794 166.805 1.38575 166.805 2.15298C166.805 2.92021 167.483 3.54217 168.321 3.54217Z" fill="#00CFFF"/>
<path d="M186.585 3.54217C187.422 3.54217 188.101 2.92021 188.101 2.15298C188.101 1.38575 187.422 0.763794 186.585 0.763794C185.748 0.763794 185.069 1.38575 185.069 2.15298C185.069 2.92021 185.748 3.54217 186.585 3.54217Z" fill="#00CFFF"/>
<path d="M204.848 3.54217C205.685 3.54217 206.364 2.92021 206.364 2.15298C206.364 1.38575 205.685 0.763794 204.848 0.763794C204.011 0.763794 203.332 1.38575 203.332 2.15298C203.332 2.92021 204.011 3.54217 204.848 3.54217Z" fill="#00CFFF"/>
<path d="M1.51586 3.54217C2.35304 3.54217 3.03171 2.92021 3.03171 2.15298C3.03171 1.38575 2.35304 0.763794 1.51586 0.763794C0.678672 0.763794 0 1.38575 0 2.15298C0 2.92021 0.678672 3.54217 1.51586 3.54217Z" fill="#00CFFF"/>
<path d="M225.845 2.15297C225.845 2.42773 225.756 2.69631 225.589 2.92476C225.423 3.15321 225.186 3.33128 224.909 3.43642C224.632 3.54157 224.327 3.5691 224.033 3.51549C223.739 3.46189 223.469 3.32958 223.257 3.1353C223.045 2.94102 222.901 2.69347 222.842 2.42399C222.784 2.15452 222.814 1.8752 222.928 1.62136C223.043 1.36752 223.237 1.15058 223.487 0.997935C223.736 0.845289 224.029 0.763794 224.329 0.763794C224.731 0.763794 225.116 0.910157 225.401 1.17068C225.685 1.4312 225.845 1.78454 225.845 2.15297Z" fill="#00CFFF"/>
<path d="M21.2949 2.15297C21.2949 2.42773 21.206 2.69631 21.0394 2.92476C20.8729 3.15321 20.6361 3.33128 20.3591 3.43642C20.0822 3.54157 19.7774 3.5691 19.4833 3.51549C19.1893 3.46189 18.9192 3.32958 18.7072 3.1353C18.4952 2.94102 18.3508 2.69347 18.2923 2.42399C18.2338 2.15452 18.2638 1.8752 18.3786 1.62136C18.4933 1.36752 18.6876 1.15058 18.9369 0.997935C19.1862 0.845289 19.4792 0.763794 19.779 0.763794C20.1811 0.763794 20.5666 0.910157 20.8509 1.17068C21.1352 1.4312 21.2949 1.78454 21.2949 2.15297Z" fill="#00CFFF"/>
<path d="M242.592 3.54217C243.429 3.54217 244.108 2.92021 244.108 2.15298C244.108 1.38575 243.429 0.763794 242.592 0.763794C241.755 0.763794 241.076 1.38575 241.076 2.15298C241.076 2.92021 241.755 3.54217 242.592 3.54217Z" fill="#00CFFF"/>
<path d="M38.0422 3.54217C38.8794 3.54217 39.5581 2.92021 39.5581 2.15298C39.5581 1.38575 38.8794 0.763794 38.0422 0.763794C37.205 0.763794 36.5264 1.38575 36.5264 2.15298C36.5264 2.92021 37.205 3.54217 38.0422 3.54217Z" fill="#00CFFF"/>
<path d="M260.855 3.54217C261.692 3.54217 262.371 2.92021 262.371 2.15298C262.371 1.38575 261.692 0.763794 260.855 0.763794C260.018 0.763794 259.339 1.38575 259.339 2.15298C259.339 2.92021 260.018 3.54217 260.855 3.54217Z" fill="#00CFFF"/>
<path d="M57.5232 3.54217C58.3604 3.54217 59.039 2.92021 59.039 2.15298C59.039 1.38575 58.3604 0.763794 57.5232 0.763794C56.686 0.763794 56.0073 1.38575 56.0073 2.15298C56.0073 2.92021 56.686 3.54217 57.5232 3.54217Z" fill="#00CFFF"/>
<path d="M279.118 3.54217C279.956 3.54217 280.634 2.92021 280.634 2.15298C280.634 1.38575 279.956 0.763794 279.118 0.763794C278.281 0.763794 277.603 1.38575 277.603 2.15298C277.603 2.92021 278.281 3.54217 279.118 3.54217Z" fill="#00CFFF"/>
<path d="M75.7873 3.54217C76.6245 3.54217 77.3032 2.92021 77.3032 2.15298C77.3032 1.38575 76.6245 0.763794 75.7873 0.763794C74.9502 0.763794 74.2715 1.38575 74.2715 2.15298C74.2715 2.92021 74.9502 3.54217 75.7873 3.54217Z" fill="#00CFFF"/>
<path d="M298.599 3.54217C299.436 3.54217 300.115 2.92021 300.115 2.15298C300.115 1.38575 299.436 0.763794 298.599 0.763794C297.762 0.763794 297.083 1.38575 297.083 2.15298C297.083 2.92021 297.762 3.54217 298.599 3.54217Z" fill="#00CFFF"/>
<path d="M94.0505 3.54217C94.8877 3.54217 95.5664 2.92021 95.5664 2.15298C95.5664 1.38575 94.8877 0.763794 94.0505 0.763794C93.2133 0.763794 92.5347 1.38575 92.5347 2.15298C92.5347 2.92021 93.2133 3.54217 94.0505 3.54217Z" fill="#00CFFF"/>
<path d="M316.863 3.54217C317.7 3.54217 318.379 2.92021 318.379 2.15298C318.379 1.38575 317.7 0.763794 316.863 0.763794C316.026 0.763794 315.347 1.38575 315.347 2.15298C315.347 2.92021 316.026 3.54217 316.863 3.54217Z" fill="#00CFFF"/>
<path d="M112.314 3.54217C113.151 3.54217 113.83 2.92021 113.83 2.15298C113.83 1.38575 113.151 0.763794 112.314 0.763794C111.477 0.763794 110.798 1.38575 110.798 2.15298C110.798 2.92021 111.477 3.54217 112.314 3.54217Z" fill="#00CFFF"/>
<path d="M335.126 3.54217C335.963 3.54217 336.642 2.92021 336.642 2.15298C336.642 1.38575 335.963 0.763794 335.126 0.763794C334.289 0.763794 333.61 1.38575 333.61 2.15298C333.61 2.92021 334.289 3.54217 335.126 3.54217Z" fill="#00CFFF"/>
<path d="M131.794 3.54217C132.631 3.54217 133.31 2.92021 133.31 2.15298C133.31 1.38575 132.631 0.763794 131.794 0.763794C130.957 0.763794 130.278 1.38575 130.278 2.15298C130.278 2.92021 130.957 3.54217 131.794 3.54217Z" fill="#00CFFF"/>
<path d="M150.057 22.512C150.895 22.512 151.573 21.8901 151.573 21.1228C151.573 20.3556 150.895 19.7336 150.057 19.7336C149.22 19.7336 148.542 20.3556 148.542 21.1228C148.542 21.8901 149.22 22.512 150.057 22.512Z" fill="#00CFFF"/>
<path d="M168.321 22.512C169.158 22.512 169.836 21.8901 169.836 21.1228C169.836 20.3556 169.158 19.7336 168.321 19.7336C167.483 19.7336 166.805 20.3556 166.805 21.1228C166.805 21.8901 167.483 22.512 168.321 22.512Z" fill="#00CFFF"/>
<path d="M186.585 22.512C187.422 22.512 188.101 21.8901 188.101 21.1228C188.101 20.3556 187.422 19.7336 186.585 19.7336C185.748 19.7336 185.069 20.3556 185.069 21.1228C185.069 21.8901 185.748 22.512 186.585 22.512Z" fill="#00CFFF"/>
<path d="M204.848 22.512C205.685 22.512 206.364 21.8901 206.364 21.1228C206.364 20.3556 205.685 19.7336 204.848 19.7336C204.011 19.7336 203.332 20.3556 203.332 21.1228C203.332 21.8901 204.011 22.512 204.848 22.512Z" fill="#00CFFF"/>
<path d="M1.51586 22.512C2.35304 22.512 3.03171 21.8901 3.03171 21.1228C3.03171 20.3556 2.35304 19.7336 1.51586 19.7336C0.678672 19.7336 0 20.3556 0 21.1228C0 21.8901 0.678672 22.512 1.51586 22.512Z" fill="#00CFFF"/>
<path d="M225.845 21.1228C225.845 21.3976 225.756 21.6662 225.589 21.8946C225.423 22.1231 225.186 22.3011 224.909 22.4063C224.632 22.5114 224.327 22.5389 224.033 22.4853C223.739 22.4317 223.469 22.2994 223.257 22.1052C223.045 21.9109 222.901 21.6633 222.842 21.3938C222.784 21.1244 222.814 20.845 222.928 20.5912C223.043 20.3374 223.237 20.1204 223.487 19.9678C223.736 19.8151 224.029 19.7336 224.329 19.7336C224.731 19.7336 225.116 19.88 225.401 20.1405C225.685 20.4011 225.845 20.7544 225.845 21.1228Z" fill="#00CFFF"/>
<path d="M21.2949 21.1228C21.2949 21.3976 21.206 21.6662 21.0394 21.8946C20.8729 22.1231 20.6361 22.3011 20.3591 22.4063C20.0822 22.5114 19.7774 22.5389 19.4833 22.4853C19.1893 22.4317 18.9192 22.2994 18.7072 22.1052C18.4952 21.9109 18.3508 21.6633 18.2923 21.3938C18.2338 21.1244 18.2638 20.845 18.3786 20.5912C18.4933 20.3374 18.6876 20.1204 18.9369 19.9678C19.1862 19.8151 19.4792 19.7336 19.779 19.7336C20.1811 19.7336 20.5666 19.88 20.8509 20.1405C21.1352 20.4011 21.2949 20.7544 21.2949 21.1228Z" fill="#00CFFF"/>
<path d="M242.592 22.512C243.429 22.512 244.108 21.8901 244.108 21.1228C244.108 20.3556 243.429 19.7336 242.592 19.7336C241.755 19.7336 241.076 20.3556 241.076 21.1228C241.076 21.8901 241.755 22.512 242.592 22.512Z" fill="#00CFFF"/>
<path d="M38.0422 22.512C38.8794 22.512 39.5581 21.8901 39.5581 21.1228C39.5581 20.3556 38.8794 19.7336 38.0422 19.7336C37.205 19.7336 36.5264 20.3556 36.5264 21.1228C36.5264 21.8901 37.205 22.512 38.0422 22.512Z" fill="#00CFFF"/>
<path d="M260.855 22.512C261.692 22.512 262.371 21.8901 262.371 21.1228C262.371 20.3556 261.692 19.7336 260.855 19.7336C260.018 19.7336 259.339 20.3556 259.339 21.1228C259.339 21.8901 260.018 22.512 260.855 22.512Z" fill="#00CFFF"/>
<path d="M57.5232 22.512C58.3604 22.512 59.039 21.8901 59.039 21.1228C59.039 20.3556 58.3604 19.7336 57.5232 19.7336C56.686 19.7336 56.0073 20.3556 56.0073 21.1228C56.0073 21.8901 56.686 22.512 57.5232 22.512Z" fill="#00CFFF"/>
<path d="M279.118 22.512C279.956 22.512 280.634 21.8901 280.634 21.1228C280.634 20.3556 279.956 19.7336 279.118 19.7336C278.281 19.7336 277.603 20.3556 277.603 21.1228C277.603 21.8901 278.281 22.512 279.118 22.512Z" fill="#00CFFF"/>
<path d="M75.7873 22.512C76.6245 22.512 77.3032 21.8901 77.3032 21.1228C77.3032 20.3556 76.6245 19.7336 75.7873 19.7336C74.9502 19.7336 74.2715 20.3556 74.2715 21.1228C74.2715 21.8901 74.9502 22.512 75.7873 22.512Z" fill="#00CFFF"/>
<path d="M298.599 22.512C299.436 22.512 300.115 21.8901 300.115 21.1228C300.115 20.3556 299.436 19.7336 298.599 19.7336C297.762 19.7336 297.083 20.3556 297.083 21.1228C297.083 21.8901 297.762 22.512 298.599 22.512Z" fill="#00CFFF"/>
<path d="M94.0505 22.512C94.8877 22.512 95.5664 21.8901 95.5664 21.1228C95.5664 20.3556 94.8877 19.7336 94.0505 19.7336C93.2133 19.7336 92.5347 20.3556 92.5347 21.1228C92.5347 21.8901 93.2133 22.512 94.0505 22.512Z" fill="#00CFFF"/>
<path d="M316.863 22.512C317.7 22.512 318.379 21.8901 318.379 21.1228C318.379 20.3556 317.7 19.7336 316.863 19.7336C316.026 19.7336 315.347 20.3556 315.347 21.1228C315.347 21.8901 316.026 22.512 316.863 22.512Z" fill="#00CFFF"/>
<path d="M112.314 22.512C113.151 22.512 113.83 21.8901 113.83 21.1228C113.83 20.3556 113.151 19.7336 112.314 19.7336C111.477 19.7336 110.798 20.3556 110.798 21.1228C110.798 21.8901 111.477 22.512 112.314 22.512Z" fill="#00CFFF"/>
<path d="M335.126 22.512C335.963 22.512 336.642 21.8901 336.642 21.1228C336.642 20.3556 335.963 19.7336 335.126 19.7336C334.289 19.7336 333.61 20.3556 333.61 21.1228C333.61 21.8901 334.289 22.512 335.126 22.512Z" fill="#00CFFF"/>
<path d="M131.794 22.512C132.631 22.512 133.31 21.8901 133.31 21.1228C133.31 20.3556 132.631 19.7336 131.794 19.7336C130.957 19.7336 130.278 20.3556 130.278 21.1228C130.278 21.8901 130.957 22.512 131.794 22.512Z" fill="#00CFFF"/>
<path d="M150.057 41.478C150.895 41.478 151.573 40.856 151.573 40.0888C151.573 39.3215 150.895 38.6996 150.057 38.6996C149.22 38.6996 148.542 39.3215 148.542 40.0888C148.542 40.856 149.22 41.478 150.057 41.478Z" fill="#00CFFF"/>
<path d="M168.321 41.478C169.158 41.478 169.836 40.856 169.836 40.0888C169.836 39.3215 169.158 38.6996 168.321 38.6996C167.483 38.6996 166.805 39.3215 166.805 40.0888C166.805 40.856 167.483 41.478 168.321 41.478Z" fill="#00CFFF"/>
<path d="M186.585 41.478C187.422 41.478 188.101 40.856 188.101 40.0888C188.101 39.3215 187.422 38.6996 186.585 38.6996C185.748 38.6996 185.069 39.3215 185.069 40.0888C185.069 40.856 185.748 41.478 186.585 41.478Z" fill="#00CFFF"/>
<path d="M204.848 41.478C205.685 41.478 206.364 40.856 206.364 40.0888C206.364 39.3215 205.685 38.6996 204.848 38.6996C204.011 38.6996 203.332 39.3215 203.332 40.0888C203.332 40.856 204.011 41.478 204.848 41.478Z" fill="#00CFFF"/>
<path d="M1.51586 41.478C2.35304 41.478 3.03171 40.856 3.03171 40.0888C3.03171 39.3215 2.35304 38.6996 1.51586 38.6996C0.678672 38.6996 0 39.3215 0 40.0888C0 40.856 0.678672 41.478 1.51586 41.478Z" fill="#00CFFF"/>
<path d="M225.845 40.0888C225.845 40.3635 225.756 40.6321 225.589 40.8606C225.423 41.089 225.186 41.2671 224.909 41.3722C224.632 41.4774 224.327 41.5049 224.033 41.4513C223.739 41.3977 223.469 41.2654 223.257 41.0711C223.045 40.8768 222.901 40.6293 222.842 40.3598C222.784 40.0903 222.814 39.811 222.928 39.5571C223.043 39.3033 223.237 39.0864 223.487 38.9337C223.736 38.7811 224.029 38.6996 224.329 38.6996C224.731 38.6996 225.116 38.8459 225.401 39.1065C225.685 39.367 225.845 39.7203 225.845 40.0888Z" fill="#00CFFF"/>
<path d="M21.2949 40.0888C21.2949 40.3635 21.206 40.6321 21.0394 40.8606C20.8729 41.089 20.6361 41.2671 20.3591 41.3722C20.0822 41.4774 19.7774 41.5049 19.4833 41.4513C19.1893 41.3977 18.9192 41.2654 18.7072 41.0711C18.4952 40.8768 18.3508 40.6293 18.2923 40.3598C18.2338 40.0903 18.2638 39.811 18.3786 39.5571C18.4933 39.3033 18.6876 39.0864 18.9369 38.9337C19.1862 38.7811 19.4792 38.6996 19.779 38.6996C20.1811 38.6996 20.5666 38.8459 20.8509 39.1065C21.1352 39.367 21.2949 39.7203 21.2949 40.0888Z" fill="#00CFFF"/>
<path d="M242.592 41.478C243.429 41.478 244.108 40.856 244.108 40.0888C244.108 39.3215 243.429 38.6996 242.592 38.6996C241.755 38.6996 241.076 39.3215 241.076 40.0888C241.076 40.856 241.755 41.478 242.592 41.478Z" fill="#00CFFF"/>
<path d="M38.0422 41.478C38.8794 41.478 39.5581 40.856 39.5581 40.0888C39.5581 39.3215 38.8794 38.6996 38.0422 38.6996C37.205 38.6996 36.5264 39.3215 36.5264 40.0888C36.5264 40.856 37.205 41.478 38.0422 41.478Z" fill="#00CFFF"/>
<path d="M260.855 41.478C261.692 41.478 262.371 40.856 262.371 40.0888C262.371 39.3215 261.692 38.6996 260.855 38.6996C260.018 38.6996 259.339 39.3215 259.339 40.0888C259.339 40.856 260.018 41.478 260.855 41.478Z" fill="#00CFFF"/>
<path d="M57.5232 41.478C58.3604 41.478 59.039 40.856 59.039 40.0888C59.039 39.3215 58.3604 38.6996 57.5232 38.6996C56.686 38.6996 56.0073 39.3215 56.0073 40.0888C56.0073 40.856 56.686 41.478 57.5232 41.478Z" fill="#00CFFF"/>
<path d="M279.118 41.478C279.956 41.478 280.634 40.856 280.634 40.0888C280.634 39.3215 279.956 38.6996 279.118 38.6996C278.281 38.6996 277.603 39.3215 277.603 40.0888C277.603 40.856 278.281 41.478 279.118 41.478Z" fill="#00CFFF"/>
<path d="M75.7873 41.478C76.6245 41.478 77.3032 40.856 77.3032 40.0888C77.3032 39.3215 76.6245 38.6996 75.7873 38.6996C74.9502 38.6996 74.2715 39.3215 74.2715 40.0888C74.2715 40.856 74.9502 41.478 75.7873 41.478Z" fill="#00CFFF"/>
<path d="M298.599 41.478C299.436 41.478 300.115 40.856 300.115 40.0888C300.115 39.3215 299.436 38.6996 298.599 38.6996C297.762 38.6996 297.083 39.3215 297.083 40.0888C297.083 40.856 297.762 41.478 298.599 41.478Z" fill="#00CFFF"/>
<path d="M94.0505 41.478C94.8877 41.478 95.5664 40.856 95.5664 40.0888C95.5664 39.3215 94.8877 38.6996 94.0505 38.6996C93.2133 38.6996 92.5347 39.3215 92.5347 40.0888C92.5347 40.856 93.2133 41.478 94.0505 41.478Z" fill="#00CFFF"/>
<path d="M316.863 41.478C317.7 41.478 318.379 40.856 318.379 40.0888C318.379 39.3215 317.7 38.6996 316.863 38.6996C316.026 38.6996 315.347 39.3215 315.347 40.0888C315.347 40.856 316.026 41.478 316.863 41.478Z" fill="#00CFFF"/>
<path d="M112.314 41.478C113.151 41.478 113.83 40.856 113.83 40.0888C113.83 39.3215 113.151 38.6996 112.314 38.6996C111.477 38.6996 110.798 39.3215 110.798 40.0888C110.798 40.856 111.477 41.478 112.314 41.478Z" fill="#00CFFF"/>
<path d="M335.126 41.478C335.963 41.478 336.642 40.856 336.642 40.0888C336.642 39.3215 335.963 38.6996 335.126 38.6996C334.289 38.6996 333.61 39.3215 333.61 40.0888C333.61 40.856 334.289 41.478 335.126 41.478Z" fill="#00CFFF"/>
<path d="M131.794 41.478C132.631 41.478 133.31 40.856 133.31 40.0888C133.31 39.3215 132.631 38.6996 131.794 38.6996C130.957 38.6996 130.278 39.3215 130.278 40.0888C130.278 40.856 130.957 41.478 131.794 41.478Z" fill="#00CFFF"/>
<path d="M150.057 60.4478C150.895 60.4478 151.573 59.8258 151.573 59.0586C151.573 58.2914 150.895 57.6694 150.057 57.6694C149.22 57.6694 148.542 58.2914 148.542 59.0586C148.542 59.8258 149.22 60.4478 150.057 60.4478Z" fill="#00CFFF"/>
<path d="M168.321 60.4478C169.158 60.4478 169.836 59.8258 169.836 59.0586C169.836 58.2914 169.158 57.6694 168.321 57.6694C167.483 57.6694 166.805 58.2914 166.805 59.0586C166.805 59.8258 167.483 60.4478 168.321 60.4478Z" fill="#00CFFF"/>
<path d="M186.585 60.4478C187.422 60.4478 188.101 59.8258 188.101 59.0586C188.101 58.2914 187.422 57.6694 186.585 57.6694C185.748 57.6694 185.069 58.2914 185.069 59.0586C185.069 59.8258 185.748 60.4478 186.585 60.4478Z" fill="#00CFFF"/>
<path d="M204.848 60.4478C205.685 60.4478 206.364 59.8258 206.364 59.0586C206.364 58.2914 205.685 57.6694 204.848 57.6694C204.011 57.6694 203.332 58.2914 203.332 59.0586C203.332 59.8258 204.011 60.4478 204.848 60.4478Z" fill="#00CFFF"/>
<path d="M1.51586 60.4478C2.35304 60.4478 3.03171 59.8258 3.03171 59.0586C3.03171 58.2914 2.35304 57.6694 1.51586 57.6694C0.678672 57.6694 0 58.2914 0 59.0586C0 59.8258 0.678672 60.4478 1.51586 60.4478Z" fill="#00CFFF"/>
<path d="M225.845 59.0586C225.845 59.3334 225.756 59.602 225.589 59.8304C225.423 60.0589 225.186 60.2369 224.909 60.3421C224.632 60.4472 224.327 60.4747 224.033 60.4211C223.739 60.3675 223.469 60.2352 223.257 60.0409C223.045 59.8467 222.901 59.5991 222.842 59.3296C222.784 59.0602 222.814 58.7808 222.928 58.527C223.043 58.2732 223.237 58.0562 223.487 57.9036C223.736 57.7509 224.029 57.6694 224.329 57.6694C224.731 57.6694 225.116 57.8158 225.401 58.0763C225.685 58.3368 225.845 58.6902 225.845 59.0586Z" fill="#00CFFF"/>
<path d="M21.2949 59.0586C21.2949 59.3334 21.206 59.602 21.0394 59.8304C20.8729 60.0589 20.6361 60.2369 20.3591 60.3421C20.0822 60.4472 19.7774 60.4747 19.4833 60.4211C19.1893 60.3675 18.9192 60.2352 18.7072 60.0409C18.4952 59.8467 18.3508 59.5991 18.2923 59.3296C18.2338 59.0602 18.2638 58.7808 18.3786 58.527C18.4933 58.2732 18.6876 58.0562 18.9369 57.9036C19.1862 57.7509 19.4792 57.6694 19.779 57.6694C20.1811 57.6694 20.5666 57.8158 20.8509 58.0763C21.1352 58.3368 21.2949 58.6902 21.2949 59.0586Z" fill="#00CFFF"/>
<path d="M242.592 60.4478C243.429 60.4478 244.108 59.8258 244.108 59.0586C244.108 58.2914 243.429 57.6694 242.592 57.6694C241.755 57.6694 241.076 58.2914 241.076 59.0586C241.076 59.8258 241.755 60.4478 242.592 60.4478Z" fill="#00CFFF"/>
<path d="M38.0422 60.4478C38.8794 60.4478 39.5581 59.8258 39.5581 59.0586C39.5581 58.2914 38.8794 57.6694 38.0422 57.6694C37.205 57.6694 36.5264 58.2914 36.5264 59.0586C36.5264 59.8258 37.205 60.4478 38.0422 60.4478Z" fill="#00CFFF"/>
<path d="M260.855 60.4478C261.692 60.4478 262.371 59.8258 262.371 59.0586C262.371 58.2914 261.692 57.6694 260.855 57.6694C260.018 57.6694 259.339 58.2914 259.339 59.0586C259.339 59.8258 260.018 60.4478 260.855 60.4478Z" fill="#00CFFF"/>
<path d="M57.5232 60.4478C58.3604 60.4478 59.039 59.8258 59.039 59.0586C59.039 58.2914 58.3604 57.6694 57.5232 57.6694C56.686 57.6694 56.0073 58.2914 56.0073 59.0586C56.0073 59.8258 56.686 60.4478 57.5232 60.4478Z" fill="#00CFFF"/>
<path d="M279.118 60.4478C279.956 60.4478 280.634 59.8258 280.634 59.0586C280.634 58.2914 279.956 57.6694 279.118 57.6694C278.281 57.6694 277.603 58.2914 277.603 59.0586C277.603 59.8258 278.281 60.4478 279.118 60.4478Z" fill="#00CFFF"/>
<path d="M75.7873 60.4478C76.6245 60.4478 77.3032 59.8258 77.3032 59.0586C77.3032 58.2914 76.6245 57.6694 75.7873 57.6694C74.9502 57.6694 74.2715 58.2914 74.2715 59.0586C74.2715 59.8258 74.9502 60.4478 75.7873 60.4478Z" fill="#00CFFF"/>
<path d="M298.599 60.4478C299.436 60.4478 300.115 59.8258 300.115 59.0586C300.115 58.2914 299.436 57.6694 298.599 57.6694C297.762 57.6694 297.083 58.2914 297.083 59.0586C297.083 59.8258 297.762 60.4478 298.599 60.4478Z" fill="#00CFFF"/>
<path d="M94.0505 60.4478C94.8877 60.4478 95.5664 59.8258 95.5664 59.0586C95.5664 58.2914 94.8877 57.6694 94.0505 57.6694C93.2133 57.6694 92.5347 58.2914 92.5347 59.0586C92.5347 59.8258 93.2133 60.4478 94.0505 60.4478Z" fill="#00CFFF"/>
<path d="M316.863 60.4478C317.7 60.4478 318.379 59.8258 318.379 59.0586C318.379 58.2914 317.7 57.6694 316.863 57.6694C316.026 57.6694 315.347 58.2914 315.347 59.0586C315.347 59.8258 316.026 60.4478 316.863 60.4478Z" fill="#00CFFF"/>
<path d="M112.314 60.4478C113.151 60.4478 113.83 59.8258 113.83 59.0586C113.83 58.2914 113.151 57.6694 112.314 57.6694C111.477 57.6694 110.798 58.2914 110.798 59.0586C110.798 59.8258 111.477 60.4478 112.314 60.4478Z" fill="#00CFFF"/>
<path d="M335.126 60.4478C335.963 60.4478 336.642 59.8258 336.642 59.0586C336.642 58.2914 335.963 57.6694 335.126 57.6694C334.289 57.6694 333.61 58.2914 333.61 59.0586C333.61 59.8258 334.289 60.4478 335.126 60.4478Z" fill="#00CFFF"/>
<path d="M131.794 60.4478C132.631 60.4478 133.31 59.8258 133.31 59.0586C133.31 58.2914 132.631 57.6694 131.794 57.6694C130.957 57.6694 130.278 58.2914 130.278 59.0586C130.278 59.8258 130.957 60.4478 131.794 60.4478Z" fill="#00CFFF"/>
<path d="M150.057 79.4177C150.895 79.4177 151.573 78.7957 151.573 78.0285C151.573 77.2612 150.895 76.6393 150.057 76.6393C149.22 76.6393 148.542 77.2612 148.542 78.0285C148.542 78.7957 149.22 79.4177 150.057 79.4177Z" fill="#00CFFF"/>
<path d="M168.321 79.4177C169.158 79.4177 169.836 78.7957 169.836 78.0285C169.836 77.2612 169.158 76.6393 168.321 76.6393C167.483 76.6393 166.805 77.2612 166.805 78.0285C166.805 78.7957 167.483 79.4177 168.321 79.4177Z" fill="#00CFFF"/>
<path d="M186.585 79.4177C187.422 79.4177 188.101 78.7957 188.101 78.0285C188.101 77.2612 187.422 76.6393 186.585 76.6393C185.748 76.6393 185.069 77.2612 185.069 78.0285C185.069 78.7957 185.748 79.4177 186.585 79.4177Z" fill="#00CFFF"/>
<path d="M204.848 79.4177C205.685 79.4177 206.364 78.7957 206.364 78.0285C206.364 77.2612 205.685 76.6393 204.848 76.6393C204.011 76.6393 203.332 77.2612 203.332 78.0285C203.332 78.7957 204.011 79.4177 204.848 79.4177Z" fill="#00CFFF"/>
<path d="M1.51586 79.4177C2.35304 79.4177 3.03171 78.7957 3.03171 78.0285C3.03171 77.2612 2.35304 76.6393 1.51586 76.6393C0.678672 76.6393 0 77.2612 0 78.0285C0 78.7957 0.678672 79.4177 1.51586 79.4177Z" fill="#00CFFF"/>
<path d="M225.845 78.0285C225.845 78.3032 225.756 78.5718 225.589 78.8002C225.423 79.0287 225.186 79.2068 224.909 79.3119C224.632 79.4171 224.327 79.4446 224.033 79.391C223.739 79.3374 223.469 79.2051 223.257 79.0108C223.045 78.8165 222.901 78.569 222.842 78.2995C222.784 78.03 222.814 77.7507 222.928 77.4968C223.043 77.243 223.237 77.0261 223.487 76.8734C223.736 76.7208 224.029 76.6393 224.329 76.6393C224.731 76.6393 225.116 76.7856 225.401 77.0462C225.685 77.3067 225.845 77.66 225.845 78.0285Z" fill="#00CFFF"/>
<path d="M21.2949 78.0285C21.2949 78.3032 21.206 78.5718 21.0394 78.8002C20.8729 79.0287 20.6361 79.2068 20.3591 79.3119C20.0822 79.4171 19.7774 79.4446 19.4833 79.391C19.1893 79.3374 18.9192 79.2051 18.7072 79.0108C18.4952 78.8165 18.3508 78.569 18.2923 78.2995C18.2338 78.03 18.2638 77.7507 18.3786 77.4968C18.4933 77.243 18.6876 77.0261 18.9369 76.8734C19.1862 76.7208 19.4792 76.6393 19.779 76.6393C20.1811 76.6393 20.5666 76.7856 20.8509 77.0462C21.1352 77.3067 21.2949 77.66 21.2949 78.0285Z" fill="#00CFFF"/>
<path d="M242.592 79.4177C243.429 79.4177 244.108 78.7957 244.108 78.0285C244.108 77.2612 243.429 76.6393 242.592 76.6393C241.755 76.6393 241.076 77.2612 241.076 78.0285C241.076 78.7957 241.755 79.4177 242.592 79.4177Z" fill="#00CFFF"/>
<path d="M38.0422 79.4177C38.8794 79.4177 39.5581 78.7957 39.5581 78.0285C39.5581 77.2612 38.8794 76.6393 38.0422 76.6393C37.205 76.6393 36.5264 77.2612 36.5264 78.0285C36.5264 78.7957 37.205 79.4177 38.0422 79.4177Z" fill="#00CFFF"/>
<path d="M260.855 79.4177C261.692 79.4177 262.371 78.7957 262.371 78.0285C262.371 77.2612 261.692 76.6393 260.855 76.6393C260.018 76.6393 259.339 77.2612 259.339 78.0285C259.339 78.7957 260.018 79.4177 260.855 79.4177Z" fill="#00CFFF"/>
<path d="M57.5232 79.4177C58.3604 79.4177 59.039 78.7957 59.039 78.0285C59.039 77.2612 58.3604 76.6393 57.5232 76.6393C56.686 76.6393 56.0073 77.2612 56.0073 78.0285C56.0073 78.7957 56.686 79.4177 57.5232 79.4177Z" fill="#00CFFF"/>
<path d="M279.118 79.4177C279.956 79.4177 280.634 78.7957 280.634 78.0285C280.634 77.2612 279.956 76.6393 279.118 76.6393C278.281 76.6393 277.603 77.2612 277.603 78.0285C277.603 78.7957 278.281 79.4177 279.118 79.4177Z" fill="#00CFFF"/>
<path d="M75.7873 79.4177C76.6245 79.4177 77.3032 78.7957 77.3032 78.0285C77.3032 77.2612 76.6245 76.6393 75.7873 76.6393C74.9502 76.6393 74.2715 77.2612 74.2715 78.0285C74.2715 78.7957 74.9502 79.4177 75.7873 79.4177Z" fill="#00CFFF"/>
<path d="M298.599 79.4177C299.436 79.4177 300.115 78.7957 300.115 78.0285C300.115 77.2612 299.436 76.6393 298.599 76.6393C297.762 76.6393 297.083 77.2612 297.083 78.0285C297.083 78.7957 297.762 79.4177 298.599 79.4177Z" fill="#00CFFF"/>
<path d="M94.0505 79.4177C94.8877 79.4177 95.5664 78.7957 95.5664 78.0285C95.5664 77.2612 94.8877 76.6393 94.0505 76.6393C93.2133 76.6393 92.5347 77.2612 92.5347 78.0285C92.5347 78.7957 93.2133 79.4177 94.0505 79.4177Z" fill="#00CFFF"/>
<path d="M316.863 79.4177C317.7 79.4177 318.379 78.7957 318.379 78.0285C318.379 77.2612 317.7 76.6393 316.863 76.6393C316.026 76.6393 315.347 77.2612 315.347 78.0285C315.347 78.7957 316.026 79.4177 316.863 79.4177Z" fill="#00CFFF"/>
<path d="M112.314 79.4177C113.151 79.4177 113.83 78.7957 113.83 78.0285C113.83 77.2612 113.151 76.6393 112.314 76.6393C111.477 76.6393 110.798 77.2612 110.798 78.0285C110.798 78.7957 111.477 79.4177 112.314 79.4177Z" fill="#00CFFF"/>
<path d="M335.126 79.4177C335.963 79.4177 336.642 78.7957 336.642 78.0285C336.642 77.2612 335.963 76.6393 335.126 76.6393C334.289 76.6393 333.61 77.2612 333.61 78.0285C333.61 78.7957 334.289 79.4177 335.126 79.4177Z" fill="#00CFFF"/>
<path d="M131.794 79.4177C132.631 79.4177 133.31 78.7957 133.31 78.0285C133.31 77.2612 132.631 76.6393 131.794 76.6393C130.957 76.6393 130.278 77.2612 130.278 78.0285C130.278 78.7957 130.957 79.4177 131.794 79.4177Z" fill="#00CFFF"/>
<path d="M150.057 98.3875C150.895 98.3875 151.573 97.7655 151.573 96.9983C151.573 96.2311 150.895 95.6091 150.057 95.6091C149.22 95.6091 148.542 96.2311 148.542 96.9983C148.542 97.7655 149.22 98.3875 150.057 98.3875Z" fill="#00CFFF"/>
<path d="M168.321 98.3875C169.158 98.3875 169.836 97.7655 169.836 96.9983C169.836 96.2311 169.158 95.6091 168.321 95.6091C167.483 95.6091 166.805 96.2311 166.805 96.9983C166.805 97.7655 167.483 98.3875 168.321 98.3875Z" fill="#00CFFF"/>
<path d="M186.585 98.3875C187.422 98.3875 188.101 97.7655 188.101 96.9983C188.101 96.2311 187.422 95.6091 186.585 95.6091C185.748 95.6091 185.069 96.2311 185.069 96.9983C185.069 97.7655 185.748 98.3875 186.585 98.3875Z" fill="#00CFFF"/>
<path d="M204.848 98.3875C205.685 98.3875 206.364 97.7655 206.364 96.9983C206.364 96.2311 205.685 95.6091 204.848 95.6091C204.011 95.6091 203.332 96.2311 203.332 96.9983C203.332 97.7655 204.011 98.3875 204.848 98.3875Z" fill="#00CFFF"/>
<path d="M1.51586 98.3875C2.35304 98.3875 3.03171 97.7655 3.03171 96.9983C3.03171 96.2311 2.35304 95.6091 1.51586 95.6091C0.678672 95.6091 0 96.2311 0 96.9983C0 97.7655 0.678672 98.3875 1.51586 98.3875Z" fill="#00CFFF"/>
<path d="M225.845 96.9983C225.845 97.2731 225.756 97.5416 225.589 97.7701C225.423 97.9985 225.186 98.1766 224.909 98.2818C224.632 98.3869 224.327 98.4144 224.033 98.3608C223.739 98.3072 223.469 98.1749 223.257 97.9806C223.045 97.7864 222.901 97.5388 222.842 97.2693C222.784 96.9999 222.814 96.7205 222.928 96.4667C223.043 96.2129 223.237 95.9959 223.487 95.8433C223.736 95.6906 224.029 95.6091 224.329 95.6091C224.731 95.6091 225.116 95.7555 225.401 96.016C225.685 96.2765 225.845 96.6299 225.845 96.9983Z" fill="#00CFFF"/>
<path d="M21.2949 96.9983C21.2949 97.2731 21.206 97.5416 21.0394 97.7701C20.8729 97.9985 20.6361 98.1766 20.3591 98.2818C20.0822 98.3869 19.7774 98.4144 19.4833 98.3608C19.1893 98.3072 18.9192 98.1749 18.7072 97.9806C18.4952 97.7864 18.3508 97.5388 18.2923 97.2693C18.2338 96.9999 18.2638 96.7205 18.3786 96.4667C18.4933 96.2129 18.6876 95.9959 18.9369 95.8433C19.1862 95.6906 19.4792 95.6091 19.779 95.6091C20.1811 95.6091 20.5666 95.7555 20.8509 96.016C21.1352 96.2765 21.2949 96.6299 21.2949 96.9983Z" fill="#00CFFF"/>
<path d="M242.592 98.3875C243.429 98.3875 244.108 97.7655 244.108 96.9983C244.108 96.2311 243.429 95.6091 242.592 95.6091C241.755 95.6091 241.076 96.2311 241.076 96.9983C241.076 97.7655 241.755 98.3875 242.592 98.3875Z" fill="#00CFFF"/>
<path d="M38.0422 98.3875C38.8794 98.3875 39.5581 97.7655 39.5581 96.9983C39.5581 96.2311 38.8794 95.6091 38.0422 95.6091C37.205 95.6091 36.5264 96.2311 36.5264 96.9983C36.5264 97.7655 37.205 98.3875 38.0422 98.3875Z" fill="#00CFFF"/>
<path d="M260.855 98.3875C261.692 98.3875 262.371 97.7655 262.371 96.9983C262.371 96.2311 261.692 95.6091 260.855 95.6091C260.018 95.6091 259.339 96.2311 259.339 96.9983C259.339 97.7655 260.018 98.3875 260.855 98.3875Z" fill="#00CFFF"/>
<path d="M57.5232 98.3875C58.3604 98.3875 59.039 97.7655 59.039 96.9983C59.039 96.2311 58.3604 95.6091 57.5232 95.6091C56.686 95.6091 56.0073 96.2311 56.0073 96.9983C56.0073 97.7655 56.686 98.3875 57.5232 98.3875Z" fill="#00CFFF"/>
<path d="M279.118 98.3875C279.956 98.3875 280.634 97.7655 280.634 96.9983C280.634 96.2311 279.956 95.6091 279.118 95.6091C278.281 95.6091 277.603 96.2311 277.603 96.9983C277.603 97.7655 278.281 98.3875 279.118 98.3875Z" fill="#00CFFF"/>
<path d="M75.7873 98.3875C76.6245 98.3875 77.3032 97.7655 77.3032 96.9983C77.3032 96.2311 76.6245 95.6091 75.7873 95.6091C74.9502 95.6091 74.2715 96.2311 74.2715 96.9983C74.2715 97.7655 74.9502 98.3875 75.7873 98.3875Z" fill="#00CFFF"/>
<path d="M298.599 98.3875C299.436 98.3875 300.115 97.7655 300.115 96.9983C300.115 96.2311 299.436 95.6091 298.599 95.6091C297.762 95.6091 297.083 96.2311 297.083 96.9983C297.083 97.7655 297.762 98.3875 298.599 98.3875Z" fill="#00CFFF"/>
<path d="M94.0505 98.3875C94.8877 98.3875 95.5664 97.7655 95.5664 96.9983C95.5664 96.2311 94.8877 95.6091 94.0505 95.6091C93.2133 95.6091 92.5347 96.2311 92.5347 96.9983C92.5347 97.7655 93.2133 98.3875 94.0505 98.3875Z" fill="#00CFFF"/>
<path d="M316.863 98.3875C317.7 98.3875 318.379 97.7655 318.379 96.9983C318.379 96.2311 317.7 95.6091 316.863 95.6091C316.026 95.6091 315.347 96.2311 315.347 96.9983C315.347 97.7655 316.026 98.3875 316.863 98.3875Z" fill="#00CFFF"/>
<path d="M112.314 98.3875C113.151 98.3875 113.83 97.7655 113.83 96.9983C113.83 96.2311 113.151 95.6091 112.314 95.6091C111.477 95.6091 110.798 96.2311 110.798 96.9983C110.798 97.7655 111.477 98.3875 112.314 98.3875Z" fill="#00CFFF"/>
<path d="M335.126 98.3875C335.963 98.3875 336.642 97.7655 336.642 96.9983C336.642 96.2311 335.963 95.6091 335.126 95.6091C334.289 95.6091 333.61 96.2311 333.61 96.9983C333.61 97.7655 334.289 98.3875 335.126 98.3875Z" fill="#00CFFF"/>
<path d="M131.794 98.3875C132.631 98.3875 133.31 97.7655 133.31 96.9983C133.31 96.2311 132.631 95.6091 131.794 95.6091C130.957 95.6091 130.278 96.2311 130.278 96.9983C130.278 97.7655 130.957 98.3875 131.794 98.3875Z" fill="#00CFFF"/>
<path d="M150.057 117.353C150.895 117.353 151.573 116.731 151.573 115.964C151.573 115.197 150.895 114.575 150.057 114.575C149.22 114.575 148.542 115.197 148.542 115.964C148.542 116.731 149.22 117.353 150.057 117.353Z" fill="#00CFFF"/>
<path d="M168.321 117.353C169.158 117.353 169.836 116.731 169.836 115.964C169.836 115.197 169.158 114.575 168.321 114.575C167.483 114.575 166.805 115.197 166.805 115.964C166.805 116.731 167.483 117.353 168.321 117.353Z" fill="#00CFFF"/>
<path d="M186.585 117.353C187.422 117.353 188.101 116.731 188.101 115.964C188.101 115.197 187.422 114.575 186.585 114.575C185.748 114.575 185.069 115.197 185.069 115.964C185.069 116.731 185.748 117.353 186.585 117.353Z" fill="#00CFFF"/>
<path d="M204.848 117.353C205.685 117.353 206.364 116.731 206.364 115.964C206.364 115.197 205.685 114.575 204.848 114.575C204.011 114.575 203.332 115.197 203.332 115.964C203.332 116.731 204.011 117.353 204.848 117.353Z" fill="#00CFFF"/>
<path d="M1.51586 117.353C2.35304 117.353 3.03171 116.731 3.03171 115.964C3.03171 115.197 2.35304 114.575 1.51586 114.575C0.678672 114.575 0 115.197 0 115.964C0 116.731 0.678672 117.353 1.51586 117.353Z" fill="#00CFFF"/>
<path d="M225.845 115.964C225.845 116.239 225.756 116.508 225.589 116.736C225.423 116.964 225.186 117.143 224.909 117.248C224.632 117.353 224.327 117.38 224.033 117.327C223.739 117.273 223.469 117.141 223.257 116.947C223.045 116.752 222.901 116.505 222.842 116.235C222.784 115.966 222.814 115.686 222.928 115.433C223.043 115.179 223.237 114.962 223.487 114.809C223.736 114.657 224.029 114.575 224.329 114.575C224.731 114.575 225.116 114.721 225.401 114.982C225.685 115.242 225.845 115.596 225.845 115.964Z" fill="#00CFFF"/>
<path d="M21.2949 115.964C21.2949 116.239 21.206 116.508 21.0394 116.736C20.8729 116.964 20.6361 117.143 20.3591 117.248C20.0822 117.353 19.7774 117.38 19.4833 117.327C19.1893 117.273 18.9192 117.141 18.7072 116.947C18.4952 116.752 18.3508 116.505 18.2923 116.235C18.2338 115.966 18.2638 115.686 18.3786 115.433C18.4933 115.179 18.6876 114.962 18.9369 114.809C19.1862 114.657 19.4792 114.575 19.779 114.575C20.1811 114.575 20.5666 114.721 20.8509 114.982C21.1352 115.242 21.2949 115.596 21.2949 115.964Z" fill="#00CFFF"/>
<path d="M242.592 117.353C243.429 117.353 244.108 116.731 244.108 115.964C244.108 115.197 243.429 114.575 242.592 114.575C241.755 114.575 241.076 115.197 241.076 115.964C241.076 116.731 241.755 117.353 242.592 117.353Z" fill="#00CFFF"/>
<path d="M38.0422 117.353C38.8794 117.353 39.5581 116.731 39.5581 115.964C39.5581 115.197 38.8794 114.575 38.0422 114.575C37.205 114.575 36.5264 115.197 36.5264 115.964C36.5264 116.731 37.205 117.353 38.0422 117.353Z" fill="#00CFFF"/>
<path d="M260.855 117.353C261.692 117.353 262.371 116.731 262.371 115.964C262.371 115.197 261.692 114.575 260.855 114.575C260.018 114.575 259.339 115.197 259.339 115.964C259.339 116.731 260.018 117.353 260.855 117.353Z" fill="#00CFFF"/>
<path d="M57.5232 117.353C58.3604 117.353 59.039 116.731 59.039 115.964C59.039 115.197 58.3604 114.575 57.5232 114.575C56.686 114.575 56.0073 115.197 56.0073 115.964C56.0073 116.731 56.686 117.353 57.5232 117.353Z" fill="#00CFFF"/>
<path d="M279.118 117.353C279.956 117.353 280.634 116.731 280.634 115.964C280.634 115.197 279.956 114.575 279.118 114.575C278.281 114.575 277.603 115.197 277.603 115.964C277.603 116.731 278.281 117.353 279.118 117.353Z" fill="#00CFFF"/>
<path d="M75.7873 117.353C76.6245 117.353 77.3032 116.731 77.3032 115.964C77.3032 115.197 76.6245 114.575 75.7873 114.575C74.9502 114.575 74.2715 115.197 74.2715 115.964C74.2715 116.731 74.9502 117.353 75.7873 117.353Z" fill="#00CFFF"/>
<path d="M298.599 117.353C299.436 117.353 300.115 116.731 300.115 115.964C300.115 115.197 299.436 114.575 298.599 114.575C297.762 114.575 297.083 115.197 297.083 115.964C297.083 116.731 297.762 117.353 298.599 117.353Z" fill="#00CFFF"/>
<path d="M94.0505 117.353C94.8877 117.353 95.5664 116.731 95.5664 115.964C95.5664 115.197 94.8877 114.575 94.0505 114.575C93.2133 114.575 92.5347 115.197 92.5347 115.964C92.5347 116.731 93.2133 117.353 94.0505 117.353Z" fill="#00CFFF"/>
<path d="M316.863 117.353C317.7 117.353 318.379 116.731 318.379 115.964C318.379 115.197 317.7 114.575 316.863 114.575C316.026 114.575 315.347 115.197 315.347 115.964C315.347 116.731 316.026 117.353 316.863 117.353Z" fill="#00CFFF"/>
<path d="M112.314 117.353C113.151 117.353 113.83 116.731 113.83 115.964C113.83 115.197 113.151 114.575 112.314 114.575C111.477 114.575 110.798 115.197 110.798 115.964C110.798 116.731 111.477 117.353 112.314 117.353Z" fill="#00CFFF"/>
<path d="M335.126 117.353C335.963 117.353 336.642 116.731 336.642 115.964C336.642 115.197 335.963 114.575 335.126 114.575C334.289 114.575 333.61 115.197 333.61 115.964C333.61 116.731 334.289 117.353 335.126 117.353Z" fill="#00CFFF"/>
<path d="M131.794 117.353C132.631 117.353 133.31 116.731 133.31 115.964C133.31 115.197 132.631 114.575 131.794 114.575C130.957 114.575 130.278 115.197 130.278 115.964C130.278 116.731 130.957 117.353 131.794 117.353Z" fill="#00CFFF"/>
<path d="M150.057 136.323C150.895 136.323 151.573 135.701 151.573 134.934C151.573 134.167 150.895 133.545 150.057 133.545C149.22 133.545 148.542 134.167 148.542 134.934C148.542 135.701 149.22 136.323 150.057 136.323Z" fill="#00CFFF"/>
<path d="M168.321 136.323C169.158 136.323 169.836 135.701 169.836 134.934C169.836 134.167 169.158 133.545 168.321 133.545C167.483 133.545 166.805 134.167 166.805 134.934C166.805 135.701 167.483 136.323 168.321 136.323Z" fill="#00CFFF"/>
<path d="M186.585 136.323C187.422 136.323 188.101 135.701 188.101 134.934C188.101 134.167 187.422 133.545 186.585 133.545C185.748 133.545 185.069 134.167 185.069 134.934C185.069 135.701 185.748 136.323 186.585 136.323Z" fill="#00CFFF"/>
<path d="M204.848 136.323C205.685 136.323 206.364 135.701 206.364 134.934C206.364 134.167 205.685 133.545 204.848 133.545C204.011 133.545 203.332 134.167 203.332 134.934C203.332 135.701 204.011 136.323 204.848 136.323Z" fill="#00CFFF"/>
<path d="M1.51586 136.323C2.35304 136.323 3.03171 135.701 3.03171 134.934C3.03171 134.167 2.35304 133.545 1.51586 133.545C0.678672 133.545 0 134.167 0 134.934C0 135.701 0.678672 136.323 1.51586 136.323Z" fill="#00CFFF"/>
<path d="M225.845 134.934C225.845 135.209 225.756 135.477 225.589 135.706C225.423 135.934 225.186 136.112 224.909 136.218C224.632 136.323 224.327 136.35 224.033 136.297C223.739 136.243 223.469 136.111 223.257 135.916C223.045 135.722 222.901 135.475 222.842 135.205C222.784 134.936 222.814 134.656 222.928 134.402C223.043 134.149 223.237 133.932 223.487 133.779C223.736 133.626 224.029 133.545 224.329 133.545C224.731 133.545 225.116 133.691 225.401 133.952C225.685 134.212 225.845 134.566 225.845 134.934Z" fill="#00CFFF"/>
<path d="M21.2949 134.934C21.2949 135.209 21.206 135.477 21.0394 135.706C20.8729 135.934 20.6361 136.112 20.3591 136.218C20.0822 136.323 19.7774 136.35 19.4833 136.297C19.1893 136.243 18.9192 136.111 18.7072 135.916C18.4952 135.722 18.3508 135.475 18.2923 135.205C18.2338 134.936 18.2638 134.656 18.3786 134.402C18.4933 134.149 18.6876 133.932 18.9369 133.779C19.1862 133.626 19.4792 133.545 19.779 133.545C20.1811 133.545 20.5666 133.691 20.8509 133.952C21.1352 134.212 21.2949 134.566 21.2949 134.934Z" fill="#00CFFF"/>
<path d="M242.592 136.323C243.429 136.323 244.108 135.701 244.108 134.934C244.108 134.167 243.429 133.545 242.592 133.545C241.755 133.545 241.076 134.167 241.076 134.934C241.076 135.701 241.755 136.323 242.592 136.323Z" fill="#00CFFF"/>
<path d="M38.0422 136.323C38.8794 136.323 39.5581 135.701 39.5581 134.934C39.5581 134.167 38.8794 133.545 38.0422 133.545C37.205 133.545 36.5264 134.167 36.5264 134.934C36.5264 135.701 37.205 136.323 38.0422 136.323Z" fill="#00CFFF"/>
<path d="M260.855 136.323C261.692 136.323 262.371 135.701 262.371 134.934C262.371 134.167 261.692 133.545 260.855 133.545C260.018 133.545 259.339 134.167 259.339 134.934C259.339 135.701 260.018 136.323 260.855 136.323Z" fill="#00CFFF"/>
<path d="M57.5232 136.323C58.3604 136.323 59.039 135.701 59.039 134.934C59.039 134.167 58.3604 133.545 57.5232 133.545C56.686 133.545 56.0073 134.167 56.0073 134.934C56.0073 135.701 56.686 136.323 57.5232 136.323Z" fill="#00CFFF"/>
<path d="M279.118 136.323C279.956 136.323 280.634 135.701 280.634 134.934C280.634 134.167 279.956 133.545 279.118 133.545C278.281 133.545 277.603 134.167 277.603 134.934C277.603 135.701 278.281 136.323 279.118 136.323Z" fill="#00CFFF"/>
<path d="M75.7873 136.323C76.6245 136.323 77.3032 135.701 77.3032 134.934C77.3032 134.167 76.6245 133.545 75.7873 133.545C74.9502 133.545 74.2715 134.167 74.2715 134.934C74.2715 135.701 74.9502 136.323 75.7873 136.323Z" fill="#00CFFF"/>
<path d="M298.599 136.323C299.436 136.323 300.115 135.701 300.115 134.934C300.115 134.167 299.436 133.545 298.599 133.545C297.762 133.545 297.083 134.167 297.083 134.934C297.083 135.701 297.762 136.323 298.599 136.323Z" fill="#00CFFF"/>
<path d="M94.0505 136.323C94.8877 136.323 95.5664 135.701 95.5664 134.934C95.5664 134.167 94.8877 133.545 94.0505 133.545C93.2133 133.545 92.5347 134.167 92.5347 134.934C92.5347 135.701 93.2133 136.323 94.0505 136.323Z" fill="#00CFFF"/>
<path d="M316.863 136.323C317.7 136.323 318.379 135.701 318.379 134.934C318.379 134.167 317.7 133.545 316.863 133.545C316.026 133.545 315.347 134.167 315.347 134.934C315.347 135.701 316.026 136.323 316.863 136.323Z" fill="#00CFFF"/>
<path d="M112.314 136.323C113.151 136.323 113.83 135.701 113.83 134.934C113.83 134.167 113.151 133.545 112.314 133.545C111.477 133.545 110.798 134.167 110.798 134.934C110.798 135.701 111.477 136.323 112.314 136.323Z" fill="#00CFFF"/>
<path d="M335.126 136.323C335.963 136.323 336.642 135.701 336.642 134.934C336.642 134.167 335.963 133.545 335.126 133.545C334.289 133.545 333.61 134.167 333.61 134.934C333.61 135.701 334.289 136.323 335.126 136.323Z" fill="#00CFFF"/>
<path d="M131.794 136.323C132.631 136.323 133.31 135.701 133.31 134.934C133.31 134.167 132.631 133.545 131.794 133.545C130.957 133.545 130.278 134.167 130.278 134.934C130.278 135.701 130.957 136.323 131.794 136.323Z" fill="#00CFFF"/>
<path d="M150.057 155.293C150.895 155.293 151.573 154.671 151.573 153.904C151.573 153.137 150.895 152.515 150.057 152.515C149.22 152.515 148.542 153.137 148.542 153.904C148.542 154.671 149.22 155.293 150.057 155.293Z" fill="#00CFFF"/>
<path d="M168.321 155.293C169.158 155.293 169.836 154.671 169.836 153.904C169.836 153.137 169.158 152.515 168.321 152.515C167.483 152.515 166.805 153.137 166.805 153.904C166.805 154.671 167.483 155.293 168.321 155.293Z" fill="#00CFFF"/>
<path d="M186.585 155.293C187.422 155.293 188.101 154.671 188.101 153.904C188.101 153.137 187.422 152.515 186.585 152.515C185.748 152.515 185.069 153.137 185.069 153.904C185.069 154.671 185.748 155.293 186.585 155.293Z" fill="#00CFFF"/>
<path d="M204.848 155.293C205.685 155.293 206.364 154.671 206.364 153.904C206.364 153.137 205.685 152.515 204.848 152.515C204.011 152.515 203.332 153.137 203.332 153.904C203.332 154.671 204.011 155.293 204.848 155.293Z" fill="#00CFFF"/>
<path d="M1.51586 155.293C2.35304 155.293 3.03171 154.671 3.03171 153.904C3.03171 153.137 2.35304 152.515 1.51586 152.515C0.678672 152.515 0 153.137 0 153.904C0 154.671 0.678672 155.293 1.51586 155.293Z" fill="#00CFFF"/>
<path d="M225.845 153.904C225.845 154.179 225.756 154.447 225.589 154.676C225.423 154.904 225.186 155.082 224.909 155.187C224.632 155.293 224.327 155.32 224.033 155.266C223.739 155.213 223.469 155.081 223.257 154.886C223.045 154.692 222.901 154.444 222.842 154.175C222.784 153.905 222.814 153.626 222.928 153.372C223.043 153.118 223.237 152.902 223.487 152.749C223.736 152.596 224.029 152.515 224.329 152.515C224.731 152.515 225.116 152.661 225.401 152.922C225.685 153.182 225.845 153.536 225.845 153.904Z" fill="#00CFFF"/>
<path d="M21.2949 153.904C21.2949 154.179 21.206 154.447 21.0394 154.676C20.8729 154.904 20.6361 155.082 20.3591 155.187C20.0822 155.293 19.7774 155.32 19.4833 155.266C19.1893 155.213 18.9192 155.081 18.7072 154.886C18.4952 154.692 18.3508 154.444 18.2923 154.175C18.2338 153.905 18.2638 153.626 18.3786 153.372C18.4933 153.118 18.6876 152.902 18.9369 152.749C19.1862 152.596 19.4792 152.515 19.779 152.515C20.1811 152.515 20.5666 152.661 20.8509 152.922C21.1352 153.182 21.2949 153.536 21.2949 153.904Z" fill="#00CFFF"/>
<path d="M242.592 155.293C243.429 155.293 244.108 154.671 244.108 153.904C244.108 153.137 243.429 152.515 242.592 152.515C241.755 152.515 241.076 153.137 241.076 153.904C241.076 154.671 241.755 155.293 242.592 155.293Z" fill="#00CFFF"/>
<path d="M38.0422 155.293C38.8794 155.293 39.5581 154.671 39.5581 153.904C39.5581 153.137 38.8794 152.515 38.0422 152.515C37.205 152.515 36.5264 153.137 36.5264 153.904C36.5264 154.671 37.205 155.293 38.0422 155.293Z" fill="#00CFFF"/>
<path d="M260.855 155.293C261.692 155.293 262.371 154.671 262.371 153.904C262.371 153.137 261.692 152.515 260.855 152.515C260.018 152.515 259.339 153.137 259.339 153.904C259.339 154.671 260.018 155.293 260.855 155.293Z" fill="#00CFFF"/>
<path d="M57.5232 155.293C58.3604 155.293 59.039 154.671 59.039 153.904C59.039 153.137 58.3604 152.515 57.5232 152.515C56.686 152.515 56.0073 153.137 56.0073 153.904C56.0073 154.671 56.686 155.293 57.5232 155.293Z" fill="#00CFFF"/>
<path d="M279.118 155.293C279.956 155.293 280.634 154.671 280.634 153.904C280.634 153.137 279.956 152.515 279.118 152.515C278.281 152.515 277.603 153.137 277.603 153.904C277.603 154.671 278.281 155.293 279.118 155.293Z" fill="#00CFFF"/>
<path d="M75.7873 155.293C76.6245 155.293 77.3032 154.671 77.3032 153.904C77.3032 153.137 76.6245 152.515 75.7873 152.515C74.9502 152.515 74.2715 153.137 74.2715 153.904C74.2715 154.671 74.9502 155.293 75.7873 155.293Z" fill="#00CFFF"/>
<path d="M298.599 155.293C299.436 155.293 300.115 154.671 300.115 153.904C300.115 153.137 299.436 152.515 298.599 152.515C297.762 152.515 297.083 153.137 297.083 153.904C297.083 154.671 297.762 155.293 298.599 155.293Z" fill="#00CFFF"/>
<path d="M94.0505 155.293C94.8877 155.293 95.5664 154.671 95.5664 153.904C95.5664 153.137 94.8877 152.515 94.0505 152.515C93.2133 152.515 92.5347 153.137 92.5347 153.904C92.5347 154.671 93.2133 155.293 94.0505 155.293Z" fill="#00CFFF"/>
<path d="M316.863 155.293C317.7 155.293 318.379 154.671 318.379 153.904C318.379 153.137 317.7 152.515 316.863 152.515C316.026 152.515 315.347 153.137 315.347 153.904C315.347 154.671 316.026 155.293 316.863 155.293Z" fill="#00CFFF"/>
<path d="M112.314 155.293C113.151 155.293 113.83 154.671 113.83 153.904C113.83 153.137 113.151 152.515 112.314 152.515C111.477 152.515 110.798 153.137 110.798 153.904C110.798 154.671 111.477 155.293 112.314 155.293Z" fill="#00CFFF"/>
<path d="M335.126 155.293C335.963 155.293 336.642 154.671 336.642 153.904C336.642 153.137 335.963 152.515 335.126 152.515C334.289 152.515 333.61 153.137 333.61 153.904C333.61 154.671 334.289 155.293 335.126 155.293Z" fill="#00CFFF"/>
<path d="M131.794 155.293C132.631 155.293 133.31 154.671 133.31 153.904C133.31 153.137 132.631 152.515 131.794 152.515C130.957 152.515 130.278 153.137 130.278 153.904C130.278 154.671 130.957 155.293 131.794 155.293Z" fill="#00CFFF"/>
<path d="M150.057 174.263C150.895 174.263 151.573 173.641 151.573 172.874C151.573 172.107 150.895 171.485 150.057 171.485C149.22 171.485 148.542 172.107 148.542 172.874C148.542 173.641 149.22 174.263 150.057 174.263Z" fill="#00CFFF"/>
<path d="M168.321 174.263C169.158 174.263 169.836 173.641 169.836 172.874C169.836 172.107 169.158 171.485 168.321 171.485C167.483 171.485 166.805 172.107 166.805 172.874C166.805 173.641 167.483 174.263 168.321 174.263Z" fill="#00CFFF"/>
<path d="M186.585 174.263C187.422 174.263 188.101 173.641 188.101 172.874C188.101 172.107 187.422 171.485 186.585 171.485C185.748 171.485 185.069 172.107 185.069 172.874C185.069 173.641 185.748 174.263 186.585 174.263Z" fill="#00CFFF"/>
<path d="M204.848 174.263C205.685 174.263 206.364 173.641 206.364 172.874C206.364 172.107 205.685 171.485 204.848 171.485C204.011 171.485 203.332 172.107 203.332 172.874C203.332 173.641 204.011 174.263 204.848 174.263Z" fill="#00CFFF"/>
<path d="M1.51586 174.263C2.35304 174.263 3.03171 173.641 3.03171 172.874C3.03171 172.107 2.35304 171.485 1.51586 171.485C0.678672 171.485 0 172.107 0 172.874C0 173.641 0.678672 174.263 1.51586 174.263Z" fill="#00CFFF"/>
<path d="M225.845 172.874C225.845 173.149 225.756 173.417 225.589 173.646C225.423 173.874 225.186 174.052 224.909 174.157C224.632 174.262 224.327 174.29 224.033 174.236C223.739 174.183 223.469 174.05 223.257 173.856C223.045 173.662 222.901 173.414 222.842 173.145C222.784 172.875 222.814 172.596 222.928 172.342C223.043 172.088 223.237 171.871 223.487 171.719C223.736 171.566 224.029 171.485 224.329 171.485C224.731 171.485 225.116 171.631 225.401 171.892C225.685 172.152 225.845 172.505 225.845 172.874Z" fill="#00CFFF"/>
<path d="M21.2949 172.874C21.2949 173.149 21.206 173.417 21.0394 173.646C20.8729 173.874 20.6361 174.052 20.3591 174.157C20.0822 174.262 19.7774 174.29 19.4833 174.236C19.1893 174.183 18.9192 174.05 18.7072 173.856C18.4952 173.662 18.3508 173.414 18.2923 173.145C18.2338 172.875 18.2638 172.596 18.3786 172.342C18.4933 172.088 18.6876 171.871 18.9369 171.719C19.1862 171.566 19.4792 171.485 19.779 171.485C20.1811 171.485 20.5666 171.631 20.8509 171.892C21.1352 172.152 21.2949 172.505 21.2949 172.874Z" fill="#00CFFF"/>
<path d="M242.592 174.263C243.429 174.263 244.108 173.641 244.108 172.874C244.108 172.107 243.429 171.485 242.592 171.485C241.755 171.485 241.076 172.107 241.076 172.874C241.076 173.641 241.755 174.263 242.592 174.263Z" fill="#00CFFF"/>
<path d="M38.0422 174.263C38.8794 174.263 39.5581 173.641 39.5581 172.874C39.5581 172.107 38.8794 171.485 38.0422 171.485C37.205 171.485 36.5264 172.107 36.5264 172.874C36.5264 173.641 37.205 174.263 38.0422 174.263Z" fill="#00CFFF"/>
<path d="M260.855 174.263C261.692 174.263 262.371 173.641 262.371 172.874C262.371 172.107 261.692 171.485 260.855 171.485C260.018 171.485 259.339 172.107 259.339 172.874C259.339 173.641 260.018 174.263 260.855 174.263Z" fill="#00CFFF"/>
<path d="M57.5232 174.263C58.3604 174.263 59.039 173.641 59.039 172.874C59.039 172.107 58.3604 171.485 57.5232 171.485C56.686 171.485 56.0073 172.107 56.0073 172.874C56.0073 173.641 56.686 174.263 57.5232 174.263Z" fill="#00CFFF"/>
<path d="M279.118 174.263C279.956 174.263 280.634 173.641 280.634 172.874C280.634 172.107 279.956 171.485 279.118 171.485C278.281 171.485 277.603 172.107 277.603 172.874C277.603 173.641 278.281 174.263 279.118 174.263Z" fill="#00CFFF"/>
<path d="M75.7873 174.263C76.6245 174.263 77.3032 173.641 77.3032 172.874C77.3032 172.107 76.6245 171.485 75.7873 171.485C74.9502 171.485 74.2715 172.107 74.2715 172.874C74.2715 173.641 74.9502 174.263 75.7873 174.263Z" fill="#00CFFF"/>
<path d="M298.599 174.263C299.436 174.263 300.115 173.641 300.115 172.874C300.115 172.107 299.436 171.485 298.599 171.485C297.762 171.485 297.083 172.107 297.083 172.874C297.083 173.641 297.762 174.263 298.599 174.263Z" fill="#00CFFF"/>
<path d="M94.0505 174.263C94.8877 174.263 95.5664 173.641 95.5664 172.874C95.5664 172.107 94.8877 171.485 94.0505 171.485C93.2133 171.485 92.5347 172.107 92.5347 172.874C92.5347 173.641 93.2133 174.263 94.0505 174.263Z" fill="#00CFFF"/>
<path d="M316.863 174.263C317.7 174.263 318.379 173.641 318.379 172.874C318.379 172.107 317.7 171.485 316.863 171.485C316.026 171.485 315.347 172.107 315.347 172.874C315.347 173.641 316.026 174.263 316.863 174.263Z" fill="#00CFFF"/>
<path d="M112.314 174.263C113.151 174.263 113.83 173.641 113.83 172.874C113.83 172.107 113.151 171.485 112.314 171.485C111.477 171.485 110.798 172.107 110.798 172.874C110.798 173.641 111.477 174.263 112.314 174.263Z" fill="#00CFFF"/>
<path d="M335.126 174.263C335.963 174.263 336.642 173.641 336.642 172.874C336.642 172.107 335.963 171.485 335.126 171.485C334.289 171.485 333.61 172.107 333.61 172.874C333.61 173.641 334.289 174.263 335.126 174.263Z" fill="#00CFFF"/>
<path d="M131.794 174.263C132.631 174.263 133.31 173.641 133.31 172.874C133.31 172.107 132.631 171.485 131.794 171.485C130.957 171.485 130.278 172.107 130.278 172.874C130.278 173.641 130.957 174.263 131.794 174.263Z" fill="#00CFFF"/>
<path d="M150.057 193.229C150.895 193.229 151.573 192.607 151.573 191.84C151.573 191.073 150.895 190.451 150.057 190.451C149.22 190.451 148.542 191.073 148.542 191.84C148.542 192.607 149.22 193.229 150.057 193.229Z" fill="#00CFFF"/>
<path d="M168.321 193.229C169.158 193.229 169.836 192.607 169.836 191.84C169.836 191.073 169.158 190.451 168.321 190.451C167.483 190.451 166.805 191.073 166.805 191.84C166.805 192.607 167.483 193.229 168.321 193.229Z" fill="#00CFFF"/>
<path d="M186.585 193.229C187.422 193.229 188.101 192.607 188.101 191.84C188.101 191.073 187.422 190.451 186.585 190.451C185.748 190.451 185.069 191.073 185.069 191.84C185.069 192.607 185.748 193.229 186.585 193.229Z" fill="#00CFFF"/>
<path d="M204.848 193.229C205.685 193.229 206.364 192.607 206.364 191.84C206.364 191.073 205.685 190.451 204.848 190.451C204.011 190.451 203.332 191.073 203.332 191.84C203.332 192.607 204.011 193.229 204.848 193.229Z" fill="#00CFFF"/>
<path d="M1.51586 193.229C2.35304 193.229 3.03171 192.607 3.03171 191.84C3.03171 191.073 2.35304 190.451 1.51586 190.451C0.678672 190.451 0 191.073 0 191.84C0 192.607 0.678672 193.229 1.51586 193.229Z" fill="#00CFFF"/>
<path d="M225.845 191.84C225.845 192.114 225.756 192.383 225.589 192.612C225.423 192.84 225.186 193.018 224.909 193.123C224.632 193.228 224.327 193.256 224.033 193.202C223.739 193.149 223.469 193.016 223.257 192.822C223.045 192.628 222.901 192.38 222.842 192.111C222.784 191.841 222.814 191.562 222.928 191.308C223.043 191.054 223.237 190.837 223.487 190.685C223.736 190.532 224.029 190.451 224.329 190.451C224.731 190.451 225.116 190.597 225.401 190.857C225.685 191.118 225.845 191.471 225.845 191.84Z" fill="#00CFFF"/>
<path d="M21.2949 191.84C21.2949 192.114 21.206 192.383 21.0394 192.612C20.8729 192.84 20.6361 193.018 20.3591 193.123C20.0822 193.228 19.7774 193.256 19.4833 193.202C19.1893 193.149 18.9192 193.016 18.7072 192.822C18.4952 192.628 18.3508 192.38 18.2923 192.111C18.2338 191.841 18.2638 191.562 18.3786 191.308C18.4933 191.054 18.6876 190.837 18.9369 190.685C19.1862 190.532 19.4792 190.451 19.779 190.451C20.1811 190.451 20.5666 190.597 20.8509 190.857C21.1352 191.118 21.2949 191.471 21.2949 191.84Z" fill="#00CFFF"/>
<path d="M242.592 193.229C243.429 193.229 244.108 192.607 244.108 191.84C244.108 191.073 243.429 190.451 242.592 190.451C241.755 190.451 241.076 191.073 241.076 191.84C241.076 192.607 241.755 193.229 242.592 193.229Z" fill="#00CFFF"/>
<path d="M38.0422 193.229C38.8794 193.229 39.5581 192.607 39.5581 191.84C39.5581 191.073 38.8794 190.451 38.0422 190.451C37.205 190.451 36.5264 191.073 36.5264 191.84C36.5264 192.607 37.205 193.229 38.0422 193.229Z" fill="#00CFFF"/>
<path d="M260.855 193.229C261.692 193.229 262.371 192.607 262.371 191.84C262.371 191.073 261.692 190.451 260.855 190.451C260.018 190.451 259.339 191.073 259.339 191.84C259.339 192.607 260.018 193.229 260.855 193.229Z" fill="#00CFFF"/>
<path d="M57.5232 193.229C58.3604 193.229 59.039 192.607 59.039 191.84C59.039 191.073 58.3604 190.451 57.5232 190.451C56.686 190.451 56.0073 191.073 56.0073 191.84C56.0073 192.607 56.686 193.229 57.5232 193.229Z" fill="#00CFFF"/>
<path d="M279.118 193.229C279.956 193.229 280.634 192.607 280.634 191.84C280.634 191.073 279.956 190.451 279.118 190.451C278.281 190.451 277.603 191.073 277.603 191.84C277.603 192.607 278.281 193.229 279.118 193.229Z" fill="#00CFFF"/>
<path d="M75.7873 193.229C76.6245 193.229 77.3032 192.607 77.3032 191.84C77.3032 191.073 76.6245 190.451 75.7873 190.451C74.9502 190.451 74.2715 191.073 74.2715 191.84C74.2715 192.607 74.9502 193.229 75.7873 193.229Z" fill="#00CFFF"/>
<path d="M298.599 193.229C299.436 193.229 300.115 192.607 300.115 191.84C300.115 191.073 299.436 190.451 298.599 190.451C297.762 190.451 297.083 191.073 297.083 191.84C297.083 192.607 297.762 193.229 298.599 193.229Z" fill="#00CFFF"/>
<path d="M94.0505 193.229C94.8877 193.229 95.5664 192.607 95.5664 191.84C95.5664 191.073 94.8877 190.451 94.0505 190.451C93.2133 190.451 92.5347 191.073 92.5347 191.84C92.5347 192.607 93.2133 193.229 94.0505 193.229Z" fill="#00CFFF"/>
<path d="M316.863 193.229C317.7 193.229 318.379 192.607 318.379 191.84C318.379 191.073 317.7 190.451 316.863 190.451C316.026 190.451 315.347 191.073 315.347 191.84C315.347 192.607 316.026 193.229 316.863 193.229Z" fill="#00CFFF"/>
<path d="M112.314 193.229C113.151 193.229 113.83 192.607 113.83 191.84C113.83 191.073 113.151 190.451 112.314 190.451C111.477 190.451 110.798 191.073 110.798 191.84C110.798 192.607 111.477 193.229 112.314 193.229Z" fill="#00CFFF"/>
<path d="M335.126 193.229C335.963 193.229 336.642 192.607 336.642 191.84C336.642 191.073 335.963 190.451 335.126 190.451C334.289 190.451 333.61 191.073 333.61 191.84C333.61 192.607 334.289 193.229 335.126 193.229Z" fill="#00CFFF"/>
<path d="M131.794 193.229C132.631 193.229 133.31 192.607 133.31 191.84C133.31 191.073 132.631 190.451 131.794 190.451C130.957 190.451 130.278 191.073 130.278 191.84C130.278 192.607 130.957 193.229 131.794 193.229Z" fill="#00CFFF"/>
<path d="M150.057 212.199C150.895 212.199 151.573 211.577 151.573 210.81C151.573 210.042 150.895 209.42 150.057 209.42C149.22 209.42 148.542 210.042 148.542 210.81C148.542 211.577 149.22 212.199 150.057 212.199Z" fill="#00CFFF"/>
<path d="M168.321 212.199C169.158 212.199 169.836 211.577 169.836 210.81C169.836 210.042 169.158 209.42 168.321 209.42C167.483 209.42 166.805 210.042 166.805 210.81C166.805 211.577 167.483 212.199 168.321 212.199Z" fill="#00CFFF"/>
<path d="M186.585 212.199C187.422 212.199 188.101 211.577 188.101 210.81C188.101 210.042 187.422 209.42 186.585 209.42C185.748 209.42 185.069 210.042 185.069 210.81C185.069 211.577 185.748 212.199 186.585 212.199Z" fill="#00CFFF"/>
<path d="M204.848 212.199C205.685 212.199 206.364 211.577 206.364 210.81C206.364 210.042 205.685 209.42 204.848 209.42C204.011 209.42 203.332 210.042 203.332 210.81C203.332 211.577 204.011 212.199 204.848 212.199Z" fill="#00CFFF"/>
<path d="M1.51586 212.199C2.35304 212.199 3.03171 211.577 3.03171 210.81C3.03171 210.042 2.35304 209.42 1.51586 209.42C0.678672 209.42 0 210.042 0 210.81C0 211.577 0.678672 212.199 1.51586 212.199Z" fill="#00CFFF"/>
<path d="M225.845 210.81C225.845 211.084 225.756 211.353 225.589 211.581C225.423 211.81 225.186 211.988 224.909 212.093C224.632 212.198 224.327 212.226 224.033 212.172C223.739 212.119 223.469 211.986 223.257 211.792C223.045 211.598 222.901 211.35 222.842 211.081C222.784 210.811 222.814 210.532 222.928 210.278C223.043 210.024 223.237 209.807 223.487 209.655C223.736 209.502 224.029 209.42 224.329 209.42C224.731 209.42 225.116 209.567 225.401 209.827C225.685 210.088 225.845 210.441 225.845 210.81Z" fill="#00CFFF"/>
<path d="M21.2949 210.81C21.2949 211.084 21.206 211.353 21.0394 211.581C20.8729 211.81 20.6361 211.988 20.3591 212.093C20.0822 212.198 19.7774 212.226 19.4833 212.172C19.1893 212.119 18.9192 211.986 18.7072 211.792C18.4952 211.598 18.3508 211.35 18.2923 211.081C18.2338 210.811 18.2638 210.532 18.3786 210.278C18.4933 210.024 18.6876 209.807 18.9369 209.655C19.1862 209.502 19.4792 209.42 19.779 209.42C20.1811 209.42 20.5666 209.567 20.8509 209.827C21.1352 210.088 21.2949 210.441 21.2949 210.81Z" fill="#00CFFF"/>
<path d="M242.592 212.199C243.429 212.199 244.108 211.577 244.108 210.81C244.108 210.042 243.429 209.42 242.592 209.42C241.755 209.42 241.076 210.042 241.076 210.81C241.076 211.577 241.755 212.199 242.592 212.199Z" fill="#00CFFF"/>
<path d="M38.0422 212.199C38.8794 212.199 39.5581 211.577 39.5581 210.81C39.5581 210.042 38.8794 209.42 38.0422 209.42C37.205 209.42 36.5264 210.042 36.5264 210.81C36.5264 211.577 37.205 212.199 38.0422 212.199Z" fill="#00CFFF"/>
<path d="M260.855 212.199C261.692 212.199 262.371 211.577 262.371 210.81C262.371 210.042 261.692 209.42 260.855 209.42C260.018 209.42 259.339 210.042 259.339 210.81C259.339 211.577 260.018 212.199 260.855 212.199Z" fill="#00CFFF"/>
<path d="M57.5232 212.199C58.3604 212.199 59.039 211.577 59.039 210.81C59.039 210.042 58.3604 209.42 57.5232 209.42C56.686 209.42 56.0073 210.042 56.0073 210.81C56.0073 211.577 56.686 212.199 57.5232 212.199Z" fill="#00CFFF"/>
<path d="M279.118 212.199C279.956 212.199 280.634 211.577 280.634 210.81C280.634 210.042 279.956 209.42 279.118 209.42C278.281 209.42 277.603 210.042 277.603 210.81C277.603 211.577 278.281 212.199 279.118 212.199Z" fill="#00CFFF"/>
<path d="M75.7873 212.199C76.6245 212.199 77.3032 211.577 77.3032 210.81C77.3032 210.042 76.6245 209.42 75.7873 209.42C74.9502 209.42 74.2715 210.042 74.2715 210.81C74.2715 211.577 74.9502 212.199 75.7873 212.199Z" fill="#00CFFF"/>
<path d="M298.599 212.199C299.436 212.199 300.115 211.577 300.115 210.81C300.115 210.042 299.436 209.42 298.599 209.42C297.762 209.42 297.083 210.042 297.083 210.81C297.083 211.577 297.762 212.199 298.599 212.199Z" fill="#00CFFF"/>
<path d="M94.0505 212.199C94.8877 212.199 95.5664 211.577 95.5664 210.81C95.5664 210.042 94.8877 209.42 94.0505 209.42C93.2133 209.42 92.5347 210.042 92.5347 210.81C92.5347 211.577 93.2133 212.199 94.0505 212.199Z" fill="#00CFFF"/>
<path d="M316.863 212.199C317.7 212.199 318.379 211.577 318.379 210.81C318.379 210.042 317.7 209.42 316.863 209.42C316.026 209.42 315.347 210.042 315.347 210.81C315.347 211.577 316.026 212.199 316.863 212.199Z" fill="#00CFFF"/>
<path d="M112.314 212.199C113.151 212.199 113.83 211.577 113.83 210.81C113.83 210.042 113.151 209.42 112.314 209.42C111.477 209.42 110.798 210.042 110.798 210.81C110.798 211.577 111.477 212.199 112.314 212.199Z" fill="#00CFFF"/>
<path d="M335.126 212.199C335.963 212.199 336.642 211.577 336.642 210.81C336.642 210.042 335.963 209.42 335.126 209.42C334.289 209.42 333.61 210.042 333.61 210.81C333.61 211.577 334.289 212.199 335.126 212.199Z" fill="#00CFFF"/>
<path d="M131.794 212.199C132.631 212.199 133.31 211.577 133.31 210.81C133.31 210.042 132.631 209.42 131.794 209.42C130.957 209.42 130.278 210.042 130.278 210.81C130.278 211.577 130.957 212.199 131.794 212.199Z" fill="#00CFFF"/>
<path d="M150.057 231.169C150.895 231.169 151.573 230.547 151.573 229.779C151.573 229.012 150.895 228.39 150.057 228.39C149.22 228.39 148.542 229.012 148.542 229.779C148.542 230.547 149.22 231.169 150.057 231.169Z" fill="#00CFFF"/>
<path d="M168.321 231.169C169.158 231.169 169.836 230.547 169.836 229.779C169.836 229.012 169.158 228.39 168.321 228.39C167.483 228.39 166.805 229.012 166.805 229.779C166.805 230.547 167.483 231.169 168.321 231.169Z" fill="#00CFFF"/>
<path d="M186.585 231.169C187.422 231.169 188.101 230.547 188.101 229.779C188.101 229.012 187.422 228.39 186.585 228.39C185.748 228.39 185.069 229.012 185.069 229.779C185.069 230.547 185.748 231.169 186.585 231.169Z" fill="#00CFFF"/>
<path d="M204.848 231.169C205.685 231.169 206.364 230.547 206.364 229.779C206.364 229.012 205.685 228.39 204.848 228.39C204.011 228.39 203.332 229.012 203.332 229.779C203.332 230.547 204.011 231.169 204.848 231.169Z" fill="#00CFFF"/>
<path d="M1.51586 231.169C2.35304 231.169 3.03171 230.547 3.03171 229.779C3.03171 229.012 2.35304 228.39 1.51586 228.39C0.678672 228.39 0 229.012 0 229.779C0 230.547 0.678672 231.169 1.51586 231.169Z" fill="#00CFFF"/>
<path d="M225.845 229.779C225.845 230.054 225.756 230.323 225.589 230.551C225.423 230.78 225.186 230.958 224.909 231.063C224.632 231.168 224.327 231.196 224.033 231.142C223.739 231.088 223.469 230.956 223.257 230.762C223.045 230.567 222.901 230.32 222.842 230.05C222.784 229.781 222.814 229.502 222.928 229.248C223.043 228.994 223.237 228.777 223.487 228.624C223.736 228.472 224.029 228.39 224.329 228.39C224.731 228.39 225.116 228.537 225.401 228.797C225.685 229.058 225.845 229.411 225.845 229.779Z" fill="#00CFFF"/>
<path d="M21.2949 229.779C21.2949 230.054 21.206 230.323 21.0394 230.551C20.8729 230.78 20.6361 230.958 20.3591 231.063C20.0822 231.168 19.7774 231.196 19.4833 231.142C19.1893 231.088 18.9192 230.956 18.7072 230.762C18.4952 230.567 18.3508 230.32 18.2923 230.05C18.2338 229.781 18.2638 229.502 18.3786 229.248C18.4933 228.994 18.6876 228.777 18.9369 228.624C19.1862 228.472 19.4792 228.39 19.779 228.39C20.1811 228.39 20.5666 228.537 20.8509 228.797C21.1352 229.058 21.2949 229.411 21.2949 229.779Z" fill="#00CFFF"/>
<path d="M242.592 231.169C243.429 231.169 244.108 230.547 244.108 229.779C244.108 229.012 243.429 228.39 242.592 228.39C241.755 228.39 241.076 229.012 241.076 229.779C241.076 230.547 241.755 231.169 242.592 231.169Z" fill="#00CFFF"/>
<path d="M38.0422 231.169C38.8794 231.169 39.5581 230.547 39.5581 229.779C39.5581 229.012 38.8794 228.39 38.0422 228.39C37.205 228.39 36.5264 229.012 36.5264 229.779C36.5264 230.547 37.205 231.169 38.0422 231.169Z" fill="#00CFFF"/>
<path d="M260.855 231.169C261.692 231.169 262.371 230.547 262.371 229.779C262.371 229.012 261.692 228.39 260.855 228.39C260.018 228.39 259.339 229.012 259.339 229.779C259.339 230.547 260.018 231.169 260.855 231.169Z" fill="#00CFFF"/>
<path d="M57.5232 231.169C58.3604 231.169 59.039 230.547 59.039 229.779C59.039 229.012 58.3604 228.39 57.5232 228.39C56.686 228.39 56.0073 229.012 56.0073 229.779C56.0073 230.547 56.686 231.169 57.5232 231.169Z" fill="#00CFFF"/>
<path d="M279.118 231.169C279.956 231.169 280.634 230.547 280.634 229.779C280.634 229.012 279.956 228.39 279.118 228.39C278.281 228.39 277.603 229.012 277.603 229.779C277.603 230.547 278.281 231.169 279.118 231.169Z" fill="#00CFFF"/>
<path d="M75.7873 231.169C76.6245 231.169 77.3032 230.547 77.3032 229.779C77.3032 229.012 76.6245 228.39 75.7873 228.39C74.9502 228.39 74.2715 229.012 74.2715 229.779C74.2715 230.547 74.9502 231.169 75.7873 231.169Z" fill="#00CFFF"/>
<path d="M298.599 231.169C299.436 231.169 300.115 230.547 300.115 229.779C300.115 229.012 299.436 228.39 298.599 228.39C297.762 228.39 297.083 229.012 297.083 229.779C297.083 230.547 297.762 231.169 298.599 231.169Z" fill="#00CFFF"/>
<path d="M94.0505 231.169C94.8877 231.169 95.5664 230.547 95.5664 229.779C95.5664 229.012 94.8877 228.39 94.0505 228.39C93.2133 228.39 92.5347 229.012 92.5347 229.779C92.5347 230.547 93.2133 231.169 94.0505 231.169Z" fill="#00CFFF"/>
<path d="M316.863 231.169C317.7 231.169 318.379 230.547 318.379 229.779C318.379 229.012 317.7 228.39 316.863 228.39C316.026 228.39 315.347 229.012 315.347 229.779C315.347 230.547 316.026 231.169 316.863 231.169Z" fill="#00CFFF"/>
<path d="M112.314 231.169C113.151 231.169 113.83 230.547 113.83 229.779C113.83 229.012 113.151 228.39 112.314 228.39C111.477 228.39 110.798 229.012 110.798 229.779C110.798 230.547 111.477 231.169 112.314 231.169Z" fill="#00CFFF"/>
<path d="M335.126 231.169C335.963 231.169 336.642 230.547 336.642 229.779C336.642 229.012 335.963 228.39 335.126 228.39C334.289 228.39 333.61 229.012 333.61 229.779C333.61 230.547 334.289 231.169 335.126 231.169Z" fill="#00CFFF"/>
<path d="M131.794 231.169C132.631 231.169 133.31 230.547 133.31 229.779C133.31 229.012 132.631 228.39 131.794 228.39C130.957 228.39 130.278 229.012 130.278 229.779C130.278 230.547 130.957 231.169 131.794 231.169Z" fill="#00CFFF"/>
<path d="M150.057 250.138C150.895 250.138 151.573 249.517 151.573 248.749C151.573 247.982 150.895 247.36 150.057 247.36C149.22 247.36 148.542 247.982 148.542 248.749C148.542 249.517 149.22 250.138 150.057 250.138Z" fill="#00CFFF"/>
<path d="M168.321 250.138C169.158 250.138 169.836 249.517 169.836 248.749C169.836 247.982 169.158 247.36 168.321 247.36C167.483 247.36 166.805 247.982 166.805 248.749C166.805 249.517 167.483 250.138 168.321 250.138Z" fill="#00CFFF"/>
<path d="M186.585 250.138C187.422 250.138 188.101 249.517 188.101 248.749C188.101 247.982 187.422 247.36 186.585 247.36C185.748 247.36 185.069 247.982 185.069 248.749C185.069 249.517 185.748 250.138 186.585 250.138Z" fill="#00CFFF"/>
<path d="M204.848 250.138C205.685 250.138 206.364 249.517 206.364 248.749C206.364 247.982 205.685 247.36 204.848 247.36C204.011 247.36 203.332 247.982 203.332 248.749C203.332 249.517 204.011 250.138 204.848 250.138Z" fill="#00CFFF"/>
<path d="M1.51586 250.138C2.35304 250.138 3.03171 249.517 3.03171 248.749C3.03171 247.982 2.35304 247.36 1.51586 247.36C0.678672 247.36 0 247.982 0 248.749C0 249.517 0.678672 250.138 1.51586 250.138Z" fill="#00CFFF"/>
<path d="M225.845 248.749C225.845 249.024 225.756 249.293 225.589 249.521C225.423 249.75 225.186 249.928 224.909 250.033C224.632 250.138 224.327 250.165 224.033 250.112C223.739 250.058 223.469 249.926 223.257 249.732C223.045 249.537 222.901 249.29 222.842 249.02C222.784 248.751 222.814 248.472 222.928 248.218C223.043 247.964 223.237 247.747 223.487 247.594C223.736 247.442 224.029 247.36 224.329 247.36C224.731 247.36 225.116 247.506 225.401 247.767C225.685 248.028 225.845 248.381 225.845 248.749Z" fill="#00CFFF"/>
<path d="M21.2949 248.749C21.2949 249.024 21.206 249.293 21.0394 249.521C20.8729 249.75 20.6361 249.928 20.3591 250.033C20.0822 250.138 19.7774 250.165 19.4833 250.112C19.1893 250.058 18.9192 249.926 18.7072 249.732C18.4952 249.537 18.3508 249.29 18.2923 249.02C18.2338 248.751 18.2638 248.472 18.3786 248.218C18.4933 247.964 18.6876 247.747 18.9369 247.594C19.1862 247.442 19.4792 247.36 19.779 247.36C20.1811 247.36 20.5666 247.506 20.8509 247.767C21.1352 248.028 21.2949 248.381 21.2949 248.749Z" fill="#00CFFF"/>
<path d="M242.592 250.138C243.429 250.138 244.108 249.517 244.108 248.749C244.108 247.982 243.429 247.36 242.592 247.36C241.755 247.36 241.076 247.982 241.076 248.749C241.076 249.517 241.755 250.138 242.592 250.138Z" fill="#00CFFF"/>
<path d="M38.0422 250.138C38.8794 250.138 39.5581 249.517 39.5581 248.749C39.5581 247.982 38.8794 247.36 38.0422 247.36C37.205 247.36 36.5264 247.982 36.5264 248.749C36.5264 249.517 37.205 250.138 38.0422 250.138Z" fill="#00CFFF"/>
<path d="M260.855 250.138C261.692 250.138 262.371 249.517 262.371 248.749C262.371 247.982 261.692 247.36 260.855 247.36C260.018 247.36 259.339 247.982 259.339 248.749C259.339 249.517 260.018 250.138 260.855 250.138Z" fill="#00CFFF"/>
<path d="M57.5232 250.138C58.3604 250.138 59.039 249.517 59.039 248.749C59.039 247.982 58.3604 247.36 57.5232 247.36C56.686 247.36 56.0073 247.982 56.0073 248.749C56.0073 249.517 56.686 250.138 57.5232 250.138Z" fill="#00CFFF"/>
<path d="M279.118 250.138C279.956 250.138 280.634 249.517 280.634 248.749C280.634 247.982 279.956 247.36 279.118 247.36C278.281 247.36 277.603 247.982 277.603 248.749C277.603 249.517 278.281 250.138 279.118 250.138Z" fill="#00CFFF"/>
<path d="M75.7873 250.138C76.6245 250.138 77.3032 249.517 77.3032 248.749C77.3032 247.982 76.6245 247.36 75.7873 247.36C74.9502 247.36 74.2715 247.982 74.2715 248.749C74.2715 249.517 74.9502 250.138 75.7873 250.138Z" fill="#00CFFF"/>
<path d="M298.599 250.138C299.436 250.138 300.115 249.517 300.115 248.749C300.115 247.982 299.436 247.36 298.599 247.36C297.762 247.36 297.083 247.982 297.083 248.749C297.083 249.517 297.762 250.138 298.599 250.138Z" fill="#00CFFF"/>
<path d="M94.0505 250.138C94.8877 250.138 95.5664 249.517 95.5664 248.749C95.5664 247.982 94.8877 247.36 94.0505 247.36C93.2133 247.36 92.5347 247.982 92.5347 248.749C92.5347 249.517 93.2133 250.138 94.0505 250.138Z" fill="#00CFFF"/>
<path d="M316.863 250.138C317.7 250.138 318.379 249.517 318.379 248.749C318.379 247.982 317.7 247.36 316.863 247.36C316.026 247.36 315.347 247.982 315.347 248.749C315.347 249.517 316.026 250.138 316.863 250.138Z" fill="#00CFFF"/>
<path d="M112.314 250.138C113.151 250.138 113.83 249.517 113.83 248.749C113.83 247.982 113.151 247.36 112.314 247.36C111.477 247.36 110.798 247.982 110.798 248.749C110.798 249.517 111.477 250.138 112.314 250.138Z" fill="#00CFFF"/>
<path d="M335.126 250.138C335.963 250.138 336.642 249.517 336.642 248.749C336.642 247.982 335.963 247.36 335.126 247.36C334.289 247.36 333.61 247.982 333.61 248.749C333.61 249.517 334.289 250.138 335.126 250.138Z" fill="#00CFFF"/>
<path d="M131.794 250.138C132.631 250.138 133.31 249.517 133.31 248.749C133.31 247.982 132.631 247.36 131.794 247.36C130.957 247.36 130.278 247.982 130.278 248.749C130.278 249.517 130.957 250.138 131.794 250.138Z" fill="#00CFFF"/>
<path d="M150.057 269.104C150.895 269.104 151.573 268.482 151.573 267.715C151.573 266.948 150.895 266.326 150.057 266.326C149.22 266.326 148.542 266.948 148.542 267.715C148.542 268.482 149.22 269.104 150.057 269.104Z" fill="#00CFFF"/>
<path d="M168.321 269.104C169.158 269.104 169.836 268.482 169.836 267.715C169.836 266.948 169.158 266.326 168.321 266.326C167.483 266.326 166.805 266.948 166.805 267.715C166.805 268.482 167.483 269.104 168.321 269.104Z" fill="#00CFFF"/>
<path d="M186.585 269.104C187.422 269.104 188.101 268.482 188.101 267.715C188.101 266.948 187.422 266.326 186.585 266.326C185.748 266.326 185.069 266.948 185.069 267.715C185.069 268.482 185.748 269.104 186.585 269.104Z" fill="#00CFFF"/>
<path d="M204.848 269.104C205.685 269.104 206.364 268.482 206.364 267.715C206.364 266.948 205.685 266.326 204.848 266.326C204.011 266.326 203.332 266.948 203.332 267.715C203.332 268.482 204.011 269.104 204.848 269.104Z" fill="#00CFFF"/>
<path d="M1.51586 269.104C2.35304 269.104 3.03171 268.482 3.03171 267.715C3.03171 266.948 2.35304 266.326 1.51586 266.326C0.678672 266.326 0 266.948 0 267.715C0 268.482 0.678672 269.104 1.51586 269.104Z" fill="#00CFFF"/>
<path d="M225.845 267.715C225.845 267.99 225.756 268.259 225.589 268.487C225.423 268.715 225.186 268.894 224.909 268.999C224.632 269.104 224.327 269.131 224.033 269.078C223.739 269.024 223.469 268.892 223.257 268.698C223.045 268.503 222.901 268.256 222.842 267.986C222.784 267.717 222.814 267.437 222.928 267.184C223.043 266.93 223.237 266.713 223.487 266.56C223.736 266.408 224.029 266.326 224.329 266.326C224.731 266.326 225.116 266.472 225.401 266.733C225.685 266.993 225.845 267.347 225.845 267.715Z" fill="#00CFFF"/>
<path d="M21.2949 267.715C21.2949 267.99 21.206 268.259 21.0394 268.487C20.8729 268.715 20.6361 268.894 20.3591 268.999C20.0822 269.104 19.7774 269.131 19.4833 269.078C19.1893 269.024 18.9192 268.892 18.7072 268.698C18.4952 268.503 18.3508 268.256 18.2923 267.986C18.2338 267.717 18.2638 267.437 18.3786 267.184C18.4933 266.93 18.6876 266.713 18.9369 266.56C19.1862 266.408 19.4792 266.326 19.779 266.326C20.1811 266.326 20.5666 266.472 20.8509 266.733C21.1352 266.993 21.2949 267.347 21.2949 267.715Z" fill="#00CFFF"/>
<path d="M242.592 269.104C243.429 269.104 244.108 268.482 244.108 267.715C244.108 266.948 243.429 266.326 242.592 266.326C241.755 266.326 241.076 266.948 241.076 267.715C241.076 268.482 241.755 269.104 242.592 269.104Z" fill="#00CFFF"/>
<path d="M38.0422 269.104C38.8794 269.104 39.5581 268.482 39.5581 267.715C39.5581 266.948 38.8794 266.326 38.0422 266.326C37.205 266.326 36.5264 266.948 36.5264 267.715C36.5264 268.482 37.205 269.104 38.0422 269.104Z" fill="#00CFFF"/>
<path d="M260.855 269.104C261.692 269.104 262.371 268.482 262.371 267.715C262.371 266.948 261.692 266.326 260.855 266.326C260.018 266.326 259.339 266.948 259.339 267.715C259.339 268.482 260.018 269.104 260.855 269.104Z" fill="#00CFFF"/>
<path d="M57.5232 269.104C58.3604 269.104 59.039 268.482 59.039 267.715C59.039 266.948 58.3604 266.326 57.5232 266.326C56.686 266.326 56.0073 266.948 56.0073 267.715C56.0073 268.482 56.686 269.104 57.5232 269.104Z" fill="#00CFFF"/>
<path d="M279.118 269.104C279.956 269.104 280.634 268.482 280.634 267.715C280.634 266.948 279.956 266.326 279.118 266.326C278.281 266.326 277.603 266.948 277.603 267.715C277.603 268.482 278.281 269.104 279.118 269.104Z" fill="#00CFFF"/>
<path d="M75.7873 269.104C76.6245 269.104 77.3032 268.482 77.3032 267.715C77.3032 266.948 76.6245 266.326 75.7873 266.326C74.9502 266.326 74.2715 266.948 74.2715 267.715C74.2715 268.482 74.9502 269.104 75.7873 269.104Z" fill="#00CFFF"/>
<path d="M298.599 269.104C299.436 269.104 300.115 268.482 300.115 267.715C300.115 266.948 299.436 266.326 298.599 266.326C297.762 266.326 297.083 266.948 297.083 267.715C297.083 268.482 297.762 269.104 298.599 269.104Z" fill="#00CFFF"/>
<path d="M94.0505 269.104C94.8877 269.104 95.5664 268.482 95.5664 267.715C95.5664 266.948 94.8877 266.326 94.0505 266.326C93.2133 266.326 92.5347 266.948 92.5347 267.715C92.5347 268.482 93.2133 269.104 94.0505 269.104Z" fill="#00CFFF"/>
<path d="M316.863 269.104C317.7 269.104 318.379 268.482 318.379 267.715C318.379 266.948 317.7 266.326 316.863 266.326C316.026 266.326 315.347 266.948 315.347 267.715C315.347 268.482 316.026 269.104 316.863 269.104Z" fill="#00CFFF"/>
<path d="M112.314 269.104C113.151 269.104 113.83 268.482 113.83 267.715C113.83 266.948 113.151 266.326 112.314 266.326C111.477 266.326 110.798 266.948 110.798 267.715C110.798 268.482 111.477 269.104 112.314 269.104Z" fill="#00CFFF"/>
<path d="M335.126 269.104C335.963 269.104 336.642 268.482 336.642 267.715C336.642 266.948 335.963 266.326 335.126 266.326C334.289 266.326 333.61 266.948 333.61 267.715C333.61 268.482 334.289 269.104 335.126 269.104Z" fill="#00CFFF"/>
<path d="M131.794 269.104C132.631 269.104 133.31 268.482 133.31 267.715C133.31 266.948 132.631 266.326 131.794 266.326C130.957 266.326 130.278 266.948 130.278 267.715C130.278 268.482 130.957 269.104 131.794 269.104Z" fill="#00CFFF"/>
</svg>
