<svg width="20" height="20" viewBox="0 0 20 20" fill="none" xmlns="http://www.w3.org/2000/svg">
<path d="M14.3776 16.5974C16.5107 15.1791 17.9166 12.7538 17.9166 10.0002C17.9166 5.6279 14.3722 2.0835 9.99998 2.0835C9.39531 2.0835 8.80648 2.15128 8.24072 2.27967M14.3776 16.5974V14.1668M14.3776 16.5974H17.0833M5.60183 3.41662C3.48019 4.8368 2.08331 7.25535 2.08331 10.0002C2.08331 14.3724 5.62772 17.9168 9.99998 17.9168C10.6046 17.9168 11.1935 17.8491 11.7592 17.7207M5.60183 3.41662V5.8335M5.60183 3.41662H2.91665" stroke="#00CFFF" stroke-width="2" stroke-linecap="round" stroke-linejoin="round"/>
<path d="M9.99998 13.3335C11.6108 13.3335 12.9166 12.0277 12.9166 10.4168C12.9166 8.3335 9.99998 5.8335 9.99998 5.8335C9.99998 5.8335 7.08331 8.3335 7.08331 10.4168C7.08331 12.0277 8.38915 13.3335 9.99998 13.3335Z" stroke="#00CFFF" stroke-width="2" stroke-linecap="round" stroke-linejoin="round"/>
</svg>
