<svg width="14" height="15" viewBox="0 0 14 15" fill="none" xmlns="http://www.w3.org/2000/svg">
<path d="M12 0.552734C13.0938 0.552734 14 1.45898 14 2.55273V12.5527C14 13.6777 13.0938 14.5527 12 14.5527H2C0.875 14.5527 0 13.6777 0 12.5527V2.55273C0 1.45898 0.875 0.552734 2 0.552734H12ZM10.5938 6.17773C10.9375 5.83398 10.9375 5.30273 10.5938 4.95898C10.25 4.61523 9.71875 4.61523 9.375 4.95898L6 8.33398L4.59375 6.95898C4.25 6.61523 3.71875 6.61523 3.375 6.95898C3.03125 7.30273 3.03125 7.83398 3.375 8.17773L5.375 10.1777C5.71875 10.5215 6.25 10.5215 6.59375 10.1777L10.5938 6.17773Z" fill="#00CFFF"/>
</svg>
