<svg width="36" height="35" viewBox="0 0 36 35" fill="none" xmlns="http://www.w3.org/2000/svg">
<path d="M25.511 13.1411C25.5217 13.1411 25.5327 13.1411 25.5436 13.1411C29.168 13.1411 32.1061 16.0845 32.1061 19.7156C32.1061 23.0997 29.554 25.8866 26.2728 26.25M25.511 13.1411C25.5325 12.9005 25.5436 12.6568 25.5436 12.4105C25.5436 7.97264 21.9526 4.375 17.5228 4.375C13.3275 4.375 9.88452 7.60181 9.53173 11.7132M25.511 13.1411C25.3618 14.7986 24.7103 16.3109 23.7102 17.5241M9.53173 11.7132C5.83276 12.0659 2.93945 15.1869 2.93945 18.985C2.93945 22.5191 5.44452 25.4672 8.77279 26.144M9.53173 11.7132C9.76192 11.6913 9.9952 11.68 10.2311 11.68C11.8729 11.68 13.388 12.2237 14.6068 13.1411" stroke="#0B63E5" stroke-width="2" stroke-linecap="round" stroke-linejoin="round"/>
<path d="M17.5228 30.625V18.9583M17.5228 30.625C16.5017 30.625 14.5938 27.7166 13.877 26.9791M17.5228 30.625C18.5439 30.625 20.4518 27.7166 21.1686 26.9791" stroke="#0B63E5" stroke-width="2" stroke-linecap="round" stroke-linejoin="round"/>
</svg>
