<svg width="56" height="57" viewBox="0 0 56 57" fill="none" xmlns="http://www.w3.org/2000/svg">
<path opacity="0.2" d="M28 33.7498C20.6277 33.7614 13.3834 31.8232 7.00171 28.1319V45.9998C7.00171 46.2296 7.04697 46.4571 7.13492 46.6695C7.22286 46.8818 7.35177 47.0747 7.51427 47.2372C7.67677 47.3997 7.86969 47.5286 8.08201 47.6166C8.29433 47.7045 8.5219 47.7498 8.75171 47.7498H47.2517C47.4815 47.7498 47.7091 47.7045 47.9214 47.6166C48.1337 47.5286 48.3266 47.3997 48.4892 47.2372C48.6517 47.0747 48.7806 46.8818 48.8685 46.6695C48.9564 46.4571 49.0017 46.2296 49.0017 45.9998V28.1299C42.6193 31.8225 35.3737 33.7614 28 33.7498Z" fill="#F249C8"/>
<path d="M47.2517 16.25H8.75171C7.78521 16.25 7.00171 17.0335 7.00171 18V46C7.00171 46.9665 7.78521 47.75 8.75171 47.75H47.2517C48.2182 47.75 49.0017 46.9665 49.0017 46V18C49.0017 17.0335 48.2182 16.25 47.2517 16.25Z" stroke="#F249C8" stroke-width="3" stroke-linecap="round" stroke-linejoin="round"/>
<path d="M36.75 16.2498V12.7498C36.75 11.8215 36.3813 10.9313 35.7249 10.2749C35.0685 9.6185 34.1783 9.24976 33.25 9.24976H22.75C21.8218 9.24976 20.9315 9.6185 20.2752 10.2749C19.6188 10.9313 19.25 11.8215 19.25 12.7498V16.2498" stroke="#F249C8" stroke-width="3" stroke-linecap="round" stroke-linejoin="round"/>
<path d="M49.0017 28.1299C42.6192 31.8225 35.3736 33.7613 27.9999 33.7498C20.6275 33.7613 13.3831 31.8232 7.00137 28.1317" stroke="#F249C8" stroke-width="3" stroke-linecap="round" stroke-linejoin="round"/>
<path d="M25.375 26.7498H30.625" stroke="#F249C8" stroke-width="3" stroke-linecap="round" stroke-linejoin="round"/>
</svg>
