<svg width="72" height="67" viewBox="0 0 72 67" fill="none" xmlns="http://www.w3.org/2000/svg">
<path opacity="0.74" d="M3.372 5.724C4.708 5.724 5.736 6.028 6.456 6.636C7.176 7.236 7.536 8.228 7.536 9.612C7.536 10.484 7.348 11.212 6.972 11.796C6.604 12.372 6.096 12.8 5.448 13.08C4.8 13.36 4.064 13.5 3.24 13.5H0.924V5.724H3.372ZM3.036 12.336C3.716 12.336 4.272 12.26 4.704 12.108C5.144 11.956 5.48 11.684 5.712 11.292C5.952 10.892 6.072 10.332 6.072 9.612C6.072 8.652 5.852 7.96 5.412 7.536C4.98 7.104 4.308 6.888 3.396 6.888H2.292V12.336H3.036ZM9.44334 7.224C9.29134 7.224 9.14734 7.188 9.01134 7.116C8.88334 7.036 8.77934 6.932 8.69934 6.804C8.61934 6.668 8.57934 6.524 8.57934 6.372C8.57934 6.22 8.61934 6.08 8.69934 5.952C8.77934 5.816 8.88334 5.708 9.01134 5.628C9.14734 5.548 9.29134 5.508 9.44334 5.508C9.60334 5.508 9.75134 5.548 9.88734 5.628C10.0233 5.708 10.1313 5.816 10.2113 5.952C10.2913 6.08 10.3313 6.22 10.3313 6.372C10.3313 6.524 10.2913 6.668 10.2113 6.804C10.1313 6.932 10.0233 7.036 9.88734 7.116C9.75134 7.188 9.60334 7.224 9.44334 7.224ZM8.81934 13.5V8.196L10.1153 8.064V13.5H8.81934ZM13.4904 13.656C13.0024 13.656 12.5624 13.596 12.1704 13.476C11.7864 13.356 11.4264 13.176 11.0904 12.936L11.6424 12.06C12.2104 12.468 12.8144 12.672 13.4544 12.672C13.7664 12.672 14.0024 12.62 14.1624 12.516C14.3304 12.412 14.4144 12.264 14.4144 12.072C14.4144 11.96 14.3824 11.864 14.3184 11.784C14.2624 11.696 14.1544 11.612 13.9944 11.532C13.8344 11.452 13.6064 11.372 13.3104 11.292L12.9504 11.196C12.3824 11.044 11.9704 10.844 11.7144 10.596C11.4584 10.348 11.3304 10.02 11.3304 9.612C11.3304 9.3 11.4184 9.024 11.5944 8.784C11.7704 8.544 12.0144 8.356 12.3264 8.22C12.6464 8.084 13.0064 8.016 13.4064 8.016C14.1664 8.016 14.8744 8.208 15.5304 8.592L15.0264 9.456C14.6904 9.28 14.4064 9.16 14.1744 9.096C13.9424 9.032 13.6944 9 13.4304 9C13.1824 9 12.9904 9.048 12.8544 9.144C12.7184 9.24 12.6504 9.368 12.6504 9.528C12.6504 9.624 12.6744 9.708 12.7224 9.78C12.7704 9.844 12.8544 9.904 12.9744 9.96C13.0944 10.008 13.2664 10.06 13.4904 10.116L13.8744 10.212C14.5224 10.388 14.9904 10.616 15.2784 10.896C15.5744 11.168 15.7224 11.52 15.7224 11.952C15.7224 12.28 15.6384 12.572 15.4704 12.828C15.3024 13.084 15.0504 13.288 14.7144 13.44C14.3784 13.584 13.9704 13.656 13.4904 13.656ZM19.0073 13.656C18.2473 13.656 17.6273 13.448 17.1473 13.032C16.6753 12.608 16.4393 11.92 16.4393 10.968C16.4393 10.296 16.5713 9.74 16.8353 9.3C17.0993 8.852 17.4393 8.528 17.8553 8.328C18.2713 8.12 18.7113 8.016 19.1753 8.016C19.4713 8.016 19.7553 8.056 20.0273 8.136C20.2993 8.208 20.5953 8.328 20.9153 8.496L20.4473 9.408C20.1833 9.28 19.9553 9.192 19.7633 9.144C19.5713 9.088 19.3753 9.06 19.1753 9.06C18.7433 9.06 18.4033 9.224 18.1553 9.552C17.9073 9.88 17.7833 10.348 17.7833 10.956C17.7833 12.044 18.2433 12.588 19.1633 12.588C19.4113 12.588 19.6393 12.548 19.8473 12.468C20.0633 12.388 20.2953 12.276 20.5433 12.132L21.0233 13.008C20.7193 13.2 20.4033 13.356 20.0753 13.476C19.7473 13.596 19.3913 13.656 19.0073 13.656ZM24.2235 13.656C23.6475 13.656 23.1635 13.532 22.7715 13.284C22.3795 13.028 22.0835 12.688 21.8835 12.264C21.6915 11.832 21.5955 11.352 21.5955 10.824C21.5955 10.16 21.7195 9.62 21.9675 9.204C22.2235 8.788 22.5635 8.488 22.9875 8.304C23.4115 8.112 23.8875 8.016 24.4155 8.016C24.9995 8.016 25.4875 8.14 25.8795 8.388C26.2715 8.628 26.5635 8.96 26.7555 9.384C26.9555 9.808 27.0555 10.292 27.0555 10.836C27.0555 11.492 26.9275 12.032 26.6715 12.456C26.4235 12.872 26.0875 13.176 25.6635 13.368C25.2395 13.56 24.7595 13.656 24.2235 13.656ZM24.3195 12.648C24.8155 12.648 25.1675 12.488 25.3755 12.168C25.5915 11.84 25.6995 11.392 25.6995 10.824C25.6995 10.256 25.5875 9.816 25.3635 9.504C25.1475 9.184 24.8115 9.024 24.3555 9.024C23.8515 9.024 23.4875 9.18 23.2635 9.492C23.0475 9.804 22.9395 10.248 22.9395 10.824C22.9395 11.384 23.0515 11.828 23.2755 12.156C23.5075 12.484 23.8555 12.648 24.3195 12.648ZM32.7653 8.184V8.256L30.7013 13.5H29.4533L27.3413 8.256V8.184H28.7453L29.8613 11.34C29.9733 11.652 30.0573 11.94 30.1133 12.204C30.1293 12.132 30.1573 12.028 30.1973 11.892C30.2373 11.748 30.2893 11.564 30.3533 11.34L31.3613 8.184H32.7653ZM37.9644 10.296C37.9644 10.544 37.9524 10.812 37.9284 11.1H34.3524C34.3844 11.628 34.5324 12.016 34.7964 12.264C35.0684 12.512 35.4044 12.636 35.8044 12.636C36.0924 12.636 36.3524 12.6 36.5844 12.528C36.8164 12.448 37.0804 12.324 37.3764 12.156L37.8324 12.996C37.5444 13.196 37.2204 13.356 36.8604 13.476C36.5084 13.596 36.1244 13.656 35.7084 13.656C35.1964 13.656 34.7404 13.564 34.3404 13.38C33.9484 13.196 33.6364 12.9 33.4044 12.492C33.1724 12.084 33.0564 11.556 33.0564 10.908C33.0564 10.348 33.1564 9.852 33.3564 9.42C33.5564 8.98 33.8524 8.636 34.2444 8.388C34.6364 8.14 35.1084 8.016 35.6604 8.016C36.1564 8.016 36.5764 8.116 36.9204 8.316C37.2644 8.508 37.5244 8.78 37.7004 9.132C37.8764 9.476 37.9644 9.864 37.9644 10.296ZM35.6724 8.952C35.3204 8.952 35.0404 9.06 34.8324 9.276C34.6244 9.492 34.4844 9.8 34.4124 10.2H36.7164V10.164C36.7164 9.748 36.6204 9.444 36.4284 9.252C36.2444 9.052 35.9924 8.952 35.6724 8.952ZM41.9555 8.016C42.1795 8.016 42.4115 8.052 42.6515 8.124L42.4355 9.444C42.3075 9.396 42.1875 9.36 42.0755 9.336C41.9635 9.312 41.8395 9.3 41.7035 9.3C41.4715 9.3 41.2515 9.352 41.0435 9.456C40.8435 9.56 40.6435 9.756 40.4435 10.044V13.5H39.1475V8.184L40.4435 8.064V8.82C40.6355 8.556 40.8595 8.356 41.1155 8.22C41.3795 8.084 41.6595 8.016 41.9555 8.016ZM52.7374 8.016C53.2174 8.016 53.5894 8.152 53.8534 8.424C54.1254 8.688 54.2614 9.096 54.2614 9.648V13.5H52.9654V10.092C52.9654 9.828 52.9414 9.624 52.8934 9.48C52.8454 9.328 52.7694 9.22 52.6654 9.156C52.5614 9.092 52.4174 9.06 52.2334 9.06C51.8414 9.06 51.4174 9.18 50.9614 9.42C50.9694 9.468 50.9734 9.544 50.9734 9.648V13.5H49.6774V10.092C49.6774 9.828 49.6534 9.624 49.6054 9.48C49.5574 9.328 49.4814 9.22 49.3774 9.156C49.2734 9.092 49.1294 9.06 48.9454 9.06C48.7534 9.06 48.5494 9.092 48.3334 9.156C48.1174 9.22 47.9054 9.308 47.6974 9.42V13.5H46.4014V8.196L47.6974 8.064V8.532C48.2974 8.188 48.8814 8.016 49.4494 8.016C50.0574 8.016 50.4814 8.216 50.7214 8.616C51.0254 8.44 51.3494 8.296 51.6934 8.184C52.0374 8.072 52.3854 8.016 52.7374 8.016ZM58.0321 13.656C57.4561 13.656 56.9721 13.532 56.5801 13.284C56.1881 13.028 55.8921 12.688 55.6921 12.264C55.5001 11.832 55.4041 11.352 55.4041 10.824C55.4041 10.16 55.5281 9.62 55.7761 9.204C56.0321 8.788 56.3721 8.488 56.7961 8.304C57.2201 8.112 57.6961 8.016 58.2241 8.016C58.8081 8.016 59.2961 8.14 59.6881 8.388C60.0801 8.628 60.3721 8.96 60.5641 9.384C60.7641 9.808 60.8641 10.292 60.8641 10.836C60.8641 11.492 60.7361 12.032 60.4801 12.456C60.2321 12.872 59.8961 13.176 59.4721 13.368C59.0481 13.56 58.5681 13.656 58.0321 13.656ZM58.1281 12.648C58.6241 12.648 58.9761 12.488 59.1841 12.168C59.4001 11.84 59.5081 11.392 59.5081 10.824C59.5081 10.256 59.3961 9.816 59.1721 9.504C58.9561 9.184 58.6201 9.024 58.1641 9.024C57.6601 9.024 57.2961 9.18 57.0721 9.492C56.8561 9.804 56.7481 10.248 56.7481 10.824C56.7481 11.384 56.8601 11.828 57.0841 12.156C57.3161 12.484 57.6641 12.648 58.1281 12.648ZM64.8656 8.016C65.0896 8.016 65.3216 8.052 65.5616 8.124L65.3456 9.444C65.2176 9.396 65.0976 9.36 64.9856 9.336C64.8736 9.312 64.7496 9.3 64.6136 9.3C64.3816 9.3 64.1616 9.352 63.9536 9.456C63.7536 9.56 63.5536 9.756 63.3536 10.044V13.5H62.0576V8.184L63.3536 8.064V8.82C63.5456 8.556 63.7696 8.356 64.0256 8.22C64.2896 8.084 64.5696 8.016 64.8656 8.016ZM70.8004 10.296C70.8004 10.544 70.7884 10.812 70.7644 11.1H67.1884C67.2204 11.628 67.3684 12.016 67.6324 12.264C67.9044 12.512 68.2404 12.636 68.6404 12.636C68.9284 12.636 69.1884 12.6 69.4204 12.528C69.6524 12.448 69.9164 12.324 70.2124 12.156L70.6684 12.996C70.3804 13.196 70.0564 13.356 69.6964 13.476C69.3444 13.596 68.9604 13.656 68.5444 13.656C68.0324 13.656 67.5764 13.564 67.1764 13.38C66.7844 13.196 66.4724 12.9 66.2404 12.492C66.0084 12.084 65.8924 11.556 65.8924 10.908C65.8924 10.348 65.9924 9.852 66.1924 9.42C66.3924 8.98 66.6884 8.636 67.0804 8.388C67.4724 8.14 67.9444 8.016 68.4964 8.016C68.9924 8.016 69.4124 8.116 69.7564 8.316C70.1004 8.508 70.3604 8.78 70.5364 9.132C70.7124 9.476 70.8004 9.864 70.8004 10.296ZM68.5084 8.952C68.1564 8.952 67.8764 9.06 67.6684 9.276C67.4604 9.492 67.3204 9.8 67.2484 10.2H69.5524V10.164C69.5524 9.748 69.4564 9.444 69.2644 9.252C69.0804 9.052 68.8284 8.952 68.5084 8.952Z" fill="white"/>
<path d="M47 42C47 36.201 42.299 31.5 36.5 31.5C30.701 31.5 26 36.201 26 42V55C26 60.799 30.701 65.5 36.5 65.5C42.299 65.5 47 60.799 47 55V42Z" stroke="white" stroke-width="2"/>
<path d="M36.5332 43.466V55.081" stroke="white" stroke-width="2"/>
</svg>
