<svg width="36" height="36" viewBox="0 0 36 36" fill="none" xmlns="http://www.w3.org/2000/svg">
<path d="M25.8798 29.8751C29.7194 27.3221 32.25 22.9566 32.25 18C32.25 10.1299 25.87 3.75 18 3.75C16.9116 3.75 15.8517 3.87201 14.8333 4.10311M25.8798 29.8751V25.5M25.8798 29.8751H30.75M10.0833 6.14963C6.26437 8.70594 3.75 13.0593 3.75 18C3.75 25.87 10.1299 32.25 18 32.25C19.0884 32.25 20.1483 32.1281 21.1667 31.8969M10.0833 6.14963V10.5M10.0833 6.14963H5.25" stroke="#0B63E5" stroke-width="2" stroke-linecap="round" stroke-linejoin="round"/>
<path d="M18.75 10.5L13.5 18H22.5L17.25 25.5" stroke="#0B63E5" stroke-width="2" stroke-linecap="round" stroke-linejoin="round"/>
</svg>
