<svg width="132" height="214" viewBox="0 0 132 214" fill="none" xmlns="http://www.w3.org/2000/svg">
<path d="M72.1922 22.0642L41.8188 198.061C40.2293 207.271 32.24 214 22.8936 214C10.951 214 1.90439 203.216 3.98121 191.455L35.0396 15.578C36.6307 6.5679 44.4601 0 53.6096 0C65.3062 0 74.1814 10.538 72.1922 22.0642Z" fill="#FFB600" fill-opacity="0.7"/>
<path d="M129.566 59.245L110.015 173.674C108.996 179.639 103.827 184 97.7761 184C90.0633 184 84.2165 177.042 85.5449 169.445L105.539 55.0919C106.559 49.2572 111.625 45 117.549 45C125.102 45 130.838 51.799 129.566 59.245Z" fill="#024AA2" fill-opacity="0.4"/>
</svg>
