<svg width="53" height="53" viewBox="0 0 53 53" fill="none" xmlns="http://www.w3.org/2000/svg">
<path d="M46.9772 38.6678H6.02268C5.82318 38.6678 5.63309 38.5718 5.51638 38.41C5.39781 38.2481 5.36393 38.0392 5.42604 37.8491L10.3912 22.3557C10.474 22.0979 10.7149 21.9229 10.9878 21.9229H42.0145C42.2874 21.9229 42.5283 22.0979 42.6111 22.3557L47.5743 37.851V37.8529C47.6365 38.043 47.6026 38.2519 47.484 38.4138C47.3673 38.5756 47.1772 38.6716 46.9777 38.6716L46.9772 38.6678ZM6.8808 37.4143H46.1191L41.5569 23.1708H11.4432L6.8808 37.4143Z" fill="black"/>
<path d="M45.3225 33.5014H7.67663C7.3322 33.5014 7.05176 33.2209 7.05176 32.8765C7.05176 32.5302 7.33219 32.2498 7.67663 32.2498H45.3225C45.667 32.2498 45.9474 32.5302 45.9474 32.8765C45.9474 33.2209 45.667 33.5014 45.3225 33.5014Z" fill="black"/>
<path d="M43.6682 28.3367H9.33092C8.9865 28.3367 8.70605 28.0563 8.70605 27.71C8.70605 27.3655 8.98649 27.0851 9.33092 27.0851H43.6682C44.0126 27.0851 44.293 27.3655 44.293 27.71C44.293 28.0563 44.0126 28.3367 43.6682 28.3367Z" fill="black"/>
<path d="M16.2629 38.6679C16.229 38.6679 16.1951 38.666 16.1612 38.6603C15.9975 38.634 15.8507 38.5436 15.7528 38.4081C15.6549 38.2745 15.6154 38.107 15.6418 37.9414L18.1242 22.4461C18.1506 22.2824 18.2409 22.1355 18.3764 22.0377C18.5101 21.9417 18.6795 21.9022 18.8432 21.9285C19.1839 21.9831 19.4172 22.3049 19.3608 22.6456L16.8802 38.1409C16.8312 38.4439 16.5696 38.6679 16.2629 38.6679Z" fill="black"/>
<path d="M26.4998 38.6678C26.1535 38.6678 25.873 38.3874 25.873 38.0411V22.5458C25.873 22.1995 26.1535 21.9191 26.4998 21.9191C26.8461 21.9191 27.1265 22.1995 27.1265 22.5458V38.0411C27.1265 38.3874 26.8461 38.6678 26.4998 38.6678Z" fill="black"/>
<path d="M36.7369 38.6679C36.4301 38.6679 36.1685 38.4439 36.1196 38.1409L33.639 22.6456C33.6108 22.48 33.6484 22.3106 33.7463 22.1751C33.8442 22.0395 33.991 21.9473 34.1566 21.921C34.3222 21.8946 34.4897 21.936 34.6252 22.0339C34.7608 22.1337 34.8511 22.2823 34.8756 22.448L37.358 37.9432C37.3844 38.107 37.3449 38.2745 37.247 38.41C37.1491 38.5436 37.0023 38.634 36.8386 38.6603C36.8047 38.666 36.7708 38.6679 36.7369 38.6679Z" fill="black"/>
<path d="M30.7237 23.1726C30.4828 23.1726 30.2645 23.0333 30.1591 22.8169C30.0556 22.6004 30.0857 22.3426 30.2363 22.1544C30.9157 21.3093 31.2846 20.2572 31.2808 19.1731C31.2808 16.5325 29.1409 14.3926 26.5003 14.3926C23.8597 14.3926 21.7197 16.5325 21.7197 19.1731C21.716 20.2572 22.0849 21.3093 22.7643 22.1544C22.9808 22.4254 22.9375 22.8188 22.6665 23.0352C22.3973 23.2516 22.0021 23.2065 21.7875 22.9373C20.3402 21.1249 20.0598 18.6461 21.0629 16.5571C22.0679 14.468 24.1816 13.1392 26.5002 13.1392C28.8189 13.1392 30.9326 14.4679 31.9376 16.5571C32.9407 18.6462 32.6603 21.125 31.2129 22.9373C31.0944 23.086 30.9157 23.1726 30.7237 23.1726Z" fill="black"/>
<path d="M26.4998 11.991C26.1535 11.991 25.873 11.7106 25.873 11.3642V10.1747C25.873 9.82842 26.1535 9.54797 26.4998 9.54797C26.8461 9.54797 27.1265 9.82841 27.1265 10.1747V11.3642C27.1265 11.7105 26.8461 11.991 26.4998 11.991Z" fill="black"/>
<path d="M20.9778 14.2777C20.8122 14.2777 20.6522 14.2118 20.5355 14.0932L19.6942 13.2519V13.2538C19.4496 13.0091 19.4496 12.612 19.6942 12.3673C19.9389 12.1227 20.336 12.1227 20.5807 12.3673L21.422 13.2086C21.6008 13.3874 21.6535 13.6566 21.5575 13.89C21.4596 14.1252 21.2319 14.2777 20.9778 14.2777Z" fill="black"/>
<path d="M18.6913 19.7979H17.5018C17.1574 19.7979 16.877 19.5175 16.877 19.1711C16.877 18.8267 17.1574 18.5463 17.5018 18.5463H18.6913C19.0376 18.5463 19.3181 18.8267 19.3181 19.1711C19.3181 19.5174 19.0377 19.7979 18.6913 19.7979Z" fill="black"/>
<path d="M35.4989 19.7979H34.3094C33.9631 19.7979 33.6826 19.5175 33.6826 19.1711C33.6826 18.8267 33.963 18.5463 34.3094 18.5463H35.4989C35.8433 18.5463 36.1237 18.8267 36.1237 19.1711C36.1237 19.5174 35.8433 19.7979 35.4989 19.7979Z" fill="black"/>
<path d="M32.0224 14.2778C31.7684 14.2778 31.5406 14.1254 31.4428 13.8901C31.3468 13.6567 31.3995 13.3876 31.5783 13.2088L32.4196 12.3675C32.6643 12.1228 33.0614 12.1228 33.306 12.3675C33.5507 12.6121 33.5507 13.0092 33.306 13.2539L32.4647 14.0952V14.0933C32.348 14.2119 32.1881 14.2778 32.0224 14.2778Z" fill="black"/>
<path d="M33.8349 45.0933H19.1659C18.9608 45.0933 18.7669 44.9917 18.6502 44.8204C18.5335 44.651 18.5072 44.4327 18.5825 44.2407L21.0649 37.8152C21.1572 37.5743 21.3905 37.4143 21.6484 37.4143H31.3527C31.6105 37.4143 31.8439 37.5743 31.9361 37.8152L34.4186 44.2407C34.4939 44.4327 34.4675 44.651 34.3508 44.8204C34.2341 44.9917 34.04 45.0933 33.8349 45.0933ZM20.0804 43.8398H32.9199L30.923 38.668H22.0773L20.0804 43.8398Z" fill="black"/>
<path d="M35.9826 48.2706H17.0188C15.8217 48.2687 14.8506 47.2994 14.8506 46.1024V46.0083C14.8506 44.8112 15.8199 43.8401 17.0188 43.8401H35.9826C36.5586 43.8401 37.11 44.0697 37.5166 44.4762C37.9231 44.8828 38.1508 45.4342 38.1508 46.0083V46.1024C38.1508 47.2994 37.1797 48.2687 35.9826 48.2706ZM17.0188 45.0935C16.5125 45.0935 16.1022 45.5038 16.1022 46.0082V46.1023C16.1022 46.6067 16.5125 47.017 17.0188 47.017H35.9826C36.4889 47.017 36.8992 46.6067 36.8992 46.1023V46.0082C36.8992 45.5038 36.4889 45.0935 35.9826 45.0935H17.0188Z" fill="black"/>
</svg>
