<svg width="26" height="26" viewBox="0 0 26 26" fill="none" xmlns="http://www.w3.org/2000/svg">
<rect width="26" height="26" fill="#FFB600"/>
<path d="M18.25 11.8335C18.25 15.9168 13 19.4168 13 19.4168C13 19.4168 7.75 15.9168 7.75 11.8335C7.75 10.4411 8.30312 9.10575 9.28769 8.12119C10.2723 7.13662 11.6076 6.5835 13 6.5835C14.3924 6.5835 15.7277 7.13662 16.7123 8.12119C17.6969 9.10575 18.25 10.4411 18.25 11.8335Z" stroke="white" stroke-linecap="round" stroke-linejoin="round"/>
<path d="M13 13.5835C13.9665 13.5835 14.75 12.8 14.75 11.8335C14.75 10.867 13.9665 10.0835 13 10.0835C12.0335 10.0835 11.25 10.867 11.25 11.8335C11.25 12.8 12.0335 13.5835 13 13.5835Z" stroke="white" stroke-linecap="round" stroke-linejoin="round"/>
</svg>
