<svg width="53" height="53" viewBox="0 0 53 53" fill="none" xmlns="http://www.w3.org/2000/svg">
<path fill-rule="evenodd" clip-rule="evenodd" d="M5.99246 42.929H4.64486C4.29291 42.929 4.00684 42.643 4.00684 42.291V26.404C4.00684 26.0521 4.29292 25.766 4.64486 25.766H6.79608L8.44481 13.9725C8.4881 13.6545 8.76289 13.423 9.07532 13.423V13.4211H14.477C14.8139 13.4211 15.0905 13.6827 15.1131 14.014L16.7562 25.766H17.2192L18.868 13.9725C18.9112 13.6544 19.186 13.423 19.4985 13.423V13.4211H24.9001C25.237 13.4211 25.5137 13.6827 25.5363 14.014L27.1794 25.766H28.6926L28.6888 16.4139C28.6888 15.9584 29.1706 15.6065 29.6487 15.8643L33.2303 17.6279C33.3847 17.451 33.5804 17.338 33.8213 17.2929L34.4368 17.1687L34.6777 16.5946L34.6758 16.54L34.3276 16.0206C34.0528 15.6103 34.1206 15.0682 34.4669 14.7219L36.1796 13.0092C36.5409 12.6479 37.1018 12.5933 37.5234 12.9019L38.0222 13.2313L38.3233 13.1052V13.1033C38.4908 13.0337 38.6245 13.0149 38.6358 12.9565L38.7562 12.343C38.8522 11.8593 39.2832 11.5205 39.7744 11.5205H42.1967C42.6992 11.5205 43.1265 11.8649 43.2187 12.3674L43.3429 12.981L43.6459 13.1033V13.1015C43.804 13.1673 43.9263 13.2501 43.9715 13.2181L44.4891 12.87L44.4872 12.8681C44.8975 12.5952 45.4414 12.6592 45.7896 13.0073L47.5023 14.7201C47.8637 15.0814 47.9183 15.6423 47.6096 16.0639L47.2802 16.5646L47.5155 17.1442L47.555 17.1781L48.1686 17.2986C48.6523 17.3946 48.991 17.8256 48.991 18.3168V20.739C48.991 21.2416 48.6466 21.6688 48.1441 21.761L47.5287 21.8852L47.4063 22.1883H47.4082C47.3423 22.3482 47.2595 22.4687 47.2915 22.5139L47.6397 23.0314L47.6416 23.0296C47.9145 23.4398 47.8505 23.9838 47.5023 24.332L47.2859 24.5484L48.6354 25.2128C48.8593 25.3238 48.9892 25.5478 48.9892 25.7831H48.9911V42.2873C48.9911 42.6392 48.705 42.9253 48.3531 42.9253L27.9794 42.929V45.2308C27.9794 45.5207 27.8589 45.7955 27.6651 45.9856L27.6669 45.9874C27.4731 46.1813 27.2058 46.3017 26.9103 46.3017L18.4617 46.2999C17.8707 46.2999 17.3907 45.8199 17.3907 45.2289V42.9271H16.5758V45.2289C16.5758 45.5188 16.4534 45.7936 16.2615 45.9836L16.2634 45.9855C16.0695 46.1794 15.8022 46.2998 15.5068 46.2998H7.06192C6.7702 46.2998 6.50104 46.1794 6.3072 45.9855L6.30532 45.9874C6.11147 45.7936 5.99101 45.5263 5.99101 45.2308V42.929L5.99246 42.929ZM20.0519 45.0238V38.8315H18.6686V45.0238H20.0519ZM20.6899 37.5576H22.4158C22.4779 37.5388 22.5419 37.5275 22.6097 37.5275H25.4215C25.4893 37.5275 25.5551 37.5388 25.6154 37.5576H26.9084C27.4994 37.5576 27.9793 38.0375 27.9793 38.6285V41.6549H28.6889V27.0404H5.28311V41.653H5.99269V38.6266C5.99269 38.0375 6.47826 37.5557 7.06363 37.5557H15.5085C16.0995 37.5557 16.5794 38.0356 16.5794 38.6266V41.653H17.3943V38.6266C17.3943 38.3367 17.5148 38.0619 17.7086 37.8719L17.7068 37.87C17.9006 37.6761 18.1679 37.5557 18.4634 37.5557L20.6899 37.5576ZM26.0579 38.8317V40.6122C26.0579 40.8813 25.9468 41.1279 25.768 41.3067L25.7699 41.3086C25.5911 41.4874 25.3464 41.5965 25.0735 41.5965H22.9562C22.4141 41.5965 21.9718 41.1524 21.9718 40.6122V38.8317H21.3263V45.0241H26.7034L26.7053 38.8317L26.0579 38.8317ZM23.246 38.8317V40.3224H24.7818V38.8317H23.246ZM8.65224 38.8317H7.26701V45.0241H8.65036L8.65224 38.8317ZM14.6581 38.8317V40.6442C14.6581 40.9133 14.5471 41.1599 14.3683 41.3387L14.3701 41.3406C14.1913 41.5194 13.9467 41.6285 13.6738 41.6285H11.5564C11.0144 41.6285 10.5721 41.1881 10.5721 40.6442V38.8317H9.92652V45.0241H15.3036V38.8317L14.6581 38.8317ZM11.8463 38.8317V40.3525H13.3821V38.8317H11.8463ZM40.9832 14.7823C38.3634 14.7823 36.2384 16.9072 36.2384 19.5271C36.2384 22.1488 38.3634 24.2719 40.9832 24.2719C43.6031 24.2719 45.7281 22.147 45.7281 19.5271C45.7281 16.9072 43.6031 14.7823 40.9832 14.7823ZM43.4375 17.0747C42.0824 15.7196 39.8841 15.7196 38.5288 17.0747C37.1734 18.4298 37.1737 20.6281 38.5288 21.9834C39.8839 23.3388 42.0822 23.3385 43.4375 21.9834C44.7929 20.6283 44.7927 18.43 43.4375 17.0747ZM32.9729 18.921L29.9634 17.4379V41.6531H34.8399V33.3003C34.8399 32.9484 35.126 32.6623 35.4779 32.6623H42.2046C42.5566 32.6623 42.8426 32.9484 42.8426 33.3003V41.6551H47.7191V26.1805L46.3395 25.501L45.7918 26.0487C45.4361 26.4044 44.8847 26.4647 44.465 26.1692L43.9455 25.8285L43.3658 26.0638L43.332 26.1033L43.2115 26.7169C43.1155 27.2005 42.6883 27.5374 42.1933 27.5374V27.5393H39.771V27.5374C39.2647 27.5374 38.8413 27.1949 38.7491 26.6924L38.6248 26.0769L38.2898 25.9414C38.1505 25.8774 38.0376 25.8097 37.9962 25.8379L37.4768 26.1861C37.0665 26.4609 36.5244 26.3931 36.1781 26.0468L34.4654 24.3341C34.1097 23.9784 34.0495 23.427 34.3449 23.0072L34.6856 22.4897L34.4503 21.91L34.4108 21.8761L33.7973 21.7557C33.3136 21.6597 32.9767 21.2325 32.9767 20.7374H32.9748L32.9729 18.921ZM43.1571 24.7799C43.4639 24.6538 43.6408 24.5277 44.0342 24.5578C44.4482 24.5879 44.6929 24.7931 45.0223 25.0133L46.4677 23.5678C46.2475 23.2385 46.0424 22.9938 46.0123 22.5797C45.984 22.1864 46.1083 22.0076 46.2344 21.7008H46.2362C46.3623 21.3959 46.4 21.1832 46.6992 20.9235C47.0173 20.6487 47.3279 20.6242 47.7175 20.5452V18.5031C47.3279 18.4259 47.0155 18.3996 46.6992 18.1248C46.3661 17.8368 46.3285 17.5338 46.1402 17.1367C45.9351 16.7075 45.9727 16.222 46.2381 15.8267L46.4696 15.4823L45.0242 14.0368C44.6948 14.257 44.4501 14.4622 44.036 14.4923C43.6427 14.5205 43.4639 14.3963 43.159 14.2702V14.2683C42.8541 14.1422 42.6395 14.1046 42.3817 13.8053C42.1088 13.4872 42.0824 13.1767 42.0052 12.7871H39.9632C39.886 13.1767 39.8596 13.4891 39.5849 13.8053C39.3308 14.1008 39.12 14.1403 38.8075 14.2702V14.2683C38.5102 14.3925 38.3295 14.5205 37.9305 14.4923C37.5164 14.4622 37.2717 14.257 36.9424 14.0368L35.4969 15.4823C35.7171 15.8116 35.9223 16.0544 35.9524 16.4704C35.9863 16.9183 35.7924 17.1517 35.6475 17.562C35.4875 18.0099 35.1167 18.3299 34.6519 18.4221L34.2472 18.5012V20.5433C34.6368 20.6204 34.9492 20.6468 35.2654 20.9216C35.5986 21.2095 35.6362 21.5126 35.8244 21.9097C36.0296 22.3388 35.9919 22.8244 35.7266 23.2196L35.4951 23.5641L36.9405 25.0095C37.2699 24.7893 37.5146 24.5842 37.9286 24.554C38.3728 24.5221 38.6119 24.714 39.0202 24.8589C39.4682 25.0189 39.7882 25.3897 39.8804 25.8546L39.9594 26.2592H42.0015C42.0787 25.8696 42.105 25.5572 42.3779 25.241C42.6358 24.9493 42.8466 24.9098 43.1571 24.7799ZM36.1144 41.6532H41.5666V33.9364H36.1144V41.6532ZM18.5015 25.7662H25.8907L24.3436 14.6974H20.0486L18.5015 25.7662ZM8.08027 25.7662H15.4694L13.9224 14.6974H9.62739L8.08027 25.7662ZM20.3064 29.9294V31.7362H23.8241V29.9294H20.3064ZM19.0304 31.7362V29.9294H14.9405V31.7362H19.0304ZM13.6663 31.7362V29.9294H10.1486V31.7362H13.6663ZM9.5106 28.6533C9.15864 28.6533 8.87257 28.9394 8.87257 29.2914V32.3742C8.87257 32.7262 9.15865 33.0122 9.5106 33.0122H24.46C24.8119 33.0122 25.098 32.7262 25.098 32.3742V29.2914C25.098 28.9394 24.8119 28.6533 24.46 28.6533H9.5106Z" fill="black"/>
</svg>
