<svg width="53" height="53" viewBox="0 0 53 53" fill="none" xmlns="http://www.w3.org/2000/svg">
<path fill-rule="evenodd" clip-rule="evenodd" d="M17.6169 41.6112H13.128C12.0232 41.6112 10.9655 41.1727 10.1844 40.3916C9.40335 39.6125 8.96484 38.5528 8.96484 37.448V10.4869C8.96484 9.38212 9.40338 8.3225 10.1844 7.54331C10.9655 6.76223 12.0232 6.32373 13.128 6.32373H39.8728C40.9776 6.32373 42.0353 6.76226 42.8164 7.54331C43.5975 8.3225 44.036 9.38212 44.036 10.4869V37.448C44.036 38.5528 43.5975 39.6125 42.8164 40.3916C42.0353 41.1727 40.9776 41.6112 39.8728 41.6112H35.4273V44.7073C35.4273 44.8597 35.5515 44.9821 35.702 44.9821H38.8226C39.6865 44.9821 40.5146 45.3246 41.1244 45.9363C41.736 46.5461 42.0786 47.3743 42.0786 48.2362V48.2381C42.0786 49.102 41.7361 49.9301 41.1244 50.5399C40.5146 51.1516 39.6864 51.4941 38.8226 51.4941H35.3746C31.808 51.4941 28.9173 48.6032 28.9173 45.0349V41.6113H24.1292V45.0349C24.1292 48.6033 21.2383 51.4941 17.6719 51.4941H14.222C13.3599 51.4941 12.5318 51.1516 11.9221 50.5399C11.3104 49.9301 10.9678 49.102 10.9678 48.2381V48.2362C10.9678 47.3742 11.3104 46.5461 11.9221 45.9363C12.5318 45.3246 13.36 44.9821 14.222 44.9821H17.3425C17.495 44.9821 17.6173 44.8597 17.6173 44.7073L17.6169 41.6112ZM13.128 39.6049H39.8728C40.445 39.6049 40.9926 39.3771 41.3973 38.9725C41.802 38.5678 42.0278 38.0201 42.0278 37.448V10.4869C42.0278 9.91472 41.802 9.36704 41.3973 8.96236C40.9927 8.55771 40.445 8.32997 39.8728 8.32997H13.128C12.5559 8.32997 12.0082 8.55771 11.6035 8.96236C11.1989 9.36701 10.973 9.91472 10.973 10.4869V37.448C10.973 38.0201 11.1989 38.5678 11.6035 38.9725C12.0082 39.3771 12.5559 39.6049 13.128 39.6049ZM30.9254 41.6112V45.0348C30.9254 47.4928 32.9167 49.486 35.3747 49.486H38.8227C39.154 49.486 39.4721 49.3542 39.7054 49.1208C39.9388 48.8875 40.0705 48.5694 40.0705 48.2381V48.2363C40.0705 47.9069 39.9388 47.5888 39.7054 47.3555C39.472 47.1221 39.154 46.9903 38.8227 46.9903H35.7022C34.4431 46.9903 33.4211 45.9683 33.4211 44.7073V41.6113L30.9254 41.6112ZM19.6254 41.6112V44.7073C19.6254 45.9683 18.6034 46.9903 17.3424 46.9903H14.2218C13.8925 46.9903 13.5743 47.122 13.341 47.3554C13.1057 47.5888 12.9759 47.9069 12.9759 48.2362V48.2381C12.9759 48.5694 13.1057 48.8875 13.341 49.1208C13.5744 49.3542 13.8924 49.4859 14.2218 49.4859H17.6717C20.1279 49.4859 22.121 47.4928 22.121 45.0348V41.6112L19.6254 41.6112ZM22.4768 13.8426C23.3162 12.4028 24.8576 11.5182 26.5233 11.5182C28.1889 11.5182 29.7285 12.4028 30.5679 13.8426L39.6285 29.3735C40.4735 30.8209 40.4792 32.6108 39.6435 34.0656C38.8097 35.5186 37.2589 36.4164 35.582 36.4164H17.4632C15.7862 36.4164 14.2373 35.5186 13.4016 34.0656C12.5678 32.6108 12.5734 30.8209 13.4185 29.3735L22.4768 13.8426ZM24.2121 14.8533L15.1515 30.3842C14.6697 31.2124 14.6659 32.2343 15.1421 33.0662C15.6201 33.8963 16.5047 34.4082 17.4627 34.4082H35.5815C36.5395 34.4082 37.4259 33.8963 37.9021 33.0662C38.3802 32.2343 38.3764 31.2123 37.8946 30.3842L28.834 14.8533C28.3541 14.0308 27.4751 13.5264 26.5228 13.5264C25.5704 13.5264 24.6896 14.0308 24.2115 14.8533H24.2121ZM25.7554 16.5623C25.9982 16.0654 26.6004 15.8584 27.0973 16.1012C27.5961 16.3439 27.8012 16.9462 27.5585 17.445L25.1851 22.3008H29.4236C29.7718 22.3008 30.0955 22.4814 30.2781 22.7769C30.4607 23.0743 30.4776 23.4451 30.3214 23.7556L26.0942 32.1575C25.8458 32.6525 25.2416 32.852 24.7466 32.6036C24.2516 32.3533 24.0521 31.7491 24.3005 31.256L27.7956 24.3091H23.5778C23.2296 24.3091 22.9097 24.1304 22.7252 23.8367C22.5427 23.5431 22.5238 23.1742 22.6744 22.8637L25.7554 16.5623Z" fill="black"/>
</svg>
