<svg width="53" height="53" viewBox="0 0 53 53" fill="none" xmlns="http://www.w3.org/2000/svg">
<path d="M12.8924 7.81684C13.0505 7.92875 13.2538 7.95673 13.4364 7.88958C13.6189 7.82243 13.7563 7.67136 13.8034 7.48484C13.8278 7.06332 13.8071 6.63995 13.8147 6.21843C13.841 5.99461 13.8128 5.76893 13.7356 5.56003C13.602 5.32689 13.3272 5.21685 13.0694 5.29145C12.8473 5.353 12.6873 5.54511 12.6685 5.77266C12.6497 6.29864 12.6628 6.82645 12.6609 7.35057V7.35244C12.6478 7.53709 12.7362 7.71426 12.8924 7.81684Z" fill="black"/>
<path d="M35.3629 8.60025C35.9445 9.68575 36.5054 10.7825 37.134 11.8419C37.4652 12.4667 38.0468 12.9255 38.7356 13.1027C39.0048 13.1736 39.1855 12.905 39.3774 12.767C39.5957 12.545 39.9364 12.4275 40.0606 12.1254V12.1272C40.0908 11.6908 39.9251 11.2637 39.6089 10.9597C38.3855 9.47126 37.0888 8.04628 35.7939 6.61757C35.5831 6.41054 35.3855 6.09908 35.0768 6.05615V6.05802C34.8284 6.14382 34.6138 6.30608 34.4633 6.52057C34.3786 6.63621 34.4463 6.77423 34.4915 6.89174C34.7399 7.48113 35.0806 8.0258 35.3629 8.60025Z" fill="black"/>
<path d="M8.63385 8.57975C8.74678 8.73083 8.84465 8.92107 9.04227 8.98076C9.31894 8.96211 9.57116 8.82409 9.73488 8.604C9.87604 8.36339 9.70853 8.10413 9.57114 7.90459C9.30577 7.53343 9.07805 7.138 8.80322 6.77431C8.67147 6.571 8.41174 6.49267 8.18967 6.59152C8.02593 6.64561 7.89042 6.76685 7.82078 6.92352C7.75115 7.08205 7.75115 7.26111 7.82078 7.4178C8.0711 7.81881 8.3741 8.18435 8.63385 8.57975Z" fill="black"/>
<path d="M17.2458 8.95827C17.4565 8.97879 17.6579 8.87061 17.7558 8.6841C18.0419 8.26817 18.3223 7.84851 18.6121 7.43817H18.614C18.7138 7.23487 18.6931 6.99426 18.5576 6.81148C18.4239 6.62869 18.1962 6.53544 17.9703 6.56901C17.6297 6.65667 17.4772 7.00919 17.289 7.26842H17.2909C17.0669 7.5799 16.8693 7.90814 16.6999 8.24949C16.5926 8.60014 16.9333 8.88737 17.2458 8.95827Z" fill="black"/>
<path d="M42.9691 12.7874C43.3022 13 43.5186 13.3507 43.8555 13.5558C44.1999 13.6062 44.5425 13.4644 44.7514 13.1884C45.1504 12.7165 45.5231 12.2204 45.8656 11.7056C46.8556 10.2956 47.8606 8.89483 48.845 7.47916C49.0181 7.26093 48.8167 6.99609 48.6323 6.86364C48.5024 6.77598 48.3556 6.61744 48.1844 6.69951C47.8324 6.92519 47.5011 7.18443 47.1962 7.46982C45.8054 8.68032 44.3787 9.8479 43.0274 11.1031C42.73 11.409 42.3442 11.7485 42.3781 12.2129C42.4157 12.5244 42.7488 12.627 42.9691 12.7874Z" fill="black"/>
<path d="M9.38572 18.9257C10.2684 19.7762 11.4259 20.291 12.6549 20.3768C13.9386 20.5167 15.2297 20.2202 16.3194 19.5357C17.2511 18.9164 17.9851 18.0454 18.433 17.0271C19.5848 14.2275 18.2749 11.029 15.48 9.8181C12.6851 8.60574 9.42547 9.82556 8.13419 12.5636C7.67873 13.5652 7.52628 14.675 7.6919 15.7604C7.88575 16.9728 8.48043 18.0864 9.38572 18.9257Z" fill="black"/>
<path d="M5.52026 11.2899C5.80069 11.4447 6.06606 11.6294 6.35968 11.7599C6.83397 11.7972 7.22358 11.1314 6.85278 10.7807C6.50647 10.5327 6.1432 10.3033 5.76681 10.0999C5.53531 9.97311 5.28499 9.75862 5.00269 9.84815C4.82577 9.90224 4.6865 10.0347 4.62439 10.2081C4.56227 10.3797 4.58486 10.57 4.68461 10.7229C4.92928 10.956 5.21161 11.1482 5.52026 11.2899Z" fill="black"/>
<path d="M19.9828 11.7598C20.1447 11.7355 20.2971 11.6665 20.4232 11.5639C20.7978 11.2991 21.2175 11.1051 21.5977 10.8477C21.7407 10.7582 21.8329 10.6071 21.8499 10.4392C21.8612 10.249 21.7765 10.0643 21.624 9.94686C21.4716 9.82936 21.2702 9.79578 21.0876 9.8536C20.6773 10.0644 20.2802 10.2956 19.8944 10.5456C19.7156 10.6593 19.4859 10.7731 19.4596 11.0081H19.4577C19.3975 11.3569 19.6309 11.6908 19.9828 11.7598Z" fill="black"/>
<path d="M39.8205 14.3487C39.5701 14.7945 39.5796 15.3373 39.8412 15.7737C40.0952 16.199 40.5319 16.4862 41.025 16.5515C41.4616 16.5944 41.8964 16.447 42.2164 16.1505C42.5363 15.852 42.7114 15.4324 42.6963 14.9978C42.6813 14.5632 42.4799 14.1548 42.1392 13.8806C41.8005 13.6046 41.3582 13.487 40.9253 13.5579C40.451 13.6307 40.0407 13.9254 39.8205 14.3487Z" fill="black"/>
<path d="M5.54487 15.4249C5.80272 15.4417 6.03233 15.2645 6.0794 15.0127C6.12269 14.8504 6.08693 14.677 5.98341 14.5445C5.87801 14.414 5.71804 14.3375 5.54865 14.3412C5.0066 14.358 4.45704 14.3095 3.92063 14.3673V14.3692C3.70419 14.4587 3.56679 14.6751 3.57997 14.9064C3.59126 15.1395 3.74748 15.3391 3.97145 15.4081C4.49466 15.4454 5.02166 15.4212 5.54487 15.4249Z" fill="black"/>
<path d="M20.7604 14.3635C20.5383 14.4418 20.3897 14.6489 20.3878 14.8839C20.384 15.117 20.5289 15.3278 20.7491 15.4099C21.1914 15.4434 21.6375 15.4155 22.0798 15.4248C22.3113 15.4173 22.5936 15.4733 22.7611 15.2681V15.27C22.9004 15.1226 22.9474 14.9119 22.8853 14.7198C22.8232 14.5258 22.6614 14.3822 22.4618 14.343C21.8953 14.3523 21.325 14.3188 20.7604 14.3635Z" fill="black"/>
<path d="M31.8681 20.6862C31.9999 20.6657 32.1297 20.6303 32.2521 20.5799C34.1586 19.8805 36.069 19.1866 37.9886 18.5208C38.461 18.4294 38.8619 18.1179 39.0652 17.6852C39.1612 17.4222 39.1235 17.1312 38.9654 16.9C38.7866 16.5288 38.5175 16.2062 38.1844 15.9618C37.9585 15.8182 37.6762 15.7884 37.424 15.8854C37.2019 15.9656 36.9874 16.0663 36.7841 16.1875C36.1875 16.5326 35.604 16.9 35.0413 17.2973C33.9572 18.0489 32.8825 18.8136 31.8172 19.5895C31.6365 19.6921 31.5142 19.8712 31.4841 20.0763C31.454 20.343 31.614 20.5967 31.8681 20.6862Z" fill="black"/>
<path d="M49.2456 21.6431C48.1295 20.2033 47.0228 18.7577 45.8766 17.3421C45.5322 16.8535 45.0485 16.4785 44.4876 16.2659C44.2994 16.2062 44.0981 16.2044 43.908 16.2622C43.7141 16.4002 43.5391 16.5662 43.3923 16.7546C43.1326 16.9821 42.9726 17.2992 42.9443 17.6405C42.9707 17.911 43.0836 18.1647 43.2643 18.3679C43.5334 18.6309 43.8233 18.8715 44.1301 19.0916C45.6038 20.2312 47.053 21.4025 48.5361 22.529C48.632 22.5943 48.7525 22.6801 48.8767 22.626C49.1308 22.5123 49.3265 22.3015 49.4206 22.0404C49.4112 21.893 49.3491 21.7513 49.2456 21.6431Z" fill="black"/>
<path d="M42.0574 17.9389C41.4533 17.9426 40.8491 17.9463 40.245 17.9408C40.2205 18.1254 40.2073 18.3101 40.2054 18.4966C40.1565 20.7049 40.0944 22.9133 40.0492 25.1235C40.0022 27.7478 39.9118 30.37 39.878 32.9942C39.8554 34.9806 39.8064 36.967 39.8008 38.9532C40.7249 38.9569 41.6509 38.9532 42.575 38.9587C42.5505 37.9571 42.5618 36.9556 42.5129 35.9558C42.415 31.6306 42.3209 27.3035 42.191 22.9799C42.1365 21.2994 42.0781 19.6189 42.0574 17.9382V17.9389Z" fill="black"/>
<path d="M6.21508 18.0768C5.90453 18.2241 5.62596 18.4293 5.3267 18.5953V18.5971C5.10461 18.7016 4.89758 18.8377 4.71691 19.0037C4.58328 19.1884 4.56634 19.4346 4.67362 19.636C4.7809 19.8393 4.99546 19.9624 5.22506 19.9587C5.4735 19.8598 5.70876 19.733 5.92895 19.58C6.20374 19.4103 6.48603 19.2536 6.75898 19.082C6.90578 19.0056 7.00177 18.8601 7.01306 18.696C7.02059 18.4964 6.93213 18.3061 6.77404 18.183C6.61594 18.06 6.40707 18.0208 6.21508 18.0768Z" fill="black"/>
<path d="M19.8905 19.2261C20.2557 19.4313 20.6133 19.6476 20.9727 19.8658V19.864C21.1403 19.9628 21.3454 19.9721 21.5204 19.8882C21.6955 19.8043 21.8159 19.6383 21.8423 19.448C21.878 19.2354 21.7839 19.0228 21.6032 18.9034C21.1873 18.6143 20.7262 18.398 20.2971 18.1294C20.1785 18.0343 20.0166 18.0137 19.8793 18.079C19.6026 18.1891 19.4275 18.4614 19.4445 18.7561C19.4708 18.9967 19.7061 19.1142 19.8905 19.2261Z" fill="black"/>
<path d="M9.22212 22.4696C9.43291 22.1842 9.62489 21.8839 9.7924 21.5706C9.92791 21.1603 9.42727 20.8414 9.06779 20.8544H9.06967C8.8664 20.97 8.70078 21.136 8.58598 21.3356C8.34318 21.6974 8.08912 22.0518 7.84822 22.4136C7.74282 22.6263 7.77105 22.8781 7.92162 23.0609C8.07407 23.2436 8.31686 23.322 8.54836 23.2604C8.83068 23.0515 9.06027 22.7811 9.22212 22.4696Z" fill="black"/>
<path d="M17.2628 20.8429C16.956 20.8839 16.7076 21.1134 16.6436 21.4155C16.6981 21.6859 16.8224 21.9378 17.0068 22.1448C17.2007 22.3984 17.3588 22.6745 17.5432 22.9355C17.6655 23.15 17.8914 23.2881 18.1398 23.3011C18.4316 23.2526 18.6574 23.0195 18.6932 22.7267C18.6725 22.5532 18.6009 22.3909 18.4861 22.2585C18.2245 21.8818 17.9893 21.4882 17.7126 21.1245C17.5996 20.9921 17.4585 20.8187 17.2628 20.8429Z" fill="black"/>
<path d="M20.7785 32.2446C20.6881 33.6322 21.0759 35.0087 21.8795 36.1483C22.4442 36.9429 23.2008 37.5826 24.0816 38.0079C25.6249 38.7371 27.4054 38.78 28.9826 38.1272C30.5579 37.4726 31.7776 36.1856 32.3384 34.5872C32.7581 33.2685 32.7713 31.8566 32.376 30.5323C31.9601 29.2696 31.3879 28.0629 30.6727 26.9382C29.9971 25.7613 29.2499 24.6273 28.465 23.5213C27.8948 22.6876 27.3226 21.8557 26.6996 21.0593C25.4537 22.7286 24.3055 24.4688 23.2008 26.2314C22.6192 27.2348 21.9906 28.214 21.5107 29.2716C21.0703 30.2041 20.8199 31.215 20.7785 32.2446ZM25.1732 35.2531C25.3802 35.1785 25.608 35.1934 25.8018 35.2941C26.3777 35.516 27.0176 35.4937 27.5766 35.2344C28.4311 34.8987 29.0729 34.1825 29.3101 33.3021C29.408 32.7202 29.4249 32.1289 29.3609 31.5414C29.3364 31.2355 29.5115 30.9464 29.7957 30.8233C30.1326 30.717 30.4958 30.8774 30.6407 31.1964C30.7179 31.3922 30.7537 31.5992 30.7461 31.8081C30.8459 32.8358 30.6125 33.8672 30.0799 34.755C29.3402 35.8667 28.13 36.5885 26.79 36.7135C26.2724 36.7582 25.7529 36.6855 25.2673 36.5027C25.0415 36.4113 24.8646 36.236 24.7705 36.0141C24.6858 35.6951 24.8608 35.365 25.1732 35.2531Z" fill="black"/>
<path d="M13.7545 22.2734C13.6152 22.0029 13.2915 21.8817 13.0054 21.9917C12.7946 22.0589 12.6516 22.2547 12.6535 22.4729C12.6459 23.0418 12.6516 23.6107 12.6497 24.1777L12.6516 24.1796C12.6497 24.4444 12.836 24.6738 13.0976 24.7279C13.2783 24.754 13.459 24.6999 13.5964 24.5824C13.7338 24.4649 13.8129 24.2933 13.8129 24.1143C13.8147 23.6088 13.811 23.1052 13.8091 22.6016H13.811C13.8185 22.4897 13.7997 22.3778 13.7545 22.2734Z" fill="black"/>
<path d="M4.70884 27.1732C4.70131 28.5964 4.70884 30.0194 4.70508 31.4426C5.94725 31.4388 7.19136 31.4519 8.43353 31.4276C8.18321 31.1162 7.82374 30.9185 7.55648 30.6256C7.50378 30.2451 7.57906 29.8516 7.51131 29.4729C6.92407 28.919 6.28229 28.4247 5.67062 27.895H5.67438C5.37889 27.6208 5.05513 27.3803 4.70884 27.1732Z" fill="black"/>
<path d="M12.9493 31.4276C14.1576 31.4481 15.364 31.4332 16.5723 31.4388C16.5535 30.0156 16.5723 28.5926 16.5572 27.1694C15.6407 27.8801 14.7787 28.6597 13.9129 29.43C13.751 29.8124 13.9298 30.2712 13.8094 30.6722C13.5459 30.9501 13.1902 31.131 12.9493 31.4276Z" fill="black"/>
<path d="M11.1567 31.7953C11.7703 31.3159 12.3556 30.8049 12.9108 30.2621C12.9033 29.2923 12.924 28.3242 12.9203 27.3563C12.5589 27.36 12.1975 27.3488 11.8362 27.36C11.4353 27.3973 11.1342 27.7405 11.1511 28.1396C11.153 29.3576 11.1473 30.5755 11.1567 31.7953Z" fill="black"/>
<path d="M8.53352 30.2229C8.61821 30.3479 8.71609 30.4635 8.82901 30.5642C9.25625 30.9932 9.71926 31.3849 10.2105 31.7392C10.2331 31.6143 10.2425 31.4856 10.2406 31.3587C10.2349 30.2863 10.2444 29.2157 10.2349 28.1432C10.2538 27.7683 9.98839 27.4382 9.61571 27.3729C9.24118 27.3449 8.86475 27.3692 8.49023 27.3542C8.49023 28.1413 8.49588 28.9303 8.49964 29.7174C8.49588 29.8871 8.50717 30.055 8.53352 30.2229Z" fill="black"/>
<path d="M9.83387 32.9774C9.72471 32.638 9.40476 32.4067 9.0434 32.4104C7.9198 32.4067 6.79428 32.416 5.67068 32.4142L5.67256 32.416C5.50882 32.403 5.34695 32.4198 5.19074 32.4664C4.83879 32.6081 4.63742 32.9756 4.70704 33.3449C4.77668 33.7142 5.1004 33.9846 5.47872 33.9902C6.66823 33.9883 7.8577 33.9865 9.04716 33.9883C9.29748 33.9828 9.53274 33.8671 9.68519 33.6694C9.83764 33.4736 9.89222 33.218 9.83387 32.9774Z" fill="black"/>
<path d="M16.3762 32.6533C16.2219 32.4929 16.0055 32.4052 15.7815 32.4127C14.639 32.4108 13.4947 32.4145 12.3523 32.4127H12.3504C12.2488 32.4052 12.1452 32.4183 12.0474 32.4518C11.7594 32.5582 11.5562 32.8137 11.5223 33.1158C11.5072 33.3415 11.5882 33.5635 11.7444 33.7276C11.8987 33.8936 12.117 33.9887 12.3448 33.9906C13.4703 33.9887 14.5977 33.9924 15.725 33.9924L15.7231 33.9906C15.8831 33.9943 16.0412 33.9588 16.1842 33.8898C16.3969 33.7686 16.5418 33.5578 16.5795 33.3172C16.6171 33.0785 16.5419 32.8342 16.3762 32.6533Z" fill="black"/>
<path d="M9.36547 38.9497C9.52544 38.9665 9.68542 38.9441 9.83411 38.8844C10.0995 38.7445 10.2595 38.4648 10.2406 38.1663C10.2312 37.023 10.2519 35.8796 10.2199 34.7363C9.62895 35.1541 9.07938 35.6241 8.57685 36.1408C8.50909 36.234 8.47898 36.3497 8.49403 36.4635C8.48839 37.2934 8.49215 38.1216 8.49968 38.9515C8.78764 38.9497 9.0756 38.946 9.36547 38.9497Z" fill="black"/>
<path d="M11.1554 38.1666C11.1234 38.5303 11.3643 38.8642 11.7219 38.9537C12.1209 38.9649 12.5218 38.9481 12.9227 38.9556C12.9246 38.0491 12.9152 37.1445 12.9114 36.238H12.9095C12.5331 35.8501 12.1303 35.4864 11.7087 35.1469C11.5431 34.9847 11.3587 34.8429 11.1554 34.7291C11.1385 35.8743 11.1535 37.0196 11.1554 38.1666Z" fill="black"/>
<path d="M4.71264 39.03C4.79357 39.03 4.8745 39.03 4.95731 39.0319C5.81177 38.3156 6.67379 37.6069 7.52073 36.8814C7.53579 36.5139 7.53767 36.1446 7.58096 35.7791H7.57908C7.88397 35.5422 8.17007 35.281 8.43541 34.9994C7.19324 34.9584 5.94725 34.9715 4.70508 34.964C4.70696 36.3199 4.71264 37.6759 4.71264 39.03Z" fill="black"/>
<path d="M13.8717 36.8927C13.9527 37.0233 14.058 37.1371 14.1823 37.2285C14.8598 37.7973 15.528 38.3793 16.2187 38.9332C16.3298 39.0171 16.4502 39.088 16.5782 39.144C16.5556 37.7526 16.5707 36.3593 16.5688 34.9679C15.3642 34.9679 14.1616 34.9735 12.957 34.9623V34.9604C12.9702 35.0444 13.0173 35.1171 13.085 35.1675C13.3466 35.3838 13.5969 35.6151 13.8303 35.8594C13.883 36.2008 13.8378 36.5495 13.8717 36.8927Z" fill="black"/>
<path d="M47.8305 40.8674C47.296 41.1024 46.7954 41.412 46.2609 41.647C45.1485 42.1618 43.9572 42.4882 42.7357 42.6113C40.4659 42.891 38.1622 42.6355 36.0109 41.8671C35.1904 41.5593 34.4224 41.136 33.6263 40.7759C33.2744 40.6771 32.8942 40.7442 32.5968 40.955C31.5353 41.5313 30.4098 41.9845 29.2429 42.3016C27.6507 42.6821 26.0057 42.7978 24.3742 42.6429C23.0209 42.5348 21.6941 42.2084 20.4462 41.6768C19.8477 41.4157 19.2718 41.1098 18.6884 40.8226C18.4456 40.6995 18.1614 40.6864 17.9092 40.7853C17.7191 40.8599 17.5328 40.9475 17.3559 41.0464C16.3565 41.5947 15.2931 42.0219 14.1902 42.3147C12.7579 42.656 11.2823 42.7772 9.8143 42.6728C8.41211 42.6317 7.02881 42.3482 5.72636 41.8335C5.37629 41.6786 4.966 41.77 4.71565 42.0573C4.51803 42.3072 4.45215 42.6336 4.53497 42.9395C4.64601 43.2379 4.89633 43.4636 5.20498 43.5475C6.33803 43.956 7.5181 44.2171 8.71888 44.3253C10.6085 44.523 12.5188 44.4335 14.3822 44.0586C15.5378 43.8292 16.6558 43.4412 17.7022 42.9059C17.913 42.766 18.1708 42.7082 18.4212 42.7455C18.7618 42.8761 19.0931 43.0253 19.4168 43.1913C19.9871 43.458 20.5799 43.6781 21.186 43.8497C22.8855 44.2973 24.6434 44.4875 26.4012 44.4185C27.7751 44.3849 29.1378 44.1835 30.4609 43.8161C31.2081 43.5811 31.9364 43.292 32.6403 42.9488C32.9076 42.8499 33.1767 42.6597 33.4741 42.7492C33.8411 42.8835 34.1987 43.0383 34.5469 43.2118C35.3054 43.5494 36.0921 43.8142 36.9014 44.0007C39.0715 44.4689 41.3093 44.5528 43.5096 44.2507C44.3904 44.1294 45.258 43.9261 46.0993 43.6389C46.8917 43.3479 47.6634 42.9973 48.4049 42.5926C48.8115 42.3949 49.0317 41.9509 48.9395 41.5108C48.8962 41.2702 48.7475 41.0613 48.5348 40.9363C48.3221 40.8132 48.0639 40.7872 47.8305 40.8674Z" fill="black"/>
<path d="M5.20035 47.3954C6.64205 47.8785 8.14961 48.1489 9.67032 48.2012C11.2927 48.2795 12.917 48.1657 14.5111 47.858C15.6536 47.6136 16.7622 47.2331 17.8143 46.724C18.0043 46.6139 18.2358 46.5897 18.4466 46.6587C19.0621 46.8844 19.6437 47.1996 20.2685 47.4047H20.2666C21.65 47.8766 23.0954 48.1415 24.5559 48.1899C26.1839 48.2795 27.8157 48.1769 29.4194 47.8878C30.5016 47.6714 31.5537 47.3245 32.5493 46.8526C32.8185 46.6829 33.1384 46.6046 33.4565 46.6325C33.9025 46.7631 34.3072 47.0037 34.7401 47.1678C35.3085 47.4084 35.8957 47.6061 36.4942 47.7591C39.2383 48.3615 42.0804 48.3876 44.8354 47.8374C45.9609 47.5763 47.0507 47.1865 48.084 46.6754C48.3625 46.5766 48.6053 46.4013 48.7841 46.1718C48.9196 45.9611 48.961 45.7056 48.897 45.4649C48.8349 45.2243 48.673 45.0192 48.4528 44.9017C48.146 44.7487 47.7809 44.7618 47.4873 44.939C46.9679 45.187 46.4541 45.4463 45.9176 45.657V45.6589C43.8888 46.3975 41.7149 46.6661 39.5654 46.4441C37.815 46.3303 36.1042 45.8753 34.5328 45.1031C34.0265 44.9054 33.5108 44.4913 32.9386 44.6965C32.1237 45.0042 31.3614 45.4388 30.5408 45.7335H30.5427C29.212 46.2091 27.8117 46.4646 26.3983 46.4889C24.9679 46.5504 23.5356 46.4161 22.141 46.0879C21.0324 45.7969 19.9596 45.3847 18.9433 44.8569C18.6591 44.6666 18.3072 44.6014 17.9721 44.6816C17.7538 44.7543 17.5411 44.8438 17.3379 44.9501C16.4514 45.3922 15.5273 45.7577 14.5749 46.0413C13.1671 46.4012 11.7123 46.556 10.2574 46.4982C8.89479 46.4721 7.54343 46.2558 6.24479 45.8529C6.00012 45.7503 5.74601 45.6776 5.48631 45.6328C5.2247 45.6458 4.98001 45.7633 4.80685 45.9573C4.63181 46.1513 4.54524 46.405 4.56406 46.6642C4.61676 47.0093 4.86534 47.2928 5.20035 47.3954Z" fill="black"/>
<path d="M47.7869 48.6468C47.305 48.8165 46.8741 49.1 46.3941 49.2791C44.2542 50.1575 41.9298 50.4989 39.626 50.2695C37.7176 50.1109 35.8562 49.6036 34.1343 48.7736C33.8049 48.5647 33.4153 48.4715 33.0276 48.5088C32.5495 48.6561 32.1148 48.9098 31.6536 49.0982C29.6661 49.9897 27.4961 50.4075 25.3187 50.318C24.1593 50.2937 23.0056 50.1296 21.8857 49.8312C20.8656 49.5533 19.8737 49.1821 18.9252 48.7196C18.6429 48.5405 18.3022 48.4752 17.9747 48.5387C17.7037 48.6356 17.4439 48.7606 17.1786 48.8762C16.0832 49.3985 14.9295 49.7902 13.74 50.042C11.7224 50.428 9.65018 50.4243 7.6344 50.0308C6.96814 49.8927 6.31128 49.7118 5.66949 49.488C5.34201 49.3761 4.97688 49.4638 4.73785 49.7118C4.50447 49.9841 4.44612 50.3609 4.58164 50.691C4.7115 50.9447 4.94112 51.1331 5.21402 51.2152C7.00581 51.7822 8.87849 52.0582 10.7588 52.0321C12.1741 52.0377 13.5857 51.881 14.9653 51.5621C15.9063 51.3233 16.8211 50.9969 17.7 50.5866C17.8844 50.4747 18.1009 50.4243 18.3173 50.443C18.7238 50.5754 19.1229 50.7321 19.5106 50.913C21.0727 51.5546 22.7365 51.9165 24.4246 51.9854C25.7195 52.0694 27.0201 52.0358 28.3093 51.881C29.512 51.7206 30.6883 51.4054 31.8081 50.9466C32.2598 50.7302 32.7266 50.5512 33.2084 50.4094C33.6902 50.5157 34.1551 50.6799 34.5955 50.9018C36.2386 51.5602 37.9832 51.9295 39.7543 51.991C41.4143 52.1104 43.0818 52.0003 44.7098 51.659C45.8993 51.3904 47.053 50.9857 48.1484 50.456C48.4439 50.3497 48.6923 50.1445 48.8485 49.8741C49.0123 49.5309 48.9408 49.1243 48.6735 48.8557C48.4401 48.6263 48.0974 48.5461 47.7869 48.6468Z" fill="black"/>
</svg>
