<svg width="53" height="53" viewBox="0 0 53 53" fill="none" xmlns="http://www.w3.org/2000/svg">
<path d="M47.1698 5.30005H5.8298C5.53686 5.30005 5.2998 5.53736 5.2998 5.83005C5.2998 6.12274 5.53686 6.36005 5.8298 6.36005H7.32716V10.333C7.32716 11.5669 8.33074 12.5707 9.56465 12.5707H10.414V15.6584C9.2422 15.7778 8.15554 16.2911 7.31163 17.1355C6.34117 18.1057 5.80651 19.396 5.80651 20.7681C5.80651 22.1402 6.34117 23.4306 7.31163 24.4008C7.51866 24.6078 7.85405 24.6078 8.06108 24.4008C8.26812 24.1937 8.26812 23.8581 8.06108 23.6513C7.29093 22.8811 6.86651 21.8571 6.86651 20.7681C6.86651 19.6791 7.29093 18.6551 8.06108 17.885C8.83124 17.1148 9.85501 16.6906 10.944 16.6906C12.033 16.6906 13.0573 17.1148 13.8274 17.885C15.4169 19.4747 15.4169 22.0616 13.8274 23.6513C13.6204 23.8583 13.6204 24.194 13.8274 24.4008C13.9309 24.5043 14.0665 24.556 14.2021 24.556C14.3378 24.556 14.4734 24.5043 14.5769 24.4008C16.5799 22.3977 16.5799 19.1385 14.5769 17.1355C13.7325 16.2911 12.6458 15.7778 11.474 15.6584V12.5707H12.3233C13.5572 12.5707 14.5613 11.5669 14.5613 10.333V6.36005H22.8825V10.333C22.8825 11.5669 23.8866 12.5707 25.1205 12.5707H25.9698V17.6898C24.5276 17.8122 23.1871 18.4297 22.1521 19.4651C20.9907 20.6263 20.351 22.1702 20.351 23.8128C20.351 25.4553 20.9907 26.9995 22.1521 28.1607C22.3592 28.3677 22.6946 28.3677 22.9016 28.1607C23.1086 27.9537 23.1086 27.6183 22.9016 27.4112C21.9405 26.4501 21.411 25.1722 21.411 23.8128C21.411 22.4536 21.9405 21.1757 22.9016 20.2146C23.8627 19.2534 25.1406 18.724 26.4998 18.724C27.859 18.724 29.1369 19.2534 30.098 20.2146C31.0592 21.1757 31.5886 22.4536 31.5886 23.8128C31.5886 25.1722 31.0592 26.4501 30.098 27.4112C29.891 27.6183 29.891 27.9537 30.098 28.1607C30.2015 28.2642 30.3371 28.316 30.4727 28.316C30.6083 28.316 30.7439 28.2642 30.8475 28.1607C32.0089 26.9995 32.6486 25.4553 32.6486 23.8128C32.6486 22.1702 32.0089 20.6263 30.8475 19.4651C29.8125 18.4297 28.472 17.8122 27.0298 17.6898V12.5707H27.8792C29.1131 12.5707 30.1166 11.5669 30.1166 10.333V6.36005H38.4383V10.333C38.4383 11.5669 39.4424 12.5707 40.6763 12.5707H41.5256V15.6584C40.3538 15.7778 39.2671 16.2911 38.4227 17.1355C36.4197 19.1385 36.4197 22.3977 38.4227 24.4008C38.6298 24.6078 38.9652 24.6078 39.1722 24.4008C39.3792 24.194 39.3792 23.8583 39.1722 23.6513C37.5827 22.0616 37.5827 19.4747 39.1722 17.885C39.9423 17.1148 40.9666 16.6906 42.0556 16.6906C43.1446 16.6906 44.1684 17.1148 44.9385 17.885C45.7087 18.6551 46.1331 19.6791 46.1331 20.7681C46.1331 21.8571 45.7087 22.8811 44.9385 23.6513C44.7315 23.8581 44.7315 24.1937 44.9385 24.4008C45.042 24.5043 45.1777 24.556 45.3133 24.556C45.4489 24.556 45.5845 24.5043 45.688 24.4008C46.6584 23.4306 47.1931 22.1402 47.1931 20.7681C47.1931 19.396 46.6584 18.1057 45.688 17.1355C44.8441 16.2911 43.7574 15.7778 42.5856 15.6584V12.5707H43.435C44.6689 12.5707 45.6725 11.5669 45.6725 10.333V6.36005H47.1698C47.4628 6.36005 47.6998 6.12274 47.6998 5.83005C47.6998 5.53736 47.4628 5.30005 47.1698 5.30005ZM13.5013 10.333C13.5013 10.9823 12.9729 11.5107 12.3233 11.5107H9.56465C8.91561 11.5107 8.38716 10.9823 8.38716 10.333V6.36005H13.5013V10.333ZM29.0566 10.333C29.0566 10.9823 28.5282 11.5107 27.8792 11.5107H25.1205C24.4709 11.5107 23.9425 10.9823 23.9425 10.333V6.36005H29.0566V10.333ZM44.6125 10.333C44.6125 10.9823 44.084 11.5107 43.435 11.5107H40.6763C40.0267 11.5107 39.4983 10.9823 39.4983 10.333V6.36005H44.6125V10.333Z" fill="black"/>
<path d="M12.2675 43.3799H10.0564C9.76342 43.3799 9.52637 43.6172 9.52637 43.9099C9.52637 44.2026 9.76342 44.4399 10.0564 44.4399H12.2675C12.5604 44.4399 12.7975 44.2026 12.7975 43.9099C12.7975 43.6172 12.5604 43.3799 12.2675 43.3799Z" fill="black"/>
<path d="M18.4022 43.3799H16.1911C15.8982 43.3799 15.6611 43.6172 15.6611 43.9099C15.6611 44.2026 15.8982 44.4399 16.1911 44.4399H18.4022C18.6952 44.4399 18.9322 44.2026 18.9322 43.9099C18.9322 43.6172 18.6952 43.3799 18.4022 43.3799Z" fill="black"/>
<path d="M24.538 43.3798H22.3269C22.0339 43.3798 21.7969 43.6171 21.7969 43.9098C21.7969 44.2025 22.0339 44.4398 22.3269 44.4398H24.538C24.8309 44.4398 25.068 44.2025 25.068 43.9098C25.068 43.6171 24.8309 43.3798 24.538 43.3798Z" fill="black"/>
<path d="M30.6737 43.3799H28.4626C28.1697 43.3799 27.9326 43.6172 27.9326 43.9099C27.9326 44.2026 28.1697 44.4399 28.4626 44.4399H30.6737C30.9667 44.4399 31.2037 44.2026 31.2037 43.9099C31.2037 43.6172 30.9667 43.3799 30.6737 43.3799Z" fill="black"/>
<path d="M36.8085 43.3798H34.5974C34.3044 43.3798 34.0674 43.6171 34.0674 43.9098C34.0674 44.2025 34.3044 44.4398 34.5974 44.4398H36.8085C37.1014 44.4398 37.3385 44.2025 37.3385 43.9098C37.3385 43.6171 37.1014 43.3798 36.8085 43.3798Z" fill="black"/>
<path d="M42.9442 43.3799H40.7331C40.4402 43.3799 40.2031 43.6172 40.2031 43.9099C40.2031 44.2026 40.4402 44.4399 40.7331 44.4399H42.9442C43.2372 44.4399 43.4742 44.2026 43.4742 43.9099C43.4742 43.6172 43.2372 43.3799 42.9442 43.3799Z" fill="black"/>
<path d="M44.4577 29.8909H39.653C37.8658 29.8909 36.4114 31.3453 36.4114 33.133V37.9374C36.4114 38.7782 36.7359 39.5428 37.2626 40.1195H31.2927C31.8195 39.5428 32.144 38.7782 32.144 37.9374V33.133C32.144 31.3453 30.6896 29.8909 28.9019 29.8909H24.0977C22.31 29.8909 20.8556 31.3453 20.8556 33.133V37.9374C20.8556 38.7782 21.1801 39.5428 21.7069 40.1195H15.737C16.2637 39.5428 16.5882 38.7782 16.5882 37.9374V33.133C16.5882 31.3453 15.1338 29.8909 13.3466 29.8909H8.54191C6.7542 29.8909 5.2998 31.3453 5.2998 33.133V37.9374C5.2998 39.1544 5.97463 40.2158 6.96903 40.7701C5.9626 41.4522 5.2998 42.605 5.2998 43.9097C5.2998 45.9997 7.00005 47.7 9.09003 47.7H43.9096C45.9996 47.7 47.6998 45.9997 47.6998 43.9097C47.6998 42.605 47.037 41.4522 46.0306 40.7701C47.025 40.2158 47.6998 39.1544 47.6998 37.9374V33.133C47.6998 31.3453 46.2454 29.8909 44.4577 29.8909ZM21.9156 37.9374V33.133C21.9156 31.9299 22.8944 30.9509 24.0977 30.9509H28.9019C30.1053 30.9509 31.084 31.9299 31.084 33.133V37.9374C31.084 39.1405 30.1053 40.1195 28.9019 40.1195H24.0977C22.8944 40.1195 21.9156 39.1405 21.9156 37.9374ZM8.54191 40.1195C7.33855 40.1195 6.3598 39.1405 6.3598 37.9374V33.133C6.3598 31.9299 7.33855 30.9509 8.54191 30.9509H13.3466C14.5494 30.9509 15.5282 31.9299 15.5282 33.133V37.9374C15.5282 39.1405 14.5494 40.1195 13.3466 40.1195H9.09003H8.54191ZM46.6398 43.9097C46.6398 45.4151 45.4152 46.64 43.9096 46.64H9.09003C7.58439 46.64 6.3598 45.4151 6.3598 43.9097C6.3598 42.4044 7.58439 41.1795 9.09003 41.1795H13.3466H24.0977H28.9019H39.653H43.9096C45.4152 41.1795 46.6398 42.4044 46.6398 43.9097ZM46.6398 37.9374C46.6398 39.1405 45.6611 40.1195 44.4577 40.1195H43.9096H39.653C38.4502 40.1195 37.4714 39.1405 37.4714 37.9374V33.133C37.4714 31.9299 38.4502 30.9509 39.653 30.9509H44.4577C45.6611 30.9509 46.6398 31.9299 46.6398 33.133V37.9374Z" fill="black"/>
</svg>
