<svg width="56" height="55" viewBox="0 0 56 55" fill="none" xmlns="http://www.w3.org/2000/svg">
<path d="M34.6703 9.95698L37.1833 11.427V5.41748H31.6523V11.427L34.1653 9.95698C34.2419 9.91216 34.3291 9.88854 34.4178 9.88854C34.5066 9.88854 34.5937 9.91216 34.6703 9.95698Z" fill="#061C3D"/>
<path d="M22.0781 5.41699V27.7085H46.7571V5.41699H38.1831V12.3C38.1831 12.4326 38.1304 12.5598 38.0367 12.6535C37.9429 12.7473 37.8157 12.8 37.6831 12.8C37.5945 12.7998 37.5074 12.7764 37.4306 12.732L34.4176 10.9675L31.4046 12.7305C31.3287 12.7743 31.2426 12.7974 31.1549 12.7975C31.0672 12.7975 30.981 12.7745 30.9051 12.7307C30.8291 12.687 30.7659 12.624 30.722 12.5481C30.678 12.4723 30.6548 12.3862 30.6546 12.2985V5.41699H22.0781ZM29.7471 25.812H24.9331C24.8005 25.812 24.6733 25.7593 24.5796 25.6655C24.4858 25.5718 24.4331 25.4446 24.4331 25.312C24.4331 25.1794 24.4858 25.0522 24.5796 24.9584C24.6733 24.8647 24.8005 24.812 24.9331 24.812H29.7471C29.8797 24.812 30.0069 24.8647 30.1007 24.9584C30.1944 25.0522 30.2471 25.1794 30.2471 25.312C30.2471 25.4446 30.1944 25.5718 30.1007 25.6655C30.0069 25.7593 29.8797 25.812 29.7471 25.812ZM34.0471 21.893C34.1797 21.893 34.3069 21.9457 34.4007 22.0394C34.4944 22.1332 34.5471 22.2604 34.5471 22.393C34.5471 22.5256 34.4944 22.6528 34.4007 22.7465C34.3069 22.8403 34.1797 22.893 34.0471 22.893H24.9331C24.8005 22.893 24.6733 22.8403 24.5796 22.7465C24.4858 22.6528 24.4331 22.5256 24.4331 22.393C24.4331 22.2604 24.4858 22.1332 24.5796 22.0394C24.6733 21.9457 24.8005 21.893 24.9331 21.893H34.0471Z" fill="#061C3D"/>
<path d="M15.2695 32.256V43.36C16.9055 44.3235 26.328 49.766 29.9365 49.5785C36.0645 49.2285 50.1265 39.1445 50.2675 39.0425C50.283 39.0315 50.299 39.0215 50.3175 39.012C50.7528 38.7688 51.0759 38.3655 51.2183 37.8877C51.3607 37.4099 51.311 36.8955 51.0799 36.4537C50.8488 36.012 50.4544 35.6779 49.9808 35.5225C49.5071 35.367 48.9914 35.4026 48.5435 35.6215L39.387 39.85C39.1129 40.2293 38.7528 40.5382 38.3363 40.7514C37.9197 40.9646 37.4585 41.076 36.9905 41.0765H26.0825C25.9499 41.0765 25.8227 41.0238 25.729 40.93C25.6352 40.8363 25.5825 40.7091 25.5825 40.5765C25.5825 40.4439 25.6352 40.3167 25.729 40.2229C25.8227 40.1292 25.9499 40.0765 26.0825 40.0765H36.9905C37.3716 40.0758 37.7443 39.9643 38.0632 39.7557C38.3822 39.5471 38.6336 39.2504 38.787 38.9015C38.8005 38.8715 38.81 38.8405 38.8215 38.81C38.8519 38.731 38.8771 38.6502 38.897 38.568C38.9055 38.5315 38.9145 38.495 38.921 38.458C38.9392 38.3573 38.9496 38.2553 38.952 38.153C38.952 38.1395 38.9545 38.127 38.9545 38.1135C38.9532 37.5927 38.7456 37.0937 38.3771 36.7257C38.0086 36.3576 37.5093 36.1506 36.9885 36.15H31.3435C31.2197 36.1499 31.1004 36.104 31.0085 36.021C28.4795 33.7385 25.304 32.3365 22.5125 32.271C19.272 32.1895 16.383 32.2325 15.2695 32.256Z" fill="#061C3D"/>
<path d="M5.71297 29.8805C5.33661 29.881 4.97581 30.0307 4.70964 30.2968C4.44346 30.5629 4.29363 30.9236 4.29297 31.3V44.112C4.29337 44.4885 4.4431 44.8494 4.70932 45.1157C4.97553 45.3819 5.33648 45.5316 5.71297 45.532H12.849C13.2255 45.5316 13.5864 45.3819 13.8526 45.1157C14.1188 44.8494 14.2686 44.4885 14.269 44.112V31.3C14.2684 30.9236 14.1187 30.5627 13.8525 30.2965C13.5863 30.0303 13.2254 29.8805 12.849 29.88L5.71297 29.8805Z" fill="#061C3D"/>
</svg>
