<svg width="56" height="55" viewBox="0 0 56 55" fill="none" xmlns="http://www.w3.org/2000/svg">
<g clip-path="url(#clip0_324_4522)">
<path d="M51.8555 38.6719H50.1367V36.0938C50.1367 35.6194 49.7517 35.2344 49.2773 35.2344H44.9805C44.5061 35.2344 44.1211 35.6194 44.1211 36.0938V38.6719H37.2461V36.0938C37.2461 35.6194 36.8611 35.2344 36.3867 35.2344H32.0898C31.6155 35.2344 31.2305 35.6194 31.2305 36.0938V38.6719H24.3555V36.0938C24.3555 35.6194 23.9705 35.2344 23.4961 35.2344H19.1992C18.7248 35.2344 18.3398 35.6194 18.3398 36.0938V38.6719H11.4648V36.0938C11.4648 35.6194 11.0798 35.2344 10.6055 35.2344H6.30859C5.83422 35.2344 5.44922 35.6194 5.44922 36.0938V38.6719H3.73047C3.25609 38.6719 2.87109 39.0569 2.87109 39.5312V42.9688C2.87109 43.4431 3.25609 43.8281 3.73047 43.8281H5.44922V47.2656H3.73047C3.25609 47.2656 2.87109 47.6506 2.87109 48.125V51.5625C2.87109 52.0369 3.25609 52.4219 3.73047 52.4219H51.8555C52.3298 52.4219 52.7148 52.0369 52.7148 51.5625V48.125C52.7148 47.6506 52.3298 47.2656 51.8555 47.2656H50.1367V43.8281H51.8555C52.3298 43.8281 52.7148 43.4431 52.7148 42.9688V39.5312C52.7148 39.0569 52.3298 38.6719 51.8555 38.6719ZM18.3398 47.2656H11.4648V43.8281H18.3398V47.2656ZM31.2305 47.2656H24.3555V43.8281H31.2305V47.2656ZM44.1211 47.2656H37.2461V43.8281H44.1211V47.2656Z" fill="#061C3D"/>
<path d="M21.7773 17.7074C21.7773 15.8503 21.2334 14.0525 20.203 12.5073C19.0806 10.8247 18.4524 8.88594 18.3587 6.87415H11.4459C11.3523 8.88594 10.7241 10.8238 9.60172 12.5073C8.57133 14.0534 8.02734 15.8503 8.02734 17.7074V20.625H21.7773V17.7074Z" fill="#061C3D"/>
<path d="M17.8723 1.71875H11.9332C10.7249 1.71875 9.74609 2.69758 9.74609 3.90586V5.15625H20.0595L20.0586 3.905C20.0586 2.69758 19.0798 1.71875 17.8723 1.71875Z" fill="#061C3D"/>
<path d="M43.2621 37.8125V36.0938C43.2621 35.1459 44.033 34.375 44.9809 34.375H49.2184C48.7948 30.9848 45.9081 28.3594 42.4027 28.3594C42.3159 28.3594 42.2317 28.368 42.1458 28.3714C41.7479 26.785 42.0702 25.0783 43.0902 23.7179L41.7152 22.6875C40.4038 24.4355 39.9784 26.62 40.4537 28.6653C37.8773 29.4284 35.9299 31.6439 35.5879 34.375H36.3871C37.335 34.375 38.1059 35.1459 38.1059 36.0938V37.8125H43.2621Z" fill="#061C3D"/>
<path d="M50.2633 5.55844L52.2175 3.11523C52.4237 2.85656 52.4641 2.50336 52.3215 2.20516C52.178 1.90867 51.8772 1.71875 51.5472 1.71875H37.5084C36.4402 1.71875 35.3703 1.97141 34.4147 2.44922C31.1259 4.09406 29.3332 7.66477 29.8755 11.2217C28.6526 11.3807 27.5062 11.9565 26.6571 12.8648C25.6508 13.9408 25.1291 15.4009 25.2314 16.9142L27.6866 37.8125H30.3713V36.0938C30.3713 35.1459 31.1422 34.375 32.0901 34.375H35.5448L35.898 16.7209C35.9547 15.2556 35.4253 13.8669 34.4087 12.8098C33.6481 12.0192 32.6908 11.495 31.6423 11.281C31.4026 10.0959 31.4748 8.89969 31.8494 7.80398L32.6272 8.06266C33.8088 8.45711 35.1099 8.24656 36.1051 7.49891L36.8587 6.93344C37.4921 6.45906 38.3257 6.38344 39.0347 6.73664L39.5348 6.98672C40.597 7.51781 41.8672 7.51867 42.9302 6.98672L43.7406 6.58195C44.3233 6.28977 45.0177 6.28977 45.5994 6.58195C47.1902 7.37687 49.1521 6.94633 50.2633 5.55844ZM26.9338 19.7656C26.4594 19.7656 26.0744 19.3806 26.0744 18.9062C26.0744 18.4319 26.4594 18.0469 26.9338 18.0469H28.6526C29.1269 18.0469 29.5119 18.4319 29.5119 18.9062C29.5119 19.3806 29.1269 19.7656 28.6526 19.7656H26.9338ZM30.3713 28.3594H28.6526C28.1782 28.3594 27.7932 27.9744 27.7932 27.5C27.7932 27.0256 28.1782 26.6406 28.6526 26.6406H30.3713C30.8457 26.6406 31.2307 27.0256 31.2307 27.5C31.2307 27.9744 30.8457 28.3594 30.3713 28.3594ZM34.6682 30.0781C34.6682 30.5525 34.2832 30.9375 33.8088 30.9375H32.0901C31.6157 30.9375 31.2307 30.5525 31.2307 30.0781C31.2307 29.6038 31.6157 29.2188 32.0901 29.2188H33.8088C34.2832 29.2188 34.6682 29.6038 34.6682 30.0781ZM32.0901 21.4844C32.5644 21.4844 32.9494 21.8694 32.9494 22.3438C32.9494 22.8181 32.5644 23.2031 32.0901 23.2031H30.3713C29.8969 23.2031 29.5119 22.8181 29.5119 22.3438C29.5119 21.8694 29.8969 21.4844 30.3713 21.4844H32.0901Z" fill="#061C3D"/>
<path d="M17.4805 37.8125V36.0938C17.4805 35.1459 18.2513 34.375 19.1992 34.375H21.7773V22.3438H8.02734V34.375H10.6055C11.5534 34.375 12.3242 35.1459 12.3242 36.0938V37.8125H17.4805Z" fill="#061C3D"/>
</g>
<defs>
<clipPath id="clip0_324_4522">
<rect width="55" height="55" fill="white" transform="translate(0.292969)"/>
</clipPath>
</defs>
</svg>
