<svg width="56" height="55" viewBox="0 0 56 55" fill="none" xmlns="http://www.w3.org/2000/svg">
<path d="M9.59521 20.045L9.02881 21.5782L10.8335 23.3829L12.3667 22.8165L13.1421 23.1368L13.8257 24.6192H16.3785L17.0601 23.1348L17.8336 22.8145L19.3668 23.3809L21.1715 21.5762L20.607 20.043L20.9273 19.2695L22.4117 18.5879V16.0351L20.9293 15.3515L20.609 14.5761L21.1735 13.0468L19.3688 11.2402L17.8356 11.8066L17.0621 11.4863L16.3805 10.0019H13.8277L13.1441 11.4843L12.3687 11.8046L10.8355 11.2382L9.03081 13.0448L9.59721 14.5741L9.2769 15.3476L7.7945 16.0312V18.5839L9.2789 19.2656L9.59921 20.039L9.59521 20.045ZM15.1012 13.8475C17.0114 13.8475 18.5641 15.4002 18.5641 17.3104C18.5641 19.2186 17.0114 20.7733 15.1012 20.7733C13.193 20.7733 11.6383 19.2205 11.6383 17.3104C11.6383 15.4022 13.1911 13.8475 15.1012 13.8475ZM42.6287 42.6915C42.6287 43.8751 41.6658 44.836 40.4842 44.836C39.3006 44.836 38.3396 43.8731 38.3396 42.6915C38.3396 41.5079 39.3025 40.545 40.4842 40.545C41.6678 40.545 42.6287 41.5079 42.6287 42.6915ZM12.9567 17.3105C12.9567 16.1269 13.9196 15.1659 15.1013 15.1659C16.2849 15.1659 17.2458 16.1288 17.2458 17.3105C17.2458 18.4941 16.2829 19.457 15.1013 19.457C13.9177 19.457 12.9567 18.4941 12.9567 17.3105ZM45.9877 39.957L46.5522 38.4277L44.7475 36.621L43.2143 37.1874L42.4408 36.8671L41.7572 35.3867H39.2045L38.5209 36.8671L37.7455 37.1874L36.2162 36.621L34.4095 38.4277L34.9759 39.957L34.6556 40.7324L33.1751 41.416V43.9687L34.6556 44.6523L34.9759 45.4258L34.4095 46.959L36.2162 48.7617L37.7455 48.1992L38.5209 48.5196L39.2045 50.002H41.7572L42.4408 48.5196L43.2143 48.2012L44.7475 48.7637L46.5522 46.959L45.9877 45.4277L46.308 44.6562L47.7924 43.9726V41.4199L46.31 40.7363L45.9897 39.9609L45.9877 39.957ZM40.4817 46.1525C38.5716 46.1525 37.0188 44.5997 37.0188 42.6896C37.0188 40.7814 38.5716 39.2267 40.4817 39.2267C42.3899 39.2267 43.9446 40.7794 43.9446 42.6896C43.9446 44.5978 42.3919 46.1525 40.4817 46.1525ZM28.5092 35.416C29.2631 36.6308 30.3686 37.2968 31.3745 37.1269C32.1128 37 32.7514 36.4492 33.1694 35.5761C33.6244 34.6269 33.7612 33.4316 33.5541 32.2109C33.3471 30.9921 32.8217 29.9101 32.0795 29.164C31.3959 28.4784 30.6127 28.1698 29.8744 28.2968C29.0561 28.4355 28.3725 29.0858 27.9701 30.0976C28.0971 30.3144 28.2104 30.5468 28.3119 30.7948C28.8373 32.0937 28.9272 33.6679 28.5619 35.2245C28.5463 35.289 28.5287 35.3515 28.5131 35.4159L28.5092 35.416ZM29.5854 34.1953C29.8803 33.9824 30.2924 34.0508 30.5053 34.3476C30.7533 34.6933 30.9662 34.8593 31.0502 34.8984C31.3861 34.8691 31.6967 35.1035 31.7553 35.4433C31.8158 35.8027 31.5756 36.1425 31.2162 36.2031C31.1537 36.2129 31.0912 36.2187 31.0307 36.2187C30.3725 36.2187 29.8061 35.6328 29.435 35.1152C29.2221 34.8203 29.2904 34.4082 29.5873 34.1953L29.5854 34.1953ZM25.2494 29.4961C24.4545 29.3105 23.5873 29.5918 22.8022 30.2851C21.9545 31.0371 21.3217 32.1621 21.017 33.455C20.7143 34.748 20.7826 36.039 21.2084 37.0878C21.601 38.0585 22.2553 38.6952 23.0483 38.8808C23.6596 39.0253 24.3198 38.8925 24.9565 38.498C26.0444 37.8222 26.9116 36.4882 27.2768 34.9257C27.5795 33.6308 27.5131 32.3398 27.0893 31.291C26.6967 30.3203 26.0444 29.6836 25.2514 29.498L25.2494 29.4961ZM24.0522 37.4846C23.9799 37.7873 23.7104 37.9904 23.4116 37.9904C23.3608 37.9904 23.31 37.9846 23.2592 37.9729C22.5971 37.8147 22.2319 37.1311 22.0737 36.7385C21.9233 36.3654 21.8295 35.9572 21.7905 35.5236C21.7592 35.1623 22.0268 34.842 22.3881 34.8107C22.7494 34.7795 23.0698 35.047 23.101 35.4084C23.1284 35.7131 23.1928 35.9943 23.2944 36.2463C23.3979 36.5002 23.5287 36.6603 23.5815 36.6955C23.9252 36.7873 24.1342 37.1369 24.0522 37.4846ZM36.0952 22.1036C35.3745 22.2188 34.6323 22.4044 33.894 22.6544C36.2397 24.2833 37.1108 26.629 36.4136 29.4999C36.3667 29.6933 36.23 29.8534 36.0444 29.9296C35.9683 29.9608 35.8901 29.9765 35.81 29.9765C35.6948 29.9765 35.5796 29.9452 35.48 29.8808C33.2925 28.5077 32.0933 26.5644 31.8999 24.0918C31.0932 24.9765 30.5835 26.0371 30.2671 26.9531C30.2436 26.9531 30.2221 26.9512 30.2007 26.9512C30.0171 26.9512 29.8315 26.9668 29.6538 26.998C29.3491 27.0488 29.0581 27.1445 28.7807 27.2773C28.9956 26.4844 29.2983 25.6894 29.7026 24.9433C28.4546 25.9511 27.396 27.2129 26.6987 28.7148C26.3472 28.4804 25.9624 28.3105 25.5483 28.2129C25.5268 28.207 25.5053 28.2051 25.4839 28.1992C25.8081 27.4941 26.2026 26.8359 26.6538 26.2285C25.8823 26.4355 25.1128 26.539 24.3589 26.539C22.4643 26.539 20.6616 25.8906 19.1614 24.6132C19.0071 24.4824 18.925 24.2851 18.9367 24.0839C18.9504 23.8828 19.0578 23.6992 19.2278 23.5879C21.7141 21.9746 25.7023 21.664 28.6693 24.0956C30.806 22.2987 33.4603 21.1913 35.8863 20.8007C36.2456 20.7441 36.5835 20.9883 36.6402 21.3477C36.6968 21.707 36.4527 22.0449 36.0933 22.1015L36.0952 22.1036ZM22.7007 12.7131L21.1265 11.1369C23.2398 10.3908 25.4859 10.0002 27.7945 10.0002C33.023 10.0002 37.947 11.9944 41.695 15.6232L40.2965 15.1525L39.6227 18.5002C36.6207 15.4142 32.4272 13.4942 27.7947 13.4942C25.824 13.4942 23.9314 13.8418 22.1777 14.4786L22.0683 14.4278L22.7011 12.7149L22.7007 12.7131ZM41.6462 16.9963L46.8452 18.7502C46.9682 18.7912 47.0541 18.9006 47.0678 19.0295C47.0815 19.1584 47.017 19.2834 46.9057 19.3478L45.2846 20.2834C46.9233 23.2209 47.7963 26.5434 47.7963 30.0004C47.7963 32.307 47.4057 34.5551 46.6596 36.6684L45.0874 35.0922L43.3706 35.725L43.3198 35.6137C43.9565 33.8598 44.3042 31.9692 44.3042 29.9987C44.3042 27.112 43.56 24.3972 42.2514 22.0337L40.6264 22.9712C40.5151 23.0357 40.3745 23.0298 40.269 22.9536C40.1635 22.8775 40.1128 22.7486 40.1381 22.6216L41.2202 17.2426C41.2378 17.1508 41.2964 17.0688 41.3784 17.0219C41.4604 16.975 41.5581 16.9653 41.6479 16.9946L41.6462 16.9963ZM32.8827 47.2933L34.4569 48.8636C32.3436 49.6077 30.0995 49.9983 27.7929 49.9983C22.5584 49.9983 17.6329 48.0022 13.8849 44.3713L15.2911 44.846L15.961 41.512C16.0137 41.5647 16.0645 41.6194 16.1173 41.6721C19.2345 44.7893 23.3788 46.5061 27.7913 46.5061C29.76 46.5061 31.6487 46.1585 33.4028 45.5237L33.516 45.5764L32.8827 47.2933ZM13.9412 43.0023L8.74216 41.2503C8.61912 41.2093 8.53318 41.1 8.51951 40.971C8.50584 40.8421 8.57029 40.7171 8.68162 40.6527L10.3027 39.7171C8.66407 36.7796 7.79297 33.4556 7.79297 29.9981C7.79297 27.6934 8.18359 25.4473 8.92772 23.3361L10.5 24.9084L12.2168 24.2756L12.2695 24.3869C11.6348 26.1389 11.2871 28.0295 11.2871 29.9984C11.2871 32.8324 11.9981 35.5569 13.3301 37.9689L14.9648 37.0256C15.0761 36.9611 15.2168 36.967 15.3222 37.0431C15.4277 37.1193 15.4785 37.2482 15.4531 37.3752L14.371 42.7542C14.3535 42.846 14.2949 42.928 14.2128 42.9749C14.162 43.0042 14.1054 43.0198 14.0488 43.0198C14.0136 43.0198 13.9785 43.0139 13.9433 43.0022L13.9412 43.0023Z" fill="#061C3D"/>
</svg>
