<svg width="108" height="55" viewBox="0 0 108 55" fill="none" xmlns="http://www.w3.org/2000/svg">
<path d="M107.066 51.4042L107.066 52.7527C106.61 52.9291 106.139 53.0666 105.653 53.1596C104.926 53.2998 104.199 53.4215 103.475 53.5168C99.5757 54.0334 95.7289 53.8284 91.995 52.0568C88.8414 50.5588 85.53 49.7314 81.9924 50.0848C79.4187 50.3417 77.03 51.1835 74.7151 52.2859C72.8172 53.1909 70.9266 54.1276 68.8453 54.5473C66.0613 55.1079 63.3877 54.5993 60.7982 53.5801C58.9026 52.8345 57.0448 51.992 55.1616 51.2106C51.5687 49.7178 47.9189 49.6677 44.2657 50.9273C42.3216 51.5972 40.4045 52.359 38.5075 53.157C33.5182 55.2545 28.6661 54.9516 23.8894 52.4758C22.5534 51.7833 21.1811 51.1465 19.7788 50.6051C17.4888 49.722 15.198 49.8647 12.9637 50.8783C11.4381 51.5715 9.93595 52.3236 8.38816 52.9641C6.72207 53.6528 5.13396 53.8186 3.60614 53.5801C2.37145 53.3876 1.17597 52.9321 0.0132446 52.2753L0.0132446 51.0162C0.0324601 51.0297 0.0524172 51.0433 0.0716326 51.0569C1.23097 51.8601 2.41064 52.3334 3.60614 52.5142C5.35513 52.7795 7.1384 52.4245 8.95031 51.5727C10.0656 51.0486 11.1925 50.5482 12.2912 49.9966C15.2963 48.4873 18.3056 48.5543 21.3198 49.9405C22.6882 50.5701 24.0378 51.2426 25.398 51.8937C29.7972 54.001 34.1678 53.7546 38.5926 51.8922C40.9339 50.9069 43.3355 50.0215 45.7785 49.3312C49.4049 48.3049 52.9289 48.9612 56.3409 50.4299C58.27 51.2603 60.1942 52.1122 62.1666 52.8281C65.5772 54.0654 68.9222 53.7715 72.1831 52.1955C74.5158 51.0689 76.8521 49.9405 79.3931 49.3376C83.4016 48.3885 87.2816 48.8444 91.0569 50.4028C91.5467 50.6051 92.0516 50.7856 92.5263 51.0214C95.8344 52.6608 99.3459 52.8239 102.925 52.4423C103.121 52.4223 103.302 52.4019 103.475 52.3831C105.099 52.1996 105.755 52.053 107.066 51.4042Z" fill="#00CFFF"/>
<path d="M107.066 43.8816L107.066 45.1517C105.906 45.6449 104.7 45.8823 103.475 46.0104C102.454 46.1181 101.422 46.1479 100.39 46.1871C97.3829 46.299 94.5383 45.7044 91.8029 44.4207C88.9846 43.0994 86.0232 42.3112 82.8658 42.4619C79.9013 42.6051 77.1822 43.5813 74.518 44.8039C72.9973 45.5032 71.4609 46.1965 69.8712 46.71C66.842 47.6878 63.861 47.1806 60.9572 46.0887C59.6264 45.5884 58.2986 45.0586 57.0312 44.4207C52.1764 41.9781 47.2878 41.9337 42.3189 44.033C40.6769 44.7271 39.012 45.3672 37.344 45.9972C33.0209 47.6294 28.8033 47.2496 24.6795 45.2813C23.319 44.6329 21.9724 43.952 20.5956 43.3413C17.8188 42.1062 15.0699 42.2193 12.3533 43.5768C11.1574 44.1755 9.95214 44.761 8.72688 45.2945C6.94436 46.071 5.24586 46.276 3.60614 46.0186C2.37937 45.8284 1.18539 45.3781 0.0132446 44.7161L0.0132446 43.4622C1.17182 44.2674 2.36995 44.7689 3.60614 44.9618C5.10683 45.1965 6.66254 44.9765 8.27513 44.2877C9.64207 43.7037 10.9996 43.0956 12.3262 42.4284C15.4606 40.8508 18.552 41.0693 21.6487 42.5214C23.4554 43.3669 25.239 44.278 27.0969 44.9923C30.1152 46.1535 33.2123 46.1991 36.2724 45.1246C38.4332 44.3654 40.5488 43.4732 42.6979 42.6767C45.5381 41.6236 48.4449 41.003 51.4998 41.4484C53.7525 41.7773 55.8206 42.659 57.8955 43.5365C59.4576 44.1973 61.0205 44.8725 62.6248 45.4143C65.6322 46.4312 68.6027 46.2262 71.5065 44.9347C73.4841 44.0545 75.4373 43.1009 77.4697 42.3666C82.0987 40.6922 86.6825 41.0302 91.2114 42.8922C92.8729 43.5756 94.5496 44.359 96.2978 44.6785C98.6979 45.1182 101.105 45.25 103.475 44.8763C104.685 44.6849 105.883 44.3631 107.066 43.8816Z" fill="#00CFFF"/>
<path d="M107.066 47.6648L107.066 48.9281C105.924 49.3821 104.726 49.6602 103.475 49.7785C103.464 49.78 103.456 49.78 103.445 49.7811C100.536 50.0509 97.6316 50.179 94.7869 49.323C93.7734 49.0182 92.775 48.6312 91.818 48.181C86.1965 45.5308 80.6172 45.6276 75.044 48.34C73.6137 49.0355 72.1605 49.6994 70.6704 50.2532C67.2561 51.5233 63.8937 51.0445 60.6011 49.7371C59.1411 49.1572 57.6943 48.5397 56.2724 47.8735C51.95 45.8518 47.5873 45.7621 43.167 47.5126C41.4697 48.1851 39.764 48.8403 38.0719 49.528C33.2243 51.4962 28.5286 51.0972 23.9301 48.7024C22.6329 48.0273 21.2946 47.4195 19.9382 46.8743C17.6112 45.9407 15.2842 46.0522 13.0029 47.0823C11.4174 47.7982 9.86173 48.5894 8.24952 49.2405C6.6275 49.8972 5.08837 50.0445 3.60614 49.8068C2.37296 49.6097 1.18087 49.1463 0.0132446 48.4896L0.0132446 47.2278C0.21821 47.3653 0.422405 47.499 0.628124 47.6256C1.61527 48.2322 2.60844 48.5894 3.60614 48.7379C5.38301 49.005 7.17496 48.6098 8.97066 47.7873C10.0912 47.2737 11.2117 46.7628 12.3126 46.2127C15.3204 44.7083 18.335 44.8051 21.3484 46.1668C22.6626 46.7613 23.9474 47.4244 25.251 48.0461C29.1891 49.9243 33.2002 50.1775 37.2943 48.5758C39.411 47.7481 41.5194 46.903 43.6549 46.1264C48.3141 44.4328 52.8185 44.9724 57.2644 47.016C59.3393 47.9696 61.4963 48.785 63.679 49.4522C66.2527 50.2367 68.8114 49.8622 71.268 48.7959C73.3131 47.909 75.3179 46.9128 77.4101 46.1585C82.4808 44.3334 87.4624 44.8484 92.2625 47.1388C95.9173 48.8818 99.6737 49.1421 103.475 48.5706C104.199 48.4628 104.922 48.3238 105.649 48.1595C106.132 48.0506 106.599 47.8735 107.066 47.6648Z" fill="#00CFFF"/>
<path d="M19.9988 10.6152L19.5384 18.4521L38.2012 18.4521L37.6643 27.5981L19.0019 27.5981L18.5305 35.6305L40.3778 35.6305L40.0161 41.1835C39.9253 41.2193 39.836 41.2536 39.7459 41.289C38.5625 41.7524 37.338 42.2324 36.1308 42.6571C34.8403 43.1096 33.5318 43.3394 32.241 43.3394C30.8454 43.3394 29.4389 43.0704 28.0614 42.541C26.7446 42.0346 25.4229 41.4013 24.1445 40.7894C23.7104 40.5818 23.2602 40.3667 22.8156 40.1583C20.9962 39.3072 19.1993 38.8746 17.4737 38.8746C15.794 38.8746 14.1343 39.2812 12.5395 40.0845C11.411 40.6515 10.1763 41.2193 8.65116 41.8685C7.65082 42.2957 6.67235 42.5109 5.73946 42.5109C5.01229 42.5109 4.30509 42.3854 3.6073 42.1296L6.00696 0.874329L42.2051 0.874329L41.7067 10.6152L19.9988 10.6152Z" fill="#141CAF"/>
<path d="M59.0838 30.998C59.0247 31.9058 59.1878 32.8251 59.6223 33.6249C60.4338 35.1199 62.3825 36.7345 67.0503 35.6318L66.628 43.4818C66.4509 43.4909 66.2742 43.4965 66.0975 43.4965C64.9988 43.4965 63.8809 43.3074 62.7792 42.9359C61.3969 42.4687 60.002 41.8779 58.654 41.3059L58.2418 41.1323L58.1777 41.104C56.1269 40.2374 54.0083 39.3403 51.6599 38.9986C50.9459 38.8942 50.2127 38.8415 49.4803 38.8415C48.9935 38.8415 48.5025 38.8641 48.0078 38.9089C47.9103 38.3588 47.8771 37.7891 47.9151 37.2059L49.137 18.4519L43.381 18.4519L43.742 10.6638L49.6543 10.6311L50.0545 3.31365L61.0171 0.890259L60.4873 10.6311L68.458 10.615L68.0149 18.4519L59.9048 18.4509L59.0838 30.998Z" fill="#141CAF"/>
<path d="M104.726 18.5177L103.705 33.9242L103.6 35.5473L103.163 42.1556C102.013 42.4239 100.811 42.5539 99.5304 42.5539C98.2833 42.5539 96.942 42.4239 95.548 42.1677C94.2519 41.9303 92.9746 41.393 91.622 40.8241C91.5052 40.7766 91.3846 40.7269 91.2678 40.6771L92.1042 27.723L83.8427 30.3057C82.1299 30.9075 81.5063 32.0283 81.2935 32.9144C81.0964 33.7343 81.2219 34.6089 81.6039 35.36C83.2124 38.5374 87.9484 35.6207 87.9484 35.6207L87.7563 39.4688C86.0947 39.0397 84.4471 38.8242 82.8284 38.8242C80.6748 38.8242 78.5234 39.2055 76.4361 39.9616C75.0639 40.4571 73.7252 41.0517 72.4291 41.6417C70.2468 39.5351 68.9865 36.5189 69.1402 33.2631C69.1448 33.2249 69.1448 33.1897 69.147 33.1541C69.5878 24.9274 83.426 21.5268 88.4043 20.7356C91.7086 20.2117 92.53 18.6975 92.7146 17.7476C92.8126 17.2311 92.7259 16.686 92.4546 16.2359C89.8022 11.8643 73.3816 18.5177 73.3816 18.5177L73.8386 10.6391C87.3192 7.3501 95.6158 8.5869 95.6158 8.5869C105.755 10.0563 104.726 18.5177 104.726 18.5177Z" fill="#141CAF"/>
</svg>
