<svg width="56" height="55" viewBox="0 0 56 55" fill="none" xmlns="http://www.w3.org/2000/svg">
<path fill-rule="evenodd" clip-rule="evenodd" d="M14.8546 45.3651L19.2979 53.0626L22.13 51.4259L17.6866 43.7284L14.8546 45.3651ZM24.8956 27.8396L24.46 28.2751L26.7491 30.5544L26.7432 33.3376C25.0206 33.5056 25.8506 35.0935 25.0928 34.8415C21.6124 33.6794 21.1104 38.1755 23.7803 38.1482H30.3798C33.0654 38.1228 32.4951 33.6911 29.0537 34.8415C28.2939 35.0954 29.124 33.4665 27.3623 33.3337L27.3642 26.8922L30.2627 25.2594L30.2607 25.2575C31.1396 26.0016 33.331 25.9567 34.6767 25.1813C36.2783 24.2574 38.8759 20.9254 38.4873 20.2535C38.1025 19.5856 33.9189 20.1344 32.3018 21.068C31.0322 21.8004 29.9854 23.4645 30.0205 24.6852C31.4971 23.8317 30.9815 24.3219 32.0654 22.4469C32.2686 22.0973 32.8018 22.4039 32.5986 22.7555L32.2158 23.4176C33.583 22.6266 33.1123 23.0797 34.085 21.3961C34.2881 21.0465 34.8213 21.3531 34.6162 21.7047L34.333 22.193L35.8838 21.2984C36.2354 21.0953 36.544 21.6285 36.1924 21.8316L34.6436 22.7261C35.0166 22.7261 35.5166 22.6363 35.5166 23.0347C35.5166 23.6382 34.0557 23.2144 33.5752 23.3433L32.5244 23.9488C33.0244 23.9488 33.5986 23.8414 33.5986 24.2574C33.5986 24.8785 31.9873 24.4234 31.456 24.566L30.2607 25.2554L30.0224 24.6871L27.3642 26.1812L27.3838 20.1302H26.7666L26.747 29.6812L24.8956 27.8396ZM11.0715 25.9255C10.6926 21.9938 11.7336 17.984 14.0266 14.701C14.2571 14.3709 13.7532 14.0193 13.5227 14.3494C9.54227 20.0504 9.33912 27.5329 12.9544 33.4334C11.6712 34.3299 11.8704 34.197 14.2141 35.1795C14.4192 35.2654 14.6497 35.1092 14.6399 34.8826C14.5247 32.3553 14.7083 32.2068 13.4602 33.0799C12.1399 30.9158 11.3156 28.4667 11.0715 25.9255ZM13.1321 34.0585L13.9622 33.4784L14.0051 34.4237L13.1321 34.0585ZM25.2375 7.72641C30.134 6.96861 35.185 8.43931 38.923 11.746C39.2257 12.0135 39.632 11.5546 39.3292 11.285C33.0497 5.72852 23.6122 5.48052 17.0382 10.6346C15.9679 9.42562 16.1671 9.72837 15.4562 12.078C15.382 12.3123 15.5773 12.5174 15.796 12.4803C18.2921 12.0741 18.464 12.244 17.4464 11.0936C19.7101 9.32801 22.3996 8.16586 25.2375 7.72641ZM16.4405 10.8866L17.1104 11.6444L16.1768 11.7967L16.4405 10.8866ZM42.1262 15.578C45.6145 21.3025 45.3821 28.5215 41.5071 34.0215C41.2747 34.3515 41.7786 34.7051 42.011 34.375C46.0344 28.664 46.2668 21.158 42.6321 15.2225C43.9094 14.3299 43.7082 14.4608 41.3645 13.4783C41.1594 13.3924 40.9289 13.5486 40.9387 13.7752C41.0539 16.3103 40.8723 16.453 42.1262 15.578ZM42.4485 14.6034L41.6204 15.1815L41.5774 14.2362L42.4485 14.6034ZM27.0755 12.8612C26.9056 12.8612 26.767 12.9999 26.767 13.1698V14.9608L26.4837 14.4725C26.2826 14.121 25.7513 14.4296 25.9525 14.7792C26.8841 16.3983 26.7669 15.828 26.7669 17.4081C26.5169 16.9745 26.3255 16.4257 25.9642 16.6327C25.599 16.8416 25.9954 17.3006 26.2591 17.7596C26.9232 18.912 26.765 18.3846 26.765 20.1307C25.6751 19.6366 24.6869 17.8143 24.6869 16.3046C24.6869 14.4393 26.2982 10.5431 27.0736 10.5431C27.8509 10.5431 29.433 14.4552 29.433 16.3046C29.433 17.8065 28.4662 19.6347 27.3822 20.1307V18.6346C27.5208 18.119 28.7201 16.9374 28.1849 16.6307C27.8255 16.4237 27.6322 16.9725 27.3822 17.4061V16.1874C27.5033 15.7323 28.5853 14.6483 28.0853 14.3573C27.7415 14.158 27.5697 14.6346 27.3822 14.9569V13.1678C27.3822 12.9979 27.2435 12.8612 27.0755 12.8612ZM22.9876 24.7947C22.5853 24.9021 22.8392 25.4295 22.9681 25.91L22.1087 25.0506C21.8665 24.6306 21.89 23.1033 21.3099 23.2576C20.9271 23.3611 21.1419 23.8182 21.2376 24.1795L19.9739 22.9159C19.6868 22.6287 19.2513 23.0643 19.5384 23.3514L20.8021 24.615L20.2572 24.4686C19.8646 24.3631 19.7064 24.9588 20.097 25.0643C21.97 25.5643 21.4231 25.2381 22.5306 26.3455L21.7923 26.1463C21.3997 26.0428 21.2415 26.6365 21.6321 26.742C23.7649 27.3123 23.1126 26.9275 24.4563 28.2713C23.3391 28.6873 21.3626 28.0799 20.3001 27.0154C18.9895 25.7049 17.343 21.8219 17.8938 21.2714C18.4407 20.7265 22.3372 22.3378 23.6573 23.6581C24.7237 24.7245 25.3136 26.7148 24.8937 27.8339L23.837 26.7773C23.5714 26.3183 23.5853 24.6345 22.9876 24.7947ZM18.9211 44.6366L24.9171 40.7636H32.3371C34.093 40.7636 34.1477 43.4765 32.3371 43.4765H27.5891C27.1828 43.4765 27.1828 44.0937 27.5891 44.0937L34.3236 44.0917L39.3821 41.2187C40.9016 40.3417 42.3079 42.662 40.7375 43.5682L33.632 47.6717H25.884L21.9563 49.8944L18.9211 44.6366Z" fill="#061C3D"/>
</svg>
