<svg width="56" height="55" viewBox="0 0 56 55" fill="none" xmlns="http://www.w3.org/2000/svg">
<path fill-rule="evenodd" clip-rule="evenodd" d="M21.2597 48.627C21.8671 47.586 22.2148 46.3751 22.2148 45.0841C22.2148 42.629 20.9551 40.463 19.0469 39.1976H40.2619C43.508 39.1976 46.1484 41.8382 46.1484 45.0841C46.1484 46.4142 45.705 47.6407 44.9589 48.627H21.2579H21.2597ZM36.4607 42.26H23.2282C22.4567 42.26 22.4567 41.0881 23.2282 41.0881H36.4607C37.2322 41.0881 37.2322 42.26 36.4607 42.26ZM41.9707 46.7366H28.7362C27.9647 46.7366 27.9647 45.5647 28.7362 45.5647H41.9707C42.7422 45.5647 42.7422 46.7366 41.9707 46.7366Z" fill="#061C3D"/>
<path fill-rule="evenodd" clip-rule="evenodd" d="M10.4609 48.627C9.71483 47.6407 9.27148 46.4122 9.27148 45.0841C9.27148 41.838 11.9121 39.1976 15.158 39.1976C18.4041 39.1976 21.0445 41.8382 21.0445 45.0841C21.0445 46.4142 20.6011 47.6407 19.855 48.627H10.4609ZM15.1582 48.4844C13.2832 48.4844 11.7578 46.959 11.7578 45.084C11.7578 43.209 13.2832 41.6836 15.1582 41.6836C17.0332 41.6836 18.5586 43.209 18.5586 45.084C18.5586 46.959 17.0332 48.4844 15.1582 48.4844ZM15.1582 42.8554C12.2246 42.8554 12.2246 47.3125 15.1582 47.3125C18.0918 47.3125 18.0918 42.8554 15.1582 42.8554Z" fill="#061C3D"/>
<path fill-rule="evenodd" clip-rule="evenodd" d="M50.4651 54.9865H5.12111C4.79884 54.9865 4.53516 54.7248 4.53516 54.4005V50.3829C4.53516 50.0607 4.79688 49.797 5.12111 49.797H50.4651C50.7874 49.797 51.0511 50.0607 51.0511 50.3829V54.4005C51.0511 54.7248 50.7893 54.9865 50.4651 54.9865Z" fill="#061C3D"/>
<path fill-rule="evenodd" clip-rule="evenodd" d="M27.6344 33.2305C27.4391 33.2305 27.2555 33.1329 27.1481 32.9707L23.6813 27.7932C23.5563 27.6057 23.5445 26.3069 23.5563 25.1526H31.8708C31.8825 26.3089 31.8708 27.6136 31.738 27.803L28.1169 32.9805C28.0075 33.1368 27.8278 33.2305 27.6364 33.2305L27.6344 33.2305Z" fill="#061C3D"/>
<path fill-rule="evenodd" clip-rule="evenodd" d="M33.664 21.2715H21.756C21.4611 21.2715 21.2131 21.0528 21.174 20.7598L20.8967 18.5684H34.5236L34.2463 20.7598C34.2092 21.0528 33.9592 21.2715 33.6662 21.2715H33.664ZM20.748 17.3965L20.4062 14.6934H35.0137L34.672 17.3965H20.748Z" fill="#061C3D"/>
<path fill-rule="evenodd" clip-rule="evenodd" d="M43.0936 9.96877H12.3281C12.0059 9.96877 11.7422 9.70705 11.7422 9.38282V5.59962C11.7422 5.27736 12.0039 5.01367 12.3281 5.01367H43.0936C43.4159 5.01367 43.6796 5.27539 43.6796 5.59962V9.38282C43.6796 9.70704 43.4179 9.96877 43.0936 9.96877Z" fill="#061C3D"/>
<path fill-rule="evenodd" clip-rule="evenodd" d="M27.6133 40.369C27.291 40.369 27.0273 40.1053 27.0273 39.783V32.6445C27.0273 31.873 28.1992 31.873 28.1992 32.6445V39.783C28.1992 40.1073 27.9375 40.369 27.6133 40.369Z" fill="#061C3D"/>
<path fill-rule="evenodd" clip-rule="evenodd" d="M36.7776 14.992H18.6426C18.4394 14.992 18.25 14.8201 18.1445 14.5408L16.8535 11.1404H38.5685L37.2775 14.5408C37.1701 14.8221 36.9826 14.992 36.7776 14.992Z" fill="#061C3D"/>
<path fill-rule="evenodd" clip-rule="evenodd" d="M32.2694 23.9805H23.1524C22.8301 23.9805 22.5664 23.7188 22.5664 23.3946V22.4415H32.8554V23.3946C32.8554 23.7188 32.5936 23.9805 32.2694 23.9805Z" fill="#061C3D"/>
<path fill-rule="evenodd" clip-rule="evenodd" d="M32.7817 37.0625C32.2661 37.0625 31.9966 36.4336 32.3677 36.0625L33.9048 34.5254C34.4517 33.9785 35.2778 34.8086 34.7329 35.3535C34.1958 35.8906 33.2173 37.0625 32.7817 37.0625Z" fill="#061C3D"/>
<path fill-rule="evenodd" clip-rule="evenodd" d="M34.0021 38.283C33.3029 38.283 33.1994 37.2576 33.8908 37.1229L36.1154 36.6873C36.8732 36.5389 37.0978 37.6893 36.34 37.8358L34.0021 38.283Z" fill="#061C3D"/>
<path fill-rule="evenodd" clip-rule="evenodd" d="M31.5636 35.844C31.1964 35.844 30.9171 35.508 30.9875 35.1467L31.423 32.9221C31.5714 32.1663 32.7199 32.3909 32.5715 33.1467L32.1359 35.3713C32.0812 35.6506 31.8351 35.844 31.5617 35.844L31.5636 35.844Z" fill="#061C3D"/>
<path fill-rule="evenodd" clip-rule="evenodd" d="M22.6372 37.0625C22.2036 37.0625 21.2231 35.8906 20.686 35.3535C20.1411 34.8086 20.9693 33.9805 21.5141 34.5254L23.0512 36.0625C23.4223 36.4336 23.1548 37.0625 22.6372 37.0625Z" fill="#061C3D"/>
<path fill-rule="evenodd" clip-rule="evenodd" d="M21.4181 38.283L19.0802 37.8357C18.3244 37.6873 18.549 36.5388 19.3048 36.6873L21.5294 37.1228C22.2208 37.2576 22.1173 38.283 21.4181 38.283Z" fill="#061C3D"/>
<path fill-rule="evenodd" clip-rule="evenodd" d="M23.8589 35.844C23.5835 35.844 23.3393 35.6506 23.2847 35.3713L22.8491 33.1467C22.7007 32.3928 23.8491 32.1623 23.9976 32.9221L24.4331 35.1467C24.5035 35.5081 24.2261 35.844 23.8589 35.844Z" fill="#061C3D"/>
</svg>
