<svg width="56" height="55" viewBox="0 0 56 55" fill="none" xmlns="http://www.w3.org/2000/svg">
<path d="M16.8672 46.4745H25.2362C25.6053 46.4745 25.9061 46.8436 25.9061 47.1444V50.492C25.9061 50.8612 25.6072 51.1619 25.2362 51.1619H16.8672C16.498 51.1619 16.1973 50.7928 16.1973 50.492V47.1444C16.1973 46.7753 16.4961 46.4745 16.8672 46.4745Z" fill="#061C3D"/>
<path d="M25.0021 45.1365H16.8671C16.7929 45.1365 16.7207 45.1424 16.6464 45.1502C16.1113 44.5545 14.7441 43.2888 10.7949 39.4392H10.793C10.3281 38.9782 10.0293 38.3747 9.94339 37.7243C9.38089 33.3806 9.50199 28.9763 10.2989 24.6698C10.3282 24.5077 10.4336 24.369 10.5821 24.2968C10.7286 24.2245 10.9024 24.2265 11.0489 24.3007C13.25 25.3339 14.3067 27.869 13.4922 30.1582C13.3477 30.5879 13.3614 31.0527 13.5332 31.4707C13.5957 31.789 13.6856 32.0996 13.8008 32.4023C12.3477 32.7168 11.9258 34.6719 13.0704 35.9648L16.4044 39.7265C16.6485 40.0019 17.0704 40.0273 17.3458 39.7851C17.6231 39.541 17.6504 39.1211 17.4083 38.8437L14.0684 35.0742C13.1856 34.0761 14.336 32.5566 15.877 34.0839C16.8067 35.0019 17.7794 35.8788 18.7286 36.7753C19.1504 37.1972 19.7794 37.0976 20.3965 37.2167H20.3946C21.4981 37.4218 22.5137 37.955 23.3067 38.7499C25.1485 40.5761 25.0353 42.6855 25.0021 45.1365Z" fill="#061C3D"/>
<path d="M30.3496 46.4745H38.7186C39.0877 46.4745 39.3885 46.8436 39.3885 47.1444V50.492C39.3885 50.8612 39.0897 51.1619 38.7186 51.1619H30.3496C29.9804 51.1619 29.6797 50.7928 29.6797 50.492V47.1444C29.6797 46.7753 29.9785 46.4745 30.3496 46.4745Z" fill="#061C3D"/>
<path d="M45.6424 37.7245C45.5564 38.3749 45.2576 38.9784 44.7928 39.4393C40.8436 43.2889 39.4763 44.5543 38.9473 45.1503H38.9414C38.8672 45.1445 38.7949 45.1367 38.7207 45.1367H30.5842C30.551 42.6855 30.4377 40.5781 32.2776 38.7502H32.2795C33.0725 37.9553 34.0881 37.4221 35.1916 37.217C35.7873 37.1037 36.4436 37.1896 36.8596 36.7756C37.8107 35.8791 38.7815 35.0021 39.7111 34.0842C41.2502 32.5568 42.4025 34.0783 41.5197 35.0744L38.1779 38.842C37.9338 39.1194 37.9611 39.5432 38.2385 39.7873C38.5158 40.0315 38.9377 40.0041 39.1818 39.7268L42.5158 35.9631C43.6604 34.6702 43.2385 32.7151 41.7854 32.4006V32.4026C41.9006 32.0998 41.9904 31.7893 42.0529 31.4709C42.2248 31.053 42.2385 30.5881 42.094 30.1584C41.2795 27.8694 42.3361 25.3342 44.5373 24.3009C44.6838 24.2267 44.8576 24.2248 45.0041 24.297C45.1525 24.3693 45.258 24.508 45.2873 24.6701C46.0842 28.9767 46.2049 33.381 45.6424 37.7245Z" fill="#061C3D"/>
<path d="M34.4338 20.9295V23.9295C34.4319 24.119 34.2795 24.2713 34.0901 24.2733H21.4961C21.3066 24.2713 21.1543 24.119 21.1523 23.9295V20.9295C21.1523 20.8377 21.1875 20.7518 21.252 20.6873C21.3164 20.6209 21.4043 20.5858 21.4961 20.5858H34.0901C34.1819 20.5858 34.2698 20.6209 34.3342 20.6873C34.3987 20.7518 34.4338 20.8377 34.4338 20.9295Z" fill="#061C3D"/>
<path d="M33.1681 25.836L32.4103 33.453C32.4005 33.6737 32.2247 33.8514 32.004 33.8592H23.582C23.3613 33.8514 23.1855 33.6737 23.1758 33.453L22.418 25.836H33.1681Z" fill="#061C3D"/>
<path d="M35.8709 9.05472C35.7713 10.6289 35.1717 12.1289 34.1599 13.336C32.8005 14.8067 30.9236 15.6914 28.9254 15.8047C28.8278 16.0118 28.7438 16.2266 28.6754 16.4453C28.6266 16.6406 28.5973 16.8399 28.5895 17.0391C28.5875 17.1152 28.5836 17.1914 28.5739 17.2656V19.0234H27.0192L27.0348 17.0937C25.8746 17.2363 24.7027 16.9648 23.7223 16.3281C22.6344 15.5918 21.8785 14.459 21.6129 13.1719C21.5953 13.0957 21.6207 13.0176 21.6812 12.9668C21.7398 12.916 21.8219 12.9023 21.8941 12.9297C22.0601 12.9941 22.2301 13.0488 22.4019 13.0938C23.189 13.2363 23.9957 13.2441 24.7847 13.1172C25.4019 13.1172 26.6988 13.3281 27.3785 15.4609C27.4273 15.3223 27.4859 15.1875 27.5504 15.0547C27.566 15.0313 27.5894 15.0078 27.6051 14.9844C27.5582 13.7969 27.6754 11.6563 29.2847 10.6016C31.3394 9.26563 32.6676 9.67968 33.8238 9.46098C34.4352 9.33207 35.0269 9.1309 35.5894 8.85943C35.6539 8.82623 35.73 8.83208 35.7886 8.8731C35.8472 8.91412 35.8787 8.98441 35.8709 9.05472Z" fill="#061C3D"/>
</svg>
