<svg width="334" height="177" viewBox="0 0 334 177" fill="none" xmlns="http://www.w3.org/2000/svg">
<path d="M238.578 165H259.975V159.026H238.578V165Z" fill="white"/>
<path d="M95.0498 165H116.447V159.026H95.0498V165Z" fill="white"/>
<path d="M215.892 100.439C201.304 103.627 195.217 98.9575 192.68 94.6372C191.322 92.3272 190.812 89.6716 190.998 87.048L193.562 50.784L218.906 50.7879L220.293 28.1379L195.383 28.1854L197.038 0.0343831L162.779 7.03594L161.53 28.1854L143.056 28.2796L141.926 50.7879H159.916L156.098 104.986C155.262 116.845 165.436 126.888 178.286 126.888H214.354L215.892 100.439Z" fill="white"/>
<path d="M281.191 100.404C281.191 100.404 266.402 108.836 261.371 99.6548C260.179 97.4803 259.79 94.9562 260.405 92.5856C261.069 90.0242 263.013 86.7872 268.37 85.0493L294.185 77.5831L290.739 126.888H328.208L333.624 50.9762C333.624 50.9762 336.844 26.5214 305.162 22.2789C305.162 22.2789 279.228 18.7003 237.107 28.2064L235.676 50.9762C235.676 50.9762 286.993 31.75 295.277 44.3848C296.127 45.6815 296.399 47.2614 296.091 48.7511C295.523 51.4985 292.949 55.8717 282.622 57.3878C267.065 59.6737 223.257 69.5005 221.883 93.2775C221.878 93.3818 221.872 93.4853 221.867 93.5888C221.054 109.359 233.217 123.187 250.021 125.974C253.405 126.536 257.22 126.888 261.465 126.888H279.781L281.191 100.404Z" fill="white"/>
<path d="M125.743 50.7869L124.061 77.2233H45.1992L46.4969 74.9569L60.3892 50.7869H125.743Z" fill="white"/>
<path d="M132.543 100.437L130.678 126.885H17.1953L32.5932 100.437H132.543Z" fill="white"/>
<path d="M13.0483 126.739L28.7239 69.1291L0 72.8354L28.9881 1.31018e-05H57.0817L37.7394 43.2056L62.0468 39.8262L13.0483 126.739Z" fill="#FFB600"/>
<path d="M139.247 0.000411992L137.389 28.1382H48.5781L61.0844 0.000411992H139.247Z" fill="white"/>
<path d="M125.696 171V152.818H137.948V155.988H129.541V160.32H137.318V163.489H129.541V167.831H137.983V171H125.696ZM156.212 152.818V171H152.892L144.981 159.556H144.848V171H141.004V152.818H144.378L152.226 164.253H152.385V152.818H156.212ZM159.388 171V152.818H171.639V155.988H163.232V160.32H171.009V163.489H163.232V167.831H171.675V171H159.388ZM174.695 171V152.818H181.869C183.242 152.818 184.414 153.064 185.384 153.555C186.361 154.04 187.104 154.73 187.613 155.624C188.128 156.511 188.385 157.556 188.385 158.757C188.385 159.965 188.125 161.004 187.604 161.874C187.083 162.738 186.328 163.401 185.34 163.862C184.358 164.324 183.168 164.555 181.771 164.555H176.968V161.465H181.15C181.884 161.465 182.493 161.365 182.979 161.163C183.464 160.962 183.825 160.66 184.062 160.258C184.304 159.855 184.426 159.355 184.426 158.757C184.426 158.154 184.304 157.645 184.062 157.23C183.825 156.816 183.461 156.502 182.97 156.289C182.484 156.07 181.872 155.961 181.132 155.961H178.54V171H174.695ZM184.514 162.726L189.033 171H184.79L180.368 162.726H184.514ZM203.158 158.695C203.034 158.263 202.859 157.882 202.634 157.55C202.409 157.213 202.134 156.929 201.808 156.698C201.489 156.461 201.122 156.281 200.708 156.156C200.299 156.032 199.846 155.97 199.349 155.97C198.42 155.97 197.603 156.201 196.899 156.662C196.201 157.124 195.656 157.796 195.265 158.678C194.875 159.554 194.68 160.625 194.68 161.891C194.68 163.158 194.872 164.235 195.257 165.123C195.641 166.011 196.186 166.688 196.89 167.156C197.594 167.618 198.426 167.848 199.385 167.848C200.255 167.848 200.998 167.694 201.613 167.387C202.235 167.073 202.708 166.632 203.034 166.064C203.365 165.496 203.531 164.824 203.531 164.049L204.312 164.164H199.624V161.27H207.233V163.56C207.233 165.158 206.895 166.531 206.221 167.68C205.546 168.822 204.617 169.704 203.433 170.325C202.249 170.941 200.894 171.249 199.367 171.249C197.662 171.249 196.165 170.873 194.875 170.121C193.585 169.364 192.578 168.289 191.856 166.898C191.14 165.502 190.782 163.844 190.782 161.927C190.782 160.453 190.995 159.139 191.421 157.985C191.853 156.825 192.457 155.843 193.232 155.038C194.008 154.233 194.91 153.62 195.94 153.2C196.97 152.78 198.086 152.57 199.287 152.57C200.317 152.57 201.276 152.721 202.164 153.022C203.051 153.318 203.838 153.739 204.525 154.283C205.218 154.828 205.783 155.476 206.221 156.227C206.659 156.973 206.94 157.796 207.064 158.695H203.158ZM208.323 152.818H212.628L216.774 160.648H216.952L221.098 152.818H225.403L218.772 164.572V171H214.954V164.572L208.323 152.818Z" fill="white"/>
</svg>
