<svg width="56" height="56" viewBox="0 0 56 56" fill="none" xmlns="http://www.w3.org/2000/svg">
<path opacity="0.2" d="M28 48.9998C39.598 48.9998 49 39.5977 49 27.9998C49 16.4018 39.598 6.99976 28 6.99976C16.402 6.99976 7 16.4018 7 27.9998C7 39.5977 16.402 48.9998 28 48.9998Z" fill="#FF8800"/>
<path d="M28 48.9998C39.598 48.9998 49 39.5977 49 27.9998C49 16.4018 39.598 6.99976 28 6.99976C16.402 6.99976 7 16.4018 7 27.9998C7 39.5977 16.402 48.9998 28 48.9998Z" stroke="#FF8800" stroke-width="3" stroke-miterlimit="10"/>
<path d="M37.0952 33.249C36.1727 34.8446 34.8467 36.1695 33.2502 37.0905C31.6538 38.0116 29.8431 38.4965 28 38.4965C26.157 38.4965 24.3463 38.0117 22.7498 37.0906C21.1534 36.1696 19.8273 34.8448 18.9048 33.2492" stroke="#FF8800" stroke-width="3" stroke-linecap="round" stroke-linejoin="round"/>
<path d="M21.25 23.625C21.25 24.2463 20.7463 24.75 20.125 24.75C19.5037 24.75 19 24.2463 19 23.625C19 23.0037 19.5037 22.5 20.125 22.5C20.7463 22.5 21.25 23.0037 21.25 23.625Z" fill="#FF8800" stroke="#FF8800" stroke-width="3"/>
<path d="M37 23.625C37 24.2463 36.4963 24.75 35.875 24.75C35.2537 24.75 34.75 24.2463 34.75 23.625C34.75 23.0037 35.2537 22.5 35.875 22.5C36.4963 22.5 37 23.0037 37 23.625Z" fill="#FF8800" stroke="#FF8800" stroke-width="3"/>
</svg>
