<svg width="53" height="53" viewBox="0 0 53 53" fill="none" xmlns="http://www.w3.org/2000/svg">
<g clip-path="url(#clip0_85_2042)">
<path fill-rule="evenodd" clip-rule="evenodd" d="M31.3145 76.9512C30.4318 76.9512 29.7184 77.6646 29.7184 78.5473V102.64C29.7184 104.236 31.0171 105.544 32.6018 105.544C33.4431 105.544 34.2298 105.172 34.7832 104.545C35.3158 105.153 36.0912 105.544 36.9532 105.544C38.5493 105.544 39.8479 104.225 39.8479 102.64V85.5808C41.1465 88.4228 45.5411 86.5069 44.2012 83.5896C43.9246 82.9628 43.6366 82.3437 43.3505 81.7376H45.7671C48.9065 81.7376 48.9065 76.9495 45.7671 76.9495C40.947 76.9514 36.1249 76.9512 31.3145 76.9512ZM21.6839 76.9512C22.5666 76.9512 23.2799 77.6646 23.2799 78.5473V102.64C23.2799 104.236 21.9813 105.544 20.3965 105.544C19.5552 105.544 18.7685 105.172 18.2152 104.545C17.6825 105.153 16.9052 105.544 16.0432 105.544C14.4472 105.544 13.1486 104.225 13.1486 102.64V85.5808C11.8386 88.4228 7.45541 86.5069 8.79717 83.5896C9.07384 82.9628 9.36182 82.3437 9.64787 81.7376H7.23126C4.09193 81.7376 4.09193 76.9495 7.23126 76.9495C12.0533 76.9514 16.8753 76.9512 21.6839 76.9512ZM21.8439 78.5473C21.8439 78.4607 21.7686 78.3854 21.6839 78.3854H15.5971C15.853 78.982 15.8624 79.6633 15.5858 80.2901H18.5332C18.9265 80.2901 19.2578 80.6213 19.2578 81.0147C19.2578 81.408 18.9284 81.7393 18.5332 81.7393H14.927L14.5864 82.4526V102.64C14.5864 103.438 15.247 104.097 16.045 104.097C16.843 104.097 17.5036 103.438 17.5036 102.64V90.7091C17.5036 89.7097 18.9397 89.6438 18.9397 90.7825V102.638C18.9284 103.424 19.6003 104.094 20.3983 104.094C21.1962 104.094 21.8569 103.436 21.8569 102.638C21.855 94.5956 21.8437 86.5796 21.8437 78.5467L21.8439 78.5473ZM18.2152 76.1325C20.4812 76.1325 22.3332 74.2918 22.3332 72.0126C22.3332 69.7466 20.4812 67.9059 18.2152 67.9059C15.9492 67.9059 14.1085 69.7466 14.1085 72.0126C14.1085 74.29 15.9492 76.1325 18.2152 76.1325ZM18.2152 69.3418C19.6945 69.3418 20.8859 70.5426 20.8859 72.0125C20.8859 73.4918 19.6945 74.6832 18.2152 74.6832C16.7359 74.6832 15.5445 73.4918 15.5445 72.0125C15.5445 70.5426 16.7359 69.3418 18.2152 69.3418ZM12.5331 78.929C11.7351 80.685 10.9051 82.4316 10.1071 84.1856C9.58573 85.3243 11.321 86.111 11.8424 84.9742C12.6404 83.2182 13.4591 81.4717 14.2684 79.7176C14.7992 78.5583 13.0432 77.8129 12.5331 78.929ZM11.1911 78.3851H7.23311C5.98718 78.3851 5.98718 80.2898 7.23311 80.2898H10.3197C10.6058 79.6649 10.905 79.025 11.1911 78.3851ZM31.1567 78.5469C31.1567 78.4604 31.232 78.3851 31.3167 78.3851H37.4035C37.1494 78.9817 37.1381 79.663 37.4148 80.2898H34.4674C34.0628 80.2898 33.7447 80.621 33.7447 81.0144C33.7447 81.4077 34.0628 81.739 34.4674 81.739H38.0754L38.4161 82.4523V102.64C38.4161 103.438 37.7555 104.096 36.9575 104.096C36.1595 104.096 35.4989 103.438 35.4989 102.64V90.7087C35.4989 89.7094 34.0628 89.6435 34.0628 90.7821V102.637C34.0741 103.424 33.4041 104.094 32.6042 104.094C31.8062 104.094 31.1475 103.435 31.1475 102.637C31.1456 94.5952 31.1569 86.5792 31.1569 78.5464L31.1567 78.5469ZM34.7854 76.1322C32.508 76.1322 30.6673 74.2915 30.6673 72.0123C30.6673 69.7462 32.508 67.9056 34.7854 67.9056C37.0514 67.9056 38.8921 69.7462 38.8921 72.0123C38.8921 74.2896 37.0514 76.1322 34.7854 76.1322ZM34.7854 69.3415C33.3061 69.3415 32.1147 70.5423 32.1147 72.0122C32.1147 73.4915 33.3061 74.6829 34.7854 74.6829C36.2647 74.6829 37.4561 73.4915 37.4561 72.0122C37.4561 70.5423 36.2647 69.3415 34.7854 69.3415ZM40.4675 78.9287C41.2655 80.6847 42.0955 82.4313 42.8935 84.1853C43.4149 85.324 41.6796 86.1107 41.1582 84.9739C40.3602 83.2179 39.5415 81.4713 38.7322 79.7173C38.2014 78.5579 39.9574 77.8126 40.4675 78.9287ZM41.8075 78.3848H45.7656C47.0115 78.3848 47.0115 80.2894 45.7656 80.2894H42.6789C42.3947 79.6646 42.0955 79.0247 41.8075 78.3848ZM186.348 18.6297C184.613 18.353 183.645 20.5663 183.431 21.961C182.761 26.3143 182.1 30.6655 181.43 35.0192C180.706 39.7452 187.039 43.8312 190.295 46.4287C190.976 46.9707 191.925 47.6841 192.316 48.4708C192.54 48.9074 192.613 49.3855 192.657 49.8654C192.7 50.3021 193.029 50.5468 193.443 50.5468H200.083C200.531 50.5468 200.712 50.1421 200.712 49.7488C200.721 47.0668 201.064 44.097 200.074 41.5448C199.457 39.9601 198.414 38.5542 197.456 37.1595C195.764 34.7128 192.817 29.541 190.231 28.231C190.242 26.9003 190.274 25.5602 190.327 24.2296C190.379 22.8463 189.805 20.6216 188.029 20.7816C187.859 19.8425 187.391 18.7998 186.348 18.6304L186.348 18.6297ZM205.258 33.8257C197.925 33.8257 191.978 27.8762 191.978 20.5459C191.978 13.2131 197.927 7.26599 205.258 7.26599C212.59 7.26599 218.537 13.2155 218.537 20.5459C218.537 27.8762 212.59 33.8257 205.258 33.8257ZM207.864 9.03089C209.822 11.4776 210.834 14.9047 211.175 17.9917C213.132 17.6191 214.39 15.9158 215.25 14.2464C213.569 11.5945 210.919 9.71021 207.864 9.03089ZM209.696 18.0125C209.334 14.8411 208.132 10.8189 205.568 8.74325C205.461 8.74325 205.365 8.73195 205.259 8.73195C202.472 8.73195 199.788 9.71062 197.652 11.5099C199.143 12.0746 200.835 13.2226 202.163 14.0959C203.43 14.926 204.697 15.8087 205.994 16.5747C207.11 17.2353 208.397 17.8412 209.696 18.0125ZM209.833 20.9165C209.844 20.4479 209.833 19.9699 209.812 19.5012C208.205 19.3619 206.618 18.6505 205.246 17.8412C203.916 17.0657 202.64 16.1605 201.35 15.3191C200.338 14.6604 197.486 12.7124 196.391 12.7444C194.836 14.5117 193.848 16.6931 193.549 19.0345C194.358 19.4392 195.252 19.7159 196.135 19.9398C197.72 20.3445 199.35 20.5986 200.978 20.7585C202.969 20.9712 204.968 21.0465 206.971 21.0239C207.931 21.0126 208.877 20.9805 209.833 20.9165ZM211.282 19.4598C211.303 19.9077 211.312 20.3651 211.303 20.8112C211.856 20.7585 212.41 20.7039 212.954 20.6305C214.337 20.4592 215.698 20.2371 217.051 19.8965C216.976 18.4811 216.646 17.0865 216.072 15.7879C214.975 17.5966 213.452 19.1285 211.282 19.4598ZM211.248 22.2905C211.216 22.6311 211.184 22.9718 211.152 23.3125C213.068 23.3125 214.642 24.1858 215.952 25.5578C216.558 24.2479 216.921 22.8551 217.026 21.4172C215.133 21.8651 213.187 22.1305 211.248 22.2905ZM209.643 23.4706C209.696 23.1186 209.728 22.7572 209.76 22.3959C208.834 22.4486 207.908 22.4824 206.982 22.4918C204.215 22.5238 201.414 22.3751 198.68 21.9479C196.945 21.6825 195.074 21.2892 193.444 20.5966C193.467 23.9279 194.871 27.0674 197.34 29.3011C199.638 29.0131 202.789 26.7038 204.853 25.5237C206.344 24.6843 207.951 23.8338 209.643 23.4706ZM205.566 32.3466C207.652 30.6433 208.834 27.6319 209.376 25.0553C208.045 25.4392 206.769 26.1299 205.576 26.8112C203.449 28.0139 201.138 29.6946 198.849 30.4606C200.754 31.6953 202.978 32.3446 205.256 32.3446C205.365 32.3465 205.461 32.3466 205.566 32.3466ZM207.864 32.0586C210.887 31.3792 213.528 29.5253 215.197 26.9186C214.058 25.5992 212.707 24.7052 210.93 24.7918C210.462 27.3232 209.483 30.0258 207.864 32.0586ZM193.466 47.5746C192.965 46.6919 191.955 45.9466 191.168 45.3293C188.541 43.2326 182.219 39.1148 182.813 35.2299C183.485 30.8785 184.144 26.5253 184.814 22.1716C184.901 21.6503 185.315 19.9263 186.081 20.043C186.73 20.1502 186.719 21.5769 186.666 22.0549C186.476 24.1949 186.337 26.333 186.252 28.4708C186.188 30.0575 185.795 33.5675 186.837 34.8361C187.583 35.7414 189.167 36.1668 190.242 36.5488C190.85 37.5916 191.456 38.6455 192.041 39.7202C192.519 40.6029 193.818 39.7635 193.233 38.9749C192.478 37.5802 191.669 36.2289 190.88 34.8455C190.146 33.5582 189.412 32.2482 188.859 30.8649C188.55 30.0556 188.379 28.8529 189.625 29.4909C191.753 30.5863 194.861 35.8654 196.306 37.9512C197.2 39.2498 198.19 40.5692 198.766 42.0485C199.491 43.9212 199.34 47.0604 199.319 49.1047L193.967 49.1066C193.871 48.5646 193.743 48.0433 193.466 47.5746ZM188.923 24.1747C188.87 25.4093 188.849 26.6647 188.838 27.9106C188.317 27.9539 187.976 28.1553 187.658 28.5486C187.731 26.4313 187.923 24.3139 188.072 22.1944C188.795 21.9705 188.943 23.7267 188.923 24.1747ZM187.921 33.9425C187.549 33.4852 187.538 31.9644 187.538 31.3358C188.006 32.5065 188.56 33.5812 189.177 34.6766C188.772 34.5185 188.198 34.2832 187.921 33.9425ZM92.7094 28.91C92.7527 28.75 92.7734 28.5919 92.7734 28.4319V25.8045C92.7734 24.8352 91.9754 24.0391 91.0061 24.0391H88.9847C88.8567 22.1984 89.4741 20.8771 90.8781 19.7083C91.1755 19.4543 91.4954 19.2303 91.8248 19.0157C95.2408 22.2398 97.2096 23.7191 95.8581 28.7856H93.8575C93.5168 28.7856 93.1875 28.8815 92.9202 29.0509C92.8468 29.0058 92.7828 28.9514 92.7094 28.91ZM87.5376 24.0354H85.5162C84.5375 24.0354 83.7395 24.8334 83.7395 25.8008V28.4282C83.7395 28.7049 83.8035 28.9722 83.9315 29.2168C82.7928 31.6334 82.1868 34.1853 82.3674 36.8695C82.294 37.4756 82.2188 38.1155 82.2188 38.731C82.2188 42.0096 85.2941 44.189 88.3807 44.189C89.1147 44.189 89.8714 44.061 90.5828 43.805C90.7842 46.903 93.7428 48.934 96.7221 48.934C99.3194 48.934 102.032 47.3172 102.713 44.7087C103.628 44.9007 104.661 44.8574 105.342 44.1234C106.874 42.4634 105.214 38.9101 104.256 37.3028C103.479 35.9928 102.34 34.4928 101.053 33.6534C101.096 33.4934 101.117 33.3353 101.117 33.1753V30.5479C101.117 29.5786 100.319 28.7806 99.3497 28.7806H97.3491C97.8817 26.6727 97.9664 24.5553 96.9237 22.5753C96.041 20.8945 94.477 19.4999 93.103 18.2239C93.6883 17.8832 94.285 17.5313 94.827 17.1172C95.785 16.3832 96.4663 15.2972 96.1144 14.0626C95.3898 11.5199 91.7197 11.0813 90.1013 13.3907C89.0379 14.934 89.6872 16.658 90.7939 17.9661C90.506 18.158 90.2293 18.3707 89.9639 18.5947C88.2399 20.0251 87.3986 21.7905 87.5378 24.0359L87.5376 24.0354ZM91.2943 14.2241C92.2089 12.8935 94.3489 13.1062 94.731 14.4575C94.9004 15.0862 94.411 15.6282 93.9537 15.9782C93.3476 16.4356 92.6776 16.7969 92.017 17.1809C91.315 16.4055 90.5809 15.2348 91.2943 14.2241ZM67.7228 16.3095L71.1068 10.4149V7.99833C71.1068 7.59368 71.4361 7.26433 71.8408 7.26433C72.2454 7.26433 72.5748 7.59369 72.5748 7.99833V10.4244L75.9588 16.3098H76.1394C78.8102 16.3098 81.0029 18.5024 81.0029 21.1733V45.68C81.0029 48.362 78.8103 50.5434 76.1394 50.5434H67.5399C64.8692 50.5434 62.6765 48.3621 62.6765 45.68V21.1733C62.6765 18.5025 64.8691 16.3098 67.5399 16.3098L67.7228 16.3095ZM64.1467 41.6594H79.5351V25.2063H64.1467V41.6594ZM64.1467 44.2868H79.5351V43.1274H64.1467V44.2868ZM79.5351 45.7454H64.1467C64.1787 47.5861 65.7014 49.0767 67.5421 49.0767H76.1416C77.9804 49.0749 79.5031 47.5861 79.5351 45.7454ZM64.1467 23.7379H79.5351V22.5785H64.1467V23.7379ZM64.1467 21.1086H79.5351C79.5031 19.2679 77.9804 17.7773 76.1397 17.7773H67.5402C65.6996 17.7773 64.1787 19.2679 64.1467 21.1086ZM72.5747 13.3826V16.3093H74.2667L72.5747 13.3826ZM71.1067 16.3093V13.3826L69.4146 16.3093H71.1067ZM92.06 43.0839C93.1553 42.3499 94.0174 41.2865 94.3693 39.9653C95.2426 40.146 96.21 40.114 96.8913 39.4872C99.1047 39.5606 101.403 41.072 101.403 43.4773C101.403 45.9353 98.9767 47.4673 96.7201 47.4673C94.454 47.4673 92.0374 45.9352 92.0374 43.4773C92.0392 43.3399 92.0393 43.2119 92.06 43.0839ZM97.584 38.0605C97.712 37.1138 97.456 35.9845 97.0627 34.9532H99.3513C99.6073 34.9532 99.8614 34.8892 100.097 34.7819C101.288 35.5159 102.289 36.8672 102.991 38.0605C103.513 38.9338 105.129 42.1898 104.258 43.1254C103.97 43.4453 103.257 43.3381 102.863 43.2421C102.733 40.3813 100.264 38.4127 97.584 38.0605ZM96.4133 33.4851C96.2439 33.1332 96.0727 32.8264 95.9127 32.5591C95.4647 31.8044 94.8907 30.9744 94.232 30.2498H99.3513C99.5113 30.2498 99.6487 30.3871 99.6487 30.5471V31.1324H97.2866C96.882 31.1324 96.5526 31.4618 96.5526 31.8664C96.5526 32.2711 96.882 32.6004 97.2866 32.6004H99.6487V33.1745C99.6487 33.3458 99.5113 33.4831 99.3513 33.4831L96.4133 33.4851ZM97.9228 45.3084C97.1342 45.8938 97.9755 47.0964 98.7961 46.4904C100.509 45.2445 100.712 44.3824 100.307 42.4043C100.095 41.3616 98.6681 41.7023 98.8601 42.6716C99.1574 44.0851 99.18 44.3937 97.9228 45.3084ZM85.1112 30.1649C85.2486 30.1856 85.3766 30.2082 85.5159 30.2082H91.0076C91.2636 30.2082 91.5177 30.1555 91.753 30.0369C92.9444 30.7709 93.9456 32.1223 94.6476 33.3155C95.169 34.1888 96.7857 37.4449 95.9143 38.3804C95.6169 38.7004 94.913 38.5931 94.5197 38.4971C94.3823 35.3258 91.369 33.2612 88.3803 33.2612C86.709 33.2612 85.0377 33.8691 83.8369 35.0379C83.9499 33.3478 84.4092 31.7081 85.1112 30.1649ZM91.3036 27.8555V28.4296C91.3036 28.6009 91.1662 28.7382 91.0062 28.7382H85.5144C85.3431 28.7382 85.217 28.6009 85.217 28.4296V25.8022C85.217 25.6422 85.345 25.5048 85.5144 25.5048H91.0062C91.1662 25.5048 91.3036 25.6422 91.3036 25.8022V26.3875H88.9415C88.5369 26.3875 88.2075 26.7169 88.2075 27.1215C88.2075 27.5261 88.5369 27.8555 88.9415 27.8555L91.3036 27.8555ZM88.3788 42.722C86.1127 42.722 83.6961 41.19 83.6961 38.732C83.6961 36.2627 86.1127 34.7307 88.3788 34.7307C90.6354 34.7307 93.0615 36.2627 93.0615 38.732C93.0615 41.1901 90.6335 42.722 88.3788 42.722ZM89.5796 40.5727C88.7928 41.1467 89.6323 42.3494 90.4529 41.7547C92.1562 40.4993 92.3689 39.6373 91.9642 37.6573C91.7515 36.6146 90.3249 36.9553 90.5168 37.9227C90.8161 39.338 90.8368 39.6467 89.5796 40.5727ZM22.3756 23.566H25.0989C27.9616 23.566 30.3031 21.2246 30.3031 18.3619L30.305 17.225C30.305 13.5643 33.2956 10.5735 36.9565 10.5735H41.5864C45.2358 10.5735 48.2264 13.5642 48.2264 17.225V40.5952C48.2264 44.2445 45.2357 47.2351 41.5864 47.2351H11.4371C7.77643 47.2351 4.78564 44.2444 4.78564 40.5952V30.2076C4.78564 27.1963 6.81834 24.6311 9.58499 23.8332V16.9918C9.58499 16.0658 10.3397 15.2998 11.2657 15.2998C12.1917 15.2998 12.9577 16.0658 12.9577 16.9918V19.2786H19.0031V16.9918C19.0031 16.0658 19.7578 15.2998 20.6951 15.2998C21.6211 15.2998 22.3758 16.0658 22.3758 16.9918L22.3756 23.566ZM9.58474 25.3446C7.97745 25.9619 6.75406 27.3565 6.3607 29.0485C7.09471 30.1665 8.26538 30.9438 9.58474 31.2299V25.3446ZM6.23273 31.1114V33.7388C7.15874 35.3141 8.89213 36.2401 10.7121 36.2401C12.5848 36.2401 14.3615 35.2709 15.2781 33.6109C15.6188 32.9822 16.3321 32.9822 16.6822 33.6109C17.5969 35.2596 19.3642 36.2401 21.2369 36.2401C23.1322 36.2401 24.9089 35.2502 25.8236 33.5808C26.1435 32.9954 26.8775 32.9954 27.1975 33.5808C28.1028 35.2521 29.8908 36.2401 31.7729 36.2401C33.6456 36.2401 35.4223 35.2709 36.3276 33.6109C36.6795 32.9822 37.3928 32.9822 37.7316 33.6109C38.6463 35.2596 40.4249 36.2401 42.2976 36.2401C44.1289 36.2401 45.8529 35.3141 46.7883 33.7388V31.1114C45.5537 32.1974 43.9577 32.7828 42.2976 32.7828C40.2537 32.7828 38.317 31.8888 37.041 30.3041C35.765 31.8907 33.817 32.7828 31.7728 32.7828C29.7307 32.7828 27.7828 31.8888 26.5046 30.3041C25.2286 31.8907 23.2806 32.7828 21.2364 32.7828C19.2037 32.7828 17.2558 31.8888 15.9798 30.3041C14.7037 31.8907 12.7557 32.7828 10.7116 32.7828C9.06284 32.7828 7.46494 32.1975 6.23216 31.1114H6.23273ZM6.23273 36.0067V38.6341C7.15874 40.2094 8.89213 41.1467 10.7121 41.1467C12.5848 41.1467 14.3615 40.168 15.2781 38.5193C15.6188 37.8907 16.3321 37.8813 16.6822 38.508C17.5969 40.168 19.3642 41.1486 21.2369 41.1486C23.1322 41.1486 24.9089 40.1492 25.8236 38.4892C26.1322 37.9039 26.8775 37.8926 27.1975 38.4779C28.1028 40.1586 29.8908 41.1486 31.7729 41.1486C33.6456 41.1486 35.4223 40.17 36.3276 38.5212C36.6795 37.8926 37.3928 37.8832 37.7316 38.5099C38.6463 40.1699 40.4249 41.1505 42.2976 41.1505C44.1289 41.1505 45.8529 40.2151 46.7883 38.638V36.0106C45.5537 37.1059 43.9577 37.6913 42.2976 37.6913C40.2537 37.6913 38.317 36.7973 37.041 35.2126C35.765 36.7992 33.817 37.6913 31.7728 37.6913C29.7307 37.6913 27.7828 36.786 26.5046 35.2012C25.2286 36.786 23.2806 37.6913 21.2364 37.6913C19.2037 37.6913 17.2558 36.7973 15.9798 35.2126C14.7037 36.7992 12.7557 37.6913 10.7116 37.6913C9.06284 37.6875 7.46494 37.104 6.23216 36.0068L6.23273 36.0067ZM6.24214 40.9227C6.41342 43.6254 8.67947 45.7973 11.4347 45.7973H41.5821C44.328 45.7973 46.6055 43.6272 46.7746 40.9227C45.54 41.9974 43.9439 42.5827 42.2933 42.5827C40.2494 42.5827 38.3127 41.6887 37.0367 40.104C35.7606 41.6906 33.8126 42.5827 31.7685 42.5827C29.7264 42.5827 27.7785 41.6887 26.5003 40.0927C25.2242 41.6887 23.2762 42.5827 21.2321 42.5827C19.1994 42.5827 17.2514 41.6887 15.9754 40.104C14.6994 41.6906 12.7514 42.5827 10.7072 42.5827C9.06227 42.5846 7.47569 41.9993 6.24104 40.9227H6.24214ZM46.7881 28.8454V17.2254C46.7881 14.3628 44.4468 12.0213 41.584 12.0213H36.954C34.0913 12.0213 31.7499 14.3627 31.7499 17.2254V18.3641C31.7499 22.0135 28.7592 25.0041 25.0984 25.0041H22.375V31.2301C23.8223 30.912 25.0984 29.9954 25.823 28.6874C26.1317 28.1021 26.877 28.0908 27.1969 28.6874C28.1022 30.3587 29.8902 31.3487 31.7723 31.3487C33.645 31.3487 35.4217 30.37 36.327 28.7194C36.679 28.0908 37.3923 28.0908 37.7311 28.7194C38.6458 30.3681 40.4244 31.3487 42.2971 31.3487C44.1265 31.3468 45.8508 30.4207 46.7881 28.8454ZM20.9395 16.9903C20.9395 16.851 20.8228 16.7438 20.6949 16.7438C20.5575 16.7438 20.4502 16.851 20.4502 16.9903V20.715H11.51V16.9903C11.51 16.851 11.4028 16.7438 11.2654 16.7438C11.1261 16.7438 11.0207 16.851 11.0207 16.9903V31.3355C11.192 31.3242 11.3501 31.3148 11.51 31.2828V25.5781H20.4502V31.2828C20.6102 31.3148 20.7701 31.3261 20.9395 31.3355L20.9395 16.9903ZM12.9577 30.8575C13.927 30.4115 14.7551 29.6661 15.2765 28.7194C15.6171 28.0908 16.3305 28.0908 16.6805 28.7194C17.2019 29.6661 18.0206 30.4114 18.9993 30.8575V27.0161L12.9578 27.0142L12.9577 30.8575ZM11.5104 25.0887V21.204H20.4505V25.0887H11.5104ZM12.9577 23.6526H19.0031V22.6401H12.9577V23.6526ZM135.995 10.2012C131.941 10.2012 128.705 12.584 130.162 16.8845L131.674 21.396C131.26 21.7046 130.855 22.0453 130.471 22.3953L128.77 17.3628C126.982 12.0854 130.908 8.73339 135.995 8.73339H148.287C153.384 8.73339 157.301 12.0854 155.512 17.3628L153.809 22.3953C153.425 22.0434 153.022 21.7027 152.606 21.396L154.129 16.8845C155.588 12.5858 152.341 10.2012 148.287 10.2012H135.995ZM136.58 26.5792C134.41 27.2511 132.716 29.0053 132.249 31.2506C132.016 32.4099 132.142 33.5693 132.601 34.6666H129.823C128.845 34.6666 128.845 36.1459 129.823 36.1459H133.516C133.644 36.304 133.781 36.4546 133.93 36.6033C136.303 38.9766 138.677 41.3386 141.05 43.712C141.679 44.35 142.603 44.35 143.243 43.712C145.616 41.3387 147.978 38.9766 150.351 36.6033C150.5 36.4546 150.639 36.3059 150.765 36.1459H154.469C155.439 36.1459 155.439 34.6666 154.469 34.6666H151.682C152.151 33.5712 152.267 32.4099 152.034 31.2506C151.577 29.0052 149.873 27.2492 147.703 26.5792C145.682 25.9619 143.692 26.5152 142.149 27.9192C140.591 26.5152 138.602 25.9619 136.58 26.5792ZM141.762 36.0387L140.049 32.634C139.548 31.644 139.027 31.3994 138.389 32.4421L137.026 34.6667H134.26C132.643 32.0487 134.186 28.8565 137.017 27.9834C138.571 27.5053 140.071 27.9834 141.231 29.0788C141.752 29.5681 142.541 29.5681 143.051 29.0788C144.21 27.9834 145.71 27.5035 147.265 27.9834C150.107 28.8567 151.639 32.0487 150.022 34.6667H147.382L145.328 30.7613C144.743 29.6546 144.114 30.0913 143.732 31.0493L141.762 36.0387ZM148.733 36.146L142.199 42.6694C142.146 42.7334 142.146 42.7334 142.082 42.6694C139.91 40.4974 137.729 38.3274 135.547 36.146H137.4C137.687 36.146 137.921 36.0293 138.07 35.7734L139.124 34.0588L141.06 37.9114C141.518 38.8261 142.24 38.8167 142.624 37.8475L144.666 32.6641L146.274 35.7281C146.39 35.9841 146.658 36.1441 146.934 36.1441L148.733 36.146ZM132.929 20.5342L131.546 16.4161C130.428 13.0961 132.993 11.6694 135.993 11.6694H148.285C151.287 11.6694 153.862 13.096 152.733 16.4161L151.349 20.5342C148.678 18.8534 145.528 17.8842 142.144 17.8842C138.762 17.8842 135.6 18.8534 132.929 20.5342ZM150.626 50.4165C155.926 47.4484 159.511 41.7645 159.511 35.2638C159.511 30.7524 157.787 26.6345 154.966 23.5479L156.903 17.834C159.02 11.608 154.401 7.26585 148.282 7.26585H135.99C129.872 7.26585 125.262 11.6078 127.37 17.834L129.307 23.5479C126.486 26.6346 124.763 30.7526 124.763 35.2638C124.763 41.7664 128.349 47.4485 133.649 50.4165C133.777 50.5031 133.916 50.5445 134.063 50.5445H150.205C150.36 50.5445 150.509 50.5012 150.625 50.4165H150.626ZM134.271 49.0765C129.471 46.3418 126.236 41.179 126.236 35.2637C126.236 26.4744 133.354 19.3541 142.146 19.3541C150.926 19.3541 158.044 26.472 158.044 35.2637C158.044 41.1809 154.808 46.3417 150.009 49.0765H134.271ZM238.806 46.3983L240.839 44.3656L242.553 44.2282L242.416 45.9522L240.395 47.9848L240.438 47.3355C240.513 46.5055 240.184 46.2815 239.448 46.3455L238.806 46.3983ZM268.338 12.9307C271.276 12.9307 273.648 15.304 273.648 18.2403C273.648 21.167 271.274 23.55 268.338 23.55C268.041 23.55 267.73 23.518 267.444 23.4634C267.147 24.4214 266.157 24.826 265.528 24.1974L264.581 23.2413L264.229 23.5932C265.368 24.4665 266.795 24.9878 268.338 24.9878C272.074 24.9878 275.095 21.9671 275.095 18.2405C275.095 14.5045 272.074 11.4839 268.338 11.4839C264.613 11.4839 261.591 14.5066 261.591 18.2405C261.591 19.8911 262.185 21.4005 263.166 22.5712L263.537 22.2098L262.579 21.2405C261.984 20.6552 262.312 19.7292 263.153 19.3885C263.079 19.0159 263.036 18.6338 263.036 18.2386C263.038 15.3025 265.411 12.9307 268.338 12.9307ZM267.826 22.0703C267.997 22.091 268.167 22.1023 268.338 22.1023C270.476 22.1023 272.211 20.367 272.211 18.2383C272.211 16.1003 270.476 14.365 268.338 14.365C266.209 14.365 264.474 16.1003 264.474 18.2383C264.474 18.4924 264.495 18.7503 264.548 18.9931L267.134 18.2797C268.069 18.0125 268.75 18.6938 268.494 19.6405L267.826 22.0703ZM268.338 10.0456C272.87 10.0456 276.533 13.7175 276.533 18.2403C276.533 22.763 272.872 26.4351 268.338 26.4351C266.401 26.4351 264.613 25.7537 263.209 24.6151L262.889 24.9351C263.527 25.6277 264.113 26.3617 264.645 27.1371C265.784 27.6058 267.03 27.8711 268.338 27.8711C273.659 27.8711 277.98 23.5611 277.98 18.2405C277.98 12.9198 273.659 8.60996 268.338 8.60996C263.027 8.60996 258.707 12.92 258.707 18.2405C258.707 19.5806 258.984 20.8679 259.485 22.0292C260.324 22.5825 261.113 23.2112 261.847 23.8925L262.144 23.5951C260.898 22.1591 260.153 20.2864 260.153 18.2426C260.153 13.7181 263.814 10.0456 268.338 10.0456ZM268.338 29.3072C274.457 29.3072 279.414 24.3589 279.414 18.2403C279.414 12.1217 274.457 7.16235 268.338 7.16235C262.229 7.16235 257.269 12.1217 257.269 18.2403C257.269 19.1663 257.377 20.0584 257.599 20.9223C253.618 18.9009 249.033 18.3363 244.669 19.3583C244.595 18.9856 244.415 18.6657 244.147 18.389C242.871 17.113 240.752 17.1656 239.485 18.4323C238.187 19.7309 238.175 21.8596 239.495 23.1583C240.048 23.6909 240.729 23.9883 241.443 24.0635L241.516 42.8448L240.441 42.9295C240.229 42.9408 240.048 43.0462 239.92 43.1949L236.408 46.7182C235.813 47.1962 236.248 48.1335 236.982 48.0168L238.919 47.8568L238.759 49.8575C238.706 50.5482 239.525 50.9115 240.014 50.4221L243.632 46.8047C243.76 46.6768 243.835 46.5281 243.856 46.3474L243.94 45.2614L262.723 45.3348C262.797 46.0482 263.085 46.7389 263.629 47.2922C264.918 48.6116 267.045 48.6022 268.343 47.2922C269.578 46.0688 269.653 44.1002 268.524 42.7808C268.247 42.4401 267.852 42.1955 267.417 42.1108C268.46 37.6841 267.865 33.0223 265.767 29.0111C266.591 29.2125 267.453 29.3066 268.338 29.3066L268.338 29.3072ZM262.867 43.8673C262.91 43.7167 262.952 43.5793 263.016 43.44C265.188 38.0668 264.058 31.9048 260.185 27.6359L244.031 43.7898L262.867 43.8673ZM259.154 26.5931C254.887 22.7197 248.725 21.602 243.34 23.7718C243.203 23.8245 243.064 23.8791 242.913 23.9205L242.988 42.7567L259.154 26.5931ZM241.159 21.4642C240.786 21.0915 240.786 20.4855 241.159 20.1128C241.573 19.6987 242.105 19.7514 242.499 20.0921C242.678 20.2408 242.956 20.2295 243.127 20.0601C243.331 19.87 243.299 19.5388 243.084 19.3694C242.318 18.7313 241.232 18.7313 240.509 19.4541C239.775 20.1881 239.755 21.3907 240.498 22.1248C241.127 22.7327 242.032 22.7421 242.807 22.4334C248.725 20.0394 255.493 21.2948 260.176 25.5728L260.834 24.914C260.642 24.7428 260.462 24.5847 260.27 24.4153C255.269 20.19 248.297 19.1379 242.266 21.658C241.882 21.8161 241.488 21.7935 241.159 21.4642ZM261.207 26.6153C265.485 31.2867 266.74 38.0546 264.346 43.9834C264.037 44.7494 264.058 45.6641 264.664 46.2814C265.389 47.0267 266.59 47.0154 267.324 46.2814C268.016 45.5907 268.078 44.3654 267.376 43.6521C267.197 43.4827 266.908 43.462 266.717 43.6521C266.546 43.8234 266.535 44.1001 266.695 44.2808L266.812 44.4294C267.088 44.7475 266.949 45.3441 266.674 45.6208C266.302 45.9935 265.684 45.9935 265.313 45.6208C264.993 45.3009 264.973 44.8962 265.131 44.5141C267.643 38.4803 266.589 31.52 262.366 26.5192C262.206 26.3272 262.035 26.1353 261.865 25.9546L261.207 26.6153ZM266.134 22.7626L266.953 19.8246L264.006 20.6339L266.134 22.7626ZM96.2597 98.6442C98.8344 96.0675 98.8344 91.8968 96.2597 89.3219C93.6944 86.7453 89.5123 86.7453 86.9374 89.3219C84.3608 91.8967 84.3608 96.0693 86.9374 98.6442C89.5122 101.219 93.6959 101.219 96.2597 98.6442ZM78.7446 70.7628C76.168 73.3375 76.168 77.5193 78.7446 80.085C81.3193 82.6597 85.492 82.6597 88.0668 80.085C90.6416 77.5216 90.6416 73.3376 88.0668 70.7628C85.4902 68.1862 81.3194 68.1862 78.7446 70.7628ZM68.4004 81.1069C65.8257 83.6817 65.8257 87.8635 68.4004 90.4292C70.9752 93.0058 75.1478 93.0058 77.7227 90.4292C80.2974 87.8657 80.2974 83.6818 77.7227 81.1069C75.146 78.5303 70.9753 78.5303 68.4004 81.1069ZM64.6118 66.9742C62.037 69.5509 62.037 73.7216 64.6118 76.2984C67.1865 78.8731 71.3591 78.8731 73.934 76.2984C76.5087 73.7218 76.5087 69.551 73.934 66.9742C71.3574 64.3995 67.1866 64.3995 64.6118 66.9742ZM71.1992 73.5617C70.1358 74.6269 68.4118 74.6269 67.3465 73.5617C66.2813 72.4983 66.2813 70.7743 67.3465 69.709C68.4099 68.6437 70.1339 68.6437 71.1992 69.709C72.2626 70.7724 72.2626 72.4983 71.1992 73.5617ZM70.1772 72.5397C69.6765 73.0403 68.8672 73.0403 68.3685 72.5397C67.8678 72.0409 67.8678 71.2316 68.3685 70.731C68.8692 70.2303 69.6785 70.2303 70.1772 70.731C70.676 71.2316 70.6779 72.039 70.1772 72.5397ZM70.0379 66.5377L64.1732 72.4024C64.3332 73.4563 64.8113 74.467 65.6206 75.2763C66.4393 76.0856 67.4519 76.5731 68.4945 76.733L74.3592 70.8684C74.2105 69.8144 73.7212 68.8037 72.9119 67.9944C72.1026 67.187 71.0919 66.6976 70.0379 66.5377ZM64.3125 70.2304L67.8678 66.6751C67.0491 66.9085 66.2717 67.3451 65.6224 67.9944C64.9825 68.6343 64.5478 69.4117 64.3125 70.2304ZM74.2312 73.0403L70.6759 76.5956C71.4946 76.3622 72.2719 75.9256 72.9118 75.2763C73.5612 74.6364 73.9978 73.8609 74.2312 73.0403ZM74.9878 87.6944C73.9225 88.7596 72.2004 88.7596 71.1351 87.6944C70.0699 86.631 70.0699 84.9069 71.1351 83.853C72.1985 82.7877 73.9225 82.7877 74.9878 83.853C76.0512 84.9051 76.0512 86.6309 74.9878 87.6944ZM73.9658 86.6724C73.4651 87.1712 72.6558 87.1712 72.1571 86.6724C71.6564 86.1717 71.6564 85.3624 72.1571 84.8618C72.6578 84.3611 73.4651 84.3611 73.9658 84.8618C74.4646 85.3643 74.4646 86.1718 73.9658 86.6724ZM73.8378 80.6814L67.964 86.5461C68.124 87.6001 68.6133 88.6108 69.4226 89.4201C70.2319 90.2294 71.2426 90.7075 72.2965 90.8674L78.1612 85.0047C78.0012 83.9507 77.5232 82.94 76.7026 82.1307C75.8914 81.3195 74.8805 80.8395 73.8378 80.6814ZM68.1013 84.3628L71.6566 80.8188C70.8379 81.0428 70.0606 81.4794 69.4207 82.1288C68.7713 82.7781 68.3366 83.5441 68.1013 84.3628ZM78.02 87.1728L74.4647 90.7281C75.2834 90.4947 76.0607 90.0562 76.7006 89.4181C77.35 88.7688 77.7847 87.9915 78.02 87.1728ZM85.3321 77.35C84.2668 78.4133 82.5447 78.4133 81.4794 77.35C80.416 76.2847 80.416 74.5625 81.4794 73.5086C82.5447 72.4433 84.2668 72.4433 85.3321 73.5086C86.3954 74.5625 86.3954 76.2865 85.3321 77.35ZM84.3101 76.328C83.8094 76.8286 83.0021 76.8286 82.5014 76.328C82.0007 75.8292 82.0007 75.0199 82.5014 74.5193C83.0021 74.0186 83.8094 74.0186 84.3101 74.5193C84.8089 75.0199 84.8089 75.8292 84.3101 76.328ZM84.1821 70.337L78.3083 76.2017C78.4682 77.2557 78.9576 78.2664 79.7669 79.0757C80.5762 79.885 81.5868 80.3631 82.6408 80.523L88.5055 74.6603C88.3455 73.6063 87.8675 72.5956 87.0469 71.7863C86.2357 70.9751 85.2248 70.4951 84.1821 70.337ZM78.4456 74.0184L82.0009 70.4744C81.1822 70.6984 80.4048 71.1332 79.7668 71.7844C79.1156 72.4337 78.6809 73.1997 78.4456 74.0184ZM88.3643 76.8284L84.809 80.3837C85.6277 80.1503 86.405 79.7137 87.043 79.0756C87.6943 78.4244 88.129 77.6471 88.3643 76.8284ZM100.007 103.283L100.848 102.453L104.744 105.837C105.053 106.102 105.499 106.091 105.766 105.805C106.032 105.517 106.032 105.05 105.734 104.783L98.5406 98.3238C98.2527 98.0679 97.8179 98.0585 97.5412 98.3445L95.9019 99.9819C95.6253 100.259 95.6253 100.695 95.8907 100.983L102.341 108.177C102.606 108.465 103.075 108.474 103.363 108.209C103.66 107.932 103.66 107.484 103.395 107.187L100.007 103.283ZM99.7924 101.465L99.0264 102.231L97.4097 100.507L98.059 99.8577L99.7924 101.465ZM89.6838 92.0565C90.7378 90.9932 92.4618 90.9932 93.5252 92.0565C94.5905 93.1218 94.5905 94.844 93.5252 95.9092C92.4619 96.9632 90.7378 96.9632 89.6838 95.9092C88.6205 94.844 88.6205 93.1199 89.6838 92.0565ZM90.6946 93.0785C91.1952 92.5798 92.0045 92.5798 92.5033 93.0785C93.0039 93.5792 93.0039 94.3885 92.5033 94.8872C92.0026 95.3879 91.1952 95.3879 90.6946 94.8872C90.1939 94.3866 90.1939 93.5792 90.6946 93.0785ZM90.8338 99.0695L96.6985 93.2048C96.5385 92.1621 96.0605 91.1514 95.2512 90.3308C94.4419 89.5215 93.4312 89.0434 92.3772 88.8835L86.5125 94.7482C86.6725 95.8021 87.1506 96.8129 87.9599 97.6221C88.7692 98.4314 89.7799 98.9208 90.8338 99.0695ZM96.5593 95.3881L93.004 98.9434C93.8227 98.71 94.6 98.2733 95.2494 97.624C95.8874 96.9728 96.324 96.2068 96.5593 95.3881ZM86.6521 92.5781L90.1961 89.0228C89.3774 89.2562 88.6114 89.6928 87.9621 90.3328C87.3109 90.9821 86.8742 91.7594 86.6521 92.5781ZM149.139 108.363C157.174 108.363 163.686 101.84 163.686 93.8053C163.686 86.5366 158.354 80.5028 151.384 79.4278C150.79 77.3218 148.851 75.7785 146.574 75.7785H144.552V72.4265H145.318C146.329 72.4265 147.159 71.5964 147.159 70.5858V66.9251C147.159 65.9143 146.329 65.0844 145.318 65.0844H126.844C125.833 65.0844 125.003 65.9144 125.003 66.9251V70.5858C125.003 71.5965 125.833 72.4265 126.844 72.4265H127.61V75.7785H125.588C122.842 75.7785 120.587 78.0238 120.587 80.7812V103.363C120.587 106.109 122.844 108.363 125.588 108.363L149.139 108.363ZM149.768 79.2679C149.555 79.2566 149.354 79.2453 149.139 79.2453C146.084 79.2453 143.245 80.1939 140.913 81.7993H122.056V80.7773C122.056 78.8294 123.64 77.2428 125.588 77.2428H146.574C147.97 77.2465 149.194 78.0652 149.768 79.2679ZM139.106 83.2692C138.381 83.9506 137.734 84.7053 137.169 85.5146H126.166C125.144 85.5146 124.314 86.354 124.314 87.3666V96.764C124.314 97.786 125.144 98.616 126.166 98.616H135.404C135.669 99.4046 136.01 100.159 136.414 100.873H122.058V83.2714L139.106 83.2692ZM137.35 102.339C138.744 104.264 140.606 105.839 142.766 106.893H125.59C123.642 106.893 122.058 105.297 122.058 103.361V102.339H137.35ZM143.096 75.7784V72.4264H129.08V75.7784H143.096ZM126.845 70.9564H145.32C145.524 70.9564 145.693 70.7851 145.693 70.5837V66.923C145.693 66.7197 145.522 66.5391 145.32 66.5391H126.845C126.644 66.5391 126.473 66.7197 126.473 66.923V70.5837C126.473 70.787 126.642 70.9564 126.845 70.9564ZM136.295 86.9619C135.2 88.9946 134.583 91.3246 134.583 93.8052C134.583 94.9645 134.72 96.0938 134.976 97.1779H126.164C125.931 97.1779 125.75 96.9972 125.75 96.7638V87.3664C125.75 87.1425 125.931 86.9618 126.164 86.9618L136.295 86.9619ZM145.841 98.9866L147.725 96.7206C148.151 96.9239 148.63 97.0406 149.141 97.0406C150.076 97.0406 150.917 96.6472 151.503 96.0073L153.279 97.784C153.247 97.9553 153.227 98.1247 153.227 98.3053C153.227 99.6454 154.322 100.743 155.664 100.743C157.015 100.743 158.111 99.6473 158.111 98.3053C158.111 96.954 157.015 95.8586 155.664 95.8586C155.035 95.8586 154.461 96.1033 154.025 96.4966L152.248 94.7086C152.333 94.4207 152.376 94.1233 152.376 93.8034C152.376 93.4514 152.323 93.1107 152.216 92.7908L154.173 90.8334C154.557 90.9934 154.983 91.0781 155.429 91.0781C157.217 91.0781 158.664 89.6307 158.664 87.8427C158.664 86.0548 157.217 84.6074 155.429 84.6074C153.641 84.6074 152.182 86.0548 152.182 87.8427C152.182 88.6614 152.491 89.4068 152.991 89.9808L151.439 91.5241C150.853 90.9294 150.035 90.5661 149.141 90.5661C148.375 90.5661 147.671 90.8315 147.119 91.2681L145.672 90.1201C145.937 89.6627 146.086 89.1188 146.086 88.5447C146.086 86.7568 144.639 85.3094 142.851 85.3094C141.063 85.3094 139.604 86.7568 139.604 88.5447C139.604 90.3327 141.061 91.7801 142.851 91.7801C143.543 91.7801 144.181 91.5674 144.712 91.1947L146.223 92.3974C146.011 92.8228 145.894 93.3027 145.894 93.8015C145.894 94.5675 146.161 95.2582 146.596 95.8135L144.776 98.0155C144.467 97.8668 144.115 97.7821 143.743 97.7821C142.403 97.7821 141.305 98.8775 141.305 100.229C141.305 101.569 142.401 102.666 143.743 102.666C145.094 102.666 146.189 101.571 146.189 100.229C146.191 99.7753 146.063 99.3499 145.841 98.9866ZM142.851 86.7494C143.841 86.7494 144.648 87.5587 144.648 88.5487C144.648 89.5387 143.839 90.3461 142.851 90.3461C141.861 90.3461 141.051 89.5368 141.051 88.5487C141.051 87.5587 141.861 86.7494 142.851 86.7494ZM155.428 86.0474C156.418 86.0474 157.216 86.8567 157.216 87.8467C157.216 88.8367 156.418 89.6441 155.428 89.6441C154.427 89.6441 153.629 88.8348 153.629 87.8467C153.631 86.8548 154.429 86.0474 155.428 86.0474ZM143.744 99.2333C144.298 99.2333 144.746 99.6813 144.746 100.233C144.746 100.775 144.298 101.223 143.744 101.223C143.191 101.223 142.745 100.775 142.745 100.233C142.745 99.6794 143.191 99.2333 143.744 99.2333ZM155.662 97.3061C156.215 97.3061 156.661 97.754 156.661 98.3054C156.661 98.8588 156.213 99.3067 155.662 99.3067C155.108 99.3067 154.662 98.8588 154.662 98.3054C154.662 97.754 155.11 97.3061 155.662 97.3061ZM149.138 92.0061C150.128 92.0061 150.926 92.8154 150.926 93.8054C150.926 94.7953 150.128 95.6028 149.138 95.6028C148.139 95.6028 147.341 94.7935 147.341 93.8054C147.341 92.8154 148.139 92.0061 149.138 92.0061ZM149.138 80.6944C156.375 80.6944 162.249 86.5591 162.249 93.8052C162.249 101.051 156.375 106.916 149.138 106.916C141.892 106.916 136.016 101.051 136.016 93.8052C136.018 86.5572 141.892 80.6944 149.138 80.6944ZM186.372 69.2286V66.5466H184.776V72.3245C184.776 74.8033 182.935 76.868 180.55 77.2198V93.5019H199.663V77.2198C197.28 76.8679 195.428 74.8032 195.428 72.3245V66.5466H193.832V69.2286C193.831 74.1446 186.372 74.1446 186.372 69.2286ZM194.864 104.198L204.474 106.741L206.346 98.8548V89.2242H201.099V94.0554C201.099 94.5447 200.694 94.9494 200.205 94.9494H196.416L194.864 104.198ZM201.099 84.7128H217.157C217.539 84.7128 217.859 85.0308 217.859 85.4148V87.1388L220.797 104.601C220.861 104.973 220.626 105.335 220.264 105.42L209.378 108.293C208.951 108.41 208.537 108.261 208.42 107.795L207.069 102.058L205.706 107.795C205.589 108.263 205.174 108.412 204.748 108.293L193.874 105.42C193.501 105.324 193.268 104.994 193.331 104.601L194.96 94.9495H179.997C179.507 94.9495 179.103 94.5449 179.103 94.0555V76.5597C179.103 76.1551 179.434 75.837 179.827 75.837C181.753 75.837 183.339 74.2617 183.339 72.325V65.8224C183.339 65.429 183.657 65.109 184.064 65.109H187.096C187.489 65.109 187.821 65.4271 187.821 65.8224V66.3663C189.289 66.8556 190.919 66.8556 192.396 66.3663V65.8224C192.396 65.429 192.716 65.109 193.121 65.109H196.155C196.548 65.109 196.879 65.4271 196.879 65.8224V72.325C196.879 74.2617 198.454 75.837 200.391 75.837C200.785 75.837 201.104 76.1551 201.104 76.5597L201.099 84.7128ZM192.394 67.8679V69.2287C192.394 72.24 187.819 72.24 187.819 69.2287V67.8679C189.308 68.2726 190.904 68.2726 192.394 67.8679ZM208.857 89.226V93.824C208.857 94.5787 208.421 95.2393 207.783 95.5593V89.2277L208.857 89.226ZM207.781 97.0892C209.228 96.7053 210.303 95.3859 210.303 93.8219V89.2239H216.741L219.275 104.198L209.655 106.741L207.78 98.8547L207.781 97.0892ZM213.03 86.1616V87.7783H211.178V86.1616H213.03ZM214.464 87.7783V86.1616H216.412V87.7783H214.464ZM209.729 86.1616V87.7783H207.781V86.1616H209.729ZM202.952 86.1616V87.7783H201.1V86.1616H202.952ZM204.399 87.7783V86.1616H206.347V87.7783H204.399ZM257.78 96.2762L255.779 105.875C255.002 109.611 249.244 109.184 249.914 104.736C250.509 100.799 252.032 94.5087 252.692 90.7409C251.522 91.4956 249.839 90.9122 249.18 89.6248H246.116V93.3702C246.116 94.4034 245.264 95.2542 244.232 95.2542C243.201 95.2542 242.35 94.4035 242.35 93.3702V89.6248H241.616V91.9342C241.616 92.9769 240.765 93.8182 239.734 93.8182C238.691 93.8182 237.85 92.9769 237.85 91.9342V89.6248H236.86C236.467 89.6248 236.135 89.2954 236.135 88.9002C236.135 88.5068 236.467 88.1756 236.86 88.1756H237.85V85.8662C237.85 84.8235 238.691 83.9822 239.734 83.9822C240.767 83.9822 241.616 84.8235 241.616 85.8662V88.1756H242.35V84.4302C242.35 83.3988 243.201 82.5481 244.232 82.5481C245.263 82.5481 246.116 83.3988 246.116 84.4302V88.1756H248.904V80.7262C248.904 77.9802 251.149 75.737 253.893 75.737H261.652C264.397 75.737 266.642 77.9824 266.642 80.7262V88.1756H269.429V84.4302C269.429 83.3988 270.282 82.5481 271.313 82.5481C272.356 82.5481 273.197 83.3988 273.197 84.4302V88.1756H273.942V85.8662C273.942 84.8235 274.782 83.9822 275.824 83.9822C276.858 83.9822 277.708 84.8235 277.708 85.8662V88.1756H278.698C279.092 88.1756 279.412 88.505 279.412 88.9002C279.412 89.2936 279.094 89.6248 278.698 89.6248H277.708V91.9342C277.708 92.9769 276.856 93.8182 275.824 93.8182C274.782 93.8182 273.942 92.9769 273.942 91.9342V89.6248H273.197V93.3702C273.197 94.4034 272.358 95.2542 271.313 95.2542C270.28 95.2542 269.429 94.4035 269.429 93.3702V89.6248H266.365C265.706 90.9122 264.033 91.4975 262.862 90.7409C263.512 94.5089 265.044 100.797 265.629 104.736C266.299 109.184 260.553 109.609 259.764 105.875L257.78 96.2762ZM253.895 77.1745C251.949 77.1745 250.34 78.7705 250.34 80.7298V88.4466C250.34 90.0012 252.692 90.0012 252.692 88.4466V83.2425C252.692 82.2958 254.128 82.2958 254.128 83.2425C254.128 85.5405 254.128 86.6058 254.119 88.1811H261.431V83.2425C261.431 82.2958 262.867 82.2958 262.867 83.2425V88.4466C262.867 90.0012 265.208 90.0012 265.208 88.4466V80.7298C265.208 78.7724 263.612 77.1745 261.655 77.1745H253.895ZM254.119 89.6247V90.4547C254.109 90.7314 254.087 90.9666 254.032 91.264L251.339 104.885C250.818 107.526 253.989 107.642 254.382 105.64L257.044 92.0809C257.213 91.2415 258.331 91.2415 258.5 92.0809L261.16 105.64C261.553 107.64 264.736 107.524 264.214 104.885L261.521 91.264C261.457 90.9666 261.436 90.7314 261.436 90.4547V89.6247H254.119ZM257.78 65.0423C260.398 65.0423 262.515 67.1597 262.515 69.7777C262.515 72.3957 260.398 74.5243 257.78 74.5243C255.162 74.5243 253.033 72.3957 253.033 69.7777C253.033 67.1597 255.162 65.0423 257.78 65.0423ZM257.78 73.0771C259.6 73.0771 261.079 71.6072 261.079 69.7778C261.079 67.9578 259.6 66.4784 257.78 66.4784C255.948 66.4784 254.48 67.9577 254.48 69.7778C254.48 71.609 255.95 73.0771 257.78 73.0771ZM271.316 83.9951C271.562 83.9951 271.764 84.1871 271.764 84.4318V93.3719C271.764 93.6166 271.562 93.8085 271.316 93.8085C271.082 93.8085 270.881 93.6184 270.881 93.3719V84.4318C270.879 84.1871 271.081 83.9951 271.316 83.9951ZM275.829 85.4217C276.074 85.4217 276.266 85.6231 276.266 85.8697V91.9358C276.266 92.1804 276.074 92.3837 275.829 92.3837C275.584 92.3837 275.381 92.1804 275.381 91.9358V85.8697C275.381 85.6231 275.584 85.4217 275.829 85.4217ZM244.232 83.9951C243.988 83.9951 243.798 84.1871 243.798 84.4318V93.3719C243.798 93.6166 243.988 93.8085 244.232 93.8085C244.477 93.8085 244.68 93.6184 244.68 93.3719V84.4318C244.678 84.1871 244.477 83.9951 244.232 83.9951ZM239.732 85.4217C239.488 85.4217 239.284 85.6231 239.284 85.8697V91.9358C239.284 92.1804 239.488 92.3837 239.732 92.3837C239.977 92.3837 240.169 92.1804 240.169 91.9358V85.8697C240.169 85.6231 239.977 85.4217 239.732 85.4217Z" fill="white"/>
</g>
<defs>
<clipPath id="clip0_85_2042">
<rect width="53" height="53" fill="white"/>
</clipPath>
</defs>
</svg>
