<svg width="53" height="53" viewBox="0 0 53 53" fill="none" xmlns="http://www.w3.org/2000/svg">
<path fill-rule="evenodd" clip-rule="evenodd" d="M28.1694 34.2127H17.2666C16.9925 34.2127 16.7682 33.9884 16.7682 33.7143C16.7682 33.4401 16.9925 33.2159 17.2666 33.2159H28.1694C28.4435 33.2159 28.6678 33.4401 28.6678 33.7143C28.6678 33.9884 28.4435 34.2127 28.1694 34.2127ZM31.8452 34.0881C31.6084 34.0881 31.3966 33.9161 31.3567 33.6744C31.3094 33.4028 31.4913 33.1461 31.7654 33.0987C35.3664 32.4782 38.0803 29.261 38.0803 25.6173C38.0803 21.4082 34.6686 17.9866 30.4795 17.9866H14.9643C10.7751 17.9866 7.36355 21.4107 7.36355 25.6173C7.36355 29.2657 10.0774 32.4806 13.6784 33.0987C13.95 33.1461 14.1319 33.4028 14.0871 33.6744C14.0397 33.946 13.783 34.128 13.5114 34.0831C11.5427 33.7442 9.73842 32.7125 8.4276 31.1774C7.10184 29.6223 6.36914 27.6486 6.36914 25.6176C6.36914 24.4613 6.59592 23.3374 7.04698 22.2758C7.4806 21.2515 8.10357 20.327 8.89108 19.532C10.5234 17.8923 12.679 16.9901 14.9667 16.9901H30.4794C32.7646 16.9901 34.9227 17.8923 36.555 19.532C37.345 20.327 37.9655 21.249 38.3991 22.2758C38.8502 23.3374 39.0769 24.4638 39.0769 25.6176C39.0769 27.6486 38.3443 29.6223 37.0185 31.1774C35.7076 32.7124 33.9034 33.7441 31.9347 34.0831C31.9073 34.0856 31.8774 34.0906 31.8499 34.0906L31.8452 34.0881Z" fill="white"/>
<path fill-rule="evenodd" clip-rule="evenodd" d="M14.3383 18.0141C14.0641 18.0141 13.8398 17.7898 13.8398 17.5157V15.4921C13.8398 14.8317 14.1065 14.2063 14.5924 13.7303C15.0734 13.2593 15.7014 13.0001 16.3618 13.0001H16.4565C17.8495 13.0001 18.9809 14.119 18.9809 15.4921V17.4858C18.9809 17.7599 18.7566 17.9842 18.4825 17.9842C18.2084 17.9842 17.9841 17.7599 17.9841 17.4858V15.4921C17.9841 14.6673 17.2988 13.9969 16.4565 13.9969H16.3643C15.5369 13.9969 14.8367 14.6822 14.8367 15.4921V17.5157C14.8367 17.7898 14.6124 18.0141 14.3383 18.0141Z" fill="white"/>
<path fill-rule="evenodd" clip-rule="evenodd" d="M24.4639 17.9841C24.1898 17.9841 23.9655 17.7598 23.9655 17.4857V15.492C23.9655 14.6671 23.2802 13.9968 22.4379 13.9968H22.3457C21.5034 13.9968 20.8181 14.6671 20.8181 15.492V17.4857C20.8181 17.7598 20.5938 17.9841 20.3197 17.9841C20.0456 17.9841 19.8213 17.7598 19.8213 17.4857V15.492C19.8213 14.1189 20.9527 13 22.3457 13H22.4404C23.8335 13 24.9648 14.1189 24.9648 15.492V17.4857C24.9648 17.7598 24.7406 17.9841 24.4664 17.9841H24.4639Z" fill="white"/>
<path fill-rule="evenodd" clip-rule="evenodd" d="M16.332 37.9205H14.5253C13.9422 37.9205 13.4637 37.457 13.4064 36.8415L12.9703 32.3284C12.9429 32.0343 13.0426 31.7527 13.2419 31.5309C13.4562 31.2942 13.7677 31.1571 14.0892 31.1571H16.7681C17.0896 31.1571 17.3986 31.2942 17.6154 31.5309C17.8173 31.7527 17.9145 32.0368 17.8895 32.3259L17.4534 36.8464C17.3936 37.457 16.9152 37.9205 16.332 37.9205ZM14.0892 32.1589C14.0493 32.1589 14.0045 32.1789 13.9796 32.2088C13.9746 32.2138 13.9646 32.2312 13.9646 32.2412L14.4007 36.7542C14.4057 36.8265 14.4481 36.9262 14.5278 36.9262H16.3345C16.4143 36.9262 16.4566 36.824 16.4616 36.7567L16.8977 32.2362C16.8977 32.2262 16.8878 32.2138 16.8828 32.2088C16.8554 32.1814 16.8105 32.1589 16.7731 32.1589L14.0892 32.1589Z" fill="white"/>
<path fill-rule="evenodd" clip-rule="evenodd" d="M30.9105 37.9206H29.1038C28.5406 37.9206 28.0696 37.4969 27.9599 36.8889C27.9575 36.8739 27.955 36.8565 27.955 36.8465L27.5488 32.3284C27.5238 32.0394 27.621 31.7578 27.8229 31.5335C28.0372 31.2967 28.3487 31.1597 28.6702 31.1597H31.3491C31.6706 31.1597 31.9796 31.2967 32.1964 31.5335C32.3982 31.7553 32.4954 32.0394 32.4705 32.3284L32.0344 36.849C31.9721 37.4571 31.4912 37.9206 30.9105 37.9206ZM28.9443 36.7269C28.9667 36.8241 29.029 36.9238 29.1038 36.9238H30.9105C30.9903 36.9238 31.0326 36.8216 31.0376 36.7543L31.4737 32.2337C31.4737 32.2238 31.4638 32.2113 31.4588 32.2063C31.4314 32.1789 31.3865 32.1565 31.3491 32.1565H28.6702C28.6303 32.1565 28.5855 32.1764 28.5605 32.2063C28.5555 32.2113 28.5456 32.2288 28.5456 32.2387L28.9443 36.7269Z" fill="white"/>
<path fill-rule="evenodd" clip-rule="evenodd" d="M37.6391 29.884C37.5643 29.884 37.4895 29.8691 37.4173 29.8317C37.4148 29.8317 37.4123 29.8292 37.4073 29.8292C37.2976 29.7719 37.2204 29.6822 37.178 29.5775C37.168 29.5551 37.1581 29.5302 37.1556 29.5052C37.1282 29.3931 37.1406 29.271 37.1955 29.1638C37.7786 28.0275 38.0751 26.8363 38.0751 25.6226C38.0751 24.3791 37.7786 23.1904 37.1955 22.0864C37.1381 21.9767 37.1257 21.8571 37.1531 21.745C37.1581 21.72 37.1656 21.6976 37.1755 21.6727C37.2179 21.5655 37.2976 21.4733 37.4048 21.416C37.482 21.3761 37.5668 21.3562 37.649 21.3562H39.9143C41.2052 21.3562 42.2519 22.4028 42.2519 23.6938V27.5564C42.2519 28.8249 41.1828 29.894 39.9143 29.894H37.649C37.6465 29.889 37.644 29.889 37.639 29.889L37.6391 29.884ZM38.4191 28.8872H39.9144C40.6395 28.8872 41.2551 28.2742 41.2551 27.5465V23.6838C41.2551 22.9462 40.6545 22.343 39.9144 22.343H38.4266C38.8577 23.3797 39.0745 24.4763 39.0745 25.6151C39.0745 26.729 38.8527 27.8255 38.4192 28.8846L38.4191 28.8872Z" fill="white"/>
<path fill-rule="evenodd" clip-rule="evenodd" d="M46.9842 37.9204H44.4298C44.1557 37.9204 43.9314 37.6961 43.9314 37.4219V27.5782C43.9314 27.5408 43.8816 27.4835 43.8592 27.4635C43.7944 27.3987 43.757 27.3913 43.7121 27.3913H41.7484C41.4743 27.3913 41.25 27.167 41.25 26.8928V24.3385C41.25 24.0644 41.4743 23.8401 41.7484 23.8401H43.7121C44.7339 23.8401 45.7157 24.2338 46.401 24.9216C47.0863 25.6094 47.4826 26.5764 47.4826 27.5782V37.422C47.4826 37.6961 47.2583 37.9204 46.9842 37.9204ZM44.9282 36.9235H46.4857V27.5786C46.4857 26.8385 46.1992 26.1283 45.6982 25.6249C45.1973 25.124 44.4746 24.8374 43.7146 24.8374H42.2517V26.3949H43.7146C44.0385 26.3949 44.3251 26.517 44.5643 26.7587C44.8011 26.9955 44.9282 27.2796 44.9282 27.5786L44.9282 36.9235Z" fill="white"/>
<path fill-rule="evenodd" clip-rule="evenodd" d="M48.7289 41.16H5.11826C4.54759 41.16 4.01427 40.9407 3.61803 40.542C3.2193 40.1432 3 39.61 3 39.0417C3 38.471 3.2193 37.9377 3.61803 37.5415C4.01676 37.1428 4.55003 36.9235 5.11826 36.9235H48.7289C49.8976 36.9235 50.8471 37.8729 50.8471 39.0417C50.8471 40.2104 49.8976 41.16 48.7289 41.16ZM5.11826 37.9203C4.48778 37.9203 3.99685 38.4113 3.99685 39.0418C3.99685 39.6722 4.48778 40.1632 5.11826 40.1632H48.7289C49.3369 40.1632 49.8503 39.6498 49.8503 39.0418C49.8503 38.4337 49.3369 37.9203 48.7289 37.9203H5.11826Z" fill="white"/>
<path d="M22.4576 30.2699C24.2153 30.2699 25.6457 28.6532 25.6472 26.6663C25.6462 24.9764 23.508 21.186 23.0793 20.4433C22.9422 20.2062 22.7081 20.0625 22.4572 20.0625C22.2062 20.0625 21.9726 20.2057 21.835 20.4433C21.4063 21.186 19.2676 24.9764 19.2676 26.6669C19.2686 28.6538 20.6995 30.2699 22.4576 30.2699ZM22.4576 22.4867C23.2976 24.0727 24.1618 25.9645 24.1623 26.6663C24.1618 27.7283 23.3966 28.5923 22.4576 28.5923C21.5182 28.5923 20.754 27.7283 20.7535 26.6663C20.7535 25.9651 21.6177 24.0732 22.4576 22.4867Z" fill="white"/>
</svg>
