<svg width="49" height="45" viewBox="0 0 49 45" fill="none" xmlns="http://www.w3.org/2000/svg">
<path fill-rule="evenodd" clip-rule="evenodd" d="M27.4479 40.4855L28.8724 38.9402C29.1871 38.6056 29.1705 38.0806 28.8227 37.7709C28.4914 37.4612 27.9611 37.481 27.663 37.8173L25.0132 40.6826C24.9635 40.729 24.9303 40.7803 24.8972 40.835C24.8144 40.9658 24.7645 41.1248 24.7645 41.2954C24.748 41.63 24.9468 41.9198 25.2283 42.0523L27.663 44.7056C27.9611 45.0418 28.4914 45.0667 28.8227 44.7586C29.1705 44.4505 29.1871 43.9255 28.889 43.5893L27.5639 42.1417L45.0868 42.2593C46.2627 42.2676 47.3724 41.6415 47.9686 40.6196C48.5649 39.5977 48.5649 38.3324 47.9852 37.3038C44.888 31.8813 39.522 22.4837 39.522 22.4837C39.2901 22.0879 38.7933 21.9487 38.3958 22.1756C37.9983 22.4025 37.849 22.9094 38.0808 23.3052C38.0808 23.3052 43.4473 32.7028 46.5445 38.1253C46.8426 38.6404 46.8426 39.2715 46.5445 39.7832C46.2463 40.295 45.683 40.6081 45.1033 40.6031L27.4479 40.4855ZM10.1567 21.5744L1.03075 37.1382C0.417935 38.1618 0.417902 39.4255 0.99759 40.4557C1.59384 41.4842 2.68693 42.1219 3.86287 42.1268C9.84193 42.15 19.8953 42.1898 19.8953 42.1898C20.3424 42.1914 20.7234 41.8204 20.7234 41.365C20.7234 40.9078 20.359 40.5352 19.8953 40.5335C19.8953 40.5335 9.84195 40.4938 3.87945 40.4706C3.2832 40.4689 2.73644 40.1493 2.43832 39.6342C2.15675 39.1207 2.15677 38.488 2.4549 37.9763L11.5145 22.5152L12.111 24.405C12.2435 24.8422 12.7074 25.0857 13.138 24.9499C13.5852 24.814 13.8334 24.3503 13.6843 23.913L12.5084 20.1351C12.3925 19.7244 11.9618 19.4809 11.5477 19.5737L7.65575 20.4283C7.20856 20.526 6.92679 20.9682 7.02616 21.4154C7.10897 21.861 7.55631 22.1442 8.00349 22.0465L10.1567 21.5744ZM25.1952 14.0633C25.0461 13.8215 24.7812 13.6741 24.4997 13.6741C24.2181 13.6741 23.9532 13.8215 23.7876 14.0633C23.7876 14.0633 20.8725 18.7323 19.1169 22.9342C18.3219 24.8306 17.7752 26.6409 17.7752 27.9311C17.7752 31.6361 20.7897 34.6455 24.4997 34.6455C28.1931 34.6455 31.2076 31.6361 31.2076 27.9311C31.2076 26.6409 30.6609 24.8306 29.8825 22.9342C28.1269 18.7323 25.1952 14.0633 25.1952 14.0633ZM24.4997 16.1022C25.4437 17.7154 27.1664 20.7513 28.3423 23.5735C29.0379 25.2298 29.5513 26.8032 29.5513 27.9311C29.5513 30.7219 27.2822 32.9893 24.4997 32.9893C21.7006 32.9893 19.4315 30.7219 19.4315 27.9311C19.4315 26.8032 19.9449 25.2298 20.6405 23.5735C21.8164 20.7513 23.5391 17.7154 24.4997 16.1022ZM33.9402 16.3904L31.8202 15.9117C31.373 15.8107 30.926 16.0906 30.8267 16.5361C30.7273 16.9833 31.0087 17.4255 31.4558 17.5265L35.3814 18.4126C35.7954 18.507 36.2262 18.2652 36.3421 17.8545L37.5843 13.9888C37.7168 13.5532 37.4682 13.0878 37.0376 12.9487C36.607 12.8112 36.143 13.053 35.994 13.4886L35.3482 15.5208L27.4976 1.70108C26.9179 0.670892 25.8248 0.0315794 24.6323 0.0249544C23.4564 0.0183294 22.3633 0.644393 21.7504 1.66796L14.1979 14.6248C13.966 15.019 14.0984 15.5275 14.4959 15.7577C14.8934 15.9879 15.3905 15.8537 15.6224 15.4595L23.1912 2.5027C23.4893 1.99092 24.0361 1.67789 24.6323 1.6812C25.2286 1.68452 25.7583 2.00417 26.0565 2.51927L33.9402 16.3904Z" fill="white"/>
</svg>
