<svg width="53" height="53" viewBox="0 0 53 53" fill="none" xmlns="http://www.w3.org/2000/svg">
<path d="M40.8373 35.6598C39.7214 35.6598 38.813 36.5678 38.813 37.6841C38.813 38.8 39.721 39.7081 40.8373 39.7081C41.9537 39.7081 42.8613 38.8 42.8613 37.6841C42.8613 36.5678 41.9532 35.6598 40.8373 35.6598ZM40.8373 38.4659C40.4063 38.4659 40.0552 38.1152 40.0552 37.6841C40.0552 37.2527 40.4063 36.902 40.8373 36.902C41.2684 36.902 41.6191 37.2527 41.6191 37.6841C41.6191 38.1152 41.2684 38.4659 40.8373 38.4659Z" fill="white"/>
<path d="M21.8438 35.6598C20.7279 35.6598 19.8198 36.5678 19.8198 37.6841C19.8198 38.8 20.7274 39.7081 21.8438 39.7081C22.9601 39.7081 23.8677 38.8 23.8677 37.6841C23.8677 36.5678 22.9597 35.6598 21.8438 35.6598ZM21.8438 38.4659C21.4127 38.4659 21.062 38.1152 21.062 37.6841C21.062 37.2527 21.4127 36.902 21.8438 36.902C22.2748 36.902 22.6255 37.2527 22.6255 37.6841C22.6255 38.1152 22.2748 38.4659 21.8438 38.4659Z" fill="white"/>
<path d="M12.3369 35.6598C11.221 35.6598 10.3125 36.5678 10.3125 37.6841C10.3125 38.8 11.2205 39.7081 12.3369 39.7081C13.4532 39.7081 14.3612 38.8 14.3612 37.6841C14.3612 36.5678 13.4527 35.6598 12.3369 35.6598ZM12.3369 38.4659C11.9058 38.4659 11.5547 38.1152 11.5547 37.6841C11.5547 37.2527 11.9058 36.902 12.3369 36.902C12.7679 36.902 13.119 37.2527 13.119 37.6841C13.119 38.1152 12.7679 38.4659 12.3369 38.4659Z" fill="white"/>
<path d="M48.6523 30.918C48.3095 30.918 48.0312 31.1958 48.0312 31.5391V33.6939L47.4876 34.6806C47.3957 34.6313 47.3017 34.5887 47.2023 34.5539V27.8734C47.2023 27.8659 47.1994 27.8593 47.199 27.8519C47.1973 27.808 47.1915 27.7649 47.1808 27.7227C47.1779 27.7119 47.1762 27.7011 47.1729 27.6904C47.158 27.6419 47.1373 27.5956 47.1112 27.5521C47.1062 27.5438 47.1 27.5368 47.0946 27.5285C47.071 27.4937 47.0437 27.461 47.0135 27.4312C47.004 27.4221 46.9944 27.4125 46.9841 27.4038C46.9452 27.3703 46.9029 27.3397 46.8545 27.3157L45.2297 26.5211V26.1157C45.2297 25.6246 45.0413 25.1667 44.7009 24.8284C44.4637 24.5907 44.1722 24.4325 43.8567 24.353L43.1499 22.597C43.7474 22.2902 44.1614 21.6745 44.1614 20.9581C44.1614 19.9387 43.3321 19.1093 42.3122 19.1093H34.1469C33.8041 19.1093 33.5258 19.3872 33.5258 19.7304V22.1854C33.5258 22.1937 33.5279 22.2011 33.5283 22.2094V30.9159H27.5969V30.1569C29.8146 29.9975 31.5719 28.1463 31.5719 25.888V17.4692C31.5719 15.1066 29.6498 13.1845 27.2875 13.1845H22.0426V12.0885H22.7018C23.0446 12.0885 23.3229 11.8107 23.3229 11.4674C23.3229 11.1241 23.0446 10.8463 22.7018 10.8463H21.4215H16.0818H14.8027C14.4599 10.8463 14.1816 11.1241 14.1816 11.4674C14.1816 11.8107 14.4599 12.0885 14.8027 12.0885H15.4607V13.1845H10.217C7.85435 13.1845 5.93227 15.1066 5.93227 17.4692V25.8875C5.93227 28.1454 7.68914 29.9967 9.90727 30.1565V30.9155H6.55047C6.20762 30.9155 5.92937 31.1933 5.92937 31.5366V34.5551C5.73932 34.623 5.56169 34.7145 5.40145 34.8321L4.96875 34.5361V32.0828C4.96875 31.7395 4.6905 31.4617 4.34766 31.4617C4.00481 31.4617 3.72656 31.7395 3.72656 32.0828V34.8632C3.72656 35.0681 3.82759 35.2599 3.99612 35.3754L4.66276 35.8325C4.58202 36.0602 4.53067 36.3033 4.53067 36.5621C4.53067 37.7194 5.46977 38.6605 6.62376 38.6605H7.9852C8.43528 40.6584 10.2447 42.1532 12.3391 42.1532C14.4321 42.1532 16.2404 40.6559 16.6875 38.6605H17.4925C17.943 40.6584 19.7524 42.1532 21.8459 42.1532C23.9394 42.1532 25.7481 40.6551 26.1944 38.6605H36.4884C36.9377 40.6584 38.7447 42.1532 40.8357 42.1532C42.9321 42.1532 44.7436 40.6534 45.1908 38.6605H46.5092C47.666 38.6605 48.6068 37.7194 48.6068 36.5252C48.6068 36.1981 48.5252 35.8925 48.3911 35.6164L49.1964 34.1531C49.2469 34.0616 49.2734 33.9585 49.2734 33.8537V31.5391C49.2734 31.1962 48.9952 30.918 48.6523 30.918ZM43.8815 34.4272C43.0633 33.6587 41.971 33.2181 40.8361 33.2181C39.7065 33.2181 38.6142 33.6587 37.7915 34.4272H34.7705V31.537V22.8061H36.0011V25.2996C36.0011 26.3157 36.8271 27.1422 37.8428 27.1422H41.5947V28.1297C41.5947 28.473 41.8729 28.7508 42.2157 28.7508H43.3884C44.0836 28.7508 44.6823 28.3591 44.9958 27.7889L45.9605 28.261V34.4268L43.8815 34.4272ZM36.3866 37.4188H26.2946C26.2586 36.8027 26.1021 36.2085 25.83 35.6694H34.1494H36.8516C36.5791 36.2085 36.4226 36.8022 36.3866 37.4188ZM42.8364 26.1153C42.8364 25.7944 43.094 25.5335 43.4116 25.5331C43.4116 25.5331 43.412 25.5331 43.4124 25.5331C43.5693 25.5331 43.7072 25.5911 43.8227 25.7066C43.9287 25.8122 43.9871 25.9571 43.9871 26.1149V26.9082C43.9871 27.239 43.7184 27.5086 43.388 27.5086H42.8364V26.1153ZM41.6158 25.9H37.8428C37.512 25.9 37.2433 25.6308 37.2433 25.2996V22.8061H41.8948L42.578 24.5038C42.0572 24.7762 41.6886 25.2901 41.6158 25.9ZM42.3122 20.3511C42.6472 20.3511 42.9192 20.6232 42.9192 20.9577C42.9192 21.2861 42.6563 21.5527 42.3296 21.5623C42.3255 21.5623 42.3213 21.5623 42.3172 21.5623C42.3164 21.5623 42.3151 21.5618 42.3139 21.5618H34.768V20.3511H42.3122ZM16.7029 12.0885H20.8004V13.1845H16.7029V12.0885ZM7.17446 25.8875V17.4692C7.17446 16.0043 8.215 14.7787 9.5959 14.4909V24.4007C9.5959 24.7439 9.87415 25.0217 10.217 25.0217C10.5598 25.0217 10.8381 24.7439 10.8381 24.4007V14.4271H16.0818H21.4215H26.746V25.7857C26.746 26.1289 27.0242 26.4068 27.367 26.4068C27.7099 26.4068 27.9881 26.1289 27.9881 25.7857V14.5116C29.328 14.8296 30.3293 16.0333 30.3293 17.4692V25.8875C30.3293 27.5653 28.9645 28.9301 27.2871 28.9301H26.9753H10.5284H10.217C8.53921 28.9301 7.17446 27.5653 7.17446 25.8875ZM11.1495 30.1723H26.3551V30.9155H11.1495V30.1723ZM7.17115 32.1581H10.5044C10.5126 32.1585 10.5201 32.1606 10.5284 32.1606H26.9762C26.9845 32.1606 26.9919 32.1585 27.0002 32.1581H33.5287V34.4272H24.8914C24.0682 33.6583 22.9759 33.2181 21.8464 33.2181C20.7093 33.2181 19.6162 33.6591 18.8005 34.4272H15.3791C14.5617 33.6583 13.4719 33.2181 12.3395 33.2181C11.1884 33.2181 10.1168 33.6487 9.28825 34.4272H7.17198V32.1581H7.17115ZM17.3906 37.4188H16.7882C16.7517 36.8035 16.5936 36.2093 16.3194 35.6694H17.8598C17.5852 36.2097 17.4271 36.8035 17.3906 37.4188ZM5.77286 36.5256C5.77286 36.0532 6.15462 35.6694 6.62376 35.6694H8.34874C8.07629 36.2089 7.91977 36.8027 7.88334 37.4188H6.62376C6.15462 37.4188 5.77286 37.0345 5.77286 36.5256ZM12.3391 40.9114C10.6878 40.9114 9.27748 39.6257 9.12842 37.9773C9.1189 37.8817 9.1131 37.7865 9.1131 37.6858C9.1131 36.8552 9.42365 36.0706 9.98843 35.4743C10.6041 34.8205 11.4393 34.4603 12.3391 34.4603C13.2239 34.4603 14.0748 34.8292 14.6781 35.4756C15.2458 36.0747 15.5584 36.8598 15.5584 37.6858C15.5584 37.7865 15.553 37.8817 15.5427 37.984C15.3944 39.6253 13.987 40.9114 12.3391 40.9114ZM21.8459 40.9114C20.1951 40.9114 18.7852 39.6253 18.6353 37.9711C18.6249 37.8776 18.6204 37.7844 18.6204 37.6858C18.6204 36.8594 18.933 36.0743 19.504 35.4719C20.1131 34.8193 20.9445 34.4603 21.8459 34.4603C22.7416 34.4603 23.5746 34.8205 24.1916 35.4756C24.7547 36.0702 25.0649 36.8552 25.0649 37.6858C25.0649 37.7856 25.0603 37.8805 25.0495 37.984C24.9013 39.6253 23.4939 40.9114 21.8459 40.9114ZM40.8357 40.9114C39.1877 40.9114 37.7803 39.6257 37.6312 37.9732C37.6213 37.8788 37.6163 37.7848 37.6163 37.6858C37.6163 36.8552 37.9265 36.0702 38.4912 35.4743C39.1074 34.8205 39.9401 34.4603 40.8357 34.4603C41.7371 34.4603 42.5689 34.8197 43.1809 35.4752C43.7482 36.0747 44.0608 36.8598 44.0608 37.6858C44.0608 37.7844 44.0571 37.8776 44.0455 37.9836C43.8964 39.6253 42.4861 40.9114 40.8357 40.9114ZM46.5087 37.4188H45.2906C45.2541 36.8035 45.096 36.2093 44.8223 35.6694H46.5087C46.9808 35.6694 47.3642 36.0536 47.3642 36.5625C47.3646 37.0345 46.9808 37.4188 46.5087 37.4188Z" fill="white"/>
<path d="M19.0495 24.7365C20.5198 24.7365 21.7165 23.5394 21.7177 22.0683C21.7169 20.817 19.9281 18.0104 19.5696 17.4606C19.4549 17.285 19.259 17.1786 19.0491 17.1786C18.8391 17.1786 18.6437 17.2846 18.5286 17.4606C18.17 18.0104 16.3809 20.817 16.3809 22.0687C16.3817 23.5398 17.5787 24.7365 19.0495 24.7365ZM19.0495 18.9736C19.7522 20.1478 20.4751 21.5486 20.4755 22.0683C20.4751 22.8546 19.835 23.4943 19.0495 23.4943C18.2636 23.4943 17.6243 22.8546 17.6239 22.0683C17.6239 21.549 18.3468 20.1482 19.0495 18.9736Z" fill="white"/>
</svg>
