<svg width="51" height="51" viewBox="0 0 51 51" fill="none" xmlns="http://www.w3.org/2000/svg">
<circle cx="25.5" cy="25.5" r="25" stroke="#00CFFF"/>
<path d="M20.75 20.25C22.8203 20.25 24.5 21.9297 24.5 24L24.5 27.75C24.5 30.5234 22.2344 32.75 19.5 32.75C18.7969 32.75 18.25 32.2031 18.25 31.5C18.25 30.8359 18.7969 30.25 19.5 30.25C20.8672 30.25 22 29.1563 22 27.75L22 27.5547C21.5703 27.6719 21.1797 27.75 20.75 27.75C18.6406 27.75 17 26.1094 17 24C17 21.9297 18.6406 20.25 20.75 20.25ZM34.5 24L34.5 27.75C34.5 30.5234 32.2344 32.75 29.5 32.75C28.7969 32.75 28.25 32.2031 28.25 31.5C28.25 30.8359 28.7969 30.25 29.5 30.25C30.8672 30.25 32 29.1563 32 27.75L32 27.5547C31.5703 27.6719 31.1797 27.75 30.75 27.75C28.6406 27.75 27 26.1094 27 24C27 21.9297 28.6406 20.25 30.75 20.25C32.8203 20.25 34.5 21.9297 34.5 24Z" fill="#00CFFF"/>
</svg>
