<svg width="53" height="53" viewBox="0 0 53 53" fill="none" xmlns="http://www.w3.org/2000/svg">
<path d="M16.8392 33.1703C17.2759 33.1703 17.7088 33.1346 18.1285 33.0649C20.0689 35.7996 23.0652 37.3448 26.4981 37.3448C29.9311 37.3448 32.9294 35.7977 34.8697 33.0649C35.2913 33.1346 35.7223 33.1703 36.159 33.1703C38.9219 33.1703 41.299 31.7982 42.6804 29.4042C44.0619 27.0102 44.0619 24.2661 42.6804 21.8739L36.7555 11.6126C36.6313 11.3999 36.4035 11.2682 36.157 11.2682C35.9104 11.2682 35.6827 11.3999 35.5584 11.6126L32.532 16.8562L27.0947 7.43622C26.9705 7.22354 26.7428 7.0918 26.4962 7.0918C26.2497 7.0918 26.0219 7.22355 25.8977 7.43622L20.4604 16.8562L17.434 11.6126C17.3098 11.3999 17.082 11.2682 16.8355 11.2682C16.5889 11.2682 16.3612 11.3999 16.237 11.6126L10.312 21.8739C8.93057 24.268 8.93057 27.012 10.312 29.4042C11.6935 31.7983 14.0706 33.1703 16.8334 33.1703H16.8392ZM36.1611 13.3387L41.4876 22.5645C42.6169 24.5182 42.6169 26.7616 41.4876 28.7154C40.3583 30.6691 38.4179 31.7908 36.1611 31.7908C35.9936 31.7908 35.8261 31.7832 35.6623 31.772C37.3223 28.5949 37.2452 25.0154 35.4346 21.8759L33.3341 18.2378L36.1611 13.3406L36.1611 13.3387ZM26.5002 9.16228L34.2377 22.5645C35.877 25.4027 35.877 28.6605 34.2377 31.4989C32.5984 34.3373 29.779 35.967 26.5002 35.967C23.2213 35.967 20.4023 34.339 18.7626 31.4989C17.1234 28.6607 17.1234 25.4029 18.7626 22.5645L26.5002 9.16228ZM11.5132 22.5645L16.8397 13.3387L19.6666 18.2359L17.5662 21.874C15.7537 25.0133 15.6784 28.5949 17.3385 31.7701C17.1728 31.7814 17.0072 31.7889 16.8397 31.7889C14.583 31.7889 12.6407 30.669 11.5132 28.7135C10.3839 26.7599 10.3839 24.5165 11.5132 22.5626L11.5132 22.5645ZM26.6134 33.9831C26.5532 33.6067 26.8091 33.2529 27.1856 33.1927C29.0959 32.8859 30.6449 31.7886 31.6668 30.0195C32.2936 28.9335 32.6041 27.8118 32.5891 26.6825C32.5834 26.3023 32.8902 25.988 33.2704 25.9842C33.6487 25.9786 33.9649 26.2835 33.9687 26.6656C33.9856 28.0452 33.613 29.4059 32.8601 30.7102C31.6236 32.8501 29.7377 34.1808 27.4021 34.5554C27.3644 34.561 27.3287 34.5648 27.291 34.5648C26.9579 34.5648 26.6643 34.3239 26.6097 33.9832L26.6134 33.9831ZM4.67188 41.0582C4.67188 40.678 4.98054 40.3674 5.36261 40.3674C6.14744 40.3674 6.92852 40.0719 7.62301 39.513C9.40911 38.075 11.9048 38.075 13.6891 39.513C15.1044 40.6535 16.7946 40.6535 18.2118 39.513C19.9979 38.075 22.4917 38.075 24.2779 39.513C25.6932 40.6535 27.3833 40.6535 28.8006 39.513C30.5867 38.075 33.0823 38.075 34.8666 39.513C36.282 40.6535 37.9721 40.6535 39.3893 39.513C41.1754 38.075 43.6711 38.075 45.4554 39.513C46.1292 40.0569 46.8896 40.3524 47.6518 40.3674C48.032 40.375 48.3351 40.6912 48.3275 41.0713C48.32 41.4515 48.0019 41.7564 47.6236 41.747C46.5545 41.7244 45.5044 41.3235 44.5896 40.5876C43.3136 39.56 41.5312 39.56 40.2552 40.5876C38.326 42.1404 35.9301 42.1404 34.0012 40.5876C32.7251 39.56 30.9427 39.56 29.6667 40.5876C28.703 41.3649 27.6208 41.7527 26.5405 41.7527C25.4602 41.7527 24.3779 41.3649 23.4143 40.5876C22.1383 39.56 20.3559 39.56 19.0798 40.5876C17.1507 42.1404 14.7547 42.1404 12.8258 40.5876C11.5498 39.56 9.76739 39.56 8.49134 40.5876C7.54843 41.3461 6.46809 41.7489 5.36516 41.7489C4.98498 41.7489 4.67443 41.4402 4.67443 41.0582H4.67188ZM48.327 50.0431C48.3195 50.4233 48.0014 50.7282 47.6231 50.7188C46.5522 50.6962 45.5039 50.2953 44.5892 49.5594C43.3131 48.5318 41.5307 48.5318 40.2547 49.5594C38.3255 51.1122 35.9296 51.1122 34.0007 49.5594C32.7246 48.5318 30.9422 48.5318 29.6662 49.5594C28.7026 50.3367 27.6203 50.7244 26.54 50.7244C25.4597 50.7244 24.3775 50.3367 23.4138 49.5594C22.1378 48.5318 20.3554 48.5318 19.0793 49.5594C17.1502 51.1122 14.7543 51.1122 12.8253 49.5594C11.5493 48.5318 9.76691 48.5318 8.49086 49.5594C7.54794 50.3179 6.46761 50.7207 5.36468 50.7207C4.9845 50.7207 4.67395 50.412 4.67395 50.03C4.67395 49.6498 4.98261 49.3392 5.36468 49.3392C6.14951 49.3392 6.93059 49.0437 7.62508 48.4848C9.41118 47.0468 11.9069 47.0468 13.6912 48.4848C15.1065 49.6253 16.7966 49.6253 18.2139 48.4848C20 47.0468 22.4937 47.0468 24.2799 48.4848C25.6953 49.6253 27.3854 49.6253 28.8026 48.4848C30.5887 47.0468 33.0844 47.0468 34.8687 48.4848C36.2841 49.6253 37.9742 49.6253 39.3914 48.4848C41.1775 47.0468 43.6732 47.0468 45.4575 48.4848C46.1313 49.0287 46.8917 49.3242 47.6539 49.3392C48.0341 49.3467 48.3371 49.6629 48.3296 50.0431H48.327ZM48.327 45.5562C48.3195 45.9364 48.0014 46.2413 47.6231 46.2318C46.5541 46.2092 45.5039 45.8084 44.5892 45.0725C43.3131 44.0449 41.5307 44.0449 40.2547 45.0725C38.3255 46.6252 35.9296 46.6252 34.0007 45.0725C32.7246 44.0449 30.9422 44.0449 29.6662 45.0725C28.7026 45.8498 27.6203 46.2375 26.54 46.2375C25.4597 46.2375 24.3775 45.8498 23.4138 45.0725C22.1378 44.0449 20.3554 44.0449 19.0793 45.0725C17.1502 46.6252 14.7543 46.6252 12.8253 45.0725C11.5493 44.0449 9.76691 44.0449 8.49086 45.0725C7.54982 45.831 6.46761 46.2338 5.36468 46.2338C4.9845 46.2338 4.67395 45.9251 4.67395 45.543C4.67395 45.1628 4.98261 44.8523 5.36468 44.8523C6.14951 44.8523 6.93059 44.5568 7.62508 43.9978C9.41118 42.5599 11.9069 42.5599 13.6912 43.9978C15.1065 45.1384 16.7966 45.1384 18.2139 43.9978C20 42.5599 22.4937 42.5599 24.2799 43.9978C25.6953 45.1384 27.3854 45.1384 28.8026 43.9978C30.5887 42.5599 33.0844 42.5599 34.8687 43.9978C36.2841 45.1384 37.9742 45.1384 39.3914 43.9978C41.1775 42.5599 43.6732 42.5599 45.4575 43.9978C46.1313 44.5418 46.8917 44.8373 47.6539 44.8523C48.0341 44.8598 48.3371 45.176 48.3296 45.5562H48.327Z" fill="white"/>
</svg>
