<svg width="53" height="53" viewBox="0 0 53 53" fill="none" xmlns="http://www.w3.org/2000/svg">
<path d="M45.4715 24.317L42.0838 23.4888C41.8956 22.9242 41.6321 22.3595 41.3685 21.7573L43.1754 18.7835C43.3259 18.5577 43.2883 18.2942 43.1001 18.106L37.3409 12.3468C37.1527 12.1586 36.8892 12.121 36.6634 12.2715L33.652 14.0407C33.0874 13.7772 32.5227 13.5137 31.9205 13.3255L31.0923 9.93775C31.017 9.67425 30.7912 9.52368 30.5277 9.52368H22.4346C22.1711 9.52368 21.9452 9.71189 21.8699 9.93775L21.0418 13.3255C20.4771 13.5137 19.9125 13.7772 19.3102 14.0407L16.3365 12.2339C16.1106 12.0833 15.8471 12.121 15.6589 12.3092L9.93736 18.0684C9.74915 18.2566 9.7115 18.5201 9.86207 18.7459L11.6689 21.7196C11.4054 22.2843 11.1419 22.8489 10.9537 23.4512L7.56592 24.2793C7.30242 24.3546 7.15186 24.5805 7.15186 24.844V32.9371C7.15186 33.2006 7.34006 33.4264 7.56592 33.5017L10.9537 34.3299C11.1419 34.8945 11.4054 35.4592 11.6689 36.0614L9.82444 39.0728C9.67387 39.2986 9.71151 39.5621 9.89973 39.7503L15.6589 45.4719C15.8471 45.6601 16.1106 45.6978 16.3364 45.5472L19.3102 43.7404C19.8748 44.0039 20.4395 44.2674 21.0417 44.4556L21.8699 47.8433C21.9452 48.1068 22.171 48.2574 22.4345 48.2574H30.5276C30.7911 48.2574 31.017 48.0692 31.0923 47.8433L31.9204 44.4556C32.4851 44.2674 33.0497 44.0039 33.652 43.7404L36.6257 45.5472C36.8515 45.6978 37.115 45.6601 37.3032 45.4719L43.0624 39.7503C43.2506 39.5621 43.2883 39.2986 43.1377 39.0728L41.3309 36.0991C41.5944 35.5344 41.8579 34.9698 42.0461 34.3675L45.4338 33.5393C45.6973 33.4641 45.8479 33.2382 45.8479 32.9747V24.844C45.8855 24.5805 45.6974 24.3546 45.4715 24.317ZM44.7563 32.5228L41.5191 33.351C41.3309 33.3886 41.1803 33.5392 41.105 33.7274C40.8792 34.4426 40.578 35.1578 40.2016 35.873C40.1263 36.0612 40.1263 36.2494 40.2392 36.4L41.9708 39.2608L36.8515 44.3801L33.9907 42.6485C33.8401 42.5356 33.6143 42.5356 33.4637 42.6109C32.7485 42.9873 32.0332 43.2884 31.3181 43.5143C31.1299 43.5896 30.9793 43.7401 30.9417 43.9284L30.1135 47.1656H22.8862L22.0581 43.9284C22.0205 43.7402 21.8699 43.5896 21.6817 43.5143C20.9665 43.2884 20.2513 42.9873 19.5361 42.6109C19.3479 42.5356 19.1597 42.5356 19.0091 42.6485L16.1483 44.3801L11.029 39.2608L12.7605 36.4C12.8734 36.2494 12.8734 36.0236 12.7982 35.873C12.4217 35.1577 12.1206 34.4425 11.8948 33.7274C11.8195 33.5392 11.6689 33.3886 11.4807 33.351L8.24345 32.5228V25.2955L11.4807 24.4674C11.6689 24.4297 11.8195 24.2792 11.8948 24.091C12.1206 23.3758 12.4218 22.6605 12.7982 21.9454C12.8734 21.7572 12.8734 21.569 12.7605 21.4184L11.029 18.5576L16.1483 13.4383L19.0091 15.1698C19.1596 15.2827 19.3855 15.2827 19.5361 15.2075C20.2513 14.831 20.9665 14.5299 21.6817 14.304C21.8699 14.2288 22.0204 14.0782 22.0581 13.89L22.8862 10.6527H30.1135L30.9417 13.89C30.9793 14.0782 31.1299 14.2288 31.3181 14.304C32.0333 14.5299 32.7485 14.8311 33.4637 15.2075C33.6519 15.2827 33.8401 15.2827 33.9907 15.1698L36.8515 13.4383L41.9708 18.5576L40.2392 21.4184C40.1263 21.5689 40.1263 21.7948 40.2016 21.9454C40.578 22.6606 40.8791 23.3758 41.105 24.091C41.1803 24.2792 41.3309 24.4297 41.5191 24.4674L44.7563 25.2955V32.5228Z" fill="white"/>
<path d="M28.7587 16.7885C27.8177 15.0193 27.0648 13.7395 26.9895 13.5889C26.8766 13.4007 26.6884 13.3254 26.5002 13.3254C26.312 13.3254 26.1238 13.4384 26.0108 13.5889C25.9356 13.7395 25.1827 14.9817 24.2417 16.7885C18.4073 17.8801 14.1914 22.924 14.1914 28.9091C14.1914 35.7225 19.7246 41.2557 26.538 41.2557C33.3514 41.2557 38.847 35.7225 38.847 28.9091C38.847 22.924 34.5935 17.8798 28.7587 16.7885ZM26.5002 15.0193C26.839 15.6216 27.3283 16.4874 27.8553 17.5037C27.8553 17.5037 27.8553 17.5413 27.8929 17.5413C29.8503 21.1926 32.5982 26.8765 32.5982 29.5116C32.5982 33.3887 29.8503 36.5885 26.5003 36.5885C23.1502 36.5885 20.4024 33.4266 20.4024 29.5116C20.4024 26.9143 23.1502 21.2301 25.1076 17.5413L25.1453 17.5037C25.6723 16.4873 26.1614 15.6216 26.5002 15.0193ZM26.5002 40.1264C20.3271 40.1264 15.283 35.1198 15.283 28.9092C15.283 23.7898 18.7084 19.3855 23.5264 18.1058C21.6066 21.8324 19.2352 26.914 19.2352 29.5114C19.2352 34.0285 22.4725 37.7173 26.4625 37.7173C30.4525 37.7173 33.6898 34.0284 33.6898 29.5114C33.6898 26.9141 31.3183 21.8322 29.3986 18.1058C34.2919 19.3856 37.7177 23.7898 37.7177 28.9092C37.7177 35.0822 32.6732 40.1264 26.5002 40.1264Z" fill="white"/>
<path d="M23.4135 29.5114C23.4135 29.2103 23.15 28.9468 22.8488 28.9468C22.5477 28.9468 22.2842 29.2103 22.2842 29.5114C22.2842 31.3559 23.2252 33.0498 24.6933 33.8026C24.7686 33.8402 24.8815 33.8779 24.9568 33.8779C25.145 33.8779 25.3708 33.7649 25.4461 33.5767C25.5967 33.3132 25.4837 32.9745 25.2203 32.8239C24.1286 32.2593 23.4135 30.9418 23.4135 29.5114Z" fill="white"/>
</svg>
