<svg width="206" height="207" viewBox="0 0 206 207" fill="none" xmlns="http://www.w3.org/2000/svg">
<circle opacity="0.3" cx="103" cy="103.442" r="102" stroke="#061C3D" stroke-width="2"/>
<path d="M102.738 25.3273C102.348 25.3286 101.999 25.257 101.693 25.1127C101.386 24.9607 101.145 24.755 100.968 24.4954C100.791 24.2359 100.702 23.9379 100.701 23.6013C100.7 23.2799 100.768 22.989 100.905 22.7285C101.042 22.4602 101.255 22.2338 101.545 22.0493C101.835 21.8647 102.206 21.7334 102.657 21.6554L105.065 21.2458L105.068 22.0261L102.866 22.4006C102.422 22.4786 102.102 22.6212 101.903 22.8284C101.713 23.0356 101.618 23.2807 101.619 23.5638C101.62 23.8392 101.728 24.0722 101.943 24.2627C102.165 24.4532 102.448 24.5479 102.793 24.5468C103.213 24.5454 103.58 24.4562 103.893 24.2792C104.207 24.0945 104.451 23.8489 104.625 23.5423C104.8 23.2357 104.887 22.895 104.886 22.5201L104.881 20.9595C104.88 20.5923 104.745 20.2944 104.476 20.0658C104.208 19.8372 103.859 19.7236 103.431 19.725C103.056 19.7262 102.727 19.823 102.445 20.0152C102.162 20.1997 101.953 20.4414 101.816 20.7402L101.034 20.3182C101.148 20.0577 101.327 19.82 101.571 19.605C101.823 19.3899 102.109 19.2207 102.43 19.0972C102.751 18.9661 103.084 18.8999 103.428 18.8988C103.879 18.8973 104.278 18.9839 104.622 19.1587C104.975 19.3335 105.247 19.5774 105.44 19.8904C105.639 20.1958 105.74 20.5512 105.741 20.9566L105.755 25.1795L104.895 25.1824L104.891 23.9545L105.017 24.0803C104.911 24.3102 104.743 24.5211 104.515 24.7132C104.293 24.8975 104.03 25.0476 103.724 25.1633C103.426 25.2714 103.098 25.3261 102.738 25.3273Z" fill="#061C3D"/>
<path d="M115.506 28.4424L117.072 19.8978L117.92 20.0418L116.355 28.5864L115.506 28.4424Z" fill="#061C3D"/>
<path d="M130.782 31.525C130.414 31.396 130.111 31.2129 129.873 30.9758C129.639 30.7315 129.484 30.4586 129.41 30.1571C129.336 29.8556 129.359 29.5475 129.478 29.2326C129.591 28.9321 129.759 28.6829 129.981 28.4852C130.206 28.2802 130.488 28.14 130.827 28.0644C131.166 27.9887 131.562 27.9898 132.016 28.0675L134.432 28.4886L134.156 29.2185L131.947 28.8335C131.501 28.7583 131.148 28.7844 130.887 28.9119C130.633 29.0418 130.456 29.2392 130.356 29.504C130.259 29.7616 130.277 30.0152 130.412 30.265C130.554 30.5172 130.787 30.7002 131.112 30.8141C131.509 30.9532 131.887 30.9923 132.245 30.9315C132.606 30.8634 132.923 30.7154 133.198 30.4873C133.472 30.2593 133.675 29.97 133.808 29.6193L134.36 28.1596C134.49 27.8161 134.469 27.4927 134.298 27.1895C134.126 26.8863 133.838 26.6639 133.434 26.5222C133.08 26.3983 132.736 26.379 132.401 26.4643C132.069 26.5424 131.785 26.6983 131.55 26.9318L130.963 26.2766C131.164 26.0713 131.417 25.9089 131.724 25.7895C132.038 25.6726 132.368 25.61 132.715 25.6018C133.064 25.5864 133.401 25.6356 133.726 25.7494C134.152 25.8987 134.496 26.1125 134.759 26.3909C135.029 26.6718 135.199 26.9906 135.268 27.3473C135.348 27.6993 135.316 28.0649 135.172 28.4441L133.679 32.3941L132.866 32.1095L133.301 30.961L133.375 31.1208C133.193 31.3001 132.96 31.4412 132.675 31.5442C132.401 31.6426 132.099 31.6949 131.77 31.701C131.45 31.7026 131.121 31.6439 130.782 31.525Z" fill="#061C3D"/>
<path d="M140.577 36.2783L143.74 31.0035L144.493 31.4216L143.89 32.4254L143.859 32.2109C144.191 31.9843 144.552 31.8656 144.941 31.8548C145.338 31.8478 145.71 31.9409 146.058 32.1341C146.472 32.3645 146.778 32.6874 146.975 33.1029C147.171 33.5183 147.23 33.9488 147.15 34.3942L146.933 34.287C147.311 33.9545 147.727 33.7744 148.18 33.7466C148.644 33.7159 149.077 33.812 149.478 34.035C149.839 34.2357 150.119 34.5049 150.318 34.8427C150.523 35.1842 150.625 35.5561 150.625 35.9582C150.635 36.3575 150.528 36.7441 150.304 37.1181L148.25 40.5427L147.498 40.1246L149.38 36.9854C149.573 36.6639 149.676 36.3582 149.69 36.0682C149.71 35.782 149.655 35.5241 149.525 35.2945C149.399 35.0584 149.206 34.8678 148.945 34.7229C148.691 34.5817 148.423 34.5158 148.141 34.5252C147.863 34.5281 147.595 34.6109 147.337 34.7737C147.083 34.9298 146.861 35.1654 146.672 35.4803L144.789 38.6195L144.037 38.2015L145.92 35.0622C146.113 34.7407 146.216 34.435 146.229 34.1451C146.249 33.8588 146.195 33.6009 146.065 33.3713C145.939 33.1352 145.746 32.9447 145.485 32.7997C145.224 32.6548 144.953 32.587 144.671 32.5965C144.399 32.6031 144.134 32.6878 143.876 32.8505C143.622 33.0067 143.401 33.2422 143.212 33.5571L141.329 36.6964L140.577 36.2783Z" fill="#061C3D"/>
<path d="M153.722 47.492L156.331 44.4991L157.01 39.1657L157.804 39.8075L157.223 44.4531L156.937 44.2223L161.58 42.8575L162.375 43.4993L157.045 45.0759L154.436 48.0689L153.722 47.492Z" fill="#061C3D"/>
<path d="M162.325 56.0392C162.069 55.7451 161.896 55.437 161.808 55.115C161.726 54.7882 161.729 54.4768 161.815 54.1807C161.902 53.8846 162.076 53.6308 162.338 53.4193C162.588 53.2174 162.86 53.0867 163.152 53.027C163.451 52.9626 163.767 52.9823 164.101 53.086C164.435 53.1898 164.78 53.3878 165.136 53.6799L167.032 55.2441L166.425 55.7344L164.692 54.3043C164.341 54.0179 164.019 53.8646 163.728 53.8445C163.442 53.8301 163.188 53.9119 162.968 54.0897C162.754 54.2628 162.643 54.4901 162.635 54.7718C162.632 55.0592 162.743 55.3326 162.97 55.5921C163.246 55.9093 163.556 56.1308 163.899 56.2567C164.248 56.3778 164.599 56.4085 164.953 56.3488C165.306 56.2892 165.629 56.1416 165.921 55.9061L167.135 54.9254C167.42 54.6947 167.564 54.4063 167.567 54.0603C167.57 53.7142 167.43 53.3797 167.149 53.0568C166.902 52.7742 166.612 52.5863 166.277 52.4931C165.948 52.3951 165.623 52.388 165.3 52.4716L165.118 51.6166C165.395 51.5397 165.698 51.5262 166.025 51.5761C166.358 51.6318 166.677 51.7423 166.984 51.9076C167.296 52.0681 167.565 52.2781 167.791 52.5376C168.088 52.8779 168.281 53.233 168.37 53.6031C168.465 53.9789 168.453 54.3374 168.334 54.6787C168.227 55.0209 168.016 55.3194 167.7 55.5742L164.415 58.2277L163.85 57.5789L164.805 56.8074L164.79 56.9818C164.541 57.0453 164.266 57.0506 163.967 56.9978C163.678 56.946 163.389 56.8407 163.098 56.6822C162.819 56.5246 162.561 56.3102 162.325 56.0392Z" fill="#061C3D"/>
<path d="M171.043 68.2357C170.74 67.7306 170.605 67.2152 170.638 66.6898C170.67 66.1643 170.859 65.6918 171.205 65.2723L171.878 65.725C171.641 66.058 171.506 66.4129 171.473 66.7896C171.445 67.173 171.529 67.5286 171.725 67.8567C171.914 68.1716 172.151 68.3945 172.434 68.5256C172.725 68.6529 172.997 68.6459 173.251 68.5047C173.438 68.4006 173.554 68.2664 173.598 68.102C173.649 67.9338 173.663 67.7641 173.64 67.5929C173.618 67.4217 173.588 67.2762 173.552 67.1563L173.318 66.2759C173.168 65.7124 173.154 65.2518 173.279 64.8941C173.403 64.5364 173.632 64.2646 173.967 64.0788C174.281 63.9041 174.602 63.8305 174.931 63.8578C175.259 63.8852 175.568 63.9981 175.856 64.1965C176.144 64.3949 176.387 64.6581 176.584 64.9861C176.851 65.4322 176.973 65.9026 176.949 66.3972C176.935 66.8947 176.763 67.3359 176.432 67.7209L175.753 67.2584C175.975 66.9599 176.095 66.6396 176.113 66.2974C176.141 65.958 176.065 65.6374 175.884 65.3356C175.707 65.0404 175.488 64.847 175.228 64.7553C174.968 64.6636 174.721 64.6828 174.487 64.8129C174.307 64.9133 174.19 65.0391 174.138 65.1904C174.087 65.3417 174.069 65.4913 174.087 65.6391C174.108 65.7935 174.133 65.924 174.161 66.0307L174.425 67.0515C174.554 67.5486 174.556 67.9895 174.43 68.3743C174.308 68.7657 174.066 69.0618 173.705 69.2624C173.411 69.426 173.098 69.4908 172.765 69.4568C172.437 69.4294 172.121 69.3118 171.818 69.1041C171.522 68.8926 171.264 68.6031 171.043 68.2357Z" fill="#061C3D"/>
<path d="M176.395 79.9556C176.192 79.4189 176.138 78.8868 176.233 78.3592C176.338 77.8363 176.574 77.3687 176.942 76.9563C177.309 76.544 177.785 76.2354 178.37 76.0305C178.955 75.8256 179.517 75.7664 180.057 75.8529C180.603 75.9368 181.085 76.1407 181.502 76.4647C181.922 76.7958 182.23 77.2226 182.428 77.745C182.585 78.16 182.644 78.5563 182.607 78.934C182.58 79.3163 182.476 79.6687 182.296 79.9913C182.122 80.3113 181.893 80.5904 181.607 80.8284C181.328 81.0638 181.015 81.2423 180.668 81.3637C180.596 81.389 180.512 81.4145 180.415 81.4402C180.326 81.4634 180.232 81.4843 180.132 81.5029L178.294 76.6406L179.052 76.375L180.716 80.7758L180.245 80.5032C180.666 80.4284 181.003 80.258 181.253 79.9918C181.514 79.7302 181.681 79.4247 181.753 79.0752C181.833 78.7232 181.805 78.3683 181.67 78.0106C181.534 77.6528 181.315 77.3529 181.011 77.111C180.709 76.8762 180.356 76.7324 179.952 76.6795C179.555 76.6242 179.132 76.6953 178.684 76.893C178.208 77.0191 177.831 77.2323 177.552 77.5326C177.283 77.8375 177.114 78.1803 177.045 78.5609C176.979 78.9487 177.015 79.3251 177.153 79.69C177.313 80.1122 177.548 80.431 177.858 80.6464C178.169 80.8618 178.509 81.0058 178.88 81.0785L178.772 81.8945C178.469 81.871 178.161 81.7804 177.847 81.6227C177.542 81.4625 177.258 81.2418 176.996 80.9607C176.744 80.6842 176.544 80.3492 176.395 79.9556Z" fill="#061C3D"/>
<path d="M179.591 92.5911C179.488 92.0267 179.53 91.4919 179.717 90.9868C179.913 90.488 180.229 90.0659 180.663 89.7206C181.098 89.3753 181.621 89.1508 182.231 89.0471C182.842 88.9434 183.405 88.9798 183.92 89.1562C184.442 89.3314 184.878 89.6142 185.23 90.0046C185.583 90.4024 185.809 90.876 185.91 91.4254C185.99 91.8618 185.978 92.2634 185.874 92.6302C185.779 93.0033 185.614 93.3339 185.379 93.622C185.152 93.9089 184.876 94.1458 184.553 94.3326C184.237 94.5181 183.898 94.6416 183.536 94.7031C183.46 94.7159 183.373 94.7268 183.274 94.7359C183.182 94.7438 183.085 94.7485 182.984 94.7501L182.048 89.6369L182.84 89.5024L183.688 94.1303L183.274 93.7816C183.701 93.7789 184.062 93.6672 184.356 93.4466C184.658 93.2323 184.877 92.9586 185.01 92.6256C185.151 92.2913 185.187 91.936 185.118 91.5598C185.049 91.1835 184.887 90.8503 184.632 90.56C184.378 90.2772 184.057 90.0756 183.669 89.9552C183.289 89.8335 182.861 89.8324 182.386 89.952C181.896 89.9963 181.487 90.1432 181.16 90.3928C180.841 90.6486 180.614 90.9587 180.479 91.3231C180.345 91.695 180.313 92.0729 180.383 92.4566C180.464 92.9006 180.638 93.2552 180.904 93.5203C181.171 93.7855 181.48 93.9852 181.831 94.1196L181.578 94.9073C181.285 94.833 180.998 94.6915 180.719 94.4828C180.447 94.2729 180.208 94.0071 180.001 93.6852C179.804 93.3697 179.667 93.0049 179.591 92.5911Z" fill="#061C3D"/>
<path d="M179.556 115.528L185.62 116.557L185.465 117.404L184.289 117.204L184.369 117.02C184.734 117.237 184.998 117.534 185.162 117.911C185.325 118.296 185.365 118.714 185.282 119.165C185.204 119.594 185.036 119.961 184.777 120.266C184.518 120.579 184.197 120.804 183.814 120.941C183.437 121.086 183.034 121.123 182.604 121.05L178.667 120.382L178.822 119.535L182.431 120.148C182.801 120.21 183.126 120.196 183.407 120.104C183.687 120.019 183.917 119.868 184.097 119.651C184.283 119.442 184.404 119.183 184.461 118.874C184.517 118.566 184.496 118.279 184.397 118.014C184.305 117.75 184.14 117.528 183.901 117.348C183.669 117.169 183.372 117.049 183.01 116.987L179.401 116.374L179.556 115.528Z" fill="#061C3D"/>
<path d="M174.487 132.238C174.7 131.673 174.997 131.189 175.378 130.788C175.766 130.389 176.211 130.079 176.711 129.857C177.217 129.645 177.758 129.531 178.337 129.515C178.915 129.499 179.508 129.597 180.114 129.81C180.721 130.022 181.24 130.313 181.673 130.684C182.105 131.054 182.444 131.477 182.689 131.952C182.932 132.434 183.065 132.946 183.089 133.49C183.12 134.035 183.028 134.591 182.815 135.156C182.609 135.7 182.328 136.152 181.97 136.513C181.61 136.881 181.22 137.158 180.798 137.343C180.381 137.537 179.979 137.639 179.591 137.649L179.538 136.719C180.083 136.683 180.575 136.507 181.013 136.19C181.456 135.883 181.786 135.444 182.002 134.871C182.224 134.285 182.281 133.713 182.173 133.156C182.064 132.6 181.806 132.104 181.398 131.669C180.997 131.237 180.461 130.904 179.79 130.668C179.125 130.436 178.492 130.359 177.889 130.44C177.286 130.521 176.758 130.74 176.303 131.1C175.855 131.462 175.521 131.936 175.299 132.523C175.082 133.095 175.038 133.635 175.165 134.141C175.29 134.655 175.549 135.094 175.942 135.459L175.281 136.139C174.997 135.894 174.757 135.566 174.56 135.157C174.368 134.757 174.257 134.305 174.227 133.8C174.194 133.303 174.281 132.782 174.487 132.238Z" fill="#061C3D"/>
<path d="M168.768 142.723C169.067 142.224 169.459 141.838 169.944 141.565C170.435 141.296 170.964 141.157 171.531 141.149C172.101 141.15 172.656 141.302 173.198 141.603C173.733 141.9 174.14 142.284 174.42 142.754C174.699 143.224 174.839 143.727 174.84 144.261C174.844 144.805 174.692 145.333 174.385 145.845C174.078 146.356 173.684 146.745 173.203 147.012C172.719 147.285 172.197 147.419 171.638 147.414C171.075 147.416 170.523 147.267 169.981 146.966C169.433 146.661 169.017 146.269 168.735 145.788C168.459 145.311 168.323 144.802 168.326 144.262C168.326 143.728 168.473 143.215 168.768 142.723ZM169.52 143.141C169.308 143.495 169.207 143.864 169.219 144.246C169.226 144.635 169.338 144.999 169.554 145.338C169.766 145.683 170.065 145.963 170.453 146.179C170.841 146.394 171.24 146.502 171.65 146.503C172.056 146.51 172.436 146.419 172.789 146.231C173.139 146.049 173.42 145.781 173.633 145.426C173.845 145.072 173.948 144.701 173.94 144.312C173.929 143.929 173.821 143.567 173.615 143.226C173.41 142.884 173.114 142.606 172.726 142.39C172.338 142.174 171.936 142.065 171.519 142.061C171.102 142.056 170.719 142.145 170.37 142.327C170.016 142.515 169.733 142.787 169.52 143.141Z" fill="#061C3D"/>
<path d="M162.597 151.017L163.579 151.811L162.976 152.503L161.994 151.709L162.597 151.017Z" fill="#061C3D"/>
<path d="M153.038 160.207L158.655 166.652L154.37 170.113L153.805 169.464L157.376 166.58L155.423 164.339L152.03 167.079L151.465 166.431L154.857 163.691L152.889 161.433L149.318 164.317L148.753 163.668L153.038 160.207Z" fill="#061C3D"/>
<path d="M140.04 168.65C140.521 168.383 140.975 168.314 141.401 168.445C141.827 168.575 142.194 168.897 142.501 169.408L144.301 172.41L145.294 171.858L145.737 172.596L145.486 172.735C145.258 172.862 145.121 173.034 145.074 173.253C145.031 173.478 145.076 173.702 145.21 173.925L145.475 174.368L144.723 174.786L143.991 173.566L142.808 174.224L142.365 173.486L143.549 172.828L141.748 169.826C141.642 169.649 141.521 169.507 141.385 169.399C141.253 169.297 141.099 169.242 140.925 169.234C140.744 169.23 140.543 169.289 140.323 169.412C140.269 169.441 140.208 169.48 140.138 169.527C140.068 169.575 140.009 169.617 139.959 169.653L139.564 168.994C139.632 168.929 139.715 168.866 139.811 168.804C139.903 168.735 139.98 168.684 140.04 168.65Z" fill="#061C3D"/>
<path d="M133.373 173.7C133.726 173.534 134.073 173.451 134.414 173.452C134.758 173.46 135.066 173.543 135.339 173.703C135.611 173.862 135.821 174.093 135.968 174.396C136.109 174.685 136.173 174.976 136.162 175.268C136.154 175.568 136.059 175.862 135.876 176.15C135.693 176.439 135.413 176.714 135.038 176.974L133.032 178.359L132.691 177.657L134.526 176.391C134.894 176.133 135.123 175.87 135.213 175.599C135.296 175.332 135.276 175.071 135.152 174.817C135.032 174.569 134.833 174.405 134.556 174.323C134.271 174.246 133.973 174.28 133.662 174.426C133.281 174.605 132.987 174.84 132.78 175.131C132.576 175.43 132.461 175.754 132.435 176.104C132.41 176.454 132.479 176.798 132.642 177.135L133.323 178.539C133.484 178.869 133.735 179.081 134.078 179.174C134.42 179.267 134.785 179.222 135.173 179.04C135.513 178.881 135.769 178.655 135.941 178.363C136.118 178.077 136.203 177.771 136.197 177.444L137.089 177.495C137.099 177.778 137.039 178.067 136.911 178.364C136.776 178.664 136.59 178.937 136.353 179.184C136.118 179.437 135.846 179.637 135.534 179.783C135.125 179.975 134.727 180.065 134.338 180.053C133.943 180.044 133.59 179.939 133.28 179.738C132.966 179.547 132.721 179.269 132.544 178.905L130.701 175.105L131.48 174.74L132.016 175.844L131.847 175.784C131.843 175.532 131.904 175.272 132.028 175.002C132.149 174.743 132.323 174.496 132.55 174.263C132.773 174.04 133.048 173.852 133.373 173.7Z" fill="#061C3D"/>
<path d="M101.454 177.461C102.058 177.461 102.613 177.568 103.118 177.782C103.623 178.004 104.063 178.31 104.437 178.7C104.805 179.098 105.091 179.565 105.298 180.1C105.505 180.636 105.608 181.225 105.608 181.867C105.608 182.51 105.505 183.099 105.298 183.635C105.091 184.17 104.805 184.637 104.437 185.035C104.063 185.432 103.623 185.738 103.118 185.953C102.613 186.174 102.058 186.285 101.454 186.285C100.872 186.285 100.352 186.182 99.8932 185.976C99.4265 185.769 99.0364 185.501 98.7227 185.172C98.4014 184.851 98.1719 184.511 98.0342 184.151L98.8604 183.749C99.0746 184.27 99.4036 184.679 99.8473 184.977C100.291 185.276 100.827 185.425 101.454 185.425C102.081 185.425 102.64 185.276 103.129 184.977C103.619 184.679 104.001 184.262 104.277 183.726C104.552 183.199 104.69 182.579 104.69 181.867C104.69 181.164 104.552 180.544 104.277 180.008C104.001 179.473 103.619 179.056 103.129 178.758C102.64 178.467 102.081 178.322 101.454 178.322C100.895 178.322 100.394 178.444 99.9506 178.689C99.4992 178.934 99.1435 179.266 98.8834 179.687C98.6233 180.116 98.4932 180.605 98.4932 181.156V181.626L98.0801 181.213H101.454V182.017H97.5752V181.305C97.5752 180.747 97.6746 180.23 97.8735 179.756C98.0725 179.289 98.3479 178.884 98.6998 178.54C99.0517 178.195 99.4648 177.928 99.9391 177.736C100.406 177.553 100.911 177.461 101.454 177.461Z" fill="#061C3D"/>
<path d="M89.8528 176.474C90.2374 176.539 90.5675 176.669 90.843 176.863C91.1171 177.065 91.3175 177.309 91.4441 177.594C91.5707 177.879 91.6037 178.187 91.543 178.518C91.4852 178.834 91.3649 179.109 91.1823 179.342C90.9983 179.582 90.7464 179.768 90.4267 179.9C90.107 180.032 89.7178 180.098 89.259 180.098L86.8108 180.089L86.9514 179.322L89.1898 179.329C89.641 179.328 89.9833 179.243 90.2166 179.073C90.4424 178.902 90.5808 178.677 90.6318 178.399C90.6814 178.128 90.6178 177.88 90.4411 177.656C90.2568 177.431 89.995 177.29 89.6556 177.232C89.2408 177.162 88.8629 177.187 88.522 177.307C88.1796 177.435 87.8942 177.635 87.6656 177.907C87.437 178.178 87.2889 178.499 87.2214 178.867L86.9402 180.402C86.874 180.764 86.9522 181.079 87.1749 181.35C87.3975 181.621 87.72 181.792 88.1424 181.863C88.5119 181.926 88.8535 181.887 89.167 181.746C89.4791 181.613 89.73 181.411 89.9195 181.141L90.6123 181.689C90.4523 181.926 90.2323 182.129 89.9524 182.299C89.6649 182.467 89.3517 182.585 89.0129 182.651C88.6727 182.725 88.3329 182.734 87.9935 182.676C87.5485 182.6 87.1721 182.447 86.8644 182.217C86.5492 181.985 86.3256 181.698 86.1935 181.358C86.0525 181.024 86.0186 180.657 86.0917 180.258L86.8525 176.105L87.701 176.249L87.4798 177.456L87.3781 177.311C87.525 177.103 87.7289 176.924 87.9896 176.775C88.2414 176.631 88.5285 176.529 88.8509 176.467C89.1643 176.412 89.4983 176.414 89.8528 176.474Z" fill="#061C3D"/>
<path d="M77.2387 173.481L76.9749 174.178L71.752 177.515L71.7181 177.15L75.1836 178.364L74.8793 179.169L70.699 177.705L70.9628 177.007L76.1748 173.667L76.2087 174.032L72.5483 172.749L72.8526 171.944L77.2387 173.481Z" fill="#061C3D"/>
<path d="M63.7051 167.32C64.0462 167.509 64.313 167.741 64.5058 168.014C64.6945 168.294 64.7989 168.588 64.8189 168.897C64.839 169.205 64.7624 169.504 64.5893 169.792C64.424 170.068 64.2143 170.284 63.9601 170.44C63.7021 170.603 63.3987 170.692 63.0502 170.708C62.7017 170.725 62.3105 170.656 61.8766 170.502L59.5636 169.676L59.965 169.007L62.0797 169.762C62.5069 169.912 62.8605 169.947 63.1406 169.866C63.414 169.782 63.6235 169.619 63.7691 169.376C63.9108 169.14 63.9372 168.888 63.8483 168.62C63.7528 168.348 63.5545 168.128 63.2536 167.961C62.8859 167.757 62.5196 167.654 62.155 167.652C61.7864 167.657 61.4465 167.748 61.1353 167.925C60.8241 168.102 60.5721 168.351 60.3793 168.673L59.5766 170.011C59.3877 170.326 59.3513 170.647 59.4672 170.974C59.5832 171.301 59.8285 171.568 60.2029 171.776C60.5306 171.959 60.8673 172.036 61.2131 172.01C61.555 171.99 61.8628 171.885 62.1366 171.696L62.6003 172.44C62.3662 172.607 62.0871 172.723 61.7629 172.788C61.4321 172.849 61.0948 172.854 60.7509 172.803C60.4032 172.758 60.0789 172.652 59.778 172.485C59.3834 172.266 59.081 171.997 58.8706 171.679C58.6535 171.357 58.542 171.015 58.5362 170.653C58.5197 170.294 58.6157 169.941 58.8243 169.593L60.9963 165.972L61.7486 166.39L61.1171 167.443L61.0717 167.273C61.2833 167.128 61.5386 167.03 61.8376 166.977C62.126 166.928 62.4334 166.928 62.7599 166.978C63.0758 167.031 63.3909 167.145 63.7051 167.32Z" fill="#061C3D"/>
<path d="M54.0694 160.078L53.5415 160.684L49.5245 157.439L50.0523 156.833L54.0694 160.078Z" fill="#061C3D"/>
<path d="M33.8374 142.508L33.1353 142.898L31.0694 139.453L31.7716 139.063L33.8374 142.508Z" fill="#061C3D"/>
<path d="M27.653 129.983L26.8949 130.248L25.4744 126.491L26.2325 126.226L27.653 129.983Z" fill="#061C3D"/>
<path d="M24.1498 117.826L23.3579 117.96L22.6342 114.009L23.4262 113.875L24.1498 117.826Z" fill="#061C3D"/>
<path d="M23.7618 104.199H22.9585V100.182H23.7618V104.199Z" fill="#061C3D"/>
<path d="M29.5428 79.7489L22.5784 74.0026L22.9274 73.0795L32.0995 72.9867L31.7586 73.8883L29.5279 73.8847L28.1764 77.459L29.8837 78.8472L29.5428 79.7489ZM27.4697 76.8954L28.602 73.9007L23.354 73.8975L23.4514 73.6399L27.4697 76.8954Z" fill="#061C3D"/>
<path d="M37.2426 64.4339C36.9711 64.8865 36.6215 65.239 36.1939 65.4912C35.7635 65.7331 35.2993 65.8381 34.8013 65.8063L34.7618 65.6269L35.9654 66.2958L35.5227 67.0339L27.9298 62.814L28.3725 62.0759L31.7928 63.9768L31.5113 63.9778C31.2962 63.5784 31.1926 63.149 31.2006 62.6898C31.2125 62.2241 31.3541 61.7648 31.6257 61.3122C31.9247 60.8136 32.314 60.4395 32.7936 60.1899C33.2704 59.93 33.7864 59.8056 34.3414 59.8167C34.9004 59.8212 35.4507 59.974 35.9924 60.275C36.5273 60.5723 36.9399 60.9547 37.2301 61.4222C37.5176 61.8794 37.667 62.3735 37.6783 62.9047C37.6869 63.4255 37.5417 63.9353 37.2426 64.4339ZM36.4667 64.0551C36.6792 63.7009 36.7778 63.3358 36.7625 62.9599C36.7512 62.5775 36.6389 62.222 36.4258 61.8936C36.2099 61.5549 35.908 61.2778 35.5202 61.0623C35.1256 60.843 34.7254 60.7299 34.3194 60.723C33.9174 60.7095 33.5415 60.7936 33.1918 60.9754C32.8459 61.1506 32.5668 61.4153 32.3543 61.7696C32.1418 62.1239 32.0393 62.4955 32.0467 62.8845C32.058 63.267 32.1697 63.6308 32.3817 63.9761C32.5909 64.311 32.8894 64.5863 33.2773 64.8018C33.6651 65.0174 34.0654 65.1305 34.478 65.1411C34.8879 65.1415 35.2677 65.0508 35.6175 64.869C35.9712 64.6807 36.2543 64.4094 36.4667 64.0551Z" fill="#061C3D"/>
<path d="M45.1423 54.3628C44.7653 54.7953 44.3189 55.0981 43.803 55.271C43.2812 55.4392 42.7449 55.4727 42.194 55.3717C41.6422 55.2601 41.1282 55.0121 40.6521 54.6275C40.1701 54.2381 39.827 53.794 39.623 53.2951C39.424 52.7904 39.3657 52.2814 39.4481 51.7681C39.5295 51.2443 39.7612 50.7632 40.1432 50.3249C40.4901 49.927 40.8885 49.6445 41.3385 49.4773C41.7885 49.3101 42.2432 49.2597 42.7025 49.3261L42.7995 49.5813L39.7554 47.1225L40.321 46.4737L47.0786 51.9321L46.5131 52.5809L45.4419 51.7156L45.6305 51.6911C45.835 52.1314 45.8916 52.5899 45.8006 53.0667C45.7086 53.5329 45.4892 53.9649 45.1423 54.3628ZM44.503 53.7874C44.7744 53.476 44.9379 53.1314 44.9933 52.7537C45.0538 52.3702 45.01 51.9957 44.862 51.6305C44.713 51.2546 44.4659 50.9272 44.1207 50.6484C43.7755 50.3696 43.4007 50.1946 42.9962 50.1234C42.5909 50.0417 42.1972 50.0628 41.8154 50.1867C41.4385 50.3049 41.1144 50.5197 40.8429 50.8311C40.5765 51.1367 40.4156 51.4784 40.3601 51.8562C40.3046 52.234 40.3509 52.6055 40.499 52.9708C40.6521 53.3303 40.9042 53.6519 41.2554 53.9355C41.6005 54.2143 41.9733 54.3975 42.3737 54.485C42.7731 54.562 43.1587 54.5442 43.5305 54.4318C43.9074 54.3136 44.2315 54.0988 44.503 53.7874Z" fill="#061C3D"/>
<path d="M54.4808 45.9046C54.1475 46.1738 53.7787 46.344 53.3742 46.4152C52.9647 46.4806 52.5615 46.4427 52.1645 46.3015C51.7685 46.1496 51.4147 45.895 51.103 45.5374L48.5544 42.6137L49.2239 42.0729L51.7047 44.9188C51.9208 45.1668 52.1624 45.345 52.4295 45.4536C52.6975 45.5516 52.969 45.578 53.2439 45.5328C53.5248 45.4828 53.7873 45.3592 54.0313 45.1621C54.2753 44.965 54.4473 44.7377 54.5472 44.4801C54.6422 44.2167 54.6577 43.9437 54.594 43.6611C54.5251 43.3727 54.3701 43.0901 54.1288 42.8133L51.7234 40.0539L52.3929 39.5131L56.4346 44.1496L55.765 44.6904L54.9808 43.7908L55.1628 43.7028C55.3111 44.094 55.3238 44.4867 55.2008 44.8808C55.0779 45.2749 54.8379 45.6162 54.4808 45.9046Z" fill="#061C3D"/>
<path d="M63.8724 39.5917L59.4043 32.1421L60.1566 31.724L64.6246 39.1736L63.8724 39.5917Z" fill="#061C3D"/>
<path d="M87.6674 25.548C87.1253 25.5139 86.6368 25.3796 86.2019 25.1453C85.767 24.911 85.4035 24.6122 85.1113 24.2489C84.8195 23.878 84.6167 23.4783 84.5031 23.0496L85.3396 22.792C85.5158 23.3855 85.8079 23.8484 86.2161 24.1806C86.6245 24.5053 87.1189 24.6859 87.6991 24.7224C88.0656 24.7455 88.3885 24.7084 88.6678 24.6111C88.955 24.5066 89.179 24.3521 89.34 24.1477C89.5009 23.9433 89.5868 23.6997 89.5977 23.4168C89.6139 22.9964 89.5119 22.6643 89.2917 22.4205C89.0714 22.1767 88.7499 21.9802 88.327 21.8309L86.8101 21.2755C86.2137 21.0616 85.7593 20.7379 85.4468 20.3044C85.1421 19.8714 84.9998 19.3912 85.0201 18.8637C85.0375 18.4127 85.1635 18.0221 85.3982 17.6921C85.6331 17.3544 85.9453 17.0982 86.3347 16.9235C86.7317 16.7493 87.1746 16.6776 87.6632 16.7084C88.1747 16.7407 88.6292 16.8651 89.0265 17.0818C89.4317 17.2912 89.7697 17.5578 90.0404 17.8813C90.3111 18.2049 90.5003 18.5579 90.6081 18.9402L89.7941 19.2107C89.6302 18.6946 89.3586 18.2943 88.9793 18.0099C88.6075 17.7259 88.162 17.5675 87.6429 17.5348C87.3146 17.5141 87.0222 17.5531 86.7659 17.6519C86.5171 17.7512 86.3199 17.9035 86.1742 18.1089C86.0286 18.3142 85.9502 18.5622 85.939 18.8527C85.9254 19.2043 86.0239 19.5285 86.2345 19.8254C86.4453 20.1145 86.7771 20.3423 87.2299 20.5088L88.5659 20.9954C89.2301 21.2365 89.7268 21.5552 90.0559 21.9514C90.3851 22.3477 90.5388 22.8286 90.517 23.3943C90.4994 23.853 90.3654 24.2507 90.1152 24.5874C89.8729 24.917 89.538 25.1679 89.1104 25.3402C88.6905 25.5129 88.2094 25.5822 87.6674 25.548Z" fill="#061C3D"/>
<g clip-path="url(#clip0_310_2126)">
<path d="M103.5 88.2314C100.121 88.2353 96.8821 89.5791 94.493 91.9681C92.1039 94.3571 90.7599 97.5962 90.7559 100.975C90.7559 112.117 102.741 117.555 103.251 117.78C103.329 117.814 103.414 117.832 103.5 117.832C103.586 117.832 103.671 117.814 103.749 117.78C104.259 117.554 116.244 112.116 116.244 100.975C116.24 97.5962 114.896 94.3571 112.507 91.9681C110.118 89.5791 106.879 88.2353 103.5 88.2314ZM103.5 116.538C101.797 115.703 91.9863 110.475 91.9863 100.975C91.9863 97.9213 93.1994 94.9927 95.3586 92.8335C97.5178 90.6743 100.446 89.4612 103.5 89.4612C106.554 89.4612 109.482 90.6743 111.641 92.8335C113.801 94.9927 115.014 97.9213 115.014 100.975C115.014 110.462 105.202 115.701 103.5 116.538Z" fill="#061C3D"/>
<path d="M103.5 91.5205C101.63 91.5205 99.8018 92.075 98.2469 93.114C96.692 94.153 95.4802 95.6296 94.7646 97.3574C94.049 99.0851 93.8618 100.986 94.2267 102.82C94.5915 104.654 95.4921 106.339 96.8145 107.661C98.1368 108.984 99.8216 109.884 101.656 110.249C103.49 110.614 105.391 110.426 107.119 109.71C108.846 108.995 110.323 107.783 111.362 106.228C112.401 104.673 112.955 102.845 112.955 100.975C112.952 98.4681 111.955 96.0651 110.182 94.2927C108.41 92.5204 106.006 91.5234 103.5 91.5205ZM98.7098 107.654V106.9C98.7104 106.038 99.0531 105.211 99.6628 104.601C100.273 103.991 101.099 103.648 101.962 103.647H105.038C105.9 103.648 106.727 103.99 107.336 104.6C107.946 105.21 108.289 106.036 108.29 106.899V107.654C106.895 108.659 105.219 109.2 103.5 109.2C101.781 109.2 100.105 108.659 98.7098 107.654ZM109.505 106.587C109.425 105.457 108.92 104.398 108.092 103.625C107.263 102.851 106.173 102.42 105.04 102.418H101.964C100.83 102.42 99.7397 102.851 98.9114 103.625C98.0831 104.398 97.5784 105.457 97.4987 106.587C96.403 105.416 95.6734 103.951 95.3996 102.371C95.1259 100.791 95.32 99.1655 95.958 97.6944C96.5961 96.2233 97.6502 94.9709 98.9908 94.0911C100.331 93.2113 101.9 92.7425 103.503 92.7425C105.107 92.7425 106.675 93.2113 108.016 94.0911C109.357 94.9709 110.411 96.2233 111.049 97.6944C111.687 99.1655 111.881 100.791 111.607 102.371C111.333 103.951 110.604 105.416 109.508 106.587H109.505Z" fill="#061C3D"/>
<path d="M81.3797 92.1178C81.4921 92.1644 81.6158 92.1766 81.7351 92.1529C81.8545 92.1292 81.9641 92.0706 82.0501 91.9845L85.6188 88.4162L90.5164 93.3138C90.6319 93.4292 90.7884 93.4941 90.9517 93.4941C90.9733 93.4942 90.9949 93.493 91.0164 93.4906C91.1076 93.4811 91.1955 93.4512 91.2736 93.4032C91.3517 93.3552 91.4181 93.2903 91.4678 93.2132C92.0838 92.2626 92.8093 91.3877 93.6295 90.6064C93.689 90.5498 93.7365 90.4819 93.7692 90.4066C93.802 90.3314 93.8194 90.2504 93.8204 90.1683C93.8214 90.0862 93.8059 90.0048 93.775 89.9288C93.744 89.8528 93.6981 89.7838 93.6401 89.7257L88.9748 85.0602L92.5432 81.4914C92.6289 81.4055 92.6873 81.2961 92.7109 81.177C92.7346 81.0579 92.7224 80.9345 92.676 80.8223C92.6296 80.7101 92.5511 80.6141 92.4502 80.5465C92.3494 80.4789 92.2308 80.4427 92.1094 80.4424H81.6152C81.4522 80.4424 81.2959 80.5071 81.1806 80.6222C81.0652 80.7374 81.0003 80.8936 81 81.0566V91.5496C81 91.6713 81.0361 91.7902 81.1037 91.8913C81.1712 91.9924 81.2673 92.0712 81.3797 92.1178ZM82.2305 81.6729H90.623L87.6698 84.626C87.6127 84.6831 87.5673 84.7509 87.5364 84.8256C87.5054 84.9002 87.4895 84.9802 87.4895 85.061C87.4895 85.1418 87.5054 85.2219 87.5364 85.2965C87.5673 85.3712 87.6127 85.439 87.6698 85.4961L92.3333 90.1592C91.8006 90.7092 91.3089 91.2974 90.862 91.9191L86.0537 87.1112C85.9966 87.054 85.9288 87.0086 85.8541 86.9777C85.7795 86.9467 85.6995 86.9308 85.6187 86.9308C85.5378 86.9308 85.4578 86.9467 85.3832 86.9777C85.3085 87.0086 85.2407 87.054 85.1836 87.1112L82.2305 90.0643V81.6729Z" fill="#061C3D"/>
<path d="M92.7454 111.334C92.6925 111.263 92.6251 111.205 92.5477 111.162C92.4703 111.12 92.3847 111.095 92.2967 111.089C92.2087 111.082 92.1204 111.095 92.0377 111.126C91.9551 111.156 91.88 111.205 91.8176 111.267L85.6188 117.466L82.0501 113.897C81.9641 113.811 81.8545 113.753 81.7352 113.729C81.6159 113.705 81.4922 113.718 81.3798 113.764C81.2675 113.811 81.1714 113.89 81.1038 113.991C81.0362 114.092 81.0001 114.211 81 114.332V124.825C80.9999 124.906 81.0157 124.986 81.0465 125.061C81.0774 125.136 81.1227 125.204 81.1798 125.261C81.237 125.318 81.3048 125.364 81.3796 125.395C81.4543 125.426 81.5344 125.442 81.6152 125.442H92.1094C92.2311 125.442 92.3501 125.406 92.4513 125.338C92.5525 125.271 92.6314 125.175 92.678 125.062C92.7246 124.95 92.7367 124.826 92.7129 124.707C92.6891 124.587 92.6304 124.478 92.5443 124.392L88.9759 120.823L95.0087 114.789C95.0661 114.732 95.1115 114.664 95.1424 114.589C95.1733 114.514 95.1891 114.433 95.1888 114.352C95.1885 114.271 95.1721 114.191 95.1407 114.116C95.1092 114.041 95.0633 113.973 95.0055 113.916C94.1886 113.113 93.433 112.25 92.7454 111.334ZM87.6698 120.387C87.6127 120.444 87.5673 120.512 87.5364 120.586C87.5054 120.661 87.4895 120.741 87.4895 120.822C87.4895 120.903 87.5054 120.983 87.5364 121.057C87.5673 121.132 87.6127 121.2 87.6698 121.257L90.623 124.21H82.2305V115.818L85.1836 118.771C85.2407 118.828 85.3085 118.874 85.3832 118.905C85.4578 118.936 85.5378 118.952 85.6187 118.952C85.6995 118.952 85.7795 118.936 85.8541 118.905C85.9288 118.874 85.9966 118.828 86.0537 118.771L92.1934 112.631C92.6617 113.218 93.1676 113.793 93.7051 114.351L87.6698 120.387Z" fill="#061C3D"/>
<path d="M125.62 113.764C125.507 113.717 125.384 113.705 125.264 113.729C125.145 113.753 125.035 113.811 124.949 113.897L121.38 117.466L115.181 111.267C115.119 111.205 115.044 111.157 114.961 111.126C114.878 111.095 114.79 111.082 114.702 111.088C114.614 111.095 114.529 111.12 114.451 111.162C114.374 111.205 114.307 111.264 114.254 111.334C113.566 112.25 112.811 113.113 111.994 113.915C111.936 113.972 111.89 114.04 111.859 114.115C111.827 114.19 111.811 114.27 111.811 114.351C111.81 114.432 111.826 114.513 111.857 114.588C111.888 114.663 111.933 114.731 111.991 114.788L118.024 120.822L114.456 124.39C114.37 124.476 114.311 124.586 114.287 124.705C114.263 124.825 114.275 124.949 114.321 125.061C114.367 125.174 114.446 125.27 114.548 125.338C114.649 125.406 114.768 125.442 114.89 125.442H125.384C125.547 125.442 125.704 125.377 125.819 125.261C125.934 125.146 125.999 124.99 125.999 124.826V114.332C125.999 114.211 125.963 114.092 125.896 113.991C125.828 113.889 125.732 113.811 125.62 113.764ZM124.769 124.211H116.376L119.329 121.258C119.387 121.201 119.432 121.133 119.463 121.059C119.494 120.984 119.51 120.904 119.51 120.823C119.51 120.742 119.494 120.662 119.463 120.588C119.432 120.513 119.387 120.445 119.329 120.388L113.293 114.351C113.832 113.793 114.338 113.218 114.805 112.631L120.945 118.771C121.002 118.828 121.07 118.873 121.144 118.904C121.219 118.935 121.299 118.951 121.38 118.951C121.461 118.951 121.541 118.935 121.615 118.904C121.69 118.873 121.758 118.828 121.815 118.771L124.768 115.818L124.769 124.211Z" fill="#061C3D"/>
<path d="M125.385 80.4424H114.891C114.769 80.4423 114.65 80.4783 114.549 80.5459C114.448 80.6134 114.369 80.7096 114.322 80.822C114.276 80.9345 114.263 81.0582 114.287 81.1776C114.311 81.2969 114.37 81.4065 114.456 81.4925L118.024 85.0612L113.36 89.7257C113.302 89.7838 113.256 89.8528 113.225 89.9288C113.194 90.0048 113.179 90.0862 113.18 90.1683C113.181 90.2504 113.198 90.3314 113.231 90.4066C113.264 90.4819 113.311 90.5498 113.371 90.6064C114.191 91.3878 114.916 92.2627 115.532 93.2132C115.582 93.2903 115.648 93.3552 115.727 93.4032C115.805 93.4512 115.893 93.4811 115.984 93.4906C116.005 93.493 116.027 93.4942 116.048 93.4941C116.212 93.4941 116.368 93.4292 116.484 93.3138L121.381 88.4162L124.95 91.9845C125.036 92.0705 125.146 92.1291 125.265 92.1528C125.384 92.1765 125.508 92.1643 125.62 92.1178C125.733 92.0712 125.829 91.9924 125.896 91.8913C125.964 91.7902 126 91.6713 126 91.5496V81.0566C126 80.8936 125.935 80.7374 125.82 80.6222C125.704 80.5071 125.548 80.4424 125.385 80.4424ZM124.77 90.0643L121.817 87.1112C121.759 87.054 121.692 87.0086 121.617 86.9777C121.542 86.9467 121.462 86.9308 121.381 86.9308C121.301 86.9308 121.221 86.9467 121.146 86.9777C121.071 87.0086 121.004 87.054 120.946 87.1112L116.138 91.9191C115.691 91.2974 115.2 90.7092 114.667 90.1592L119.33 85.4954C119.387 85.4383 119.433 85.3705 119.464 85.2958C119.495 85.2212 119.511 85.1411 119.511 85.0603C119.511 84.9795 119.495 84.8995 119.464 84.8248C119.433 84.7502 119.387 84.6824 119.33 84.6253L116.377 81.6721H124.77V90.0643Z" fill="#061C3D"/>
<path d="M103.499 94.5063C102.809 94.4678 102.122 94.6374 101.529 94.9932C100.936 95.3489 100.464 95.8745 100.173 96.5018C99.8815 97.1291 99.7853 97.8293 99.8965 98.5118C100.008 99.1944 100.321 99.8279 100.796 100.33C101.272 100.833 101.887 101.181 102.562 101.33C103.237 101.479 103.942 101.422 104.584 101.166C105.227 100.911 105.778 100.468 106.166 99.8957C106.554 99.3234 106.762 98.6478 106.762 97.9562C106.785 97.0665 106.455 96.2039 105.843 95.5573C105.231 94.9107 104.389 94.5328 103.499 94.5063ZM103.499 100.175C103.052 100.215 102.603 100.118 102.212 99.898C101.82 99.6779 101.505 99.3448 101.306 98.9422C101.107 98.5396 101.035 98.0864 101.098 97.6419C101.161 97.1974 101.357 96.7824 101.661 96.4513C101.964 96.1202 102.36 95.8885 102.797 95.7864C103.235 95.6844 103.692 95.7169 104.111 95.8796C104.529 96.0423 104.889 96.3276 105.142 96.6982C105.396 97.0687 105.531 97.5072 105.531 97.9562C105.554 98.5194 105.353 99.0689 104.973 99.4845C104.592 99.9001 104.062 100.148 103.499 100.175V100.175Z" fill="#061C3D"/>
</g>
<defs>
<clipPath id="clip0_310_2126">
<rect width="45" height="45" fill="white" transform="translate(81 80.4424)"/>
</clipPath>
</defs>
</svg>
