<svg width="1728" height="1122" viewBox="0 0 1728 1122" fill="none" xmlns="http://www.w3.org/2000/svg">
<path d="M1750.71 1120.28C1715.55 1016.78 1611.35 950.694 1505.88 934.611C1400.41 918.527 1293.34 944.33 1191.22 975.822C1089.11 1007.31 987.452 1044.99 881.171 1053.65C774.889 1062.31 660.38 1037.66 584.809 960.304C532.839 907.076 500.036 830.652 433.668 798.504C373.612 769.437 303.342 785.101 237.985 796.917C172.627 808.733 97.9072 813.675 47.3552 769.564C-3.95923 724.76 -10.4134 641.772 16.8928 578.496C44.1991 515.22 98.12 468.447 153.956 429.788C209.792 391.13 269.777 357.796 318.733 310.275C367.689 262.754 405.351 196.834 400.297 127.814C395.244 58.7936 335.383 -7.34533 268.518 0.659908" stroke="#034833" stroke-width="3.00923" stroke-miterlimit="10" stroke-linecap="round" stroke-dasharray="6.3 11.82"/>
</svg>
