<svg width="52" height="52" viewBox="0 0 52 52" fill="none" xmlns="http://www.w3.org/2000/svg">
<rect width="52" height="52" rx="8" fill="#DAF0F4"/>
<g clip-path="url(#clip0_629_9932)">
<path d="M43.0656 44.5H9.30979C8.69922 44.5 8.26584 43.9048 8.4533 43.3237L13.8197 26.6871C13.8781 26.5059 13.9925 26.348 14.1464 26.2359C14.3003 26.1238 14.4858 26.0635 14.6762 26.0635H37.6993C37.8896 26.0635 38.0751 26.1238 38.229 26.2359C38.3829 26.348 38.4973 26.5059 38.5558 26.6871L43.9221 43.3237C44.1096 43.9048 43.6762 44.5 43.0656 44.5Z" fill="#DFEAEF"/>
<path d="M43.9221 43.3236L38.5557 26.6871C38.4973 26.5059 38.3829 26.348 38.229 26.2359C38.0751 26.1238 37.8896 26.0635 37.6992 26.0635H34.457L40.404 44.4999H43.0656C43.6762 44.4999 44.1096 43.9048 43.9221 43.3236Z" fill="#BFCFD6"/>
<path d="M26.1877 35.6605C27.866 35.6605 29.2265 34.752 29.2265 33.6313C29.2265 32.5106 27.866 31.6021 26.1877 31.6021C24.5094 31.6021 23.1489 32.5106 23.1489 33.6313C23.1489 34.752 24.5094 35.6605 26.1877 35.6605Z" fill="#8289E8"/>
<path d="M26.1877 7.5C20.7448 7.5 16.3325 11.9123 16.3325 17.3552C16.3325 24.3597 24.2976 32.1682 25.9065 33.674C25.9827 33.7454 26.0833 33.7852 26.1877 33.7852C26.2922 33.7852 26.3928 33.7454 26.469 33.674C28.0779 32.1682 36.043 24.3597 36.043 17.3552C36.043 11.9123 31.6306 7.5 26.1877 7.5ZM26.1877 21.9904C23.314 21.9904 20.9843 19.6608 20.9843 16.787C20.9843 13.9132 23.314 11.5836 26.1877 11.5836C29.0615 11.5836 31.3912 13.9132 31.3912 16.787C31.3912 19.6608 29.0615 21.9904 26.1877 21.9904Z" fill="#3A70AB"/>
<path d="M25.8537 7.50621C25.8053 7.5078 25.7568 7.50939 25.7086 7.51171C25.669 7.51359 25.6295 7.51612 25.59 7.5185C25.5513 7.52081 25.5127 7.52305 25.4742 7.52587C25.4293 7.52912 25.3846 7.53281 25.34 7.53664C25.3079 7.53938 25.2759 7.54213 25.2439 7.54517C25.1686 7.55229 25.0934 7.56036 25.0182 7.56937C24.9647 7.57573 24.9112 7.58238 24.8579 7.58961C24.838 7.59228 24.8181 7.59517 24.7982 7.59799C24.74 7.60623 24.682 7.61476 24.6241 7.62394C24.6114 7.62596 24.5989 7.62813 24.5863 7.63022C24.5221 7.6407 24.458 7.65161 24.3943 7.66332C28.9808 8.50673 32.456 12.5248 32.456 17.3552C32.456 21.9171 29.0777 28.8283 26.277 33.7744C26.3487 33.7588 26.4149 33.7243 26.4686 33.6743L26.4946 33.65L26.5302 33.6165L26.5835 33.5662L26.6238 33.5281L26.6868 33.468L26.7251 33.4314L26.8083 33.3516L26.8377 33.3234C26.8781 33.2843 26.9185 33.2452 26.9588 33.206L26.9833 33.182C27.0174 33.1489 27.0519 33.1151 27.0878 33.0799L27.1363 33.0321L27.2254 32.9441L27.2822 32.8876L27.3717 32.7983L27.4333 32.7365C27.4861 32.6834 27.5388 32.6302 27.5913 32.577C27.6224 32.5455 27.654 32.5133 27.6858 32.4808L27.7556 32.4093L27.8547 32.3075C27.8782 32.2832 27.9016 32.2591 27.9255 32.2344C27.9612 32.1974 27.9975 32.1595 28.0339 32.1215C28.0563 32.0981 28.0785 32.0752 28.1012 32.0514C28.1455 32.0049 28.1907 31.9573 28.2361 31.9094C28.2516 31.893 28.2667 31.8773 28.2823 31.8607C28.3437 31.7958 28.4059 31.7295 28.469 31.662L28.5135 31.614C28.5619 31.5621 28.6106 31.5097 28.6598 31.4563L28.7312 31.3786C28.7726 31.3336 28.814 31.2884 28.856 31.2424L28.9361 31.1541C29.0451 31.0341 29.1534 30.9135 29.2609 30.7922C29.3312 30.7131 29.4012 30.6338 29.4709 30.5543L29.5577 30.455C29.6001 30.4064 29.6427 30.3572 29.6854 30.3078C29.7135 30.2752 29.7417 30.2428 29.7699 30.2099C29.8156 30.1566 29.8612 30.1032 29.9067 30.0497C29.9327 30.0193 29.9585 29.9891 29.9844 29.9584C30.0397 29.8931 30.0953 29.8268 30.151 29.7602C30.1676 29.7404 30.184 29.7211 30.2005 29.7012C30.2732 29.6141 30.3455 29.5266 30.4176 29.4389C30.4374 29.4148 30.4572 29.3901 30.477 29.3659C30.53 29.3012 30.583 29.2361 30.6361 29.1704C30.6634 29.1365 30.6908 29.1021 30.7182 29.068C30.7946 28.9732 30.8704 28.8778 30.9456 28.782C30.9892 28.7267 31.0327 28.6713 31.076 28.6158C31.107 28.576 31.138 28.5359 31.1691 28.4958C31.2434 28.3998 31.3172 28.3034 31.3906 28.2068C31.4335 28.1503 31.4762 28.0935 31.5191 28.0364C31.5498 27.9955 31.5805 27.9546 31.6112 27.9133C31.6552 27.8542 31.699 27.7949 31.7425 27.7355C31.7718 27.6957 31.8012 27.656 31.8303 27.6159C31.877 27.5518 31.9235 27.4872 31.97 27.4226C31.996 27.3864 32.0221 27.3504 32.0482 27.314C32.1067 27.2318 32.1649 27.1494 32.2228 27.0667C32.2366 27.0471 32.2504 27.0279 32.264 27.0082C32.3357 26.9055 32.4068 26.8024 32.4773 26.6989C32.4979 26.6686 32.5182 26.638 32.5388 26.6076C32.5889 26.5337 32.6386 26.4596 32.6881 26.3853C32.7148 26.3451 32.7413 26.3046 32.7678 26.2643C32.8108 26.1988 32.8538 26.1333 32.8965 26.0674C32.9248 26.0237 32.9528 25.9797 32.981 25.9358C33.0506 25.8271 33.1195 25.7179 33.1876 25.6083C33.2555 25.4993 33.3227 25.3898 33.389 25.2799C33.4552 25.1702 33.5207 25.06 33.5855 24.9495C33.6242 24.8831 33.6627 24.8165 33.7009 24.7498C33.7263 24.7054 33.7519 24.6611 33.7771 24.6166C33.8179 24.5442 33.8584 24.4716 33.8985 24.3988C33.9201 24.3597 33.942 24.3208 33.9634 24.2817C34.0158 24.1855 34.0676 24.0891 34.1187 23.9922C34.1272 23.9762 34.136 23.9603 34.1444 23.9443C34.2035 23.8317 34.2617 23.7186 34.319 23.6051C34.3365 23.5704 34.3534 23.5356 34.3707 23.5008C34.4102 23.4219 34.4492 23.3428 34.4877 23.2634C34.5089 23.2197 34.5293 23.1757 34.5502 23.1318C34.5838 23.0611 34.6173 22.9904 34.65 22.9194C34.6718 22.872 34.6932 22.8245 34.7146 22.777C34.85 22.4786 34.9773 22.1766 35.0964 21.8713C35.1153 21.8228 35.1343 21.7744 35.1528 21.7258C35.1796 21.6552 35.2056 21.5844 35.2315 21.5137C35.2483 21.4675 35.2655 21.4214 35.2819 21.3751C35.3093 21.298 35.3355 21.2206 35.3617 21.1434C35.3751 21.1035 35.3891 21.0638 35.4023 21.0239C35.4373 20.9173 35.4711 20.8106 35.5036 20.7038C35.5069 20.6932 35.5104 20.6826 35.5136 20.6721C35.549 20.5549 35.5826 20.4377 35.6148 20.3204C35.625 20.2833 35.6342 20.2461 35.6441 20.209C35.6654 20.1288 35.6866 20.0485 35.7063 19.9682C35.7175 19.9227 35.7278 19.8772 35.7385 19.8316C35.7554 19.7594 35.7721 19.6873 35.7878 19.6152C35.7982 19.5668 35.808 19.5184 35.8178 19.47C35.832 19.4005 35.8458 19.331 35.8587 19.2615C35.868 19.2119 35.8766 19.1624 35.8852 19.1129C35.9056 18.995 35.9242 18.8768 35.9408 18.7583C35.9505 18.6893 35.9592 18.6203 35.9676 18.5513C35.9735 18.5027 35.9795 18.454 35.9847 18.4055C35.9923 18.3341 35.9987 18.2627 36.0048 18.1914C36.0088 18.1457 36.0132 18.0998 36.0166 18.0541C36.0223 17.9758 36.0262 17.8976 36.0301 17.8195C36.0319 17.7809 36.0346 17.7424 36.0361 17.7039C36.0404 17.5875 36.0429 17.4712 36.0429 17.3552C36.0429 11.9123 31.6306 7.5 26.1877 7.5C26.107 7.5 26.0265 7.50116 25.9462 7.50304C25.9153 7.50383 25.8845 7.5052 25.8537 7.50621Z" fill="#4A90DA"/>
<path d="M26.1878 35.66C26.0411 35.66 25.8971 35.6526 25.756 35.6392C25.7557 35.6462 25.7549 35.653 25.7549 35.66V38.028H15.4851C15.3551 38.028 15.2287 38.071 15.1256 38.1502C15.0225 38.2294 14.9484 38.3404 14.9149 38.466L13.3044 44.4999H14.5262L15.9385 39.2085H26.3451C26.5017 39.2085 26.6518 39.1463 26.7625 39.0356C26.8731 38.9249 26.9353 38.7748 26.9353 38.6183V35.66C26.9353 35.6391 26.9342 35.6186 26.9321 35.5984C26.6861 35.6395 26.4372 35.6601 26.1878 35.66Z" fill="#5CBA9D"/>
</g>
<defs>
<clipPath id="clip0_629_9932">
<rect width="37" height="37" fill="white" transform="translate(7.5 7.5)"/>
</clipPath>
</defs>
</svg>
