<svg width="25" height="25" viewBox="0 0 25 25" fill="none" xmlns="http://www.w3.org/2000/svg">
<path d="M7.29102 18.75C5.38588 19.1789 4.16602 19.8378 4.16602 20.5768C4.16602 21.8691 7.89697 22.9167 12.4993 22.9167C17.1017 22.9167 20.8327 21.8691 20.8327 20.5768C20.8327 19.8378 19.6128 19.1789 17.7077 18.75" stroke="#141CAF" stroke-width="1.5" stroke-linecap="round"/>
<path d="M15.1048 9.37516C15.1048 10.8134 13.9389 11.9793 12.5007 11.9793C11.0624 11.9793 9.89648 10.8134 9.89648 9.37516C9.89648 7.93692 11.0624 6.771 12.5007 6.771C13.9389 6.771 15.1048 7.93692 15.1048 9.37516Z" stroke="#141CAF" stroke-width="1.5"/>
<path d="M13.8104 18.2227C13.4591 18.561 12.9895 18.7502 12.5009 18.7502C12.0121 18.7502 11.5425 18.561 11.1912 18.2227C7.97388 15.1052 3.66231 11.6226 5.76493 6.56655C6.9018 3.83279 9.6308 2.0835 12.5009 2.0835C15.3709 2.0835 18.0998 3.8328 19.2367 6.56655C21.3367 11.6162 17.0357 15.1159 13.8104 18.2227Z" stroke="#141CAF" stroke-width="1.5"/>
</svg>
