<svg width="112" height="30" viewBox="0 0 112 30" fill="none" xmlns="http://www.w3.org/2000/svg">
<path fill-rule="evenodd" clip-rule="evenodd" d="M35.8309 23.1581L37.2287 19.9101C38.7385 21.039 40.75 21.6259 42.7346 21.6259C44.1996 21.6259 45.1269 21.0614 45.1269 20.2058C45.1045 17.8135 36.3506 19.6861 36.2834 13.6874C36.261 10.641 38.9669 8.29347 42.8018 8.29347C45.0821 8.29347 47.358 8.85794 48.9842 10.1437L47.6761 13.4589C46.1887 12.5091 44.3385 11.8327 42.5778 11.8327C41.3817 11.8327 40.5932 12.3971 40.5932 13.1184C40.6156 15.4659 49.4367 14.1802 49.5263 19.9101C49.5263 23.0237 46.8876 25.2144 43.0975 25.2144C40.3199 25.2099 37.7708 24.5558 35.8309 23.1581V23.1581ZM89.5058 18.7363C88.8069 19.9549 87.4988 20.7882 85.9845 20.7882C83.749 20.7882 81.948 18.9827 81.948 16.7517C81.948 14.5207 83.7535 12.7152 85.9845 12.7152C87.4943 12.7152 88.8069 13.5485 89.5058 14.7671L93.3631 12.6256C91.9205 10.0541 89.1429 8.29347 85.9845 8.29347C81.3119 8.29347 77.5218 12.0835 77.5218 16.7562C77.5218 21.4288 81.3119 25.2189 85.9845 25.2189C89.1653 25.2189 91.9205 23.4806 93.3631 20.8867L89.5058 18.7363ZM51.4661 1.27332H56.2956V24.8963H51.4661V1.27332ZM95.2581 1.27332V24.8963H100.088V17.809L105.817 24.8963H112L104.711 16.4784L111.458 8.62498H105.544L100.083 15.1434V1.27332H95.2581Z" fill="black"/>
<path d="M70.6451 18.7811C69.9462 19.9325 68.5036 20.7882 66.8774 20.7882C64.6419 20.7882 62.8409 18.9827 62.8409 16.7517C62.8409 14.5206 64.6464 12.7152 66.8774 12.7152C68.5036 12.7152 69.9462 13.6157 70.6451 14.7894V18.7811ZM70.6451 8.62945V10.5469C69.8566 9.21633 67.8944 8.28897 65.838 8.28897C61.5955 8.28897 58.2579 12.0342 58.2579 16.7293C58.2579 21.4243 61.5955 25.2144 65.838 25.2144C67.8899 25.2144 69.8521 24.2915 70.6451 22.9565V24.8739H75.4745V8.62945H70.6451Z" fill="black"/>
<path fill-rule="evenodd" clip-rule="evenodd" d="M5.9808 18.7588C5.9808 20.4075 4.65024 21.738 3.0016 21.738C1.35296 21.738 0.0223999 20.403 0.0223999 18.7588C0.0223999 17.1147 1.35296 15.7796 3.0016 15.7796H5.9808V18.7588ZM7.46816 18.7588C7.46816 17.1102 8.79872 15.7796 10.4474 15.7796C12.096 15.7796 13.4266 17.1102 13.4266 18.7588V26.2046C13.4266 27.8533 12.096 29.1838 10.4474 29.1838C8.79872 29.1838 7.46816 27.8533 7.46816 26.2046V18.7588Z" fill="#E01E5A"/>
<path fill-rule="evenodd" clip-rule="evenodd" d="M10.4474 6.80171C8.79872 6.80171 7.46816 5.47114 7.46816 3.8225C7.46816 2.17386 8.79872 0.843292 10.4474 0.843292C12.096 0.843292 13.4266 2.17386 13.4266 3.8225V6.80171H10.4474ZM10.4474 8.31147C12.096 8.31147 13.4266 9.64203 13.4266 11.2907C13.4266 12.9393 12.096 14.2699 10.4474 14.2699H2.9792C1.33056 14.2699 0 12.9348 0 11.2907C0 9.64651 1.33056 8.31147 2.9792 8.31147H10.4474Z" fill="#36C5F0"/>
<path fill-rule="evenodd" clip-rule="evenodd" d="M22.3821 11.2907C22.3821 9.64207 23.7127 8.3115 25.3613 8.3115C27.01 8.3115 28.3405 9.64207 28.3405 11.2907C28.3405 12.9394 27.01 14.2699 25.3613 14.2699H22.3821V11.2907ZM20.8948 11.2907C20.8948 12.9394 19.5642 14.2699 17.9156 14.2699C16.267 14.2699 14.9364 12.9394 14.9364 11.2907V3.82253C14.9364 2.17389 16.267 0.843323 17.9156 0.843323C19.5642 0.843323 20.8948 2.17389 20.8948 3.82253V11.2907Z" fill="#2EB67D"/>
<path fill-rule="evenodd" clip-rule="evenodd" d="M17.9156 23.2254C19.5642 23.2254 20.8948 24.556 20.8948 26.2046C20.8948 27.8533 19.5642 29.1838 17.9156 29.1838C16.267 29.1838 14.9364 27.8533 14.9364 26.2046V23.2254H17.9156ZM17.9156 21.738C16.267 21.738 14.9364 20.4075 14.9364 18.7588C14.9364 17.1102 16.267 15.7796 17.9156 15.7796H25.3837C27.0324 15.7796 28.3629 17.1102 28.3629 18.7588C28.3629 20.4075 27.0324 21.738 25.3837 21.738H17.9156Z" fill="#ECB22E"/>
</svg>
