<svg width="346" height="174" viewBox="0 0 346 174" fill="none" xmlns="http://www.w3.org/2000/svg">
<path d="M345.558 163.106L345.558 167.459C344.086 168.028 342.566 168.472 340.997 168.773C338.65 169.225 336.302 169.618 333.967 169.926C321.38 171.593 308.962 170.931 296.91 165.213C286.73 160.377 276.041 157.707 264.622 158.847C256.314 159.677 248.604 162.394 241.131 165.952C235.005 168.874 228.903 171.897 222.184 173.252C213.198 175.062 204.568 173.42 196.209 170.13C190.09 167.723 184.093 165.004 178.015 162.481C166.417 157.663 154.636 157.501 142.843 161.567C136.568 163.729 130.38 166.188 124.256 168.764C108.151 175.535 92.4892 174.557 77.0703 166.565C72.7577 164.33 68.3282 162.275 63.8016 160.527C56.4095 157.676 49.015 158.137 41.803 161.409C36.8786 163.646 32.0297 166.074 27.0335 168.142C21.6555 170.365 16.5292 170.9 11.5976 170.13C7.61211 169.509 3.75318 168.038 -2.84647e-10 165.918L-1.80509e-10 161.854C0.062026 161.898 0.126446 161.941 0.188472 161.985C3.9307 164.578 7.73859 166.106 11.5976 166.689C17.2432 167.546 22.9994 166.4 28.8481 163.65C32.4481 161.958 36.0857 160.343 39.6321 158.563C49.3325 153.691 59.0463 153.907 68.7758 158.382C73.1931 160.414 77.5494 162.585 81.9399 164.686C96.1402 171.489 110.248 170.693 124.531 164.681C132.089 161.501 139.841 158.643 147.726 156.415C159.432 153.102 170.807 155.221 181.821 159.961C188.048 162.642 194.259 165.392 200.626 167.702C211.635 171.696 222.432 170.748 232.959 165.66C240.488 162.024 248.03 158.382 256.232 156.436C269.171 153.372 281.695 154.844 293.881 159.874C295.462 160.527 297.092 161.109 298.625 161.871C309.303 167.162 320.638 167.689 332.192 166.457C332.824 166.393 333.408 166.327 333.967 166.266C339.209 165.674 341.325 165.201 345.558 163.106Z" fill="#00CFFF"/>
<path d="M345.558 138.824L345.558 142.924C341.812 144.516 337.92 145.282 333.967 145.695C330.671 146.043 327.339 146.139 324.007 146.266C314.301 146.627 305.119 144.708 296.289 140.564C287.192 136.299 277.633 133.755 267.441 134.241C257.872 134.703 249.095 137.855 240.495 141.801C235.587 144.058 230.627 146.296 225.496 147.954C215.718 151.11 206.095 149.473 196.722 145.948C192.426 144.333 188.141 142.623 184.049 140.564C168.379 132.68 152.598 132.536 136.559 139.313C131.259 141.553 125.885 143.619 120.501 145.653C106.546 150.921 92.9319 149.696 79.6206 143.342C75.229 141.249 70.8823 139.051 66.4383 137.08C57.4749 133.093 48.6015 133.458 39.8328 137.84C35.9726 139.773 32.082 141.663 28.1269 143.385C22.3731 145.891 16.8905 146.553 11.5976 145.722C7.63765 145.108 3.78358 143.655 -2.83885e-10 141.518L-1.80183e-10 137.47C3.7398 140.069 7.60724 141.688 11.5976 142.311C16.4417 143.068 21.4634 142.358 26.6687 140.135C31.0811 138.25 35.463 136.287 39.7453 134.133C49.8628 129.041 59.8416 129.746 69.8376 134.433C75.6692 137.163 81.4267 140.103 87.4238 142.409C97.1667 146.158 107.164 146.305 117.042 142.836C124.017 140.386 130.846 137.506 137.783 134.935C146.95 131.535 156.333 129.532 166.194 130.97C173.466 132.031 180.142 134.877 186.839 137.71C191.882 139.843 196.926 142.023 202.105 143.771C211.813 147.054 221.401 146.392 230.774 142.223C237.158 139.382 243.463 136.304 250.023 133.934C264.965 128.529 279.761 129.62 294.38 135.63C299.743 137.836 305.156 140.365 310.799 141.396C318.546 142.815 326.317 143.241 333.967 142.035C337.871 141.417 341.739 140.378 345.558 138.824Z" fill="#00CFFF"/>
<path d="M345.558 151.036L345.558 155.114C341.872 156.579 338.005 157.477 333.967 157.859C333.931 157.864 333.906 157.864 333.87 157.867C324.481 158.738 315.104 159.152 305.922 156.388C302.65 155.404 299.427 154.155 296.338 152.702C278.193 144.147 260.183 144.46 242.193 153.215C237.576 155.46 232.886 157.603 228.076 159.391C217.054 163.491 206.201 161.945 195.573 157.725C190.86 155.853 186.19 153.86 181.6 151.71C167.648 145.184 153.565 144.894 139.297 150.545C133.818 152.715 128.312 154.83 122.85 157.05C107.203 163.403 92.0453 162.115 77.2016 154.385C73.0142 152.206 68.6944 150.244 64.3161 148.484C56.8048 145.471 49.2936 145.831 41.9295 149.156C36.8117 151.466 31.7901 154.02 26.586 156.122C21.3503 158.242 16.3821 158.717 11.5976 157.95C7.61697 157.314 3.76899 155.818 -2.84066e-10 153.698L-1.79709e-10 149.625C0.66161 150.069 1.32074 150.501 1.98478 150.909C5.17121 152.867 8.37709 154.02 11.5976 154.5C17.3332 155.362 23.1174 154.086 28.9138 151.431C32.5308 149.773 36.1477 148.124 39.7015 146.349C49.4103 141.492 59.1411 141.805 68.8682 146.2C73.1103 148.119 77.2575 150.26 81.4656 152.267C94.1772 158.329 107.125 159.147 120.34 153.977C127.173 151.305 133.978 148.577 140.872 146.07C155.911 140.603 170.451 142.345 184.802 148.942C191.5 152.02 198.462 154.652 205.508 156.806C213.816 159.338 222.075 158.129 230.004 154.687C236.606 151.824 243.077 148.608 249.831 146.174C266.198 140.282 282.279 141.945 297.773 149.338C309.57 154.964 321.696 155.805 333.967 153.96C336.302 153.612 338.637 153.163 340.985 152.633C342.541 152.281 344.049 151.71 345.558 151.036Z" fill="#00CFFF"/>
<path d="M64.5101 31.4426L63.024 56.7395L123.266 56.7395L121.533 86.2623L61.2921 86.2623L59.7706 112.19L130.292 112.19L129.124 130.115C128.831 130.23 128.543 130.341 128.252 130.455C124.432 131.951 120.479 133.501 116.583 134.871C112.417 136.332 108.193 137.074 104.027 137.074C99.522 137.074 94.982 136.205 90.5356 134.497C86.285 132.862 82.0185 130.818 77.892 128.843C76.4909 128.173 75.0375 127.478 73.6024 126.806C67.7294 124.058 61.9294 122.662 56.3592 122.662C50.9374 122.662 45.5801 123.974 40.4319 126.567C36.7894 128.398 32.8039 130.23 27.8808 132.326C24.6518 133.705 21.4934 134.399 18.4821 134.399C16.1348 134.399 13.852 133.994 11.5996 133.169L19.3455 1.98459e-10L136.19 3.19217e-09L134.581 31.4426L64.5101 31.4426Z" fill="white"/>
<path d="M190.676 97.2369C190.485 100.167 191.011 103.135 192.414 105.716C195.033 110.542 201.323 115.754 216.391 112.194L215.028 137.534C214.456 137.563 213.886 137.581 213.315 137.581C209.769 137.581 206.16 136.97 202.604 135.771C198.142 134.263 193.64 132.356 189.288 130.51L187.957 129.949L187.751 129.858C181.131 127.061 174.292 124.165 166.712 123.062C164.407 122.725 162.04 122.555 159.676 122.555C158.105 122.555 156.52 122.628 154.923 122.773C154.608 120.997 154.501 119.158 154.624 117.275L158.568 56.7392L139.988 56.7392L141.153 31.5995L160.238 31.4942L161.53 7.874L196.916 0.0514832L195.206 31.4942L220.935 31.4423L219.504 56.7392L193.326 56.7359L190.676 97.2369Z" fill="white"/>
<path d="M338.003 56.9513L334.707 106.682L334.367 111.922L332.956 133.253C329.246 134.119 325.367 134.538 321.232 134.538C317.206 134.538 312.876 134.119 308.376 133.292C304.193 132.525 300.07 130.791 295.704 128.955C295.327 128.801 294.937 128.641 294.56 128.48L297.26 86.6654L270.593 95.0019C265.064 96.9447 263.051 100.562 262.364 103.423C261.728 106.069 262.133 108.893 263.366 111.317C268.558 121.573 283.846 112.158 283.846 112.158L283.225 124.58C277.862 123.195 272.544 122.499 267.319 122.499C260.367 122.499 253.423 123.73 246.685 126.171C242.256 127.77 237.934 129.689 233.751 131.594C226.706 124.794 222.638 115.058 223.134 104.548C223.149 104.425 223.149 104.312 223.156 104.196C224.579 77.6412 269.248 66.6646 285.317 64.1106C295.983 62.4193 298.635 57.5318 299.231 54.4654C299.547 52.7984 299.267 51.0389 298.391 49.586C289.829 35.4749 236.825 56.9513 236.825 56.9513L238.3 31.5198C281.815 20.9033 308.595 24.8956 308.595 24.8956C341.323 29.6387 338.003 56.9513 338.003 56.9513Z" fill="white"/>
</svg>
