<svg width="113" height="56" viewBox="0 0 113 56" fill="none" xmlns="http://www.w3.org/2000/svg">
<path d="M47.2754 21.3773C45.2531 21.3773 42.9531 22.3147 41.5478 24.1916L41.5487 24.188L41.5478 24.1889L41.5487 21.6719H36.7252V39.2374H41.5478V29.2424C41.5478 27.4437 42.9425 25.5313 45.525 25.5313C47.5207 25.5313 49.586 26.9196 49.586 29.2424V39.2374H54.4095V28.3487C54.4095 24.3086 51.519 21.3773 47.2754 21.3773ZM88.6912 21.6728L84.3307 33.6378L79.9701 21.6728H74.4602L81.6875 39.2326H86.973L94.2002 21.6728H88.6912ZM22.3254 26.9644C23.1468 25.8614 24.4552 25.2138 26.0355 25.2138C27.7736 25.2138 29.0923 26.2064 29.774 27.6717L21.3471 31.1679C21.117 29.3737 21.576 27.9704 22.3254 26.9644ZM31.592 33.8369C29.562 35.3393 28.4022 35.6977 26.5509 35.6977C24.8849 35.6977 23.5805 35.1805 22.661 34.2734L34.9923 29.1578C34.723 27.2516 33.9994 25.5485 32.8862 24.2536C31.266 22.372 28.8678 21.3764 25.9479 21.3764C20.6443 21.3764 16.6451 25.2889 16.6451 30.4568C16.6451 35.7586 20.6538 39.536 26.4796 39.536C29.7437 39.536 33.081 37.9891 34.6423 36.1817L31.592 33.8369ZM16.1853 34.8085H5.22268V16.4188H0.333374V39.2374H16.1853V34.8085ZM102.861 25.5098C100.168 25.5098 98.2116 27.5511 98.2116 30.455C98.2116 33.2276 100.284 35.4002 102.926 35.4002C105.621 35.4002 107.576 33.3027 107.576 30.455C107.576 27.6824 105.505 25.5098 102.861 25.5098ZM102.861 39.5336C97.5863 39.5336 93.4529 35.6036 93.4529 30.455C93.4529 25.3641 97.6148 21.3764 102.926 21.3764C108.201 21.3764 112.333 25.3061 112.333 30.455C112.333 35.5448 108.172 39.5333 102.861 39.5333V39.5336ZM65.7251 25.5098C63.0314 25.5098 61.0765 27.5511 61.0765 30.455C61.0765 33.2276 63.1475 35.4002 65.7907 35.4002C68.4844 35.4002 70.4393 33.3027 70.4393 30.455C70.4393 27.6824 68.3683 25.5098 65.7251 25.5098ZM65.7251 39.5336C60.45 39.5336 56.3178 35.6036 56.3178 30.455C56.3178 25.3641 60.4785 21.3764 65.7907 21.3764C71.0649 21.3764 75.198 25.3061 75.198 30.455C75.198 35.5448 71.0364 39.5333 65.7251 39.5333" fill="#B7BAC7"/>
</svg>
