<svg width="113" height="38" viewBox="0 0 113 38" fill="none" xmlns="http://www.w3.org/2000/svg">
<path d="M14.1267 0.724823H15.1226C18.5804 0.799991 21.9817 2.1906 24.4246 4.65235C23.5226 5.57316 22.6018 6.45638 21.7186 7.37719C20.3468 6.13692 18.6931 5.17853 16.8891 4.84027C14.2206 4.27651 11.3455 4.78389 9.10921 6.30605C6.66626 7.90336 5.01257 10.6094 4.65552 13.5034C4.26089 16.3598 5.06894 19.3665 6.92935 21.5839C8.71458 23.745 11.4394 25.098 14.2582 25.192C16.8891 25.3423 19.6327 24.5343 21.5495 22.6927C23.0528 21.396 23.7481 19.4229 23.9736 17.5061C20.8542 17.5061 17.7347 17.5249 14.6153 17.5061V13.6349H27.7508C28.4273 17.788 27.4502 22.4672 24.2931 25.4363C22.1884 27.541 19.2757 28.7813 16.3065 29.0256C13.4314 29.3074 10.4622 28.7625 7.90653 27.3719C4.84344 25.737 2.40049 22.9745 1.1978 19.7235C0.0702843 16.7356 0.0514924 13.353 1.10384 10.3463C2.06223 7.60269 3.90384 5.17853 6.27163 3.48725C8.54545 1.81476 11.3079 0.893951 14.1267 0.724823Z" fill="#B7BAC7"/>
<path d="M89.4824 1.7019H93.5038V28.5368C92.1696 28.5368 90.8166 28.5556 89.4824 28.518C89.5012 19.5918 89.4824 10.6469 89.4824 1.7019V1.7019Z" fill="#B7BAC7"/>
<path d="M36.6958 11.0041C39.1764 10.5343 41.8636 11.0605 43.9119 12.545C45.7723 13.8605 47.069 15.9276 47.4636 18.1826C47.971 20.7947 47.3321 23.6511 45.6408 25.7182C43.818 28.0296 40.83 29.2699 37.9173 29.082C35.2488 28.9316 32.6555 27.5974 31.077 25.4175C29.2918 23.0122 28.8596 19.7048 29.8367 16.886C30.8139 13.8605 33.5763 11.5491 36.6958 11.0041V11.0041ZM37.2596 14.5746C36.2448 14.8377 35.3052 15.4202 34.6287 16.2471C32.8059 18.4269 32.9186 21.9786 34.9294 24.0081C36.0757 25.1732 37.8045 25.7182 39.4019 25.3987C40.8864 25.1357 42.1831 24.1397 42.8972 22.8242C44.1374 20.588 43.7804 17.5061 41.8824 15.7585C40.6609 14.631 38.8757 14.1612 37.2596 14.5746Z" fill="#B7BAC7"/>
<path d="M56.6152 11.004C59.4528 10.4591 62.5535 11.2483 64.677 13.2403C68.1347 16.3409 68.5105 22.1476 65.5602 25.7181C63.775 27.9731 60.881 29.2134 58.0246 29.0818C55.2998 29.0067 52.6126 27.6537 50.9965 25.4174C49.1736 22.9557 48.779 19.5731 49.8126 16.698C50.8461 13.7664 53.5522 11.5302 56.6152 11.004V11.004ZM57.179 14.5745C56.1642 14.8376 55.2246 15.4201 54.5481 16.2282C52.7441 18.3705 52.8193 21.8657 54.7548 23.9141C55.9012 25.1355 57.6864 25.7369 59.3401 25.3986C60.8058 25.1168 62.1213 24.1396 62.8354 22.8241C64.0568 20.5691 63.6998 17.4872 61.783 15.7396C60.5615 14.6121 58.7763 14.1611 57.179 14.5745Z" fill="#B7BAC7"/>
<path d="M73.5092 12.0937C75.6703 10.7407 78.5455 10.3649 80.8757 11.53C81.6086 11.8494 82.2099 12.3944 82.7924 12.9393C82.8112 12.432 82.7924 11.9058 82.8112 11.3796C84.0703 11.3984 85.3294 11.3796 86.6072 11.3984V27.9729C86.5884 30.4722 85.9495 33.1219 84.1455 34.9447C82.1723 36.9554 79.1468 37.5756 76.422 37.1621C73.5092 36.7299 70.9723 34.6064 69.8448 31.9192C70.9723 31.3742 72.1562 30.942 73.3213 30.4346C73.979 31.9756 75.3132 33.291 76.9857 33.5917C78.6582 33.8923 80.5938 33.4789 81.6837 32.0883C82.8488 30.6601 82.8488 28.7058 82.7924 26.9581C81.928 27.8038 80.932 28.5554 79.7294 28.8373C77.1173 29.5702 74.2421 28.6682 72.2314 26.9017C70.2018 25.1353 68.9991 22.4105 69.1119 19.7044C69.1683 16.6414 70.8971 13.691 73.5092 12.0937V12.0937ZM77.3992 14.4991C76.2528 14.687 75.1817 15.3259 74.4488 16.2091C72.6824 18.3138 72.6824 21.6776 74.4676 23.7447C75.4824 24.9662 77.1173 25.6427 78.6958 25.4736C80.1804 25.3232 81.5522 24.3836 82.2851 23.087C83.5253 20.8883 83.3186 17.9004 81.6461 15.9836C80.6126 14.7997 78.9589 14.2172 77.3992 14.4991V14.4991Z" fill="#B7BAC7"/>
<path d="M98.3334 13.0522C100.588 10.9475 104.065 10.2334 106.959 11.3421C109.703 12.3757 111.45 14.9878 112.333 17.675C108.256 19.3663 104.196 21.0388 100.119 22.7301C100.682 23.8012 101.547 24.7784 102.712 25.173C104.347 25.7556 106.301 25.5489 107.673 24.4589C108.218 24.0455 108.65 23.5005 109.064 22.9744C110.097 23.6697 111.131 24.3462 112.164 25.0415C110.698 27.2401 108.237 28.7811 105.587 29.0254C102.656 29.3824 99.536 28.2549 97.638 25.9623C94.5186 22.3542 94.8192 16.3032 98.3334 13.0522V13.0522ZM100.344 16.5287C99.7052 17.4495 99.4421 18.577 99.4609 19.6858C102.186 18.5582 104.911 17.4307 107.635 16.2844C107.184 15.2321 106.094 14.5931 104.986 14.424C103.2 14.1046 101.34 15.0629 100.344 16.5287V16.5287Z" fill="#B7BAC7"/>
</svg>
