<svg width="294" height="189" viewBox="0 0 294 189" fill="none" xmlns="http://www.w3.org/2000/svg">
<path d="M97.087 111.516H126.391V123H83.029V58.848H125.896V70.233H97.087V84.687H121.936L120.352 95.973H97.087V111.516ZM166.462 121.119C162.568 123.297 158.212 124.386 153.394 124.386C150.952 124.386 148.675 123.924 146.563 123C144.517 122.01 142.834 120.459 141.514 118.347C140.194 116.235 139.534 113.562 139.534 110.328V89.043H131.416V78.45H139.534V68.451L152.998 66.57V78.45H165.373L163.987 89.043H152.998V108.249C152.998 110.229 153.328 111.615 153.988 112.407C154.714 113.199 155.704 113.595 156.958 113.595C157.882 113.595 158.773 113.496 159.631 113.298C160.489 113.034 161.545 112.638 162.799 112.11L166.462 121.119ZM193.303 76.965C199.111 76.965 203.467 78.12 206.371 80.43C209.341 82.674 210.826 86.403 210.826 91.617V123H199.342L198.253 119.535C195.811 121.317 193.369 122.571 190.927 123.297C188.551 124.023 186.043 124.386 183.403 124.386C180.631 124.386 178.189 123.858 176.077 122.802C173.965 121.746 172.315 120.294 171.127 118.446C170.005 116.532 169.444 114.354 169.444 111.912C169.444 106.698 172.018 102.738 177.166 100.032C182.314 97.26 189.046 95.709 197.362 95.379V94.29C197.362 92.442 197.164 90.99 196.768 89.934C196.438 88.878 195.811 88.119 194.887 87.657C193.963 87.129 192.676 86.865 191.026 86.865C186.868 86.865 182.149 88.548 176.869 91.914L171.721 83.796C175.285 81.486 178.75 79.77 182.116 78.648C185.548 77.526 189.277 76.965 193.303 76.965ZM183.403 110.229C183.403 111.681 183.832 112.803 184.69 113.595C185.548 114.321 186.802 114.684 188.452 114.684C191.158 114.684 194.128 113.793 197.362 112.011V103.398C192.544 103.662 189.013 104.421 186.769 105.675C184.525 106.929 183.403 108.447 183.403 110.229Z" fill="#141CA4"/>
<path d="M68.0425 27.626C88.8114 25.4015 151.842 28.2843 205.194 57.4575C244.053 78.7061 283.378 107.352 275.721 136.18C268.065 165.009 187.435 159.649 133.542 147.742C79.5948 135.823 5.93261 106.708 10.3017 77.4507C14.6709 48.1937 95.4931 36.0666 149.976 46.0934C174.293 50.5685 187.851 55.3721 209.603 67.2194" stroke="#141CA4" stroke-width="6" stroke-linecap="round"/>
</svg>
