<svg width="130" height="28" viewBox="0 0 130 28" fill="none" xmlns="http://www.w3.org/2000/svg">
<path d="M129.064 12.6904V10.4253H126.251V6.90383L126.156 6.93298L123.514 7.74136L123.462 7.75718V10.4254H119.292V8.93897C119.292 8.24684 119.447 7.71719 119.752 7.36396C120.055 7.01497 120.488 6.83754 121.041 6.83754C121.438 6.83754 121.849 6.93111 122.263 7.11564L122.367 7.16199V4.77648L122.318 4.75853C121.932 4.61973 121.407 4.54984 120.756 4.54984C119.935 4.54984 119.19 4.72838 118.54 5.08223C117.889 5.43658 117.377 5.94244 117.019 6.58561C116.662 7.22802 116.48 7.96999 116.48 8.79108V10.4253H114.522V12.6904H116.48V22.2331H119.292V12.6904H123.462V18.7546C123.462 21.2522 124.64 22.5178 126.964 22.5178C127.345 22.5178 127.747 22.4731 128.158 22.3855C128.575 22.2955 128.86 22.2057 129.027 22.1098L129.064 22.0878V19.8017L128.95 19.8774C128.797 19.979 128.607 20.0621 128.384 20.1239C128.161 20.1869 127.974 20.2184 127.829 20.2184C127.285 20.2184 126.882 20.0717 126.632 19.7823C126.379 19.4903 126.251 18.9795 126.251 18.2651V12.6904H129.064ZM108.243 20.2188C107.222 20.2188 106.418 19.8804 105.851 19.2138C105.28 18.5438 104.991 17.5887 104.991 16.3751C104.991 15.123 105.28 14.1431 105.851 13.4613C106.418 12.784 107.215 12.4402 108.22 12.4402C109.195 12.4402 109.971 12.7686 110.527 13.4166C111.086 14.068 111.369 15.0401 111.369 16.3067C111.369 17.5889 111.102 18.5739 110.577 19.2327C110.055 19.8866 109.269 20.2188 108.243 20.2188V20.2188ZM108.368 10.1408C106.421 10.1408 104.874 10.7114 103.772 11.8366C102.67 12.9619 102.111 14.5193 102.111 16.4657C102.111 18.3144 102.656 19.8015 103.732 20.8849C104.808 21.9686 106.272 22.5176 108.083 22.5176C109.97 22.5176 111.486 21.9391 112.588 20.7983C113.69 19.6587 114.249 18.1161 114.249 16.2151C114.249 14.3375 113.725 12.8393 112.691 11.7632C111.657 10.6866 110.202 10.1408 108.368 10.1408V10.1408ZM97.5775 10.1408C96.2531 10.1408 95.1575 10.4796 94.3206 11.1476C93.4786 11.8195 93.0515 12.7008 93.0515 13.7672C93.0515 14.3215 93.1437 14.8139 93.3251 15.2316C93.5076 15.6506 93.7901 16.0195 94.1654 16.3291C94.5378 16.6363 95.1127 16.958 95.8744 17.2853C96.5149 17.5488 96.9924 17.7717 97.2958 17.9474C97.5924 18.1196 97.8028 18.2926 97.9217 18.4612C98.0372 18.6262 98.0957 18.8519 98.0957 19.1305C98.0957 19.9238 97.5017 20.3098 96.2793 20.3098C95.8259 20.3098 95.3087 20.2152 94.7421 20.0285C94.1796 19.8447 93.6487 19.5755 93.168 19.2303L93.0512 19.1466V21.8537L93.0941 21.8736C93.4919 22.0573 93.9936 22.2122 94.5848 22.334C95.1748 22.456 95.711 22.5181 96.1767 22.5181C97.6139 22.5181 98.7713 22.1777 99.6158 21.5057C100.466 20.8292 100.896 19.9271 100.896 18.8238C100.896 18.0279 100.665 17.3453 100.207 16.7949C99.7536 16.2489 98.9658 15.7476 97.867 15.3046C96.9916 14.9532 96.4308 14.6615 96.1994 14.4376C95.9764 14.2213 95.8631 13.9155 95.8631 13.5281C95.8631 13.1847 96.0029 12.9096 96.2898 12.6868C96.579 12.4629 96.9816 12.349 97.4865 12.349C97.9549 12.349 98.4343 12.4231 98.911 12.5681C99.3873 12.7131 99.8057 12.9074 100.155 13.145L100.27 13.2235V10.6555L100.226 10.6366C99.9035 10.4984 99.4786 10.3802 98.9625 10.2842C98.4488 10.1889 97.9829 10.1408 97.5775 10.1408V10.1408ZM85.7214 20.2188C84.7011 20.2188 83.8962 19.8804 83.3293 19.2138C82.7587 18.5438 82.4701 17.5889 82.4701 16.3751C82.4701 15.123 82.7591 14.1431 83.33 13.4613C83.8969 12.784 84.6937 12.4402 85.6989 12.4402C86.6735 12.4402 87.4496 12.7686 88.0056 13.4166C88.5644 14.068 88.8479 15.0401 88.8479 16.3067C88.8479 17.5889 88.5811 18.5739 88.0554 19.2327C87.5332 19.8866 86.7484 20.2188 85.7214 20.2188V20.2188ZM85.8468 10.1408C83.8992 10.1408 82.3526 10.7114 81.2506 11.8366C80.1487 12.9619 79.5896 14.5193 79.5896 16.4657C79.5896 18.3152 80.1353 19.8015 81.2111 20.8849C82.2868 21.9686 83.7507 22.5176 85.562 22.5176C87.4491 22.5176 88.9651 21.9391 90.0673 20.7983C91.1691 19.6587 91.7277 18.1161 91.7277 16.2151C91.7277 14.3375 91.2036 12.8393 90.1696 11.7632C89.1351 10.6866 87.6806 10.1408 85.8468 10.1408V10.1408ZM75.3215 12.4701V10.4253H72.544V22.2329H75.3215V16.1928C75.3215 15.1658 75.5543 14.322 76.0139 13.6847C76.4675 13.055 77.072 12.7359 77.8101 12.7359C78.0603 12.7359 78.3412 12.7772 78.6453 12.8588C78.9463 12.9399 79.1644 13.028 79.2929 13.1207L79.4097 13.2053V10.4051L79.3647 10.3858C79.1061 10.2759 78.7401 10.2204 78.2771 10.2204C77.5791 10.2204 76.9545 10.4447 76.4195 10.8863C75.9499 11.2744 75.6105 11.8065 75.351 12.4701H75.3215ZM67.57 10.1408C66.2958 10.1408 65.1592 10.4141 64.1925 10.9527C63.2238 11.4926 62.4746 12.2633 61.9649 13.2434C61.4574 14.2211 61.1997 15.3631 61.1997 16.6368C61.1997 17.7524 61.4495 18.7762 61.9433 19.6785C62.4373 20.5823 63.1366 21.2894 64.0217 21.7798C64.9056 22.2696 65.9271 22.5179 67.0582 22.5179C68.3782 22.5179 69.5051 22.254 70.4087 21.7336L70.4452 21.7127V19.168L70.3285 19.2533C69.9192 19.5514 69.4618 19.7894 68.9696 19.9609C68.4787 20.1322 68.0312 20.2188 67.6387 20.2188C66.5489 20.2188 65.6739 19.8777 65.0389 19.2054C64.4024 18.5322 64.0797 17.5869 64.0797 16.3974C64.0797 15.2004 64.4163 14.2308 65.0795 13.5154C65.7407 12.8021 66.6173 12.4402 67.6845 12.4402C68.5974 12.4402 69.4871 12.7494 70.3287 13.3599L70.4452 13.4445V10.7633L70.4076 10.7421C70.0908 10.5648 69.6589 10.4184 69.1226 10.3074C68.5886 10.1966 68.0663 10.1408 67.57 10.1408V10.1408ZM59.2868 10.4254H56.5093V22.2329H59.2868V10.4254V10.4254ZM57.9265 5.39534C57.4694 5.39534 57.0706 5.55096 56.7431 5.85934C56.4142 6.16859 56.2473 6.55795 56.2473 7.01746C56.2473 7.46974 56.4122 7.852 56.738 8.15302C57.0617 8.45318 57.4616 8.60531 57.9266 8.60531C58.3915 8.60531 58.7929 8.45318 59.1205 8.15352C59.4502 7.852 59.6174 7.46986 59.6174 7.01746C59.6174 6.57402 59.4547 6.18865 59.1341 5.8718C58.8137 5.55557 58.4073 5.39534 57.9265 5.39534ZM50.9965 9.55423V22.2329H53.831V5.7568H49.9079L44.9214 17.9947L40.0822 5.7568H35.9994V22.2327H38.6631V9.55298H38.7545L43.8646 22.2329H45.8748L50.9051 9.55423H50.9965V9.55423Z" fill="#B7BAC7"/>
<path d="M13.3329 13.3173H0.266815V0.25116H13.3329V13.3173Z" fill="#B7BAC7"/>
<path d="M27.7573 13.3173H14.6915V0.25116H27.7573V13.3173Z" fill="#B7BAC7"/>
<path d="M13.3325 27.7487H0.266815V14.6828H13.3325V27.7487Z" fill="#B7BAC7"/>
<path d="M27.7573 27.7487H14.6915V14.6828H27.7573V27.7487Z" fill="#B7BAC7"/>
</svg>
