<svg width="108" height="34" viewBox="0 0 108 34" fill="none" xmlns="http://www.w3.org/2000/svg">
<path d="M23.1436 8.41719V18.8453C23.1436 19.0143 23.0764 19.1764 22.9569 19.296C22.8374 19.4155 22.6754 19.4827 22.5064 19.4827H19.2154C19.0465 19.4826 18.8844 19.4154 18.765 19.2959C18.6455 19.1764 18.5783 19.0143 18.5783 18.8453V1.88347C18.5783 1.71443 18.6454 1.55232 18.7649 1.43279C18.8844 1.31326 19.0464 1.24611 19.2154 1.24611H22.2608C22.4298 1.24611 22.5919 1.31326 22.7114 1.43279C22.8309 1.55232 22.898 1.71443 22.898 1.88347V4.27214C22.898 4.27214 23.9867 0.864767 27.2175 0.864767C27.2175 0.864767 30.4132 0.478364 31.7125 4.02625C31.7125 4.02625 32.8012 0.864767 36.1022 0.864767C36.1022 0.864767 41.0114 0.572787 41.0114 5.65392L41.0488 8.45232V18.8804C41.0488 19.0495 40.9816 19.2116 40.8621 19.3311C40.7426 19.4506 40.5806 19.5178 40.4116 19.5178H37.1204C36.9514 19.5177 36.7894 19.4505 36.6699 19.331C36.5504 19.2115 36.4833 19.0494 36.4832 18.8804L36.4531 7.50387C36.5467 4.92776 34.4632 5.1152 34.4632 5.1152C31.8412 5.16213 32.0935 8.45232 32.0935 8.45232V18.8804C32.0935 19.0495 32.0264 19.2116 31.9069 19.3311C31.7874 19.4506 31.6253 19.5178 31.4563 19.5178H28.1654C27.9964 19.5177 27.8344 19.4505 27.7149 19.331C27.5954 19.2115 27.5283 19.0494 27.5282 18.8804V7.76129C27.5282 7.76129 27.7206 5.0916 25.3793 5.0916C25.3796 5.0916 23.0618 4.78725 23.1436 8.41719V8.41719ZM107.975 8.386V18.8138C107.975 18.9828 107.908 19.1449 107.788 19.2644C107.669 19.3839 107.507 19.4511 107.338 19.4512L103.915 19.5175C103.746 19.5174 103.584 19.4502 103.465 19.3307C103.345 19.2112 103.278 19.0492 103.278 18.8801V7.76129C103.278 7.76129 103.47 5.0916 101.129 5.0916C101.129 5.0916 98.8934 4.98143 98.8934 9.16723V18.845C98.8933 19.014 98.8261 19.1761 98.7067 19.2956C98.5872 19.4151 98.4252 19.4823 98.2562 19.4824H94.965C94.796 19.4823 94.634 19.4151 94.5145 19.2956C94.395 19.1761 94.3279 19.014 94.3278 18.845V1.88347C94.3279 1.71445 94.395 1.55238 94.5145 1.43287C94.634 1.31336 94.796 1.24619 94.965 1.24611H98.0104C98.1794 1.24611 98.3414 1.31326 98.4609 1.43279C98.5804 1.55232 98.6476 1.71443 98.6476 1.88347V4.27214C98.6476 4.27214 99.7362 0.864767 102.967 0.864767C102.967 0.864767 106.428 0.33954 107.594 3.96021C107.594 3.95993 107.975 4.70688 107.975 8.386ZM84.2131 0.794512C80.0046 0.794512 76.5926 4.34239 76.5926 10.3141C76.5926 15.5717 79.2264 19.8336 84.2131 19.8336C88.9188 19.8336 91.8336 15.5717 91.8336 10.3141C91.8336 4.44778 88.4219 0.794512 84.2131 0.794512V0.794512ZM86.8694 10.5248C86.8694 12.773 86.5884 13.9673 86.5884 13.9673C86.1887 16.3439 84.464 16.3473 84.2097 16.3347C83.9352 16.3456 82.1959 16.3209 81.836 13.9673C81.836 13.9673 81.5551 12.773 81.5551 10.5248V10.1502C81.5551 7.90208 81.836 6.70774 81.836 6.70774C82.1959 4.3542 83.9355 4.32947 84.2097 4.34015C84.464 4.3275 86.1887 4.33059 86.5884 6.70774C86.5884 6.70774 86.8694 7.90208 86.8694 10.1502V10.5248ZM74.6825 4.24853V1.8149C74.6824 1.64588 74.6152 1.48381 74.4957 1.3643C74.3763 1.24479 74.2142 1.17762 74.0453 1.17754H63.1672C62.9982 1.17754 62.8362 1.24469 62.7167 1.36422C62.5972 1.48375 62.5301 1.64586 62.5301 1.8149V4.22971C62.5301 4.39872 62.5973 4.56079 62.7168 4.6803C62.8362 4.79981 62.9983 4.86699 63.1672 4.86706H68.8414L62.1252 14.6128C62.1252 14.6128 61.8606 15.008 61.8693 15.4444V18.4089C61.8693 18.4089 61.8255 19.4253 62.9779 18.8355C62.9779 18.8355 65.0248 17.5984 68.4571 17.5984C68.4571 17.5984 71.8466 17.5563 74.1065 18.942C74.1065 18.942 75.0446 19.3686 75.0446 18.4305V15.8502C75.0446 15.8502 75.1297 15.1673 74.2344 14.741C74.2344 14.741 71.6334 13.3123 68.2225 13.5467L74.6825 4.24853ZM16.0383 16.4493L15.0081 14.8807C14.6802 14.295 14.7038 13.6391 14.7038 13.6391V6.40312C14.8443 0.150413 7.91431 0.689129 7.91431 0.689129C1.75383 0.689129 0.843867 5.48474 0.843867 5.48474C0.587087 6.44892 1.33383 6.47225 1.33383 6.47225L4.34411 6.77772C4.34411 6.77772 4.85739 6.89518 5.04421 6.28396C5.04421 6.28396 5.44062 4.19177 7.65753 4.19177C10.0697 4.19177 10.0447 6.26261 10.0447 6.26261V7.99622C5.22936 8.15725 2.99784 9.49434 2.99784 9.49434C0.0246433 11.1805 0.21175 14.5294 0.21175 14.5294C0.21175 19.9857 5.40916 19.7513 5.40916 19.7513C8.73353 19.7513 10.7001 17.316 10.7001 17.316C11.2853 18.3468 12.3624 19.3298 12.3624 19.3298C12.9013 19.9143 13.4629 19.4236 13.4629 19.4236L15.8978 17.3396C16.4361 16.9411 16.0383 16.4493 16.0383 16.4493ZM7.03159 16.3819C5.46787 16.3819 4.88661 14.8275 5.1462 13.2999C5.40607 11.7723 6.75571 10.5718 10.045 10.6069V11.5357C10.1616 15.593 8.33319 16.3819 7.03159 16.3819ZM59.7712 16.4493L58.7413 14.8807C58.4134 14.295 58.4368 13.6391 58.4368 13.6391V6.40312C58.5772 0.150413 51.6473 0.689129 51.6473 0.689129C45.4868 0.689129 44.5768 5.48474 44.5768 5.48474C44.32 6.44892 45.0668 6.47225 45.0668 6.47225L48.0771 6.77772C48.0771 6.77772 48.5903 6.89518 48.7772 6.28396C48.7772 6.28396 49.1736 4.19177 51.3905 4.19177C53.8026 4.19177 53.7776 6.26261 53.7776 6.26261V7.99622C48.9626 8.15725 46.7308 9.49434 46.7308 9.49434C43.7576 11.1805 43.9447 14.5294 43.9447 14.5294C43.9447 19.9857 49.1421 19.7513 49.1421 19.7513C52.4665 19.7513 54.4331 17.316 54.4331 17.316C55.0185 18.3468 56.0951 19.3298 56.0951 19.3298C56.634 19.9143 57.1958 19.4236 57.1958 19.4236L59.6305 17.3396C60.169 16.9411 59.7712 16.4493 59.7712 16.4493V16.4493ZM50.7645 16.3819C49.2008 16.3819 48.6196 14.8275 48.8791 13.2999C49.139 11.7723 50.4887 10.5718 53.7776 10.6069V11.5357C53.8945 15.593 52.0664 16.3819 50.7645 16.3819Z" fill="#B7BAC7"/>
<path d="M68.0578 30.1458C68.0578 30.1458 67.7825 30.6249 68.1207 30.732C68.1207 30.732 68.5028 30.8812 68.9793 30.4389C68.9793 30.4389 72.4542 27.4024 72.538 21.8742C72.538 21.8742 72.5635 21.1837 72.2865 20.9949C72.2865 20.9949 71.1979 20.0315 67.2833 20.3246C67.2833 20.3246 63.871 20.5551 62.008 22.2094C62.008 22.2094 61.8406 22.3559 61.8406 22.5441C61.8406 22.5441 61.8004 22.9508 62.8245 22.7746C62.8245 22.7746 66.2365 22.2926 68.2671 22.5441C68.2671 22.5441 69.3142 22.6698 69.6072 23.0261C69.6072 23.0261 70.0887 23.424 69.8373 24.7428C69.8373 24.7434 69.1462 28.0937 68.0578 30.1458V30.1458Z" fill="#B7BAC7"/>
<path d="M67.3698 24.8435C67.3698 24.8435 67.8795 25.5039 67.0571 26.0735C67.0571 26.0735 58.273 33.1019 43.5236 33.1019C43.5236 33.1019 28.341 33.8511 15.6635 22.3292C15.6635 22.3292 15.2191 21.9389 15.4949 21.5761C15.4949 21.5761 15.7416 21.2422 16.3802 21.6053C16.3802 21.6053 28.3058 29.0386 43.9683 29.0386C43.9683 29.0386 54.8548 29.4601 66.0221 24.6828C66.0221 24.6828 66.9119 24.2216 67.3698 24.8435Z" fill="#B7BAC7"/>
</svg>
