<svg width="112" height="56" viewBox="0 0 112 56" fill="none" xmlns="http://www.w3.org/2000/svg">
<path fill-rule="evenodd" clip-rule="evenodd" d="M31.8158 16.243C33.3557 16.6578 34.566 17.8681 34.9751 19.4024C35.7196 22.1867 35.7196 27.9999 35.7196 27.9999C35.7196 27.9999 35.7196 33.813 34.9751 36.5973C34.5603 38.1372 33.3501 39.3476 31.8158 39.7567C29.0314 40.5012 17.8598 40.5012 17.8598 40.5012C17.8598 40.5012 6.69392 40.5012 3.90385 39.7567C2.36395 39.3419 1.15356 38.1316 0.744471 36.5973C0 33.813 0 27.9998 0 27.9998C0 27.9998 0 22.1867 0.744471 19.4024C1.15929 17.8625 2.36968 16.6521 3.90385 16.243C6.69392 15.4985 17.8598 15.4985 17.8598 15.4985C17.8598 15.4985 29.0314 15.4985 31.8158 16.243ZM23.5706 27.9999L14.2913 33.3584V22.6414L23.5706 27.9999Z" fill="#B7BAC7"/>
<path fill-rule="evenodd" clip-rule="evenodd" d="M51.8463 38.2448C51.1417 37.7676 50.6359 37.0289 50.3405 36.0232C50.0449 35.0173 49.8915 33.682 49.8915 32.0113V29.7384C49.8915 28.0508 50.062 26.6984 50.4029 25.6754C50.7439 24.6526 51.2781 23.9083 51.9996 23.4422C52.7213 22.9763 53.6704 22.7377 54.8465 22.7377C56.0058 22.7377 56.9321 22.9763 57.6309 23.4537C58.3298 23.9309 58.8413 24.6754 59.1652 25.6868C59.4891 26.6984 59.6483 28.0508 59.6483 29.7326V32.0057C59.6483 33.6763 59.4891 35.0173 59.1765 36.0288C58.864 37.0402 58.3527 37.7847 57.6423 38.2506C56.9377 38.7165 55.9773 38.9554 54.7669 38.9554C53.5282 38.9608 52.5509 38.7222 51.8463 38.2448ZM55.8069 35.7902C56.0001 35.2787 56.1024 34.4434 56.1024 33.2899V28.4088C56.1024 27.2835 56.0058 26.4653 55.8069 25.9426C55.6138 25.4254 55.2671 25.1641 54.7727 25.1641C54.2955 25.1641 53.9601 25.4254 53.7613 25.9426C53.568 26.4596 53.4658 27.2835 53.4658 28.4088V33.2899C53.4658 34.4491 53.5567 35.2844 53.7442 35.7902C53.9317 36.3016 54.2727 36.5572 54.7671 36.5572C55.2671 36.5572 55.608 36.3016 55.8069 35.7902ZM106.096 32.0511V32.8411C106.096 33.8468 106.125 34.5968 106.187 35.1025C106.244 35.6026 106.369 35.9719 106.556 36.1994C106.744 36.4266 107.034 36.5459 107.426 36.5459C107.954 36.5459 108.318 36.3414 108.511 35.9321C108.704 35.5231 108.812 34.8411 108.829 33.8865L111.869 34.0628C111.886 34.199 111.892 34.3865 111.892 34.6251C111.892 36.0743 111.494 37.1538 110.704 37.8698C109.915 38.5858 108.795 38.9438 107.346 38.9438C105.607 38.9438 104.391 38.3983 103.692 37.3073C102.994 36.2163 102.647 34.5343 102.647 32.25V29.5168C102.647 27.1643 103.011 25.4538 103.732 24.3686C104.454 23.2889 105.693 22.749 107.449 22.749C108.659 22.749 109.585 22.9708 110.233 23.4139C110.881 23.8571 111.335 24.5446 111.602 25.4823C111.864 26.4198 112 27.7155 112 29.3633V32.0455H106.096V32.0511ZM106.545 25.4595C106.369 25.6812 106.25 26.0448 106.187 26.5449C106.124 27.0449 106.096 27.8121 106.096 28.8292V29.9544H108.676V28.8292C108.676 27.8233 108.642 27.062 108.574 26.5449C108.505 26.0278 108.38 25.6585 108.204 25.4482C108.028 25.2379 107.75 25.13 107.375 25.13C107 25.1243 106.721 25.2379 106.545 25.4595ZM43.2658 31.7556L39.2542 17.2712H42.7544L44.158 23.8345C44.516 25.4539 44.7774 26.8291 44.9479 27.9712H45.0501C45.1694 27.1528 45.4308 25.7834 45.8401 23.8571L47.2946 17.2655H50.795L46.7378 31.7556V38.7052H43.2658V31.7556ZM71.03 23.0446V38.6995H68.274L67.9671 36.7845H67.8933C67.1432 38.2335 66.0181 38.9552 64.5236 38.9552C63.4839 38.9552 62.7166 38.6143 62.2224 37.9324C61.728 37.2505 61.4836 36.1879 61.4836 34.7389V23.0446H65.0067V34.54C65.0067 35.2389 65.0806 35.7391 65.234 36.0345C65.3875 36.3299 65.6431 36.4834 66.0011 36.4834C66.308 36.4834 66.6034 36.3923 66.8818 36.205C67.1603 36.0175 67.3705 35.7787 67.5069 35.489V23.0445L71.03 23.0446ZM89.1114 23.0446V38.6995H86.3554L86.0485 36.7845H85.9747C85.2246 38.2335 84.0995 38.9552 82.605 38.9552C81.5652 38.9552 80.798 38.6143 80.3038 37.9324C79.8093 37.2505 79.565 36.1879 79.565 34.7389V23.0446H83.0881V34.54C83.0881 35.2389 83.162 35.7391 83.3154 36.0345C83.4687 36.3299 83.7245 36.4834 84.0825 36.4834C84.3894 36.4834 84.6848 36.3923 84.9632 36.205C85.2416 36.0175 85.4519 35.7787 85.5883 35.489V23.0445L89.1114 23.0446Z" fill="#B7BAC7"/>
<path fill-rule="evenodd" clip-rule="evenodd" d="M80.6106 20.107H77.1103V38.6996H73.661V20.107H70.1607V17.2715H80.6049V20.107H80.6106ZM100.777 25.5506C100.562 24.5619 100.221 23.8459 99.7432 23.4028C99.266 22.9595 98.6125 22.7379 97.777 22.7379C97.1295 22.7379 96.527 22.9197 95.9645 23.2891C95.4019 23.6527 94.9701 24.1358 94.6632 24.7324H94.6348V16.4815H91.2367V38.7054H94.146L94.504 37.2223H94.578C94.8507 37.7508 95.2598 38.1656 95.8053 38.4723C96.3508 38.7792 96.9533 38.9327 97.618 38.9327C98.8114 38.9327 99.6864 38.3814 100.249 37.2847C100.811 36.1881 101.09 34.472 101.09 32.1365V29.6589C101.096 27.9088 100.988 26.5394 100.777 25.5507V25.5506ZM97.5441 31.9376C97.5441 33.0798 97.4986 33.9719 97.4021 34.6197C97.3111 35.2676 97.1521 35.7278 96.9305 36.0006C96.7088 36.2733 96.4133 36.4097 96.0383 36.4097C95.7485 36.4097 95.4815 36.3416 95.2314 36.2051C94.9871 36.0687 94.7826 35.8642 94.6291 35.5914V26.6985C94.7485 26.2723 94.953 25.9257 95.2429 25.6531C95.5326 25.3802 95.8451 25.2438 96.186 25.2438C96.544 25.2438 96.8224 25.3858 97.0157 25.6642C97.2089 25.9428 97.3453 26.42 97.4248 27.0791C97.4988 27.744 97.5384 28.6873 97.5384 29.9146V31.9376H97.5441Z" fill="#B7BAC7"/>
</svg>
