<svg width="108" height="55" viewBox="0 0 108 55" fill="none" xmlns="http://www.w3.org/2000/svg">
<path d="M107.066 51.4042L107.066 52.7527C106.61 52.9291 106.139 53.0666 105.653 53.1596C104.926 53.2998 104.199 53.4215 103.475 53.5168C99.5756 54.0334 95.7288 53.8284 91.995 52.0568C88.8414 50.5588 85.5299 49.7314 81.9924 50.0848C79.4186 50.3417 77.0299 51.1835 74.715 52.2859C72.8172 53.1909 70.9265 54.1276 68.8452 54.5473C66.0613 55.1079 63.3877 54.5993 60.7981 53.5801C58.9025 52.8345 57.0447 51.992 55.1616 51.2106C51.5687 49.7178 47.9188 49.6677 44.2656 50.9273C42.3215 51.5972 40.4045 52.359 38.5074 53.157C33.5182 55.2545 28.6661 54.9516 23.8893 52.4758C22.5533 51.7833 21.1811 51.1465 19.7787 50.6051C17.4887 49.722 15.1979 49.8647 12.9636 50.8783C11.4381 51.5715 9.93589 52.3236 8.3881 52.9641C6.72201 53.6528 5.1339 53.8186 3.60608 53.5801C2.37139 53.3876 1.17591 52.9321 0.0131836 52.2753L0.0131836 51.0162C0.0323991 51.0297 0.0523561 51.0433 0.0715716 51.0569C1.2309 51.8601 2.41058 52.3334 3.60608 52.5142C5.35506 52.7795 7.13834 52.4245 8.95025 51.5727C10.0655 51.0486 11.1924 50.5482 12.2911 49.9966C15.2963 48.4873 18.3055 48.5543 21.3197 49.9405C22.6882 50.5701 24.0378 51.2426 25.3979 51.8937C29.7971 54.001 34.1677 53.7546 38.5926 51.8922C40.9338 50.9069 43.3354 50.0215 45.7784 49.3312C49.4048 48.3049 52.9288 48.9612 56.3409 50.4299C58.27 51.2603 60.1941 52.1122 62.1665 52.8281C65.5771 54.0654 68.9221 53.7715 72.1831 52.1955C74.5157 51.0689 76.8521 49.9405 79.393 49.3376C83.4015 48.3885 87.2815 48.8444 91.0568 50.4028C91.5466 50.6051 92.0515 50.7856 92.5262 51.0214C95.8343 52.6608 99.3458 52.8239 102.925 52.4423C103.121 52.4223 103.302 52.4019 103.475 52.3831C105.099 52.1996 105.755 52.053 107.066 51.4042Z" fill="#00CFFF"/>
<path d="M107.066 43.8816L107.066 45.1517C105.905 45.6449 104.7 45.8823 103.475 46.0104C102.454 46.1181 101.422 46.1479 100.389 46.1871C97.3828 46.299 94.5382 45.7044 91.8028 44.4207C88.9846 43.0994 86.0231 42.3112 82.8657 42.4619C79.9013 42.6051 77.1821 43.5813 74.5179 44.8039C72.9973 45.5032 71.4608 46.1965 69.8712 46.71C66.8419 47.6878 63.8609 47.1806 60.9571 46.0887C59.6263 45.5884 58.2986 45.0586 57.0311 44.4207C52.1764 41.9781 47.2878 41.9337 42.3189 44.033C40.6769 44.7271 39.0119 45.3672 37.3439 45.9972C33.0208 47.6294 28.8032 47.2496 24.6794 45.2813C23.3189 44.6329 21.9723 43.952 20.5956 43.3413C17.8188 42.1062 15.0698 42.2193 12.3533 43.5768C11.1574 44.1755 9.95208 44.761 8.72682 45.2945C6.9443 46.071 5.2458 46.276 3.60608 46.0186C2.3793 45.8284 1.18533 45.3781 0.0131836 44.7161L0.0131836 43.4622C1.17176 44.2674 2.36989 44.7689 3.60608 44.9618C5.10677 45.1965 6.66248 44.9765 8.27507 44.2877C9.64201 43.7037 10.9995 43.0956 12.3262 42.4284C15.4605 40.8508 18.552 41.0693 21.6487 42.5214C23.4553 43.3669 25.2389 44.278 27.0968 44.9923C30.1152 46.1535 33.2122 46.1991 36.2724 45.1246C38.4332 44.3654 40.5488 43.4732 42.6979 42.6767C45.538 41.6236 48.4448 41.003 51.4997 41.4484C53.7524 41.7773 55.8205 42.659 57.8954 43.5365C59.4575 44.1973 61.0204 44.8725 62.6247 45.4143C65.6321 46.4312 68.6026 46.2262 71.5064 44.9347C73.4841 44.0545 75.4373 43.1009 77.4696 42.3666C82.0986 40.6922 86.6825 41.0302 91.2113 42.8922C92.8729 43.5756 94.5495 44.359 96.2977 44.6785C98.6978 45.1182 101.105 45.25 103.475 44.8763C104.685 44.6849 105.883 44.3631 107.066 43.8816Z" fill="#00CFFF"/>
<path d="M107.066 47.6648L107.066 48.9281C105.924 49.3821 104.726 49.6602 103.475 49.7785C103.464 49.78 103.456 49.78 103.445 49.7811C100.536 50.0509 97.6315 50.179 94.7869 49.323C93.7734 49.0182 92.7749 48.6312 91.8179 48.181C86.1964 45.5308 80.6171 45.6276 75.0439 48.34C73.6137 49.0355 72.1605 49.6994 70.6703 50.2532C67.256 51.5233 63.8937 51.0445 60.601 49.7371C59.141 49.1572 57.6942 48.5397 56.2723 47.8735C51.95 45.8518 47.5873 45.7621 43.167 47.5126C41.4696 48.1851 39.7639 48.8403 38.0718 49.528C33.2243 51.4962 28.5285 51.0972 23.93 48.7024C22.6328 48.0273 21.2945 47.4195 19.9381 46.8743C17.6112 45.9407 15.2842 46.0522 13.0028 47.0823C11.4174 47.7982 9.86167 48.5894 8.24945 49.2405C6.62744 49.8972 5.08831 50.0445 3.60608 49.8068C2.3729 49.6097 1.18081 49.1463 0.0131836 48.4896L0.0131836 47.2278C0.218149 47.3653 0.422344 47.499 0.628063 47.6256C1.61521 48.2322 2.60838 48.5894 3.60608 48.7379C5.38295 49.005 7.1749 48.6098 8.9706 47.7873C10.0911 47.2737 11.2116 46.7628 12.3126 46.2127C15.3204 44.7083 18.3349 44.8051 21.3484 46.1668C22.6626 46.7613 23.9473 47.4244 25.251 48.0461C29.189 49.9243 33.2002 50.1775 37.2942 48.5758C39.4109 47.7481 41.5193 46.903 43.6549 46.1264C48.3141 44.4328 52.8184 44.9724 57.2643 47.016C59.3392 47.9696 61.4963 48.785 63.6789 49.4522C66.2526 50.2367 68.8113 49.8622 71.2679 48.7959C73.313 47.909 75.3178 46.9128 77.4101 46.1585C82.4807 44.3334 87.4624 44.8484 92.2625 47.1388C95.9172 48.8818 99.6736 49.1421 103.475 48.5706C104.199 48.4628 104.922 48.3238 105.649 48.1595C106.132 48.0506 106.599 47.8735 107.066 47.6648Z" fill="#00CFFF"/>
<path d="M19.9987 10.6152L19.5383 18.4521L38.201 18.4521L37.6641 27.5981L19.0018 27.5981L18.5304 35.6305L40.3777 35.6305L40.016 41.1835C39.9252 41.2193 39.8358 41.2536 39.7458 41.289C38.5624 41.7524 37.3379 42.2324 36.1307 42.6571C34.8402 43.1096 33.5317 43.3394 32.2408 43.3394C30.8453 43.3394 29.4388 43.0704 28.0613 42.541C26.7445 42.0346 25.4228 41.4013 24.1444 40.7894C23.7103 40.5818 23.2601 40.3667 22.8155 40.1583C20.996 39.3072 19.1992 38.8746 17.4736 38.8746C15.7939 38.8746 14.1342 39.2812 12.5393 40.0845C11.4109 40.6515 10.1762 41.2193 8.65104 41.8685C7.6507 42.2957 6.67223 42.5109 5.73934 42.5109C5.01217 42.5109 4.30496 42.3854 3.60718 42.1296L6.00683 0.874329L42.205 0.874329L41.7066 10.6152L19.9987 10.6152Z" fill="white"/>
<path d="M59.0838 30.998C59.0246 31.9058 59.1878 32.8251 59.6222 33.6249C60.4338 35.1199 62.3824 36.7345 67.0503 35.6318L66.6279 43.4818C66.4508 43.4909 66.2741 43.4965 66.0974 43.4965C64.9988 43.4965 63.8809 43.3074 62.7792 42.9359C61.3968 42.4687 60.002 41.8779 58.6539 41.3059L58.2417 41.1323L58.1777 41.104C56.1269 40.2374 54.0083 39.3403 51.6598 38.9986C50.9459 38.8942 50.2126 38.8415 49.4802 38.8415C48.9934 38.8415 48.5025 38.8641 48.0078 38.9089C47.9102 38.3588 47.877 37.7891 47.9151 37.2059L49.1369 18.4519L43.381 18.4519L43.7419 10.6638L49.6543 10.6311L50.0544 3.31365L61.017 0.890259L60.4873 10.6311L68.4579 10.615L68.0148 18.4519L59.9048 18.4509L59.0838 30.998Z" fill="white"/>
<path d="M104.726 18.5177L103.705 33.9242L103.6 35.5473L103.162 42.1556C102.013 42.4239 100.811 42.5539 99.5304 42.5539C98.2833 42.5539 96.942 42.4239 95.5479 42.1677C94.2518 41.9303 92.9745 41.393 91.6219 40.8241C91.5051 40.7766 91.3845 40.7269 91.2677 40.6771L92.1042 27.723L83.8427 30.3057C82.1298 30.9075 81.5063 32.0283 81.2934 32.9144C81.0964 33.7343 81.2218 34.6089 81.6039 35.36C83.2123 38.5374 87.9484 35.6207 87.9484 35.6207L87.7562 39.4688C86.0946 39.0397 84.447 38.8242 82.8284 38.8242C80.6747 38.8242 78.5234 39.2055 76.436 39.9616C75.0638 40.4571 73.7251 41.0517 72.429 41.6417C70.2468 39.5351 68.9865 36.5189 69.1402 33.2631C69.1447 33.2249 69.1447 33.1897 69.147 33.1541C69.5878 24.9274 83.4259 21.5268 88.4043 20.7356C91.7086 20.2117 92.5299 18.6975 92.7146 17.7476C92.8125 17.2311 92.7259 16.686 92.4546 16.2359C89.8021 11.8643 73.3815 18.5177 73.3815 18.5177L73.8386 10.6391C87.3192 7.3501 95.6157 8.5869 95.6157 8.5869C105.755 10.0563 104.726 18.5177 104.726 18.5177Z" fill="white"/>
</svg>
