<svg width="113" height="56" viewBox="0 0 113 56" fill="none" xmlns="http://www.w3.org/2000/svg">
<path d="M23.0695 15.3644L0.666687 37.7673H11.8681L14.6649 34.9706H34.271L28.6631 29.377H20.2728L28.6775 20.9723L23.0695 15.3644Z" fill="#B7BAC7"/>
<path d="M23.0696 15.3644L17.476 20.9579L34.271 37.7528H45.4724L23.0696 15.3644Z" fill="#B7BAC7"/>
<path d="M62.2675 9.77072L51.066 20.9721L45.4725 15.3786H34.271L45.4725 26.5801L25.8087 46.2294H37.0101L51.066 32.1736L56.6595 37.7671H67.861L56.6595 26.5656L73.4689 9.77072H62.2675Z" fill="#B7BAC7"/>
<path d="M79.0768 15.3644L56.6739 37.7673H67.8753L79.0768 26.5658L90.2783 37.7673L112.667 15.3644H101.465L90.2638 26.5658L79.0768 15.3644Z" fill="#B7BAC7"/>
<path d="M70.6721 37.7671H87.4671L79.0768 29.3768L70.6721 37.7671Z" fill="#B7BAC7"/>
<path d="M81.8735 37.7671H87.467L79.0768 29.3768L81.8735 37.7671Z" fill="#B7BAC7"/>
</svg>
