<svg width="71" height="70" viewBox="0 0 71 70" fill="none" xmlns="http://www.w3.org/2000/svg">
<g clip-path="url(#clip0_276_2685)">
<path d="M35.833 69.9907C50.307 69.9907 62.083 58.2147 62.083 43.7407C62.083 32.747 55.2863 23.3158 45.6768 19.4131V18.5845C45.6768 15.6584 43.1197 14.5529 41.1858 14.281C40.6783 12.1612 38.6063 11.289 36.9352 11.028V9.65537C39.2815 9.46807 41.1351 8.64584 42.4536 7.20209C44.7821 4.65256 44.4915 1.1341 44.4783 0.985625C44.427 0.422207 43.9544 -0.00927734 43.3888 -0.00927734C40.532 -0.00927734 38.3168 0.830313 36.8044 2.48639C36.4187 2.90871 36.1105 3.35838 35.8554 3.8142C35.6003 3.35838 35.2921 2.90871 34.9065 2.48639C33.3941 0.830313 31.1787 -0.00927734 28.3221 -0.00927734C27.7565 -0.00927734 27.2838 0.422207 27.2326 0.985625C27.2192 1.1341 26.9287 4.65242 29.2572 7.20209C30.5704 8.6401 32.4152 9.46041 34.7479 9.65209V11.0254C33.0739 11.2829 30.9895 12.1538 30.4802 14.281C28.5463 14.5528 25.9893 15.6583 25.9893 18.5845V19.4131C16.3797 23.3159 9.58301 32.747 9.58301 43.7407C9.58301 58.2147 21.3589 69.9907 35.833 69.9907ZM11.7799 44.1155L14.2805 45.9874C15.3214 46.7677 16.4915 47.3482 17.7626 47.714L19.8422 48.3047C20.662 48.5423 21.2932 49.1735 21.5288 49.987L22.1707 52.2546C22.4741 53.311 23.0417 54.2765 23.8086 55.0434C25.3124 56.5623 27.251 59.7911 24.1251 64.7522C16.8646 60.6904 11.9165 52.9779 11.7799 44.1155ZM26.0895 65.7344C30.0006 59.3656 26.9396 55.0964 25.359 53.5007C24.8426 52.9843 24.4778 52.3621 24.2748 51.655L23.6318 49.3847C23.1847 47.8408 21.9954 46.6515 20.445 46.2023L18.3638 45.6112C17.3527 45.3201 16.4203 44.8581 15.5921 44.2365L11.8815 41.4586C12.0776 39.3854 12.5346 37.3871 13.2248 35.4996C14.5231 35.2963 15.7787 35.4493 17.0965 35.6347C18.0343 35.7666 19.0089 35.9039 20.0338 35.9039C22.5113 35.9039 25.2809 35.1023 28.5311 31.4877C30.5797 29.2094 31.4311 27.0096 31.061 24.9498C30.7904 23.4452 29.8517 22.0655 28.3259 20.8835C30.1593 20.2798 32.0887 19.8925 34.0856 19.7484C34.2117 22.883 34.3101 29.4234 33.172 32.8448C32.1514 35.9017 33.4598 36.9357 34.0697 37.238C34.4062 37.4052 34.7763 37.4857 35.171 37.4857C36.9142 37.4857 39.1241 35.9107 40.9314 33.2645C41.185 32.8928 41.6102 32.6621 42.0406 32.6621H46.4632C48.2464 32.6621 49.9921 31.939 51.2537 30.6781L53.9734 27.9583C56.6662 31.0495 58.5868 34.829 59.4236 38.9984C49.1192 37.6336 42.3244 38.112 39.2336 40.4316C37.1487 41.9954 35.9695 43.7555 35.7296 45.6633C35.4509 47.8796 36.496 49.7178 37.4221 50.8698C37.5588 51.0396 37.5583 51.2922 37.4215 51.4839L36.2738 53.0941C34.7293 55.2544 34.1925 57.9737 34.8009 60.5537L36.5039 67.786C36.2803 67.7921 36.0578 67.8031 35.8327 67.8031C32.3657 67.8032 29.0705 67.0602 26.0895 65.7344ZM35.2476 33.5364C36.4806 29.8303 36.4194 23.2771 36.2728 19.6893C42.5462 19.8028 48.2379 22.3267 52.4635 26.3751L49.7072 29.131C48.8533 29.9849 47.6708 30.4746 46.4633 30.4746H42.0407C40.8808 30.4746 39.7907 31.0562 39.1253 32.0309C37.2407 34.7914 35.379 35.4489 35.0543 35.2881C34.9951 35.2177 34.8551 34.7135 35.2476 33.5364ZM38.7129 67.6248L36.9299 60.0524C36.4663 58.0859 36.8759 56.0133 38.0547 54.3651L39.2028 52.7539C39.9063 51.768 39.8747 50.4297 39.127 49.4993C38.4663 48.6774 37.7171 47.3919 37.9002 45.9361C38.063 44.639 38.9533 43.3758 40.5464 42.1812C43.1516 40.229 49.9654 39.9066 59.7669 41.253C59.8512 42.071 59.8952 42.9007 59.8952 43.7406C59.8955 56.0337 50.6272 66.1964 38.7129 67.6248ZM38.4316 3.94805C39.3214 2.98145 40.6096 2.40682 42.2693 2.23373C42.1721 3.19555 41.8469 4.63055 40.8263 5.74029C39.9365 6.70689 38.6483 7.28152 36.9886 7.45461C37.0859 6.49279 37.4111 5.05779 38.4316 3.94805ZM30.8843 5.74029C29.8632 4.63055 29.5385 3.19445 29.4413 2.23373C31.1012 2.40682 32.3892 2.98145 33.279 3.94805C34.2996 5.05779 34.6248 6.49279 34.722 7.45461C33.0623 7.28166 31.7741 6.70703 30.8843 5.74029ZM28.1768 18.5845C28.1768 16.4424 31.3272 16.3981 31.458 16.397C32.062 16.397 32.5518 15.9072 32.5518 15.3032C32.5518 13.1611 35.7022 13.1168 35.8299 13.1157C35.9638 13.1168 39.1143 13.1611 39.1143 15.3032C39.1143 15.9045 39.6034 16.3933 40.2049 16.397C40.3388 16.3981 43.4893 16.4424 43.4893 18.5845V18.6327C41.0658 17.8921 38.4957 17.4907 35.833 17.4907C33.1703 17.4907 30.6002 17.8923 28.1768 18.6327V18.5845ZM25.8532 21.854C27.1814 22.6207 28.6296 23.788 28.9083 25.3371C29.1529 26.6979 28.4784 28.275 26.9046 30.0256C23.0904 34.2687 20.4542 33.8997 17.401 33.4688C16.3714 33.3244 15.3192 33.1773 14.2067 33.2013C16.653 28.2018 20.7836 24.1749 25.8532 21.854Z" fill="url(#paint0_linear_276_2685)"/>
<path d="M32.8975 43.0063C32.8323 42.6127 32.6481 42.2549 32.365 41.9719L30.352 39.959C29.9921 39.599 29.5141 39.4009 29.0051 39.4009H25.9172C25.0413 39.4009 24.2813 39.9942 24.0687 40.8445L23.5353 42.9802C23.3579 43.6845 23.6042 44.4409 24.1633 44.9071L28.4145 48.4495C28.7563 48.7347 29.1894 48.8916 29.6348 48.8916H31.629C32.1902 48.8916 32.7206 48.6459 33.0838 48.2171C33.4459 47.7887 33.6008 47.2258 33.5083 46.6731L32.8975 43.0063ZM29.7375 46.704L25.7001 43.34L26.138 41.5884H28.8883L30.7548 43.4549L31.2958 46.7041H29.7375V46.704Z" fill="url(#paint1_linear_276_2685)"/>
</g>
<defs>
<linearGradient id="paint0_linear_276_2685" x1="9.58751" y1="34.9973" x2="62.0739" y2="34.9973" gradientUnits="userSpaceOnUse">
<stop stop-color="#AE924A"/>
<stop offset="1" stop-color="#FFB600"/>
</linearGradient>
<linearGradient id="paint1_linear_276_2685" x1="23.4794" y1="44.1471" x2="33.5328" y2="44.1471" gradientUnits="userSpaceOnUse">
<stop stop-color="#AE924A"/>
<stop offset="1" stop-color="#FFB600"/>
</linearGradient>
<clipPath id="clip0_276_2685">
<rect width="70" height="70" fill="white" transform="translate(0.833008)"/>
</clipPath>
</defs>
</svg>
