<svg width="71" height="70" viewBox="0 0 71 70" fill="none" xmlns="http://www.w3.org/2000/svg">
<g clip-path="url(#clip0_276_2676)">
<path d="M70.0385 51.1042L60.9973 17.3634C60.842 16.7823 60.548 16.2476 60.1405 15.8051C59.7331 15.3627 59.2244 15.0257 58.658 14.8231L47.7766 10.928L47.5278 10.403C47.3471 10.0215 47.103 9.67341 46.8059 9.37352L51.3299 1.53817C51.3972 1.42147 51.4409 1.29265 51.4585 1.15906C51.476 1.02548 51.4671 0.889748 51.4321 0.759619C51.3972 0.62949 51.337 0.507512 51.255 0.400649C51.1729 0.293786 51.0706 0.204131 50.9539 0.136803C50.7182 0.000827313 50.4382 -0.0359511 50.1754 0.0345582C49.9126 0.105067 49.6885 0.277089 49.5526 0.512779L45.0299 8.34813C44.6222 8.24301 44.2 8.20606 43.7803 8.23876L25.2084 9.76454C24.596 9.81499 24.005 10.0131 23.4859 10.3419C22.9669 10.6708 22.5352 11.1205 22.228 11.6526L0.678342 48.9782C0.428044 49.4105 0.265453 49.8879 0.199875 50.3832C0.134296 50.8784 0.167016 51.3817 0.296163 51.8642C0.42531 52.3468 0.648348 52.7991 0.952514 53.1954C1.25668 53.5916 1.636 53.924 2.06877 54.1735L28.6045 69.4915C29.0369 69.7414 29.5143 69.9037 30.0095 69.9691C30.5046 70.0345 31.0078 70.0017 31.4902 69.8726C31.9727 69.7435 32.425 69.5205 32.8213 69.2166C33.2175 68.9126 33.5501 68.5336 33.7998 68.1011L39.1045 58.9136L39.2235 59.3606C39.3493 59.833 39.567 60.2758 39.8643 60.6638C40.1616 61.0518 40.5325 61.3773 40.9559 61.6217C41.3792 61.8661 41.8466 62.0245 42.3313 62.0879C42.8159 62.1513 43.3084 62.1184 43.7803 61.9911L67.408 55.661C68.361 55.4053 69.1734 54.7817 69.6667 53.9272C70.1599 53.0727 70.2937 52.0573 70.0385 51.1042ZM57.9662 16.755C58.2207 16.8457 58.4494 16.9968 58.6325 17.1954C58.8156 17.3941 58.9478 17.6342 59.0176 17.8952L65.684 42.778L45.2596 48.2468L55.3481 30.7714C55.6556 30.2395 55.8295 29.6408 55.8547 29.0269C55.88 28.413 55.7558 27.8021 55.493 27.2468L49.0166 13.5503L57.9662 16.755ZM32.0225 67.0757C31.79 67.477 31.4079 67.7698 30.9599 67.8898C30.5118 68.0097 30.0345 67.947 29.6326 67.7155L3.09416 52.3934C2.69252 52.1613 2.39951 51.7791 2.27953 51.331C2.15955 50.8828 2.22242 50.4054 2.45432 50.0036L24.0039 12.6794C24.1448 12.4349 24.3427 12.2281 24.5807 12.0767C24.8188 11.9253 25.09 11.8337 25.3711 11.8098L43.917 10.2868L39.4053 18.1098C38.9929 17.9854 38.5645 17.9223 38.1338 17.9225C37.0977 17.9171 36.0921 18.2734 35.2904 18.9298C34.4887 19.5862 33.9411 20.5018 33.742 21.5186C33.5429 22.5355 33.7047 23.5899 34.1996 24.5003C34.6945 25.4106 35.4915 26.1198 36.4532 26.5055C37.4148 26.8913 38.4809 26.9296 39.4678 26.6137C40.4546 26.2978 41.3003 25.6475 41.8592 24.775C42.418 23.9025 42.655 22.8623 42.5293 21.8338C42.4035 20.8053 41.9229 19.8529 41.1703 19.1407L45.6821 11.3136L53.6322 28.13C53.7533 28.3857 53.8105 28.667 53.7988 28.9496C53.7871 29.2323 53.707 29.5079 53.5653 29.7528L32.0225 67.0757ZM40.5154 22.3686C40.5154 22.8418 40.3751 23.3044 40.1122 23.6979C39.8493 24.0913 39.4757 24.398 39.0385 24.5791C38.6013 24.7602 38.1202 24.8076 37.6561 24.7152C37.192 24.6229 36.7657 24.3951 36.4311 24.0604C36.0965 23.7258 35.8686 23.2995 35.7763 22.8354C35.6839 22.3713 35.7313 21.8902 35.9124 21.453C36.0935 21.0159 36.4002 20.6422 36.7936 20.3793C37.1871 20.1164 37.6497 19.9761 38.1229 19.9761C38.7567 19.9768 39.3645 20.2287 39.8129 20.6767C40.2614 21.1246 40.514 21.732 40.5154 22.3659V22.3686ZM67.8906 52.902C67.7813 53.0923 67.6354 53.259 67.4613 53.3925C67.2871 53.526 67.0883 53.6237 66.8762 53.68L43.2485 60.0114C43.0362 60.0691 42.8147 60.0842 42.5966 60.056C42.3785 60.0278 42.1681 59.9568 41.9776 59.847C41.787 59.7372 41.62 59.5909 41.4862 59.4164C41.3523 59.2419 41.2543 59.0427 41.1977 58.8302L40.5469 56.402L43.8035 50.761L66.209 44.7577L68.052 51.6347C68.1103 51.8461 68.1261 52.067 68.0984 52.2845C68.0707 52.5021 68.0001 52.712 67.8906 52.902Z" fill="url(#paint0_linear_276_2676)"/>
<path d="M43.2514 33.7859L25.6694 23.6345C25.237 23.3843 24.7595 23.2218 24.2642 23.1563C23.769 23.0908 23.2656 23.1237 22.7831 23.2529C22.3005 23.3822 21.8482 23.6054 21.452 23.9097C21.0558 24.214 20.7234 24.5935 20.4741 25.0263L7.93969 46.7414C7.68981 47.1739 7.5276 47.6513 7.46231 48.1465C7.39702 48.6417 7.42994 49.1449 7.55919 49.6274C7.68844 50.1099 7.91149 50.5621 8.21559 50.9584C8.51968 51.3546 8.89887 51.687 9.33149 51.9367L26.9135 62.0881C27.4888 62.422 28.1419 62.5984 28.8071 62.5994C29.1416 62.5973 29.4744 62.5513 29.7969 62.4627C30.2796 62.3348 30.7321 62.1125 31.1282 61.8086C31.5243 61.5047 31.8563 61.1252 32.1047 60.6922L44.6418 38.9758C45.1445 38.1029 45.2804 37.0663 45.0197 36.0933C44.7591 35.1204 44.1231 34.2906 43.2514 33.7859ZM42.8659 37.9517L30.3288 59.6681C30.0966 60.0698 29.7144 60.3628 29.2663 60.4828C28.8181 60.6027 28.3407 60.5399 27.9389 60.308L10.3569 50.1566C10.1578 50.0419 9.9832 49.889 9.84319 49.7068C9.70318 49.5246 9.60047 49.3166 9.54092 49.0946C9.48136 48.8726 9.46615 48.6411 9.49613 48.4133C9.52612 48.1855 9.60072 47.9658 9.71567 47.7668L22.2528 26.0517C22.367 25.8514 22.5198 25.6757 22.7024 25.5349C22.8849 25.3941 23.0937 25.2909 23.3165 25.2314C23.465 25.1919 23.618 25.1717 23.7717 25.1713C24.0781 25.1713 24.3791 25.2524 24.644 25.4064L42.226 35.5578C42.6277 35.79 42.9207 36.1721 43.0406 36.6203C43.1606 37.0684 43.0978 37.5458 42.8659 37.9476V37.9517Z" fill="url(#paint1_linear_276_2676)"/>
<path d="M34.3463 39.6374L17.6994 44.0999C17.4584 44.1637 17.249 44.3131 17.1102 44.5202C16.9714 44.7272 16.9128 44.9777 16.9453 45.2248C16.9778 45.472 17.0992 45.6988 17.2868 45.8629C17.4744 46.027 17.7154 46.1172 17.9646 46.1165C18.0542 46.116 18.1433 46.1041 18.2299 46.081L34.8822 41.6185C35.1449 41.5474 35.3686 41.3749 35.5041 41.1389C35.6396 40.9029 35.6758 40.6227 35.6048 40.36C35.5337 40.0973 35.3612 39.8736 35.1252 39.7381C34.8891 39.6025 34.609 39.5663 34.3463 39.6374Z" fill="url(#paint2_linear_276_2676)"/>
<path d="M22.3274 37.5334C22.5633 37.6688 22.8431 37.7052 23.1057 37.6348C23.3684 37.5643 23.5924 37.3927 23.7288 37.1574L24.9483 35.0465C25.0157 34.9298 25.0593 34.8009 25.0769 34.6674C25.0944 34.5338 25.0855 34.398 25.0506 34.2679C25.0157 34.1378 24.9555 34.0158 24.8734 33.9089C24.7914 33.8021 24.6891 33.7124 24.5724 33.6451C24.4556 33.5778 24.3268 33.5341 24.1932 33.5165C24.0597 33.499 23.9239 33.5079 23.7938 33.5429C23.6637 33.5778 23.5417 33.638 23.4348 33.72C23.328 33.8021 23.2383 33.9044 23.171 34.0211L21.9515 36.132C21.8157 36.3678 21.779 36.6477 21.8495 36.9105C21.92 37.1732 22.0919 37.3973 22.3274 37.5334Z" fill="url(#paint3_linear_276_2676)"/>
<path d="M30.2529 48.1853C30.1363 48.1179 30.0076 48.0742 29.8741 48.0566C29.7406 48.039 29.605 48.048 29.4749 48.0829C29.3449 48.1178 29.223 48.178 29.1163 48.2601C29.0096 48.3422 28.9201 48.4445 28.8529 48.5612L27.6334 50.6722C27.5661 50.7889 27.5224 50.9177 27.5048 51.0513C27.4873 51.1849 27.4962 51.3206 27.5311 51.4507C27.5661 51.5809 27.6263 51.7028 27.7083 51.8097C27.7904 51.9166 27.8927 52.0062 28.0094 52.0735C28.1261 52.1409 28.2549 52.1845 28.3885 52.2021C28.522 52.2196 28.6578 52.2107 28.7879 52.1758C28.918 52.1409 29.04 52.0807 29.1469 51.9986C29.2537 51.9166 29.3434 51.8143 29.4107 51.6976L30.6303 49.5866C30.7659 49.3507 30.8024 49.0706 30.7316 48.8078C30.6608 48.5451 30.4887 48.3212 30.2529 48.1853Z" fill="url(#paint4_linear_276_2676)"/>
</g>
<defs>
<linearGradient id="paint0_linear_276_2676" x1="0.172997" y1="35.0073" x2="70.1529" y2="35.0073" gradientUnits="userSpaceOnUse">
<stop stop-color="#AE924A"/>
<stop offset="1" stop-color="#FFB600"/>
</linearGradient>
<linearGradient id="paint1_linear_276_2676" x1="7.43292" y1="42.8652" x2="45.1428" y2="42.8652" gradientUnits="userSpaceOnUse">
<stop stop-color="#AE924A"/>
<stop offset="1" stop-color="#FFB600"/>
</linearGradient>
<linearGradient id="paint2_linear_276_2676" x1="16.9381" y1="42.8598" x2="35.6371" y2="42.8598" gradientUnits="userSpaceOnUse">
<stop stop-color="#AE924A"/>
<stop offset="1" stop-color="#FFB600"/>
</linearGradient>
<linearGradient id="paint3_linear_276_2676" x1="21.8147" y1="35.5892" x2="25.085" y2="35.5892" gradientUnits="userSpaceOnUse">
<stop stop-color="#AE924A"/>
<stop offset="1" stop-color="#FFB600"/>
</linearGradient>
<linearGradient id="paint4_linear_276_2676" x1="27.4964" y1="50.1297" x2="30.7663" y2="50.1297" gradientUnits="userSpaceOnUse">
<stop stop-color="#AE924A"/>
<stop offset="1" stop-color="#FFB600"/>
</linearGradient>
<clipPath id="clip0_276_2676">
<rect width="70" height="70" fill="white" transform="translate(0.166992)"/>
</clipPath>
</defs>
</svg>
