<svg width="71" height="70" viewBox="0 0 71 70" fill="none" xmlns="http://www.w3.org/2000/svg">
<g clip-path="url(#clip0_276_2671)">
<path fill-rule="evenodd" clip-rule="evenodd" d="M28.7635 6.72984L31.435 8.87715L30.5358 12.1846C30.3835 12.7452 30.5887 13.3279 31.0585 13.6694C31.2947 13.8425 31.5798 13.9359 31.8726 13.9363C32.1355 13.9363 32.3991 13.8603 32.6324 13.7077L35.4999 11.8305L38.3677 13.7077C38.8539 14.0258 39.4716 14.0112 39.9423 13.669C40.4117 13.3275 40.6166 12.7449 40.4643 12.1845L39.5651 8.87715L42.2365 6.72998C42.6893 6.36644 42.8659 5.77445 42.6868 5.22197C42.5074 4.66908 42.0165 4.29352 41.436 4.26535L38.0125 4.09842L36.796 0.894277V0.894004C36.5896 0.350957 36.081 0 35.5 0C34.919 0 34.4103 0.350957 34.2041 0.894004L32.9876 4.09842L29.5643 4.26535C28.9836 4.29352 28.4925 4.66908 28.3137 5.22088C28.1336 5.77391 28.3106 6.36644 28.7635 6.72984ZM33.6178 6.25775C33.8872 6.24477 34.147 6.15343 34.3652 5.99494C34.5835 5.83645 34.7507 5.6177 34.8464 5.36553L35.4999 3.6441L36.1534 5.36566C36.2491 5.61775 36.4163 5.83644 36.6344 5.99491C36.8526 6.15337 37.1123 6.24472 37.3816 6.25775L39.2206 6.34744L37.7854 7.50094C37.5752 7.66986 37.4189 7.89645 37.3355 8.15291C37.2522 8.40938 37.2455 8.6846 37.3162 8.94482L37.7992 10.7216L36.2595 9.71373C36.0339 9.56571 35.7699 9.48681 35.5001 9.48671C35.2302 9.48661 34.9662 9.56533 34.7404 9.71318L33.1999 10.7216L33.6831 8.94428C33.7538 8.68412 33.747 8.40898 33.6636 8.15261C33.5803 7.89623 33.4239 7.66975 33.2137 7.50094L31.7787 6.34744L33.6178 6.25775ZM44.1811 9.6868L46.8528 11.834L45.9536 15.1415C45.8013 15.702 46.0065 16.2847 46.4762 16.6262C46.7125 16.7993 46.9976 16.8927 47.2904 16.8931C47.5533 16.8931 47.8169 16.8171 48.0501 16.6645L50.9178 14.7874L53.7856 16.6645C54.2715 16.9825 54.8888 16.9678 55.3602 16.6258C55.8297 16.2843 56.0347 15.7016 55.8822 15.1415L54.983 11.834L57.6544 9.68693C58.1074 9.32271 58.2841 8.73045 58.1047 8.17879C57.9253 7.6259 57.4344 7.25033 56.8539 7.22217L53.4304 7.05523L52.2139 3.85109V3.85082C52.0076 3.30777 51.499 2.95682 50.9181 2.95682C50.337 2.95682 49.8283 3.30777 49.6221 3.85082L48.4056 7.05523L44.9823 7.22217C44.4017 7.25033 43.9106 7.6259 43.7317 8.17769C43.5518 8.73004 43.7282 9.32217 44.1811 9.6868ZM49.0357 9.21443C49.3052 9.20145 49.5649 9.11011 49.7831 8.95162C50.0014 8.79313 50.1686 8.57437 50.2643 8.32221L50.9177 6.60078L51.5713 8.32234C51.667 8.57443 51.8342 8.79312 52.0523 8.95159C52.2705 9.11005 52.5302 9.2014 52.7995 9.21443L54.6385 9.30412L53.2032 10.4578C52.993 10.6266 52.8366 10.8532 52.7532 11.1096C52.6699 11.3661 52.6633 11.6413 52.7341 11.9015L53.2172 13.6783L51.6774 12.6704C51.4518 12.5223 51.1878 12.4433 50.9179 12.4432C50.648 12.4431 50.3839 12.5219 50.1582 12.6699L48.6178 13.6782L49.101 11.9012C49.1716 11.641 49.1649 11.3659 49.0815 11.1094C48.9981 10.853 48.8418 10.6265 48.6316 10.4576L47.1965 9.30412L49.0357 9.21443ZM13.3455 9.6868L16.0169 11.834L15.1182 15.1405C14.9652 15.7015 15.1701 16.2846 15.6404 16.6264C15.8767 16.7994 16.1619 16.8928 16.4547 16.8934C16.7178 16.8934 16.9814 16.8174 17.2143 16.6646L20.082 14.7875L22.9498 16.6646C23.436 16.9829 24.0535 16.968 24.5239 16.6264C24.9938 16.285 25.1988 15.7021 25.0464 15.1416L24.1472 11.8341L26.8194 9.68652C27.2719 9.3223 27.4483 8.73018 27.2689 8.17893C27.0895 7.62603 26.5986 7.25047 26.0181 7.2223L22.5946 7.05537L21.3781 3.85123V3.85096C21.1718 3.30791 20.6632 2.95695 20.0823 2.95695C19.5007 2.95695 18.9918 3.30832 18.7866 3.85096L17.5699 7.05537L14.1465 7.2223C13.5665 7.25047 13.0756 7.62562 12.8955 8.17893C12.7163 8.73113 12.8929 9.32299 13.3455 9.6868ZM18.1999 9.21443C18.4693 9.20153 18.7291 9.11021 18.9473 8.95171C19.1656 8.79321 19.3328 8.57441 19.4283 8.32221L20.082 6.60092L20.7355 8.32234C20.8312 8.57443 20.9984 8.79312 21.2165 8.95159C21.4347 9.11005 21.6943 9.2014 21.9637 9.21443L23.8027 9.30412L22.3667 10.458C22.1568 10.6271 22.0008 10.8536 21.9176 11.1099C21.8344 11.3663 21.8277 11.6413 21.8983 11.9014L22.3813 13.6782L20.8416 12.6703C20.616 12.5223 20.352 12.4434 20.0822 12.4433C19.8123 12.4432 19.5483 12.5219 19.3225 12.6697L17.7821 13.678L18.2651 11.9011C18.3359 11.6409 18.3292 11.3657 18.2458 11.1093C18.1624 10.8528 18.006 10.6263 17.7958 10.4575L16.3607 9.30398L18.1999 9.21443ZM24.3247 26.6104C25.1452 25.7566 25.6515 24.5983 25.6515 23.3234C25.6515 20.7056 23.5217 18.5757 20.9038 18.5757C18.2859 18.5757 16.1561 20.7055 16.1561 23.3234C16.1561 24.5987 16.6625 25.7574 17.4837 26.6112C15.3549 27.5643 13.681 29.3936 12.9543 31.7401C12.6928 32.5844 12.8423 33.4749 13.3643 34.1831C13.8865 34.8914 14.693 35.2976 15.5771 35.2976H24.8024V36.1562C24.8024 38.1827 26.4512 39.8314 28.4776 39.8314H42.5225C44.5486 39.8314 46.1975 38.1827 46.1976 36.1562V35.298H55.423C56.3071 35.298 57.1135 34.8917 57.6358 34.1835C58.1578 33.4752 58.3072 32.5847 58.0457 31.7403C57.3191 29.3938 55.645 27.5645 53.5164 26.6115C54.3376 25.7575 54.844 24.599 54.844 23.3237C54.844 20.7059 52.7142 18.576 50.0963 18.576C47.4784 18.576 45.3486 20.7058 45.3486 23.3237C45.3486 24.5986 45.8547 25.7567 46.6753 26.6105C45.6421 27.0746 44.7158 27.7471 43.9546 28.5858C42.7671 27.077 41.1967 25.9141 39.4071 25.2185C40.6739 24.1216 41.4777 22.5035 41.4777 20.7002C41.4777 17.4042 38.7962 14.7224 35.5 14.7224C32.2039 14.7224 29.5223 17.404 29.5223 20.7002C29.5223 22.5035 30.3261 24.1216 31.5929 25.2185C29.8033 25.9142 28.2329 27.077 27.0454 28.5858C26.2842 27.747 25.3579 27.0745 24.3247 26.6104ZM20.9038 20.7632C22.3154 20.7632 23.464 21.9116 23.464 23.3234C23.464 24.7352 22.3156 25.8836 20.9038 25.8836C19.4921 25.8836 18.3436 24.7352 18.3436 23.3234C18.3436 21.9116 19.4922 20.7632 20.9038 20.7632ZM15.1253 32.8852C15.0728 32.8148 15.038 32.7328 15.0238 32.6461C15.0096 32.5593 15.0165 32.4705 15.0439 32.387C15.8436 29.8054 18.1983 28.071 20.9037 28.071C22.8707 28.071 24.6671 28.9863 25.8221 30.5435C25.4269 31.3591 25.1368 32.2215 24.9589 33.1101H15.5771C15.4893 33.1116 15.4024 33.092 15.3237 33.0529C15.2451 33.0137 15.177 32.9562 15.1253 32.8852ZM47.5359 23.3237C47.5359 21.912 48.6844 20.7635 50.0961 20.7635C51.5079 20.7635 52.6563 21.9119 52.6563 23.3237C52.6563 24.7354 51.5079 25.8839 50.0961 25.8839C48.6844 25.8839 47.5359 24.7353 47.5359 23.3237ZM50.0961 28.0712C52.8017 28.0712 55.1565 29.8058 55.9559 32.3874C55.9833 32.4709 55.9902 32.5597 55.976 32.6464C55.9619 32.7331 55.9272 32.8152 55.8747 32.8856C55.8229 32.9566 55.7548 33.0142 55.6762 33.0533C55.5975 33.0925 55.5106 33.1122 55.4227 33.1107H46.0409C45.8629 32.222 45.5729 31.3595 45.1777 30.5438C46.3325 28.9867 48.1292 28.0712 50.0961 28.0712ZM35.5 16.9099C37.5899 16.9099 39.2902 18.6103 39.2902 20.7002C39.2902 22.7901 37.5899 24.4903 35.5 24.4903C33.4102 24.4903 31.7098 22.7901 31.7098 20.7002C31.7098 18.6103 33.4102 16.9099 35.5 16.9099ZM35.4999 26.6777C39.8696 26.6777 43.5181 29.9351 44.01 34.264V36.1562C44.0098 36.9765 43.3425 37.644 42.5223 37.644H28.4776C27.6573 37.644 26.9899 36.9767 26.9899 36.1564V34.264C27.4818 29.9351 31.1302 26.6777 35.4999 26.6777ZM67.6344 44.5181C67.0074 43.4712 64.4353 40.3625 57.662 44.3075L45.7727 51.2323C45.2087 51.5607 44.6356 51.7975 44.0392 51.9449C44.2524 51.5858 44.4207 51.1839 44.5389 50.7425C45.1518 48.4542 43.7924 46.0652 41.444 45.3038C41.3971 45.2888 41.3492 45.2767 41.3007 45.2678C37.8872 44.6522 34.5166 43.4336 31.8082 42.4546C30.8661 42.114 29.9765 41.7923 29.2195 41.5469C26.1604 40.5542 23.3999 41.7808 21.1022 43.1111L12.2905 48.2128L11.3433 46.5391C10.9702 45.8795 10.3606 45.4043 9.62712 45.2011C8.89389 44.998 8.12636 45.0915 7.4671 45.4649L4.1313 47.3528C2.76643 48.1253 2.28436 49.8641 3.05696 51.2291L12.8642 68.558C13.3869 69.4816 14.352 70.0008 15.3443 70.0008C15.8186 70.0008 16.2991 69.8821 16.7405 69.6324L20.0764 67.7444C20.7358 67.3712 21.211 66.7617 21.4142 66.0282C21.6175 65.2947 21.524 64.5275 21.1506 63.868L20.2909 62.3491L22.2601 61.2123L37.4724 65.2883C38.3359 65.5197 39.1837 65.6352 40.0131 65.6352C41.6669 65.6352 43.2479 65.1759 44.7359 64.2597L66.3122 50.9739C68.2964 49.7526 68.9265 46.6755 67.6344 44.5181ZM19.3065 65.444C19.284 65.5271 19.2453 65.605 19.1926 65.673C19.1398 65.7411 19.0741 65.7981 18.9992 65.8406L15.6632 67.7287C15.5882 67.771 15.5056 67.798 15.42 67.8082C15.3345 67.8184 15.2478 67.8115 15.1649 67.788C15.0818 67.7655 15.0039 67.7268 14.9358 67.674C14.8677 67.6213 14.8107 67.5556 14.7682 67.4807L4.96077 50.1516C4.91846 50.0765 4.89143 49.9939 4.88125 49.9083C4.87106 49.8228 4.87792 49.7361 4.90143 49.6532C4.92396 49.5701 4.96272 49.4922 5.0155 49.4241C5.06827 49.356 5.13401 49.299 5.20891 49.2565L8.54471 47.3685C8.64196 47.3135 8.7518 47.2846 8.86354 47.2846C8.92343 47.2846 8.98358 47.2928 9.04305 47.3093C9.1262 47.3318 9.20406 47.3705 9.27213 47.4233C9.34021 47.476 9.39716 47.5418 9.43968 47.6167L17.8565 62.4885C17.8569 62.4893 17.8572 62.4902 17.8577 62.4909L17.8587 62.4925L19.2471 64.9455C19.3326 65.0966 19.3537 65.2736 19.3065 65.444ZM65.1656 49.1113L43.5893 62.3971C41.8878 63.4447 40.02 63.7068 38.0388 63.1753L22.3889 58.982C22.2501 58.9448 22.1054 58.9353 21.963 58.954C21.8207 58.9728 21.6833 59.0194 21.559 59.0912L19.2136 60.4451L13.3682 50.1167L22.1984 45.0043C24.1732 43.8609 26.3089 42.9023 28.5446 43.6279C29.267 43.8621 30.1001 44.1632 31.0646 44.5119C33.8298 45.5116 37.2662 46.7538 40.8332 47.4064C42.0545 47.8346 42.7374 49.0141 42.4258 50.1766C42.0161 51.7057 40.7398 51.8969 39.724 51.7804C37.9747 51.4207 36.3116 50.946 34.5519 50.4435C33.7166 50.2049 32.8526 49.9581 31.9645 49.7202C31.6843 49.6452 31.3858 49.6845 31.1345 49.8295C30.8833 49.9745 30.7 50.2134 30.6249 50.4936C30.5499 50.7738 30.5892 51.0724 30.7342 51.3236C30.8792 51.5748 31.1181 51.7581 31.3983 51.8332C32.2691 52.0665 33.1241 52.3106 33.951 52.5469C35.7662 53.0653 37.4808 53.5551 39.3279 53.9327C39.335 53.9342 39.3421 53.9346 39.3491 53.936C39.3566 53.9373 39.3637 53.9395 39.3714 53.9407L40.8497 54.1811C43.0702 54.5367 45.0404 54.1903 46.8733 53.123L58.7626 46.1982C62.1644 44.2173 64.7793 44.0094 65.7575 45.6425C66.4306 46.7656 66.1319 48.5164 65.1656 49.1113ZM9.62616 50.916C9.65041 51.0715 9.64361 51.2302 9.60614 51.3831C9.56867 51.5359 9.50129 51.6798 9.40787 51.8065C9.31446 51.9331 9.19688 52.04 9.06192 52.121C8.92695 52.2019 8.77729 52.2553 8.62157 52.2781C8.46585 52.3008 8.30716 52.2925 8.15467 52.2536C8.00219 52.2147 7.85893 52.1459 7.73317 52.0513C7.60742 51.9567 7.50166 51.8381 7.42201 51.7023C7.34236 51.5666 7.2904 51.4164 7.26913 51.2605C7.2267 50.9495 7.30878 50.6342 7.49752 50.3834C7.68626 50.1325 7.9664 49.9663 8.27702 49.9209C8.58764 49.8755 8.90363 49.9546 9.15627 50.1409C9.40892 50.3273 9.57779 50.6058 9.62616 50.916Z" fill="url(#paint0_linear_276_2671)"/>
</g>
<defs>
<linearGradient id="paint0_linear_276_2671" x1="2.69411" y1="35.007" x2="68.2978" y2="35.007" gradientUnits="userSpaceOnUse">
<stop stop-color="#AE924A"/>
<stop offset="1" stop-color="#FFB600"/>
</linearGradient>
<clipPath id="clip0_276_2671">
<rect width="70" height="70" fill="white" transform="translate(0.5)"/>
</clipPath>
</defs>
</svg>
