<svg width="55" height="56" viewBox="0 0 55 56" fill="none" xmlns="http://www.w3.org/2000/svg">
<circle cx="27.5" cy="27.9424" r="27.5" fill="#00CFFF"/>
<path d="M35.9688 31.5361L35.2188 34.6924C35.125 35.1611 34.75 35.4736 34.2812 35.4736C26.4062 35.4424 20 29.0361 20 21.1611C20 20.6924 20.2812 20.3174 20.75 20.2236L23.9062 19.4736C24.3438 19.3799 24.8125 19.6299 25 20.0361L26.4688 23.4424C26.625 23.8486 26.5312 24.3174 26.1875 24.5674L24.5 25.9424C25.5625 28.0986 27.3125 29.8486 29.5 30.9111L30.875 29.2236C31.125 28.9111 31.5938 28.7861 32 28.9424L35.4062 30.4111C35.8125 30.6299 36.0625 31.0986 35.9688 31.5361Z" fill="white"/>
</svg>
