<svg width="140" height="49" viewBox="0 0 140 49" fill="none" xmlns="http://www.w3.org/2000/svg">
<path d="M65.7353 14.5922C64.9897 14.5689 64.3839 15.1515 64.3606 15.8738C64.3606 15.8971 64.3606 15.9437 64.3606 15.967V22.5845C61.1683 20.0214 56.4848 20.534 53.9217 23.7262C52.8732 25.0544 52.2907 26.6854 52.2907 28.3864C52.2207 32.4874 55.4829 35.866 59.5839 35.9359C63.6848 36.0058 67.0635 32.7437 67.1334 28.6427C67.1334 28.5495 67.1334 28.4796 67.1334 28.3864V15.967C67.1334 15.5942 66.9936 15.2447 66.7373 14.9883C66.4576 14.732 66.1081 14.5922 65.7353 14.5922ZM63.9877 30.1806C63.5217 31.299 62.6363 32.1845 61.5178 32.6738C60.3528 33.1631 59.0479 33.1631 57.8829 32.6738C56.7644 32.2078 55.9023 31.299 55.4363 30.2039C54.947 29.0621 54.947 27.7573 55.4363 26.5922C55.9023 25.4738 56.7877 24.5883 57.8829 24.1223C59.0479 23.633 60.3528 23.633 61.5178 24.1223C62.6363 24.6116 63.5217 25.4971 63.9877 26.6155C64.4771 27.734 64.4771 29.0388 63.9877 30.1806Z" fill="#0091E2"/>
<path d="M81.2304 23.1437C78.3411 20.2544 73.6343 20.2544 70.745 23.1437C69.3469 24.5417 68.578 26.4291 68.578 28.3864C68.5081 32.4874 71.7702 35.866 75.8712 35.9359C79.9722 36.0058 83.3508 32.7437 83.4207 28.6427C83.4207 28.5495 83.4207 28.4796 83.4207 28.3864C83.4207 27.4078 83.2343 26.4524 82.8615 25.5437C82.4887 24.6349 81.9295 23.8194 81.2304 23.1437ZM80.2751 30.1573C80.0421 30.7165 79.6926 31.2058 79.2731 31.6252C78.8537 32.0446 78.3411 32.3942 77.8052 32.6272C76.6401 33.1165 75.3353 33.1165 74.1702 32.6272C73.0518 32.1611 72.1664 31.2524 71.7003 30.1573C71.211 29.0155 71.211 27.7107 71.7003 26.5456C72.1664 25.4272 73.0518 24.565 74.1702 24.0757C75.3353 23.5864 76.6401 23.5864 77.8052 24.0757C78.3644 24.3087 78.8537 24.6582 79.2731 25.0777C79.6926 25.4971 80.0421 26.0097 80.2751 26.5456C80.7644 27.734 80.7644 29.0388 80.2751 30.1573Z" fill="#0091E2"/>
<path d="M111.918 22.3282C111.918 22.1418 111.871 21.9554 111.801 21.7923C111.731 21.6292 111.615 21.4894 111.498 21.3496C111.382 21.2331 111.219 21.1166 111.056 21.0467C110.892 20.9768 110.706 20.9302 110.52 20.9302C110.263 20.9302 110.007 21.0001 109.774 21.1399L101.852 26.2894V15.9903C101.852 15.6175 101.712 15.268 101.456 15.0117C101.199 14.7554 100.85 14.5923 100.477 14.5923C99.708 14.5923 99.1022 15.1981 99.0789 15.967C99.0789 15.967 99.0789 15.967 99.0789 15.9903V34.3981C99.0789 34.7709 99.2187 35.1204 99.475 35.3768C99.7313 35.6564 100.081 35.7962 100.454 35.7962C100.826 35.7962 101.176 35.6564 101.432 35.3768C101.689 35.1204 101.852 34.7709 101.828 34.3981V29.6214L103.436 28.5729L109.564 35.4467C109.821 35.6797 110.147 35.8195 110.496 35.7962C110.683 35.7962 110.869 35.7729 111.032 35.6797C111.195 35.6098 111.335 35.5166 111.475 35.3768C111.591 35.237 111.708 35.0971 111.778 34.934C111.848 34.7709 111.894 34.5845 111.894 34.3981C111.894 34.0486 111.755 33.6991 111.522 33.4428L105.836 27.035L111.382 23.4234C111.755 23.1903 111.941 22.7709 111.918 22.3282Z" fill="#0091E2"/>
<path d="M88.9197 25.0776C89.3391 24.6582 89.8517 24.3087 90.4109 24.0757C90.9935 23.8427 91.5993 23.7029 92.2284 23.7029C92.7877 23.7029 93.3236 23.7961 93.8362 23.9825C94.3488 24.1922 94.8381 24.4718 95.2576 24.8446C95.5139 25.0543 95.8401 25.1475 96.1663 25.1475C96.5391 25.1708 96.9119 25.031 97.1682 24.7514C97.4245 24.4951 97.5643 24.1223 97.5643 23.7495C97.5643 23.3534 97.4012 22.9572 97.075 22.7009C95.7469 21.5126 94.0226 20.8602 92.2284 20.9068C88.1275 20.9068 84.7954 24.2388 84.7954 28.3398C84.7954 32.4407 88.1042 35.7495 92.1818 35.7728C93.976 35.7728 95.7003 35.1436 97.0517 33.9786C97.3313 33.7223 97.4944 33.3495 97.4944 32.9534C97.5177 32.2077 96.9352 31.6019 96.2129 31.5786C96.1896 31.5786 96.143 31.5786 96.1197 31.5786C95.7935 31.5786 95.4906 31.6718 95.2343 31.8582C94.8148 32.231 94.3488 32.5106 93.8362 32.7203C93.3236 32.9067 92.7643 33 92.2284 33C91.5993 33 90.9935 32.8834 90.4109 32.6271C89.8517 32.3941 89.3624 32.0446 88.9197 31.6252C87.1022 29.8077 87.1022 26.8718 88.8964 25.0543C88.9197 25.1009 88.9197 25.1009 88.9197 25.0776Z" fill="#0091E2"/>
<path d="M139.436 21.8854C139.157 21.6291 138.854 21.4427 138.504 21.3262C138.108 21.1864 137.689 21.0932 137.269 21.0466C136.85 21 136.431 20.9767 136.011 20.9767C135.172 20.9767 134.31 21.1165 133.518 21.4194C132.726 21.699 132.003 22.1184 131.351 22.6311V22.3514C131.328 21.5825 130.675 21 129.906 21.0233C129.184 21.0466 128.601 21.6291 128.578 22.3514V34.4446C128.601 35.2136 129.254 35.7961 130.023 35.7728C130.745 35.7495 131.328 35.167 131.351 34.4446V28.4097C131.351 27.7806 131.467 27.1747 131.724 26.5922C131.957 26.033 132.283 25.5437 132.726 25.1243C133.145 24.7048 133.658 24.3553 134.194 24.1223C134.776 23.8893 135.382 23.7495 136.011 23.7495C136.64 23.7495 137.246 23.866 137.829 24.0757C138.015 24.1689 138.201 24.2155 138.411 24.2155C138.598 24.2155 138.784 24.1922 138.947 24.099C139.11 24.0291 139.25 23.9359 139.39 23.7961C139.506 23.6796 139.623 23.5165 139.693 23.3534C139.763 23.1903 139.809 23.0039 139.809 22.8175C139.832 22.4679 139.693 22.1417 139.436 21.8854Z" fill="#0091E2"/>
<path d="M126.574 25.5437C125.386 22.7942 122.683 21 119.7 20.9767C115.599 20.9767 112.291 24.2854 112.267 28.3864C112.267 32.4874 115.599 35.8194 119.7 35.8194C121.471 35.8194 123.195 35.1903 124.547 34.0252C124.57 34.0019 124.594 33.9786 124.594 33.9786C124.71 33.8854 124.827 33.7689 124.896 33.6291C125.339 32.9767 125.176 32.1145 124.547 31.6718C124.011 31.3223 123.312 31.3922 122.846 31.8349C122.799 31.8815 122.66 31.998 122.66 32.0213L122.636 32.0446C122.24 32.3709 121.797 32.6505 121.308 32.8136C120.795 33 120.26 33.0932 119.7 33.0699C119.188 33.0699 118.698 33 118.209 32.8369C117.743 32.6738 117.3 32.4641 116.904 32.1611C116.508 31.8815 116.159 31.532 115.879 31.1359C115.576 30.7398 115.366 30.2738 115.227 29.8078H125.712C126.085 29.8078 126.434 29.6679 126.691 29.4116C126.97 29.1553 127.11 28.8058 127.087 28.433C127.11 27.4311 126.924 26.4524 126.574 25.5437ZM115.227 27.0349C115.366 26.5456 115.576 26.1029 115.879 25.7068C116.159 25.3107 116.508 24.9611 116.904 24.6815C117.3 24.4019 117.743 24.1689 118.209 24.0058C118.675 23.8427 119.188 23.7728 119.677 23.7728C120.166 23.7728 120.679 23.8427 121.145 24.0058C122.077 24.3087 122.893 24.9146 123.475 25.7068C123.778 26.1029 123.988 26.5689 124.151 27.0349H115.227Z" fill="#0091E2"/>
<path d="M134.706 33.7922C134.17 33.7922 133.751 34.235 133.751 34.7709C133.751 35.3068 134.193 35.7262 134.729 35.7262C135.265 35.7262 135.685 35.2835 135.685 34.7709C135.685 34.2117 135.242 33.7922 134.706 33.7922ZM134.706 35.5165C134.287 35.5398 133.937 35.2136 133.914 34.7942C133.891 34.3748 134.217 34.0252 134.636 34.0019C135.056 33.9786 135.405 34.3049 135.428 34.7243C135.428 34.7476 135.428 34.7476 135.428 34.7709C135.452 35.167 135.125 35.5165 134.729 35.5165C134.729 35.5165 134.729 35.5165 134.706 35.5165Z" fill="#0091E2"/>
<path d="M134.939 34.7708C135.056 34.7475 135.125 34.6543 135.125 34.5378C135.125 34.4446 135.102 34.3747 135.032 34.3281C134.939 34.2815 134.823 34.2582 134.706 34.2582C134.59 34.2582 134.45 34.2582 134.333 34.2815V35.2368H134.543V34.864H134.636C134.753 34.864 134.823 34.9106 134.846 35.0038C134.869 35.0737 134.892 35.1669 134.916 35.2368H135.149C135.102 35.1669 135.079 35.0737 135.079 35.0038C135.102 34.9106 135.032 34.8174 134.939 34.7708ZM134.659 34.7009H134.543V34.4213C134.59 34.4213 134.636 34.4213 134.659 34.4213C134.799 34.4213 134.869 34.4912 134.869 34.5611C134.892 34.6543 134.776 34.7242 134.659 34.7009Z" fill="#0091E2"/>
<path d="M49.7506 17.7146C49.6108 17.5981 48.3526 16.6427 45.6497 16.6427C44.9506 16.6427 44.2283 16.7127 43.5293 16.8292C43.0166 13.2641 40.0574 11.5398 39.9409 11.4466L39.2186 11.0272L38.7526 11.7029C38.17 12.6117 37.7273 13.6369 37.471 14.6855C36.9817 16.7127 37.2846 18.6233 38.3098 20.2544C37.0749 20.9534 35.071 21.1165 34.6516 21.1398H1.56421C0.702071 21.1398 0.00304118 21.8389 0.00304118 22.701C-0.0435608 25.5903 0.44576 28.4796 1.4477 31.2059C2.58945 34.1884 4.29042 36.402 6.48071 37.7534C8.95062 39.268 12.9817 40.1301 17.5254 40.1301C19.5759 40.1301 21.6263 39.9437 23.6535 39.5709C26.473 39.0583 29.1759 38.0797 31.6691 36.6583C33.7196 35.4699 35.5603 33.9554 37.1215 32.1845C39.7545 29.2253 41.3157 25.9165 42.4574 22.9806C42.6205 22.9806 42.7603 22.9806 42.9234 22.9806C45.7895 22.9806 47.5603 21.8389 48.539 20.8602C49.1914 20.2544 49.6807 19.5088 50.0302 18.6699L50.2399 18.0641L49.7506 17.7146Z" fill="#0091E2"/>
<path d="M4.64001 20.1845H9.0672C9.27691 20.1845 9.46331 20.0214 9.46331 19.7884V15.8273C9.46331 15.6176 9.30021 15.4312 9.0672 15.4312H4.64001C4.4303 15.4312 4.2439 15.5943 4.2439 15.8273V19.7884C4.2672 20.0214 4.4303 20.1845 4.64001 20.1845Z" fill="#0091E2"/>
<path d="M10.745 20.1845H15.1722C15.3819 20.1845 15.5683 20.0214 15.5683 19.7884V15.8273C15.5683 15.6176 15.4052 15.4312 15.1722 15.4312H10.745C10.5353 15.4312 10.3489 15.5943 10.3489 15.8273V19.7884C10.3722 20.0214 10.5353 20.1845 10.745 20.1845Z" fill="#0091E2"/>
<path d="M16.9664 20.1845H21.3936C21.6033 20.1845 21.7897 20.0214 21.7897 19.7884V15.8273C21.7897 15.6176 21.6266 15.4312 21.3936 15.4312H16.9664C16.7567 15.4312 16.5703 15.5943 16.5703 15.8273V19.7884C16.5703 20.0214 16.7334 20.1845 16.9664 20.1845Z" fill="#0091E2"/>
<path d="M23.0944 20.1845H27.5215C27.7312 20.1845 27.9177 20.0214 27.9177 19.7884V15.8273C27.9177 15.6176 27.7545 15.4312 27.5215 15.4312H23.0944C22.8846 15.4312 22.6982 15.5943 22.6982 15.8273V19.7884C22.6982 20.0214 22.8846 20.1845 23.0944 20.1845Z" fill="#0091E2"/>
<path d="M10.745 14.5223H15.1722C15.3819 14.5223 15.5683 14.3359 15.5683 14.1262V10.165C15.5683 9.95533 15.4052 9.76892 15.1722 9.76892H10.745C10.5353 9.76892 10.3489 9.93203 10.3489 10.165V14.1262C10.3722 14.3359 10.5353 14.5223 10.745 14.5223Z" fill="#0091E2"/>
<path d="M16.9664 14.5223H21.3936C21.6033 14.5223 21.7897 14.3359 21.7897 14.1262V10.165C21.7897 9.95533 21.6266 9.76892 21.3936 9.76892H16.9664C16.7567 9.76892 16.5703 9.93203 16.5703 10.165V14.1262C16.5703 14.3359 16.7334 14.5223 16.9664 14.5223Z" fill="#0091E2"/>
<path d="M23.0944 14.5223H27.5215C27.7312 14.5223 27.9177 14.3359 27.9177 14.1262V10.165C27.9177 9.95533 27.7312 9.76892 27.5215 9.76892H23.0944C22.8846 9.76892 22.6982 9.93203 22.6982 10.165V14.1262C22.6982 14.3359 22.8846 14.5223 23.0944 14.5223Z" fill="#0091E2"/>
<path d="M23.0944 8.83689H27.5215C27.7312 8.83689 27.9177 8.67379 27.9177 8.44078V4.47962C27.9177 4.26991 27.7312 4.0835 27.5215 4.0835H23.0944C22.8846 4.0835 22.6982 4.24661 22.6982 4.47962V8.44078C22.6982 8.65049 22.8846 8.83689 23.0944 8.83689Z" fill="#0091E2"/>
<path d="M29.2692 20.1845H33.6964C33.9061 20.1845 34.0925 20.0214 34.0925 19.7884V15.8273C34.0925 15.6176 33.9294 15.4312 33.6964 15.4312H29.2692C29.0595 15.4312 28.873 15.5943 28.873 15.8273V19.7884C28.8963 20.0214 29.0595 20.1845 29.2692 20.1845Z" fill="#0091E2"/>
</svg>
