<svg width="123" height="49" viewBox="0 0 123 49" fill="none" xmlns="http://www.w3.org/2000/svg">
<path d="M52.2211 19.3167H56.8903L50.2551 36.0275H46.0774L39.3193 19.3167H44.1114L48.1663 30.4982L52.2211 19.3167ZM58.3648 35.9047H62.9111V19.3167H58.3648V35.9047ZM65 30.4982H69.5463C69.6692 31.6041 70.4064 32.7099 72.3724 32.7099C74.0927 32.7099 74.9528 32.0956 74.9528 31.2355C74.9528 28.4094 65.7372 31.1126 65.7372 24.4774C65.7372 21.4055 68.3176 18.9481 72.3724 18.9481C77.4103 18.9481 79.1305 22.1428 79.2534 24.6003H74.9528C74.8299 23.4944 74.0927 22.6343 72.4953 22.6343C71.0208 22.6343 70.1607 23.3715 70.1607 24.2316C70.1607 27.0577 79.3762 24.2316 79.3762 31.1126C79.3762 34.0616 76.7959 36.3962 72.3724 36.3962C67.0888 36.2733 65.2457 33.6929 65 30.4982ZM81.588 35.9047H86.1343V19.3167H81.588V35.9047ZM96.8243 32.3413C99.1589 32.3413 101.002 30.6211 101.002 27.5492C101.002 24.6003 99.1589 22.7572 96.8243 22.7572C94.4897 22.7572 92.6466 24.4774 92.6466 27.5492C92.6466 30.6211 94.4897 32.3413 96.8243 32.3413ZM88.1003 27.5492C88.1003 22.7572 91.5408 18.8252 96.8243 18.8252C102.108 18.8252 105.548 22.7572 105.548 27.5492C105.548 32.3413 102.108 36.2733 96.8243 36.2733C91.5408 36.2733 88.1003 32.3413 88.1003 27.5492ZM111.815 21.2827C112.552 19.8082 114.272 18.8252 116.73 18.8252C120.785 18.8252 122.874 21.5284 122.874 25.4604V35.9047H118.327V25.9519C118.327 23.9859 117.467 22.6343 115.501 22.6343C113.289 22.6343 112.061 23.9859 112.061 26.3205V35.9047H107.514V19.3167H111.815V21.2827Z" fill="#FF3366"/>
<path d="M0 45.9806H41.9V4.08057H0V45.9806Z" fill="#FF3366"/>
<path d="M14.7448 17.2284C16.0964 17.2284 17.2022 16.2454 17.2022 14.771C17.2022 13.4193 16.0964 12.3135 14.7448 12.3135C13.3932 12.3135 12.2873 13.2965 12.2873 14.771C12.2873 16.2454 13.3932 17.2284 14.7448 17.2284ZM9.58407 30.2531C9.46119 30.8674 9.33832 31.4818 9.33832 32.0962C9.33832 34.185 10.4442 35.6595 12.9017 35.6595C14.9905 35.6595 16.5879 34.4308 17.8166 32.4648L17.0794 35.4138H21.1342L23.4688 26.1982C24.0832 23.8636 25.1891 22.6349 26.9093 22.6349C28.2609 22.6349 29.121 23.495 29.121 24.8466C29.121 25.2152 29.121 25.7067 28.9981 26.1982L27.7694 30.4988C27.6465 31.1132 27.5237 31.7276 27.5237 32.3419C27.5237 34.3079 28.7524 35.7824 31.2099 35.7824C33.2987 35.7824 35.019 34.4308 36.002 31.1132L34.4046 30.4988C33.6674 32.7105 32.9301 33.0792 32.4386 33.0792C31.9471 33.0792 31.5785 32.7105 31.5785 31.9733C31.5785 31.6047 31.7014 31.2361 31.7014 30.8674L32.8072 26.6897C33.053 25.7067 33.1759 24.8466 33.1759 24.1094C33.1759 21.0375 31.3327 19.4402 28.9981 19.4402C26.9093 19.4402 24.6976 21.4061 23.5917 23.3721L24.3289 19.8088H18.1852L17.3251 23.0035H20.1512L18.431 29.7616C17.0794 32.8334 14.499 32.9563 14.1304 32.8334C13.6389 32.7105 13.2703 32.4648 13.2703 31.8504C13.2703 31.4818 13.3932 30.8674 13.516 30.2531L16.2193 19.563H9.46119L8.60107 22.7578H11.4272L9.58407 30.2531Z" fill="white"/>
</svg>
