<svg width="114" height="49" viewBox="0 0 114 49" fill="none" xmlns="http://www.w3.org/2000/svg">
<g clip-path="url(#clip0_85_1648)">
<path d="M31.2904 32.0643C28.107 32.0643 25.9996 29.6528 25.4117 28.7187C26.166 22.8094 28.3733 20.9411 31.2904 20.9411C34.1744 20.9411 36.415 23.2005 36.415 26.5026C36.415 29.8048 34.1744 32.0643 31.2904 32.0643ZM31.2904 17.313C26.0995 17.313 23.1933 20.6261 22.3614 24.0369C21.4186 22.2989 20.7198 19.9743 20.1763 17.8127H12.9998V26.557C12.9998 29.7289 11.5246 32.0751 8.64064 32.0751C5.75673 32.0751 4.10403 29.7289 4.10403 26.557L4.1373 17.8127H0V26.557C0 29.1097 0.84299 31.4234 2.38477 33.0745C3.97093 34.7799 6.13386 35.6706 8.64064 35.6706C13.632 35.6706 17.115 31.9231 17.115 26.557V20.6804C17.6362 22.6139 18.8786 26.3289 21.2522 29.5877L19.0339 41.9601H23.2377L24.7018 33.194C25.1788 33.585 25.689 33.9326 26.2325 34.2477C27.6411 35.1167 29.2495 35.6055 30.9133 35.6597C30.9133 35.6597 31.1684 35.6706 31.3015 35.6706C36.4482 35.6706 40.5411 31.7711 40.5411 26.5026C40.5411 21.2343 36.4371 17.313 31.2904 17.313Z" fill="#14A800"/>
<path d="M90.7324 19.6819V17.8136H86.6729V35.1175H90.788V28.3393C90.788 24.1681 91.1762 21.1701 96.8885 21.5611V17.6072C94.2264 17.4117 92.1522 17.9548 90.7324 19.6819Z" fill="#14A800"/>
<path d="M62.1607 17.814L59.177 29.9148L55.9935 17.814H50.7582L47.5637 29.9148L44.591 17.814H40.4204L44.9904 35.1289H49.9374L53.3759 22.8324L56.7811 35.1289H61.7281L66.5643 17.814H62.1607Z" fill="#14A800"/>
<path d="M75.6263 32.0751C72.698 32.0751 70.5018 29.8158 70.5018 26.5026C70.5018 23.1896 72.7092 20.9411 75.6263 20.9411C78.5103 20.9411 80.7509 23.2005 80.7509 26.5026C80.7509 29.8048 78.5103 32.0751 75.6263 32.0751ZM75.6263 17.313C70.4463 17.313 66.3867 21.2452 66.3867 26.5026C66.3867 31.7601 70.4463 35.6597 75.6263 35.6597C80.773 35.6597 84.866 31.7601 84.866 26.5026C84.866 21.2452 80.7841 17.313 75.6263 17.313Z" fill="#14A800"/>
<path d="M102.79 26.6117H103.744L109.49 35.1278H114.137L107.527 25.6883C110.732 24.4608 112.884 21.2564 112.884 17.813H108.78C108.78 21.5497 105.774 22.9618 102.79 22.9618V10.9805H98.6641V35.1278H102.779L102.79 26.6117Z" fill="#14A800"/>
</g>
<defs>
<clipPath id="clip0_85_1648">
<rect width="114" height="48" fill="white" transform="translate(0 0.980469)"/>
</clipPath>
</defs>
</svg>
