<svg width="170" height="49" viewBox="0 0 170 49" fill="none" xmlns="http://www.w3.org/2000/svg">
<path d="M3.83733 20.6345C3.83733 17.9942 2.5 15.8127 0 13.9805H5.81067C6.83498 14.7607 7.66491 15.7674 8.23555 16.9217C8.80618 18.0761 9.10205 19.3468 9.1 20.6345C9.10205 21.9223 8.80618 23.193 8.23555 24.3474C7.66491 25.5017 6.83498 26.5084 5.81067 27.2886C7.69733 28.0754 8.77067 29.9956 8.77067 32.7439V37.9805H3.50933V32.7439C3.50933 30.1263 2.26 28.2941 0.00133333 27.2899C2.50133 25.4564 3.83867 23.2762 3.83867 20.6359L3.83733 20.6345ZM15.24 20.6345C15.24 17.9942 13.9027 15.8127 11.4027 13.9805H17.2147C18.2387 14.7608 19.0684 15.7676 19.6388 16.9219C20.2092 18.0763 20.5049 19.3469 20.5027 20.6345C20.5049 21.9222 20.2092 23.1928 19.6388 24.3472C19.0684 25.5015 18.2387 26.5082 17.2147 27.2886C19.1 28.0754 20.1747 29.9956 20.1747 32.7439V37.9805H14.912V32.7439C14.912 30.1263 13.6613 28.2941 11.4027 27.2899C13.9027 25.4564 15.24 23.2762 15.24 20.6359V20.6345ZM26.6453 20.6345C26.6453 17.9942 25.308 15.8127 22.808 13.9805H28.6187C29.643 14.7607 30.4729 15.7674 31.0435 16.9217C31.6142 18.0761 31.91 19.3468 31.908 20.6345C31.91 21.9223 31.6142 23.193 31.0435 24.3474C30.4729 25.5017 29.643 26.5084 28.6187 27.2886C30.5053 28.0754 31.5787 29.9956 31.5787 32.7439V37.9805H26.316V32.7439C26.316 30.1263 25.0667 28.2941 22.808 27.2899C25.308 25.4564 26.6453 23.2762 26.6453 20.6359V20.6345ZM47.936 33.62H43.9467V18.3436H53.7493C58.464 18.3436 60.788 20.0905 60.788 22.9481C60.788 24.8897 59.648 26.3512 57.5213 27.0939C59.7133 27.4206 60.7 28.5768 60.7 30.6503V33.6173H56.6653V30.825C56.6653 29.0781 55.788 28.3807 53.4853 28.3807H47.9387V33.62H47.936ZM53.528 20.5692H47.936V26.1565H53.484C55.5013 26.1565 56.7507 25.043 56.7507 23.2975C56.7507 21.5733 55.5907 20.5692 53.528 20.5692ZM67.716 18.3436H63.7253V33.62H67.716V18.3436ZM79.952 28.6421H75.084V33.6173H71.092V18.3436H80.0387C84.7533 18.3436 87.232 20.3078 87.232 23.4509C87.232 26.7006 84.7107 28.6421 79.952 28.6421ZM79.864 20.5692H75.084V26.4165H79.82C81.8813 26.4165 83.1533 25.3697 83.1533 23.4722C83.1533 21.6173 81.8813 20.5692 79.864 20.5692ZM98.46 28.6421H93.592V33.6173H89.6V18.3436H98.5467C103.261 18.3436 105.74 20.3078 105.74 23.4509C105.74 26.7006 103.217 28.6421 98.46 28.6421ZM98.372 20.5692H93.592V26.4165H98.328C100.389 26.4165 101.661 25.3697 101.661 23.4722C101.661 21.6173 100.389 20.5692 98.372 20.5692ZM112.099 18.3436V31.3477H122.055V33.62H108.108V18.3436H112.099ZM128.543 18.3436H124.552V33.62H128.543V18.3436ZM134.552 23.4495V33.62H131.92V18.3436H134.905L145.781 28.5114V18.3436H148.413V33.62H145.431L134.552 23.4482V23.4495ZM161.44 20.1332C157.645 20.1332 155.168 22.5334 155.168 26.1112C155.168 29.6449 157.536 31.8278 161.22 31.8278H161.483C162.733 31.8278 164.136 31.5651 165.431 31.1517V27.0273H158.984V24.8457H169.333V32.0238C167.185 33.1373 163.939 34.0107 161.308 34.0107H160.957C154.904 34.0107 151.001 30.8237 151.001 26.1978C151.001 21.616 155.015 17.9516 161.176 17.9516H161.527C164.093 17.9516 167.031 18.7583 169.203 20.0238L168.061 21.8773C166.111 20.8092 163.785 20.1332 161.703 20.1332H161.44Z" fill="black"/>
</svg>
