<svg width="132" height="133" viewBox="0 0 132 133" fill="none" xmlns="http://www.w3.org/2000/svg">
<path d="M101.062 99.3136H117.562V66.3136H101.062V99.3136ZM109.312 72.5011V82.8136H115.5L109.312 93.1261V82.8136H103.125L109.312 72.5011Z" fill="#2A3334"/>
<path d="M111.375 113.751H107.25V117.876H111.375V113.751Z" fill="#2A3334"/>
<path d="M121.688 60.1261H96.9375C96.3905 60.1261 95.8659 60.3434 95.4791 60.7302C95.0923 61.117 94.875 61.6416 94.875 62.1886V107.564C94.875 108.111 95.0923 108.635 95.4791 109.022C95.8659 109.409 96.3905 109.626 96.9375 109.626H121.688C122.235 109.626 122.759 109.409 123.146 109.022C123.533 108.635 123.75 108.111 123.75 107.564V62.1886C123.75 61.6416 123.533 61.117 123.146 60.7302C122.759 60.3434 122.235 60.1261 121.688 60.1261ZM121.688 101.376C121.688 101.923 121.47 102.448 121.083 102.835C120.697 103.221 120.172 103.439 119.625 103.439H99C98.453 103.439 97.9284 103.221 97.5416 102.835C97.1548 102.448 96.9375 101.923 96.9375 101.376V64.2511C96.9375 63.7041 97.1548 63.1795 97.5416 62.7927C97.9284 62.4059 98.453 62.1886 99 62.1886H119.625C120.172 62.1886 120.697 62.4059 121.083 62.7927C121.47 63.1795 121.688 63.7041 121.688 64.2511V101.376ZM53.625 86.9386V62.1886C53.625 61.6416 53.4077 61.117 53.0209 60.7302C52.6341 60.3434 52.1095 60.1261 51.5625 60.1261H10.3125C9.76549 60.1261 9.24089 60.3434 8.85409 60.7302C8.4673 61.117 8.25 61.6416 8.25 62.1886V86.9386C8.25 87.4856 8.4673 88.0102 8.85409 88.397C9.24089 88.7838 9.76549 89.0011 10.3125 89.0011H51.5625C52.1095 89.0011 52.6341 88.7838 53.0209 88.397C53.4077 88.0102 53.625 87.4856 53.625 86.9386ZM30.9375 84.8761V74.5636H24.75L30.9375 64.2511V74.5636H37.125L30.9375 84.8761Z" fill="#2A3334"/>
<path d="M33 93.1261H28.875V95.1886H33V93.1261Z" fill="#2A3334"/>
<path d="M85.2015 23.0011H105.455L104.568 16.8136H84.459L85.2015 23.0011Z" fill="#2A3334"/>
<path d="M80.3142 16.8136H51.6867L50.9648 23.0011H81.0361L80.3142 16.8136Z" fill="#2A3334"/>
<path d="M86.3977 33.3136H106.94L106.053 27.1261H85.6758L86.3977 33.3136Z" fill="#2A3334"/>
<path d="M103.991 12.6886L103.393 8.5636H83.5107L83.9851 12.6886H103.991Z" fill="#2A3334"/>
<path d="M79.3439 8.5636H52.6552L52.1602 12.6886H79.8389L79.3439 8.5636Z" fill="#2A3334"/>
<path d="M46.3239 27.1261H25.9464L25.0596 33.3136H45.6021L46.3239 27.1261Z" fill="#2A3334"/>
<path d="M47.5402 16.8136H27.4308L26.5439 23.0011H46.7977L47.5402 16.8136Z" fill="#2A3334"/>
<path d="M48.4894 8.5636H28.6069L28.0088 12.6886H48.015L48.4894 8.5636Z" fill="#2A3334"/>
<path d="M81.5302 27.1261H50.4689L49.7471 33.3136H82.2521L81.5302 27.1261Z" fill="#2A3334"/>
<path d="M70.125 37.4386H61.875V41.5636H70.125V37.4386Z" fill="#2A3334"/>
<path d="M88.6875 113.751L80.4375 107.564V111.689H76.3125V99.3136H72.1875V113.751C72.1875 114.298 72.4048 114.823 72.7916 115.21C73.1784 115.596 73.703 115.814 74.25 115.814H80.4375V119.939L88.6875 113.751ZM43.3125 113.751L51.5625 119.939V115.814H57.75C58.297 115.814 58.8216 115.596 59.2084 115.21C59.5952 114.823 59.8125 114.298 59.8125 113.751V99.3136H55.6875V111.689H51.5625V107.564L43.3125 113.751Z" fill="#2A3334"/>
<path d="M41.25 97.2511H20.625V101.376H41.25V97.2511Z" fill="#2A3334"/>
<path d="M107.25 124.064H68.0625V43.6261H63.9375V124.064H33V103.439H28.875V126.126C28.875 126.673 29.0923 127.198 29.4791 127.585C29.8659 127.971 30.3905 128.189 30.9375 128.189H109.312C109.86 128.189 110.384 127.971 110.771 127.585C111.158 127.198 111.375 126.673 111.375 126.126V119.939H107.25V124.064Z" fill="#2A3334"/>
</svg>
