<svg width="56" height="56" viewBox="0 0 56 56" fill="none" xmlns="http://www.w3.org/2000/svg">
<path opacity="0.2" d="M19.2501 35.0002C25.5323 35.0002 30.6251 29.9075 30.6251 23.6252C30.6251 17.343 25.5323 12.2502 19.2501 12.2502C12.9679 12.2502 7.87509 17.343 7.87509 23.6252C7.87509 29.9075 12.9679 35.0002 19.2501 35.0002Z" fill="#0F9918"/>
<path d="M19.2501 35.0002C25.5323 35.0002 30.6251 29.9075 30.6251 23.6252C30.6251 17.343 25.5323 12.2502 19.2501 12.2502C12.9679 12.2502 7.87509 17.343 7.87509 23.6252C7.87509 29.9075 12.9679 35.0002 19.2501 35.0002Z" stroke="#0F9918" stroke-width="3" stroke-miterlimit="10"/>
<path d="M33.9963 12.6736C35.5609 12.2328 37.2017 12.1324 38.8083 12.3791C40.415 12.6259 41.9501 13.214 43.3102 14.104C44.6704 14.994 45.8241 16.1651 46.6935 17.5385C47.563 18.9118 48.128 20.4556 48.3506 22.0657C48.5732 23.6759 48.4482 25.315 47.9839 26.8728C47.5197 28.4305 46.727 29.8707 45.6593 31.0963C44.5916 32.3219 43.2737 33.3045 41.7942 33.9779C40.3148 34.6512 38.7083 34.9997 37.0828 34.9999" stroke="#0F9918" stroke-width="3" stroke-linecap="round" stroke-linejoin="round"/>
<path d="M3.49887 43.1805C5.27541 40.6535 7.63388 38.5911 10.3752 37.1673C13.1165 35.7435 16.1601 35.0001 19.2491 35C22.338 34.9999 25.3817 35.743 28.1231 37.1666C30.8645 38.5902 33.2231 40.6525 34.9999 43.1793" stroke="#0F9918" stroke-width="3" stroke-linecap="round" stroke-linejoin="round"/>
<path d="M37.0829 35C40.1722 34.9978 43.2165 35.74 45.9581 37.1637C48.6997 38.5875 51.0579 40.6509 52.833 43.1793" stroke="#0F9918" stroke-width="3" stroke-linecap="round" stroke-linejoin="round"/>
</svg>
