<svg width="44" height="45" viewBox="0 0 44 45" fill="none" xmlns="http://www.w3.org/2000/svg">
<rect y="0.5" width="44" height="44" rx="5" fill="white" fill-opacity="0.1"/>
<g clip-path="url(#clip0_15_5261)">
<path fill-rule="evenodd" clip-rule="evenodd" d="M29.8252 15.9361C30.6819 16.1668 31.3574 16.8422 31.5879 17.699C32.0164 19.2639 31.9999 22.5259 31.9999 22.5259C31.9999 22.5259 31.9999 25.7713 31.5881 27.3364C31.3574 28.193 30.682 28.8685 29.8252 29.0991C28.2602 29.511 22 29.511 22 29.511C22 29.511 15.7561 29.511 14.1747 29.0827C13.3179 28.852 12.6425 28.1765 12.4118 27.3199C12 25.7713 12 22.5094 12 22.5094C12 22.5094 12 19.2639 12.4118 17.699C12.6424 16.8423 13.3344 16.1504 14.1745 15.9198C15.7396 15.5078 21.9998 15.5078 21.9998 15.5078C21.9998 15.5078 28.2602 15.5078 29.8252 15.9361ZM25.2122 22.5094L20.0063 25.5077V19.511L25.2122 22.5094Z" fill="white"/>
</g>
<defs>
<clipPath id="clip0_15_5261">
<rect width="20" height="20" fill="white" transform="translate(12 12.5)"/>
</clipPath>
</defs>
</svg>
